<svg width="115" height="115" viewBox="0 0 115 115" fill="none" xmlns="http://www.w3.org/2000/svg">
<path fill-rule="evenodd" clip-rule="evenodd" d="M88.9295 55.016L89.9208 55.6036L89.9185 55.6013C91.709 56.6041 93.8193 57.2274 93.84 57.2343L94.7462 57.4988L93.8411 57.7633H93.84C93.779 57.7817 91.6929 58.4039 89.9185 59.3963L88.9272 59.9851C87.7024 60.7349 86.6686 61.3536 84.7699 61.3076C85.6416 61.8309 86.327 62.5071 86.7146 63.3236C86.948 63.8181 87.0676 64.3287 87.0676 64.8117C87.0676 65.167 87.0032 65.5074 86.8733 65.8145L86.7146 66.1917L86.4236 65.9019C86.0936 65.5707 85.4772 64.9554 82.9472 65.0256C80.2102 65.1026 79.6122 64.9876 78.2379 63.3834C76.6946 61.5825 75.6849 60.8511 75.2341 61.211C74.9409 61.4468 74.9156 61.6469 74.9213 61.7757C74.9409 62.1632 75.3514 62.8774 77.1995 64.0768C79.9089 65.8352 79.7927 68.4905 79.2959 69.782L79.12 70.2385L78.821 69.8521C78.3828 69.2886 77.748 69.2196 76.6636 69.1472L76.0667 69.1322C75.3468 69.1253 74.4441 69.1092 73.7552 68.6124C73.7955 68.824 73.8334 69.0379 73.8334 69.2656C73.8334 69.583 73.792 69.9165 73.7115 70.2604L73.5494 70.9412L73.2021 70.334C72.8306 69.6854 71.5817 69.161 69.4899 68.7757C67.9949 68.4997 66.7816 67.7361 66.1595 66.6804C65.642 65.8064 65.55 64.8025 65.8915 63.7778C66.1997 62.8544 66.9553 62.1448 68.0213 61.7791C68.9758 61.4514 70.0798 61.4594 70.8699 61.7308C70.1833 59.1353 66.0077 57.868 65.6776 57.7725H57.5494L57.485 57.8208L57.408 57.876C54.7768 59.7011 52.6976 62.3599 52.5699 64.0607C52.4354 65.857 52.7367 68.9597 56.2614 69.5658C57.8335 69.836 59.3457 69.3852 60.3083 68.3617C60.8465 67.7867 61.1397 67.0933 61.1397 66.4263C61.1397 66.2572 61.1202 66.0893 61.0822 65.9249C60.6866 64.2539 59.5435 63.8031 58.7983 63.6858C59.0571 64.0377 59.3101 64.5679 59.3101 65.3039L59.3078 65.4304C59.2825 66.0709 59.0352 66.6034 58.5913 66.9714C58.0842 67.3923 57.324 67.574 56.5616 67.4601C55.4645 67.2957 54.2846 66.2239 54.2846 64.2608C54.2846 62.5634 55.9843 60.6728 58.4246 60.6728C59.7206 60.6728 61.0696 61.5146 61.7837 62.7704C62.2518 63.5915 62.8394 65.2947 61.533 67.4946L61.4905 67.4693C61.3207 67.9426 61.0548 68.3756 60.7096 68.7412C59.6229 69.9004 57.9255 70.4122 56.1694 70.1097C53.2806 69.6129 51.7695 67.3934 52.0214 64.0205C52.1525 62.2794 54.0891 59.6677 56.6099 57.7737H49.3235C48.9911 57.8691 44.8155 59.1364 44.1301 61.732C44.9201 61.4606 46.0241 61.4537 46.9786 61.7803C48.0447 62.146 48.8002 62.8555 49.1084 63.779C49.45 64.8036 49.3568 65.8076 48.8405 66.6816C48.2183 67.7384 47.0039 68.5009 45.5089 68.7769C43.4171 69.1621 42.1682 69.6865 41.7979 70.3351L41.4529 70.9423L41.2896 70.2615C41.2106 69.9357 41.1693 69.602 41.1665 69.2668C41.1665 69.0391 41.2045 68.8252 41.247 68.6136C40.5582 69.1104 39.6531 69.1276 38.9344 69.1334L38.3387 69.1483C37.2542 69.2208 36.6194 69.2898 36.1813 69.8533L35.8823 70.2397L35.7063 69.7831C35.2095 68.4917 35.0922 65.8363 37.8016 64.0791C39.6497 62.8797 40.0614 62.1644 40.0786 61.7768C40.0867 61.648 40.0614 61.4479 39.767 61.2122C39.3162 60.8522 38.3065 61.5836 36.7632 63.3857C35.3878 64.9876 34.7909 65.1026 32.0551 65.0267C29.5262 64.9566 28.9098 65.5707 28.5786 65.9007L28.5775 65.9019L28.2877 66.1928L28.1267 65.8133C27.9962 65.496 27.9305 65.1559 27.9335 64.8128C27.9335 64.3298 28.0519 63.8181 28.2877 63.3236C28.6741 62.5071 29.3583 61.8309 30.2312 61.3065C28.3314 61.3536 27.2987 60.7349 26.0728 59.984L25.0815 59.3963C23.3093 58.4039 21.2221 57.7829 21.16 57.7633L20.2549 57.4988L21.1588 57.2343H21.16C21.2209 57.2159 23.3093 56.5938 25.0815 55.6013L26.0728 55.0125C27.2987 54.2627 28.3314 53.644 30.2312 53.6912C29.3583 53.1668 28.6741 52.4906 28.2877 51.6741C28.0609 51.2104 27.94 50.7021 27.9335 50.186C27.9335 49.8295 27.9979 49.4902 28.1278 49.1832L28.2888 48.806L28.5775 49.0969C28.911 49.4281 29.5262 50.0434 32.0551 49.9721C34.7921 49.8962 35.3878 50.0123 36.7632 51.6154C38.3065 53.4152 39.3162 54.1477 39.767 53.7878C40.0614 53.552 40.0867 53.3519 40.0798 53.2231C40.0614 52.8356 39.6497 52.1214 37.8016 50.922C35.0934 49.1648 35.2095 46.5094 35.7063 45.218L35.8811 44.7603L36.1801 45.1467C36.6194 45.7102 37.2542 45.7792 38.3387 45.8516L38.9344 45.8666C39.6531 45.8735 40.5582 45.8896 41.2459 46.3864C41.1981 46.1718 41.1715 45.953 41.1665 45.7332C41.1693 45.398 41.2106 45.0642 41.2896 44.7384L41.4517 44.0576L41.7979 44.6648C42.1682 45.3134 43.4171 45.8378 45.5089 46.2231C47.0039 46.4991 48.2183 47.2615 48.8416 48.3161C49.3568 49.1924 49.45 50.1952 49.1084 51.2198C48.7991 52.1433 48.0435 52.8528 46.9786 53.2185C46.0241 53.5463 44.9201 53.5382 44.1301 53.2668C44.8155 55.8624 48.9911 57.1297 49.3235 57.2251H57.3735C59.8701 55.4081 61.8102 52.8804 61.9332 51.2405C62.0678 49.4442 61.7676 46.3415 58.2417 45.7366C56.6708 45.4652 55.1574 45.9149 54.196 46.9395C53.6567 47.5122 53.3646 48.208 53.3646 48.875C53.3646 49.0452 53.3841 49.2131 53.4221 49.3764C53.8188 51.0473 54.9608 51.4993 55.706 51.6154C55.3638 51.1467 55.1845 50.5788 55.1954 49.9985V49.9364V49.872C55.2207 49.2326 55.4679 48.7002 55.9118 48.3322C56.4213 47.9124 57.1791 47.7296 57.9427 47.8434C59.0398 48.0079 60.2197 49.0785 60.2197 51.0427C60.2197 52.7401 58.52 54.6307 56.0797 54.6307C54.7848 54.6307 53.4347 53.7878 52.7217 52.5331C52.2537 51.7132 51.666 50.0089 52.9713 47.8089C52.9713 47.8089 53.0058 47.8319 53.0127 47.8342C53.1835 47.362 53.4488 46.9296 53.7924 46.5635C54.8814 45.4043 56.58 44.8925 58.3337 45.195C61.2225 45.6895 62.7359 47.909 62.4829 51.2831C62.3587 52.9333 60.6107 55.3644 58.2831 57.2263H65.6776C66.01 57.1308 70.1856 55.8635 70.871 53.268C70.081 53.5394 68.9758 53.5463 68.0225 53.2197C66.9564 52.854 66.2009 52.1444 65.8927 51.221C65.5511 50.1963 65.6431 49.1924 66.1606 48.3184C66.7828 47.2627 67.9972 46.5002 69.491 46.2254C71.584 45.839 72.8318 45.3146 73.2032 44.666L73.5505 44.0588L73.7115 44.7396C73.792 45.0846 73.8346 45.4169 73.8346 45.7343C73.8346 45.962 73.7978 46.1759 73.7564 46.3875C74.4464 45.8907 75.3491 45.8735 76.0679 45.8677L76.6659 45.8528C77.7492 45.7803 78.384 45.7113 78.8221 45.1478L79.1211 44.7614L79.2971 45.218C79.7927 46.5094 79.91 49.1659 77.2006 50.922C75.3526 52.1214 74.942 52.8367 74.9236 53.2243C74.9167 53.3531 74.9409 53.5532 75.2353 53.7878C75.6861 54.1489 76.6958 53.4175 78.2391 51.6166C79.6133 50.0123 80.2113 49.8973 82.9483 49.9732C85.4783 50.0445 86.0936 49.4281 86.4248 49.0981L86.7169 48.8071L86.8756 49.1866C87.0055 49.4925 87.0699 49.8341 87.0699 50.1871C87.0699 50.6701 86.9503 51.1819 86.7169 51.6764C86.3282 52.4929 85.6428 53.1691 84.7711 53.6935C86.6697 53.6463 87.7036 54.265 88.9283 55.016H88.9295ZM57.2263 52.1122L56.4408 52.1985H56.4397C56.4109 52.2031 53.5877 52.4802 52.8827 49.504C52.8811 49.4992 52.8803 49.4941 52.8804 49.4891L52.8793 49.4776C52.7872 49.8039 52.7358 50.1403 52.7263 50.4792C52.7263 51.1037 52.885 51.7063 53.1978 52.2583C53.8188 53.3462 54.9746 54.0776 56.0774 54.0776C58.1313 54.0776 59.6654 52.4745 59.6654 51.0416C59.6654 49.3948 58.7581 48.5231 57.8588 48.3874C57.2493 48.2954 56.6513 48.4334 56.2637 48.7565C55.9394 49.0245 55.7646 49.4074 55.7462 49.8927C55.6991 51.137 56.519 51.6683 56.5547 51.6902L57.2263 52.1122ZM43.9001 57.0929C43.6206 57.0273 39.1529 55.959 37.6556 54.9608C39.3495 56.58 41.7783 57.0963 41.7783 57.0963C41.7783 57.0963 35.5131 57.2435 34.1193 57.5011C35.5131 57.7587 41.7783 57.9059 41.7783 57.9059C41.7783 57.9059 39.3495 58.4211 37.6567 60.0415C39.2023 59.0111 43.9127 57.9059 43.9127 57.9059C43.9127 57.9059 41.7783 58.7155 40.8215 60.0415C43.0525 58.7029 46.115 58.0152 47.8768 57.7093C46.2553 58.382 43.7057 59.8011 43.4907 62.1506L43.4389 62.7256L43.9185 62.4047C44.4498 62.0517 45.6711 61.9194 46.8004 62.3058C47.4352 62.5243 48.2609 62.9878 48.5852 63.9561C48.7002 64.3011 48.7577 64.6438 48.7577 64.9773C48.7577 65.481 48.6266 65.9628 48.3655 66.4033C47.825 67.321 46.7463 67.9891 45.41 68.2352C43.2572 68.632 42.2636 69.1207 41.753 69.5577C41.7491 69.5177 41.7437 69.4778 41.7369 69.4381C41.7263 69.3816 41.7202 69.3243 41.7185 69.2668C41.7185 68.2985 42.1624 67.5165 43.0284 66.9737L43.0744 66.9449L43.1066 66.9001C43.1908 66.794 43.2391 66.6639 43.2446 66.5286C43.2446 66.4435 43.2216 66.3791 43.1974 66.3354C43.1591 66.2675 43.1022 66.2119 43.0333 66.1752C42.9644 66.1385 42.8865 66.1223 42.8087 66.1284C42.4637 66.1399 41.9025 66.5079 41.4529 67.5096C40.9779 68.5664 39.9383 68.5745 38.9298 68.5825L38.2996 68.5998C37.4405 68.6573 36.6896 68.7309 36.1042 69.1863C36.0282 68.8543 35.9896 68.5148 35.9892 68.1743C35.9892 67.1163 36.3687 65.6661 38.1006 64.5426C39.7888 63.4478 40.5915 62.5784 40.6306 61.8056L40.6318 61.7481C40.6318 61.3847 40.4581 61.0592 40.1108 60.7821C39.1471 60.0116 37.6659 61.4836 36.3434 63.0257C35.1037 64.4736 34.6955 64.5483 32.07 64.4759C29.9747 64.4184 29.0524 64.8197 28.5568 65.1866C28.5487 65.1428 28.5387 65.0995 28.5269 65.0566C28.5073 64.9807 28.4866 64.9037 28.4866 64.8186C28.4866 64.4138 28.5878 63.9791 28.7856 63.5628C29.8011 61.4767 32.8095 60.651 32.8095 60.651C29.908 61.1834 27.8714 60.444 26.3614 59.5171L25.3494 58.9179C24.1868 58.267 22.9241 57.7794 22.126 57.5011C22.9252 57.224 24.1868 56.7375 25.3494 56.0866L26.3614 55.4863C28.2681 53.7498 32.3955 54.2213 32.3955 54.2213C30.3243 53.6107 29.0938 52.0938 28.7845 51.4406C28.5944 51.0493 28.4927 50.621 28.4866 50.186C28.4866 50.0997 28.5073 50.0227 28.5269 49.9445C28.5393 49.9029 28.5493 49.8607 28.5568 49.818C29.0513 50.1848 29.9747 50.5862 32.07 50.5275C34.6955 50.4551 35.1037 50.531 36.3434 51.9777C37.6659 53.5198 39.1471 54.993 40.1108 54.2225C40.4558 53.9453 40.6318 53.621 40.6318 53.2565C40.6318 53.2381 40.6318 53.2185 40.6295 53.199C40.5915 52.4262 39.7888 51.5568 38.1006 50.462C36.3699 49.3396 35.9881 47.8883 35.9881 46.8291C35.9881 46.4151 36.0479 46.0667 36.1042 45.8171C36.6896 46.2725 37.4405 46.3473 38.3007 46.4048L38.9286 46.4209H38.9298C39.9383 46.4301 40.9779 46.4381 41.4529 47.4927C41.9025 48.4943 42.4649 48.8635 42.8087 48.875C42.8865 48.8811 42.9644 48.8649 43.0333 48.8282C43.1022 48.7915 43.1591 48.7359 43.1974 48.668C43.2291 48.6085 43.2453 48.5421 43.2446 48.4748C43.2388 48.3395 43.1905 48.2096 43.1066 48.1033L43.0744 48.0585L43.0284 48.0297C42.1624 47.4881 41.7174 46.7049 41.7174 45.7378C41.7174 45.6826 41.7277 45.6239 41.7369 45.5664C41.7438 45.5262 41.7496 45.4859 41.753 45.4468C42.2625 45.8827 43.2561 46.3714 45.41 46.7693C46.7463 47.0154 47.825 47.6824 48.3655 48.6001C48.6266 49.0417 48.7565 49.5236 48.7565 50.0273C48.7565 50.3608 48.699 50.7023 48.584 51.0485C48.262 52.0179 47.4352 52.4802 46.8004 52.6999C45.6711 53.0863 44.4498 52.9529 43.9185 52.5987L43.4389 52.279L43.4907 52.854C43.7046 55.2034 46.2541 56.6225 47.8768 57.2953C46.1138 56.9882 43.0525 56.3017 40.8215 54.9631C41.7335 56.2258 43.7161 57.0216 43.9001 57.0929ZM57.2769 63.1936L58.0635 63.1074L58.0646 63.1062C58.0934 63.1028 60.9166 62.8245 61.6216 65.8018C61.6217 65.8049 61.6217 65.808 61.6216 65.811L61.6239 65.8294C61.716 65.5023 61.7674 65.1651 61.7768 64.8255C61.7768 64.201 61.6204 63.5984 61.3053 63.0453C60.6843 61.9574 59.5286 61.2271 58.4257 61.2271C56.3718 61.2271 54.8377 62.8302 54.8377 64.2631C54.8377 65.9099 55.7462 66.7816 56.6455 66.9173C57.255 67.0093 57.8519 66.8713 58.2417 66.5482C58.566 66.2802 58.7385 65.8984 58.7569 65.4131C58.8052 64.1688 57.9841 63.6375 57.9496 63.6157L57.2769 63.1936ZM88.6408 59.5171L89.6517 58.9168V58.9145C90.8155 58.2624 92.077 57.7771 92.8751 57.4988C92.077 57.2205 90.8155 56.7341 89.6517 56.0843L88.6397 55.4829C85.4208 53.5693 81.8811 54.5134 81.8811 54.5134C83.9557 53.9016 85.9084 52.0892 86.2166 51.4383C86.4065 51.0466 86.5078 50.6178 86.5133 50.1825C86.5133 50.0974 86.4938 50.0215 86.4742 49.9433C86.4626 49.9008 86.4526 49.8578 86.4443 49.8145C85.9498 50.1825 85.0264 50.5827 82.9322 50.5252C80.3068 50.4528 79.8985 50.5275 78.6588 51.9742C77.3363 53.5175 75.8551 54.9907 74.8903 54.219C74.5453 53.943 74.3705 53.6176 74.3705 53.253V53.1955C74.4107 52.4227 75.2134 51.5533 76.9005 50.4585C78.6324 49.3361 79.013 47.8848 79.013 46.8268C79.013 46.4128 78.9555 46.0644 78.8969 45.8148C78.3115 46.2702 77.5606 46.3438 76.7027 46.4013L76.0725 46.4186C75.0662 46.4255 74.0243 46.4347 73.5494 47.4904C73.0997 48.4909 72.5374 48.86 72.1947 48.8715C72.1167 48.8777 72.0386 48.8615 71.9696 48.8249C71.9005 48.7882 71.8434 48.7326 71.8048 48.6645C71.773 48.6051 71.7568 48.5387 71.7577 48.4713C71.7577 48.3724 71.7887 48.2482 71.8957 48.101L71.9267 48.055L71.9727 48.0274C72.841 47.4846 73.286 46.7026 73.286 45.7343C73.2843 45.6791 73.2782 45.6241 73.2676 45.5699C73.2596 45.528 73.2534 45.4858 73.2492 45.4434C72.7421 45.8804 71.7473 46.3691 69.5945 46.7659C68.2571 47.012 67.1795 47.6801 66.6379 48.5967C66.3806 49.0282 66.2455 49.5215 66.2469 50.0238C66.2469 50.3573 66.3044 50.7 66.4194 51.045C66.7425 52.0145 67.5694 52.4779 68.2042 52.6964C69.3335 53.0828 70.5559 52.9494 71.0849 52.5964L71.5656 52.2755L71.5127 52.8505C71.2988 55.2011 68.7493 56.6191 67.1266 57.2918C68.8907 56.9848 71.9509 56.2982 74.183 54.9596C73.2262 56.2856 71.0907 57.0952 71.0907 57.0952C71.0907 57.0952 75.8011 55.9912 77.3478 54.9596C75.655 56.5811 73.2262 57.0952 73.2262 57.0952C73.2262 57.0952 79.4903 57.2412 80.8852 57.5C79.4903 57.7576 73.2262 57.9048 73.2262 57.9048C73.2262 57.9048 75.655 58.4211 77.3478 60.0403C75.8011 59.0088 71.0907 57.9048 71.0907 57.9048C71.0907 57.9048 73.2262 58.7155 74.183 60.0403C71.952 58.7006 68.8907 58.014 67.1266 57.7081C68.7481 58.3809 71.2988 59.8 71.5127 62.1494L71.5656 62.7244L71.0849 62.4036C70.5559 62.0517 69.3323 61.9183 68.2042 62.3047C67.5682 62.5232 66.7425 62.9855 66.4194 63.9549C66.3044 64.2999 66.2469 64.6426 66.2469 64.9761C66.2469 65.4798 66.378 65.9617 66.6379 66.4021C67.1795 67.3198 68.2582 67.988 69.5934 68.2341C71.7473 68.632 72.7421 69.1207 73.2504 69.5566C73.2534 69.5141 73.2591 69.4718 73.2676 69.4301C73.2782 69.3758 73.2843 69.3208 73.286 69.2656C73.286 68.2973 72.841 67.5153 71.9739 66.9725L71.9279 66.9438L71.8945 66.8989C71.8108 66.7926 71.7625 66.6627 71.7565 66.5275C71.7565 66.4435 71.7807 66.378 71.8048 66.3343C71.8435 66.2663 71.9006 66.2108 71.9697 66.1741C72.0387 66.1375 72.1168 66.1212 72.1947 66.1273C72.5374 66.1388 73.0997 66.5068 73.5494 67.5084C74.0243 68.5653 75.0651 68.5733 76.0713 68.5814L76.7027 68.5986C77.5606 68.6561 78.3127 68.7297 78.8969 69.1851C78.9555 68.9367 79.0119 68.5871 79.0119 68.1731C79.0119 67.1151 78.6324 65.6661 76.9016 64.5414C75.2134 63.4466 74.4107 62.5772 74.3716 61.8044L74.3705 61.7469C74.3705 61.3824 74.5453 61.0569 74.8903 60.7809C75.8563 60.0104 77.3363 61.4824 78.6588 63.0246C79.8985 64.4724 80.3068 64.5472 82.9322 64.4747C85.0264 64.4172 85.9487 64.8186 86.4443 65.1854C86.4524 65.1394 86.4627 65.0969 86.4742 65.0532C86.4974 64.9766 86.5106 64.8974 86.5133 64.8174C86.5133 64.4126 86.4133 63.9779 86.2166 63.5616C85.0678 61.4157 82.3538 60.59 82.3538 60.59C85.2552 61.1236 87.1297 60.4428 88.6408 59.5171ZM19.0727 57.2343C18.7622 57.2769 16.6002 57.5 14.5026 57.1699C12.405 56.8387 10.749 56.0107 10.749 56.0107V57.301C10.2867 57.3275 9.39089 57.3654 8.39499 57.347C7.38529 56.7237 3.69149 54.3041 3.56959 52.0053C3.48104 50.3171 4.53329 49.5696 4.99674 49.3246C6.45724 48.9072 7.13229 50.1607 6.95749 50.8392C6.77809 51.5315 6.27439 51.6821 5.90524 51.7914C5.66604 51.8627 5.48434 51.9167 5.48434 52.0904C5.48434 52.8977 7.02879 53.0127 7.98789 52.4584C8.77794 52.0007 9.05739 51.0335 8.72389 50.1009C8.35589 49.0659 7.31514 48.607 6.32614 48.5829C5.7936 48.5588 5.26443 48.6788 4.79434 48.9302C3.68114 49.5167 3.05784 50.6759 3.13029 52.0283C3.24874 54.2823 5.75229 56.404 6.91264 57.2723C6.62556 57.2477 6.33942 57.2132 6.05474 57.1688C4.75601 56.9572 3.49258 56.5679 2.29999 56.0119V58.9927C2.29999 58.9927 3.95599 58.1647 6.05474 57.8346C6.33074 57.7909 6.61709 57.7576 6.91264 57.7311C5.75114 58.6005 3.24759 60.7211 3.13029 62.9763C3.05899 64.3275 3.68229 65.4856 4.79434 66.0732C5.29229 66.3354 5.82934 66.4481 6.32614 66.4205C7.31514 66.3975 8.35474 65.9387 8.72389 64.9025C9.05739 63.971 8.77794 63.0039 7.98789 62.5462C7.02994 61.9919 5.48434 62.108 5.48434 62.9142C5.48434 63.0878 5.66604 63.143 5.90524 63.2132C6.27324 63.3236 6.77924 63.4742 6.95749 64.1665C7.13229 64.845 6.45724 66.0985 4.99674 65.6811C4.53444 65.4361 3.48219 64.6886 3.57074 63.0004C3.69149 60.7027 7.38529 58.2808 8.39499 57.6587C9.39089 57.6403 10.2867 57.6782 10.749 57.7047V58.9938C10.749 58.9938 12.405 58.1658 14.5026 57.8358C16.6002 57.5034 18.8772 57.7242 19.0727 57.753H19.0773C19.2797 57.7817 20.0238 57.8887 20.0238 57.5034C20.0238 57.1159 19.3821 57.1952 19.0727 57.2378V57.2355V57.2343ZM108.945 57.1699C108.661 57.2141 108.375 57.2487 108.088 57.2734C109.25 56.404 111.754 54.2823 111.872 52.0283C111.943 50.6759 111.32 49.5178 110.207 48.9302C109.737 48.6791 109.209 48.5592 108.677 48.5829C107.688 48.6059 106.649 49.0659 106.277 50.1009C105.946 51.0335 106.224 52.0007 107.014 52.4584C107.972 53.0127 109.517 52.8954 109.517 52.0904C109.517 51.9167 109.335 51.8615 109.096 51.7914C108.728 51.681 108.223 51.5303 108.044 50.8392C107.869 50.1607 108.545 48.9072 110.006 49.3246C110.466 49.5696 111.519 50.3171 111.43 52.0041C111.31 54.3041 107.616 56.7237 106.605 57.347C105.82 57.3594 105.036 57.344 104.252 57.301V56.0107C104.252 56.0107 102.596 56.8387 100.498 57.1699C98.4009 57.5 96.2366 57.2769 95.9284 57.2343C95.619 57.1929 94.9762 57.1136 94.9762 57.5C94.9762 57.8795 95.7041 57.7794 95.9169 57.7507L95.9284 57.7495C96.1239 57.7219 98.4009 57.5 100.498 57.8323C102.596 58.1635 104.252 58.9915 104.252 58.9915V57.7001C105.036 57.6569 105.82 57.6416 106.605 57.6541C107.617 58.2774 111.31 60.6981 111.43 62.997C111.519 64.6852 110.464 65.4327 110.004 65.6765C108.544 66.0951 107.869 64.8404 108.044 64.1631C108.223 63.4708 108.727 63.3201 109.096 63.2109C109.335 63.1396 109.517 63.0844 109.517 62.9119C109.517 62.1046 107.971 61.9884 107.014 62.5439C106.224 63.0004 105.946 63.9676 106.278 64.8991C106.648 65.9352 107.687 66.3941 108.677 66.4171C109.174 66.4447 109.711 66.3331 110.207 66.0698C111.322 65.4833 111.943 64.3252 111.872 62.9728C111.754 60.7188 109.25 58.5971 108.088 57.7288C108.383 57.7541 108.672 57.7875 108.946 57.8312C111.044 58.1624 112.7 58.9904 112.7 58.9904V56.0084C112.7 56.0084 111.044 56.8364 108.946 57.1676V57.1699H108.945Z" fill="#631F21"/>
</svg>
