<svg width="115" height="115" viewBox="0 0 115 115" fill="none" xmlns="http://www.w3.org/2000/svg">
<path fill-rule="evenodd" clip-rule="evenodd" d="M94.5023 2.49509L94.0879 2.11591L94.5563 1.80247C95.6528 1.07107 97.0005 0.952477 98.4515 1.45728C100.466 2.16168 102.408 4.05412 103.3 6.02172C105.751 3.21591 109.003 2.62306 111.206 2.24388L112.161 2.06775L112.8 1.96213L112.509 3.54817C112.128 5.75051 111.537 9.00243 108.731 11.4525C110.697 12.347 112.591 14.2865 113.295 16.3022C113.501 16.8915 113.603 17.4632 113.603 18.0091C113.61 18.7875 113.383 19.5501 112.95 20.1974L112.637 20.6658L112.259 20.2514C104.904 12.2684 98.3271 17.1122 98.0512 17.3212L97.4325 16.7025C97.6415 16.4278 102.486 9.84883 94.5023 2.49509ZM95.5565 2.30492C98.1357 4.83249 99.3214 7.29427 99.7358 9.46846C100.598 9.50838 102.576 9.76198 103.837 11.1567C104.694 12.1076 105.036 13.3883 104.877 14.9662C107.145 15.3031 109.754 16.4501 112.449 19.1972C112.613 18.798 112.716 18.3942 112.716 18.0079C112.716 17.4844 112.599 16.9936 112.461 16.5945C111.773 14.6246 109.729 12.5971 107.808 11.9808L106.998 11.719L107.675 11.206C110.682 8.92846 111.256 5.60023 111.635 3.39903L111.699 3.05275L111.352 3.11613H111.35C109.149 3.49651 105.821 4.07174 103.545 7.0759L103.032 7.7533L102.772 6.94329C102.154 5.02265 100.127 2.97993 98.1568 2.29434C97.4607 2.05018 96.4933 1.91397 95.5542 2.30373L95.5565 2.30492ZM99.035 73.997C99.1089 70.3154 96.0907 67.1492 96.0907 67.1492C95.4285 66.4131 94.912 66.8545 95.5741 67.8125C97.6673 71.4225 96.9348 72.7267 96.309 73.8408C96.0543 74.2952 95.8171 74.7166 95.796 75.2496C95.7232 77.0904 98.9622 77.6797 99.0362 73.9981L99.035 73.997ZM104.043 73.7023C102.643 73.923 102.334 73.0484 102.2 71.4201L102.202 71.4189C101.98 68.6941 99.3308 66.5587 97.4173 65.3812C97.0521 65.1581 97.1355 64.7179 97.7107 64.8658C100.581 65.6019 103.459 67.8207 104.705 69.7988C105.832 71.5868 105.433 73.4816 104.043 73.7023ZM109.564 64.4984C106.618 61.8476 99.5504 61.9215 99.5504 61.9215C99.0338 61.9215 98.8143 62.5836 99.6255 62.6576C103.237 63.3185 104.845 64.7179 106.101 65.8109C106.665 66.3004 107.155 66.7289 107.724 67.0013C109.567 67.8841 110.817 65.6019 109.567 64.4972H109.564V64.4984ZM90.492 55.2757C90.485 56.0904 89.9273 56.0974 89.8134 55.1477C89.1372 51.7831 87.975 51.3792 86.983 51.0329C86.5791 50.8921 86.2035 50.7629 85.9006 50.4459C84.8523 49.3506 86.5275 47.2246 88.5772 49.4528C90.6282 51.681 90.492 55.2757 90.492 55.2757ZM93.6359 55.7276C95.3264 53.9714 96.3794 51.1785 96.3971 49.2532C96.4112 47.5157 95.3123 46.3629 94.2464 46.8102C93.1722 47.2598 93.333 48.0052 93.9447 49.2015C94.9683 51.202 94.0374 53.8422 93.2086 55.494C93.0513 55.8075 93.299 56.0786 93.6371 55.7265L93.6359 55.7276ZM100.511 51.0576C100.757 50.4788 100.973 49.9728 101.311 49.5572C102.407 48.2072 104.306 49.4985 103.763 50.7981C102.506 53.8974 96.9101 56.4238 96.9101 56.4238C96.5063 56.6116 96.0648 56.1867 96.6753 55.8344C99.2533 54.0089 99.9589 52.3525 100.511 51.0576ZM107.648 55.1477C104.852 55.663 100.433 57.7985 99.6971 58.2411C98.9622 58.6825 98.8143 59.0511 99.4764 59.0511C99.4764 59.0511 103.38 58.1683 107.577 58.3127C110.521 58.5346 111.21 54.4926 107.65 55.1477H107.648ZM95.1456 110.068C93.1287 108.331 92.1015 105.45 92.1731 101.74L92.1696 101.738C92.3222 93.7784 97.625 88.0236 102.047 84.5979C107.335 80.5008 110.678 74.9267 110.575 74.8046L110.555 74.8C113.862 68.8315 114.536 61.7278 112.483 54.9904C110.542 48.6192 106.308 44.225 100.862 42.9337C100.286 42.7989 99.7068 42.6815 99.1242 42.5815C103.844 41.836 106.881 40.2993 109.264 37.6191C111.383 35.2383 112.172 31.8855 111.912 28.3107C111.611 24.1278 109.357 21.7682 107.518 20.5238C104.611 18.555 100.465 17.934 97.2012 18.9753C96.2222 19.2887 95.3147 19.81 94.4941 20.4662L94.4201 20.3688C91.6672 22.4326 90.1386 26.6437 88.2028 31.9735L87.2013 34.7042C86.0297 37.8481 83.9377 38.9105 82.3881 39.2474C80.2984 39.7018 77.9505 38.9657 77.0911 38.104C76.1989 37.2763 75.3489 34.9882 75.7293 32.8845C76.0111 31.3254 76.9996 29.1982 80.0977 27.9151L82.7943 26.8174L82.8013 26.8151C88.056 24.6949 92.2072 23.0208 94.1724 20.1974L94.0714 20.127C94.6995 19.284 95.1891 18.359 95.4661 17.3693C96.3936 14.0704 95.6258 9.9498 93.5561 7.11349C92.2494 5.32202 89.8111 3.15132 85.62 2.9964C82.0394 2.86373 78.7147 3.77122 76.4102 5.97121C73.8134 8.44832 72.3858 11.537 71.8083 16.2787C71.6876 15.7006 71.5498 15.1263 71.395 14.5565C69.9123 9.1609 65.3702 5.08254 58.9368 3.36854C52.1302 1.55356 45.0558 2.47632 39.2071 5.99233L39.2024 5.97356C39.0779 5.87494 33.626 9.4133 29.7167 14.8429C26.4484 19.3815 20.8849 24.8862 12.9359 25.3171C9.22973 25.5202 6.31595 24.5939 4.50801 22.6404C2.9666 20.971 2.3444 18.6407 2.7095 15.9007C3.12037 12.8014 5.71956 11.7448 7.81863 11.7812C9.90947 11.8199 12.1306 12.9505 12.3326 15.039C12.5509 17.3118 11.6516 18.4634 10.8592 19.0305C10.2757 19.4394 9.58613 19.6702 8.87401 19.6949C8.41737 19.7114 8.00295 19.6363 7.69655 19.4977C7.65064 19.4747 7.60731 19.4467 7.56738 19.4143C7.54254 19.3943 7.51664 19.3755 7.48991 19.358C7.23282 19.1232 6.77379 18.6454 6.64232 18.1606C6.46839 17.5692 6.50574 16.9358 6.74798 16.3691C6.80902 16.2082 6.92407 15.9112 6.66578 15.6917C6.40519 15.471 6.11755 15.6412 6.00954 15.7058C5.50354 16.0051 5.49301 16.8997 5.51412 17.2695C5.56109 18.184 5.95554 19.2641 6.80548 19.9368C6.92876 20.0566 7.02384 20.1423 7.03557 20.1504L7.04969 20.134C7.0548 20.1293 7.05949 20.1242 7.06377 20.1187C7.10135 20.1422 7.1342 20.1692 7.16943 20.1962C7.2164 20.235 7.26571 20.2749 7.32675 20.3019C7.74935 20.4944 8.30816 20.6059 8.92332 20.5848C9.80252 20.5525 10.6528 20.2627 11.3687 19.7513C12.7599 18.7617 13.4126 17.0582 13.2095 14.9556C12.9583 12.3541 10.2358 10.5039 7.75289 10.4593C5.09621 10.4124 1.9206 12.3846 1.46276 15.8255C1.06128 18.8368 1.76328 21.4148 3.48902 23.2826C5.48123 25.4369 9.00552 26.4206 12.9818 26.2046C21.2794 25.7514 27.0494 20.0577 30.4305 15.363C30.7557 14.9086 31.0949 14.4755 31.4342 14.0517C29.2859 18.5292 29.0922 23.8755 30.5021 28.2332C30.7416 29.1031 31.7817 32.4431 34.4467 35.6833C35.7967 37.3268 36.2815 39.2944 35.7767 41.0777C35.4081 42.3772 34.5417 43.4021 33.5157 43.7543C32.3652 44.1499 31.365 44.0983 30.7005 43.6087C30.4504 43.4256 30.2602 43.1556 30.0982 42.8515C29.9668 42.3984 29.9527 41.66 30.9353 41.1011C32.452 40.2371 32.0036 37.969 30.2415 38.1052C28.6684 38.2272 27.6763 41.3148 29.3598 43.3798C29.6087 43.813 29.8998 44.1182 30.1769 44.319C31.082 44.987 32.3699 45.0844 33.8044 44.5925C35.1193 44.1394 36.1735 42.9173 36.6267 41.3195C37.2137 39.251 36.6666 36.9922 35.1287 35.1233L35.1217 35.1139L35.1076 35.0951L35.2179 35.1867C35.3799 35.3205 35.5443 35.4555 35.7063 35.5706C37.6762 36.9558 40.4526 37.6814 42.9544 37.4618C45.9046 37.2036 47.8745 35.2418 49.7799 33.3447L50.0358 33.09C52.6209 30.526 55.3186 29.2018 57.44 29.4612C58.7431 29.6197 59.7539 30.2713 60.2869 31.2926C60.8058 32.2858 60.7858 33.502 60.2329 34.5445C59.8326 35.2994 59.2808 35.6926 58.5846 35.7161H58.5729L58.5612 35.7138L58.5377 35.7115C57.3872 35.5635 56.8765 34.6936 56.5055 34.055L56.502 34.0503C56.2461 33.6124 56.0442 33.2672 55.6579 33.2132C55.6216 33.2098 55.5852 33.2079 55.5487 33.2074C55.3592 33.2183 55.1811 33.3015 55.051 33.4398C54.9454 33.5408 54.7223 33.8296 54.9042 34.3285C55.2059 35.1573 56.7169 36.4851 58.3088 36.5943C59.1165 36.6494 60.2423 36.41 61.0124 34.9577C61.7016 33.6582 61.7227 32.1344 61.0688 30.8829C60.4877 29.7653 59.4217 28.9834 58.0986 28.6805C58.1961 27.712 58.857 20.0742 55.6356 18.1618L55.5476 18.1078L55.4466 18.0995C53.4532 17.9375 49.0837 20.856 47.6867 23.5632L47.6515 23.5409C47.5486 23.4742 47.444 23.41 47.338 23.3484C44.2176 21.5804 41.98 22.5418 40.9258 23.2732C39.1977 24.4719 38.1587 26.7047 38.4557 28.5866C38.6671 29.9261 39.389 30.9416 40.4879 31.4828C42.6057 32.9092 46.2509 31.5321 46.0995 28.7052C45.9562 25.9933 42.6316 25.8994 41.9648 27.3586C41.5304 28.306 41.7828 28.8578 41.9882 29.3098C42.0998 29.5551 42.1983 29.77 42.1678 30.0048C41.9518 30.6481 41.4494 30.7796 40.988 30.7408C40.0911 30.344 39.4994 29.5364 39.328 28.4481C39.085 26.9102 39.9878 24.9966 41.4294 23.9999C42.9579 22.941 44.9044 22.9821 46.9048 24.1173C51.7404 26.8585 48.9475 32.7929 48.8278 33.043C47.1337 34.7218 45.3481 36.363 42.8781 36.5802C40.5736 36.7821 38.0214 36.1176 36.217 34.8474C34.989 33.9834 33.7681 32.6791 32.8688 31.2668C32.2388 30.2583 31.7356 29.176 31.3708 28.0442C31.3297 27.9034 31.3074 27.8118 31.3074 27.8118L31.2898 27.8165C29.5183 22.1826 30.5315 14.8418 35.1733 10.2351C41.4071 4.04828 50.2671 1.97386 58.7091 4.22437C64.8325 5.85617 68.8639 10.3912 70.261 15.4745C73.8357 28.4821 67.2462 39.3097 53.4403 44.0642C49.8104 45.3122 46.5256 46.2373 43.3465 47.1318C39.8598 48.1133 36.6549 49.0806 33.7047 50.3203L13.3727 30.7385L1.92764 31.1423L1.95933 32.0252L13.0299 31.6354L18.6297 37.0275L18.6884 37.0838L32.8289 50.7007C31.4692 51.3033 30.1514 51.9963 28.8844 52.7751L11.3241 36.41L1.90653 36.741L1.98868 39.0972L7.60142 43.6134C7.60142 43.6134 13.8704 41.7703 18.8997 46.4568C21.0528 48.5559 22.1082 50.5657 22.5919 51.742L21.0258 52.5943C20.4857 51.0787 19.6264 49.5537 18.247 48.233C15.7112 45.8029 12.6002 44.6829 9.48917 45.0797C6.64936 45.4425 4.11825 47.0167 2.71654 49.2861V49.2884C2.61911 49.4457 2.37021 49.8519 2.60499 50.2111C2.86093 50.6021 3.37747 50.5281 4.0889 50.4271C4.89427 50.3109 5.99542 50.1548 6.70451 50.6326C8.1485 51.607 17.5062 60.5116 19.5125 62.4251C18.8006 63.6994 18.2219 65.0436 17.7856 66.4366L4.7663 54.0277L2.07788 54.1216L2.10962 55.0045L4.42466 54.9223L11.0952 61.2805L11.202 61.3826L17.5097 67.3981C17.2858 68.2691 17.1242 69.1549 17.0261 70.0489L2.75762 56.7502L2.86563 59.8401L16.9779 73.4065C17.1059 74.8786 17.4287 76.3073 17.9617 77.6562C18.2494 78.3876 18.6074 79.0568 19.0007 79.6954C18.9303 80.023 18.7847 80.7297 18.625 81.7229C18.4665 81.7816 17.3724 82.1655 15.9425 81.5409C14.1181 80.7426 12.5286 78.5919 11.3488 75.32C9.42463 69.9855 7.34902 68.6472 5.9473 68.4617C4.83438 68.3138 3.73673 68.8468 3.01471 69.8845C2.44537 70.7063 2.19531 72.2125 2.85505 73.3924C3.39509 74.3574 4.4282 74.8457 5.76183 74.7695L5.84284 74.7648L5.91681 74.7307C6.38637 74.5217 6.37933 74.1578 6.36526 74.0533C6.30771 73.599 5.73598 73.2785 4.66653 73.0965C3.51837 72.904 3.40801 72.0047 3.39978 71.9026L3.34932 71.9073C3.32935 71.3274 3.48782 70.7544 3.74142 70.3905C3.94101 70.1052 4.67941 69.1872 5.83345 69.3387C6.78317 69.4643 8.65215 70.4457 10.5199 75.6206C11.8078 79.1942 13.523 81.4634 15.6208 82.365C16.8476 82.8933 17.889 82.8064 18.483 82.6761C18.1601 84.9654 17.8561 88.2525 18.0498 91.7638L12.3513 93.2067C11.9147 92.0416 10.7844 91.2842 9.54082 91.3236C7.93593 91.3803 6.68027 92.7263 6.73505 94.3313C6.79366 95.9359 8.14035 97.1902 9.74511 97.1348C11.3495 97.0768 12.6044 95.7315 12.5509 94.127C12.55 94.1168 12.5484 94.1066 12.5462 94.0965L12.5438 94.0848C12.5428 94.0793 12.542 94.0739 12.5415 94.0683L18.1108 92.6596C18.2382 94.3662 18.5108 96.059 18.9256 97.7194L13.631 102.229L13.7167 102.33C13.2328 102.002 12.6619 101.828 12.0778 101.828C10.4512 101.83 9.13308 103.148 9.1311 104.775C9.13372 106.401 10.4517 107.719 12.0778 107.72C13.7044 107.719 15.0225 106.4 15.0244 104.774C15.0244 104.03 14.7368 103.357 14.2802 102.837L19.6041 98.3052C21.2829 98.6738 23.0051 98.8687 24.6874 98.9427L23.4759 104.559C23.4583 104.558 23.4383 104.553 23.4195 104.553C21.8134 104.554 20.5117 105.856 20.5104 107.462C20.5124 109.068 21.8139 110.369 23.4195 110.37C25.0247 110.368 26.3255 109.067 26.3275 107.462C26.3275 106.184 25.4939 105.108 24.3458 104.719L25.5855 98.9732C29.1015 99.0437 32.3769 98.6245 34.6532 98.2207C34.5441 98.8183 34.4936 99.8619 35.0653 101.07C36.0397 103.131 38.3677 104.768 41.9847 105.93C47.223 107.614 48.2702 109.447 48.4286 110.391C48.6211 111.542 47.7278 112.311 47.4507 112.52C47.095 112.786 46.5291 112.965 45.9504 112.965V112.939V112.914C45.8483 112.909 44.9455 112.831 44.7107 111.69C44.4947 110.628 44.153 110.07 43.6975 110.026C43.5919 110.017 43.2303 110.021 43.0366 110.498L43.0037 110.573V110.655C42.9744 111.99 43.4979 113.006 44.4817 113.51C45.6839 114.128 47.1818 113.825 47.9802 113.225C48.9933 112.468 49.4852 111.354 49.3009 110.246C49.0661 108.851 47.655 106.825 42.2559 105.09C38.9441 104.025 36.7382 102.513 35.8765 100.717C35.2003 99.3101 35.5455 98.2042 35.6007 98.0434C36.5868 97.8485 37.2888 97.6795 37.6128 97.5973C38.2656 97.9636 38.9488 98.2993 39.6884 98.5635C41.0549 99.0483 42.4966 99.3207 43.971 99.397L58.0258 113.021H61.1193L47.3286 99.2303C48.2067 99.1012 49.0861 98.9121 49.9607 98.6551C54.2695 102.867 58.578 107.079 62.8861 111.292V113.61H63.7689V110.922L50.9092 98.3463C52.285 97.8597 53.6075 97.2339 54.8561 96.4785C56.8401 98.4156 66.0676 107.455 67.0924 108.864C67.5948 109.554 67.4763 110.66 67.3906 111.468V111.47L67.3894 111.474C67.3143 112.187 67.2603 112.703 67.6571 112.943C68.0257 113.166 68.4249 112.901 68.5763 112.8C70.7975 111.32 72.2802 108.735 72.542 105.883C72.8296 102.76 71.6016 99.6929 69.0823 97.2428C67.7134 95.9115 66.1603 95.1062 64.6271 94.6201L65.4242 93.0235C66.6158 93.4661 68.6644 94.4499 70.8362 96.529C75.6965 101.389 74.0764 107.722 74.0764 107.722L78.7887 113.169H81.1448V103.745L64.1716 86.771C64.9051 85.4773 65.551 84.136 66.1051 82.756L85.8572 101.871V112.948H86.74V101.496L66.4561 81.8673C67.589 78.8736 68.4436 75.6382 69.303 72.1174L69.3042 72.1092C70.086 68.9043 70.8937 65.5902 72.0137 61.9239C76.2787 47.9571 86.868 40.9919 99.9929 44.1065C105.123 45.3227 109.796 49.1921 111.645 55.2545C114.192 63.6132 112.43 72.5401 106.467 78.9875C102.026 83.789 94.7253 85.0605 89.0339 83.4873L89.0363 83.4709L89.0269 83.4686C89.001 83.4627 88.9212 83.4451 88.8038 83.4146C87.6596 83.0903 86.5599 82.6258 85.5296 82.0316C84.0856 81.1805 82.7403 80.0077 81.8328 78.8114C80.5003 77.0505 79.7466 74.5241 79.8676 72.2149C79.9967 69.7378 81.5745 67.8958 83.1923 66.1431C83.4388 66.014 89.2711 63.0145 92.1813 67.7514C93.3847 69.712 93.495 71.6537 92.4901 73.2186C91.5427 74.6931 89.6632 75.6628 88.1182 75.475C87.0241 75.3411 86.1964 74.7776 85.7679 73.8972C85.7151 73.4346 85.8266 72.9298 86.463 72.6915C86.6954 72.6528 86.9149 72.7432 87.1638 72.8465C87.6216 73.0366 88.1828 73.2691 89.1126 72.8018C90.5495 72.0846 90.337 68.7634 87.6228 68.7165C84.7924 68.6648 83.5433 72.3558 85.0436 74.4219C85.6235 75.5008 86.6637 76.1864 88.0114 76.3508C89.9015 76.582 92.0968 75.4644 93.2332 73.6953C93.9282 72.6128 94.8122 70.3447 92.9339 67.2877C92.8739 67.1913 92.8112 67.0966 92.746 67.0036L92.7073 66.9449C95.3628 65.4563 98.1263 60.9858 97.8927 58.9995L97.881 58.8973L97.8258 58.8116C95.7995 55.6607 88.191 56.5893 87.226 56.7208C86.8773 55.4095 86.0567 54.3729 84.9203 53.8281C83.6454 53.2212 82.1239 53.294 80.8502 54.0277C79.4249 54.8495 79.2265 55.9836 79.3099 56.7901C79.4766 58.3749 80.8549 59.8401 81.6943 60.1124C82.1991 60.2767 82.4808 60.0432 82.5771 59.9351C82.7106 59.8004 82.7878 59.6199 82.7931 59.4303C82.7926 59.3933 82.7887 59.3563 82.7813 59.32C82.7145 58.9349 82.3611 58.7447 81.9126 58.5052C81.2599 58.1566 80.3724 57.6741 80.1845 56.5318L80.1822 56.5118C80.1799 56.5024 80.1775 56.4942 80.1775 56.4848C80.1775 55.7899 80.5508 55.2228 81.2904 54.7967C82.3129 54.2097 83.5268 54.1451 84.5388 54.6288C85.5778 55.1254 86.2645 56.1138 86.4676 57.4099C86.801 59.5195 85.5754 62.2643 83.1007 64.9374L82.8565 65.2004C81.0286 67.1703 79.1374 69.2107 78.9824 72.1679C78.8521 74.6767 79.6727 77.4249 81.1272 79.3444C81.2376 79.49 81.3643 79.6344 81.4923 79.7788L81.6238 79.9278C81.6144 79.9208 81.6039 79.9149 81.5945 79.9067C79.6715 78.4358 77.3952 77.9697 75.3489 78.6283C73.7676 79.1366 72.5842 80.2343 72.1792 81.5643C71.7378 83.0142 71.8787 84.2985 72.5772 85.1802C72.7885 85.4479 73.1055 85.7296 73.5457 85.9632C75.6671 87.5716 78.7206 86.4727 78.7863 84.8949C78.8603 83.1293 76.5769 82.7618 75.7669 84.3079C75.2433 85.3082 74.5049 85.3199 74.047 85.206C73.7371 85.0546 73.4624 84.875 73.2687 84.6308C72.7568 83.9851 72.6688 82.9872 73.0233 81.8226C73.3403 80.7837 74.3335 79.8832 75.619 79.4688C77.3858 78.9018 79.3698 79.3174 81.058 80.6076C84.3909 83.1563 87.7637 84.079 88.643 84.2868C93.0501 85.543 98.3834 85.1614 102.783 82.8569C102.373 83.2115 101.95 83.5625 101.51 83.9053C96.9371 87.4483 91.4488 93.418 91.2891 101.726C91.2128 105.708 92.3211 109.194 94.5434 111.11C96.4698 112.77 99.0702 113.379 102.066 112.873C105.487 112.294 107.349 109.051 107.207 106.397C107.076 103.918 105.131 101.261 102.52 101.103C100.412 100.974 98.7345 101.686 97.7929 103.11C97.3072 103.844 97.0476 104.704 97.0463 105.584C97.0463 106.199 97.1754 106.754 97.3844 107.169C97.4137 107.227 97.4536 107.274 97.4936 107.321C97.5229 107.354 97.5523 107.388 97.5781 107.427C97.5667 107.436 97.5557 107.445 97.5452 107.455C97.5546 107.467 97.6438 107.558 97.7683 107.678C98.4679 108.505 99.5633 108.858 100.478 108.876C100.849 108.883 101.741 108.843 102.024 108.325C102.084 108.215 102.245 107.92 102.015 107.668C101.787 107.418 101.492 107.542 101.334 107.611H101.33C100.772 107.871 100.142 107.93 99.5457 107.778C99.0573 107.664 98.5631 107.221 98.32 106.973C98.3024 106.946 98.2825 106.922 98.2625 106.899C98.2308 106.86 98.198 106.821 98.1745 106.772C98.0218 106.47 97.935 106.058 97.935 105.601C97.935 104.96 98.1099 104.231 98.5302 103.595C99.0667 102.782 100.187 101.842 102.466 101.982C104.56 102.11 105.768 104.29 105.879 106.377C105.992 108.474 105.027 111.109 101.943 111.63C99.217 112.091 96.8667 111.55 95.1456 110.068ZM57.231 28.5678C55.1308 28.4469 52.6408 29.5657 50.2295 31.7105H50.2283C50.7636 29.6936 51.097 26.3349 48.4239 24.0914C49.5627 21.6449 53.5354 19.0328 55.2142 18.9729L55.2494 18.9741C57.5351 20.4416 57.4647 26.2692 57.231 28.5678ZM9.57252 92.2065C11.1323 92.2031 12.1108 93.8896 11.3338 95.2421C10.9968 95.8286 10.3894 96.2083 9.71457 96.2543C8.59773 96.2919 7.66099 95.4187 7.62023 94.302C7.5826 93.1851 8.45578 92.2484 9.57252 92.2076V92.2065ZM12.079 102.711C13.2154 102.711 14.1405 103.636 14.1405 104.773C14.1405 105.91 13.2154 106.835 12.079 106.835C10.9401 106.835 10.0169 105.912 10.0163 104.773C10.0163 103.636 10.9414 102.711 12.079 102.711ZM21.3932 107.461C21.4463 105.902 23.1671 104.985 24.4906 105.811C25.0632 106.168 25.4205 106.787 25.4434 107.461C25.4434 108.576 24.5348 109.485 23.4183 109.485C22.3009 109.484 21.3952 108.578 21.3932 107.461ZM64.4299 63.3561C60.9619 81.0067 59.2444 85.3833 49.2069 85.766V85.7637C49.1964 85.7038 49.1882 85.644 49.1799 85.5853C49.1588 85.4479 49.1389 85.3105 49.106 85.172C48.3981 82.2723 46.2826 80.2765 43.3618 79.6555C43.4756 79.2023 43.7703 77.8734 43.8407 75.9645C50.0792 70.3518 60.5123 68.9982 60.6168 68.9853L60.9385 68.9454L62.285 61.5376L61.4233 62.1023C60.8856 62.4545 48.8148 70.3893 43.8525 74.7577C43.8466 74.3116 43.8243 73.842 43.7867 73.3513C48.2208 68.781 62.744 57.775 63.3498 57.3149L63.3686 57.3019L63.5071 57.1986L64.5473 51.4743L63.8675 51.6645L58.1467 53.267L58.0622 53.4548C53.3053 64.0499 42.6163 72.5318 42.5094 72.6164L42.4907 72.6317L42.3029 72.6152C46.3566 67.5472 53.796 54.7262 54.1212 54.1628L54.6378 53.2705L53.6363 53.5112L47.3169 55.028L47.2945 55.3531C47.2887 55.4588 46.5139 66.0398 41.197 72.5718C39.6722 72.566 38.1514 72.7273 36.6619 73.0531C35.8801 70.2943 33.8456 68.3584 31.0127 67.7702C30.9427 67.758 30.8722 67.7486 30.8014 67.742C30.7472 67.7368 30.6932 67.7297 30.6395 67.7209C30.9893 57.5884 34.5746 54.6828 52.2792 51.2078C62.5843 49.1851 69.2032 45.4777 73.028 42.6073C70.1576 46.4321 66.4502 53.0522 64.4287 63.3561H64.4299ZM42.2688 79.4841C39.6826 79.2529 37.3545 79.8492 35.529 81.1605C36.7558 79.2939 37.2595 76.9648 36.9401 74.4055C36.9284 74.3045 36.9061 74.2095 36.885 74.1144C36.8709 74.0498 36.8556 73.9864 36.845 73.9207C39.8481 73.2762 42.1103 73.4663 42.9074 73.572C42.9438 74.1014 42.9732 74.6239 42.9732 75.0981C42.9732 77.5612 42.5623 79.227 42.4825 79.5181C42.4493 79.5144 42.4164 79.5089 42.3839 79.5017C42.3463 79.4947 42.3087 79.4876 42.2688 79.4841ZM21.1408 52.9089C21.925 55.3074 21.9133 57.6459 21.7842 59.0723C23.4395 57.0096 25.2121 55.3332 27.1199 53.9491C26.0633 51.5072 22.9546 52.7962 22.9546 52.7962C22.9546 52.7962 22.9358 52.7152 22.8959 52.5814L21.405 53.3926L21.1408 52.9089ZM17.5966 54.0066C18.2987 56.3968 18.0298 58.6931 17.8654 59.6381L17.2668 59.0711L17.0848 58.8985C17.4499 58.119 17.9394 56.5459 17.5966 54.0066ZM20.8462 60.3084C20.5374 60.7428 20.2404 61.1854 19.9657 61.635L19.8131 61.4895L19.5431 61.2335V61.2312L18.5252 60.2627L18.6356 60.2909C18.6591 60.1946 20.9507 50.5081 12.1412 47.16C11.8477 47.0731 11.4485 46.9569 11.2783 47.3384C11.1104 47.7223 11.3898 47.8925 11.9533 48.2353C13.0592 48.9104 15.9953 50.703 16.4825 52.8162C17.1235 55.6032 16.7408 57.3665 16.4015 58.2528C12.8819 54.9317 8.23304 50.5986 7.19993 49.9012C6.59181 49.4903 5.84868 49.4035 5.15721 49.4293C4.75848 49.4481 4.36109 49.4889 3.96682 49.5514L3.60521 49.5842C4.87546 47.6624 7.14008 46.2725 9.60421 45.9567C9.87423 45.9214 10.1419 45.9015 10.4096 45.8909C12.9782 45.8005 15.5175 46.8418 17.6389 48.8704C22.1669 53.2083 20.744 60.211 20.7276 60.2826L20.845 60.3085L20.8462 60.3084ZM33.7094 81.9952C31.9296 83.7092 29.2906 84.5721 26.986 84.1952H26.9895C23.2634 83.5848 20.2745 81.0843 18.7905 77.3299C16.7056 72.0634 17.9688 65.4657 22.0836 60.1077C27.3054 53.314 34.4431 51.3205 42.7149 49.0113H42.7184L42.7267 49.0078L42.7407 49.0043L44.2434 48.584L44.2974 48.5676C47.4707 47.6742 50.7519 46.7503 54.383 45.4988C66.5782 41.3007 73.0574 31.5368 72.38 20.3735C72.8108 14.1502 74.5166 9.47435 77.367 6.75073C79.4942 4.72093 82.4527 4.04239 85.7856 4.16562C89.6244 4.30652 91.6613 5.99702 92.8529 7.63237C94.7711 10.2609 95.4826 14.0775 94.6256 17.1298C93.839 19.9344 91.2985 22.2577 88.157 23.0513C85.4428 23.7357 82.9352 23.1394 81.2705 21.416C79.4414 19.5236 78.9918 16.2188 80.201 13.5621C81.1637 11.4489 82.9704 10.2985 85.1551 10.4123C86.4031 10.4757 87.3528 10.9054 87.975 11.6861C88.3002 12.0923 88.5151 12.5607 88.6559 13.0373C87.9339 12.4034 86.531 11.5581 84.5928 12.1651C81.679 13.0784 82.1216 19.3991 86.5299 19.0222C90.9358 18.6466 90.8559 14.2289 90.2114 12.7039C89.5681 11.1778 88.0994 9.24191 84.4273 9.51896L84.4543 9.526L84.5165 9.54243C82.2613 9.66336 80.4158 10.9571 79.3956 13.197C78.0409 16.1719 78.5633 19.8863 80.6342 22.03C82.1897 23.643 84.4683 24.3838 86.9173 24.1478C85.5848 24.7418 84.1185 25.3335 82.5501 25.9675L82.4714 25.998L79.7713 27.0992C76.301 28.5338 75.1905 30.9498 74.8688 32.7284C74.4462 35.0693 75.2832 37.3726 76.2612 38.4902C74.8559 40.0844 67.8555 47.0872 51.7298 49.9916C33.6965 53.2411 29.4643 56.9169 29.5312 67.6188C27.0037 67.5648 24.6933 68.6988 23.5123 70.6993C21.9743 73.302 22.6635 76.0643 24.0265 77.6492C24.3751 78.0542 24.7637 78.3747 25.1758 78.6236C27.2255 80.3716 31.5328 79.8433 31.6948 75.954C31.8745 71.6373 26.6749 71.4893 25.9917 74.0556C25.5585 75.6804 26.2453 76.4236 26.7313 76.9495C27.013 77.2547 27.2267 77.486 27.1164 77.7724C26.9884 78.1035 26.6949 78.1986 26.3979 78.2045C25.7768 78.0307 25.1922 77.6469 24.6968 77.0716C23.5381 75.7262 22.9593 73.3736 24.2718 71.1477C25.4681 69.1168 28.1694 68.0837 30.8343 68.6354C33.7235 69.2353 35.6793 71.4318 36.0644 74.5135C36.5457 78.3594 35.05 80.705 33.7094 81.9952ZM26.8428 85.0675C29.0558 85.4303 31.4483 84.8045 33.3466 83.4322C32.0611 85.3727 31.5293 87.7641 31.966 89.9477C32.0799 90.5089 32.2419 91.0466 32.4321 91.5701C30.9083 91.7086 26.8041 92.143 23.5839 93.0705C23.9642 91.7967 24.6287 88.9945 24.8517 84.5474C25.4981 84.7813 26.1646 84.9554 26.8428 85.0675ZM19.2261 97.7581L19.6335 97.6513L19.5278 98.115L19.2261 97.7581ZM32.782 92.4283C33.6191 94.2405 34.9233 95.7972 36.5609 96.9387C33.8949 97.5398 26.4754 98.9168 19.7697 97.44C18.0873 90.8106 19.192 83.3981 19.6968 80.725C20.8175 82.2173 22.2911 83.408 23.9854 84.1905C23.7083 90.4443 22.505 93.533 22.4921 93.5647L22.1364 94.4487L23.0415 94.1482C26.4167 93.0212 31.4894 92.5375 32.782 92.4283ZM63.3369 98.0962C60.7858 97.8426 59.2303 98.3874 58.4649 98.7807L57.6983 98.0258C58.6375 97.8286 60.9244 97.4775 63.3369 98.0962ZM56.9235 95.0709L56.9528 95.1883C57.0233 95.1719 63.9732 93.5025 68.466 97.8743C70.5709 99.9218 71.7003 102.422 71.7003 104.993C71.7003 105.261 71.6885 105.53 71.6627 105.8C71.4349 108.273 70.1248 110.587 68.2499 111.923L68.2699 111.562L68.2734 111.533C68.3086 111.193 68.3509 110.788 68.3509 110.365C68.3509 109.675 68.2394 108.933 67.8074 108.341C67.0748 107.334 62.5797 102.841 59.1364 99.4416C60.011 99.0706 61.7591 98.6257 64.566 99.1692C66.6909 99.5813 68.5833 102.445 69.3007 103.531L69.3042 103.535C69.6658 104.085 69.8477 104.361 70.2246 104.176C70.5979 103.993 70.4676 103.6 70.3713 103.31C66.7132 94.6225 57.1148 97.2521 57.0186 97.2803L57.0503 97.3895L55.6286 95.996C56.0688 95.7072 56.4973 95.3961 56.9235 95.0709ZM58.1256 94.0883C60.1296 92.3626 61.7414 90.5312 63.0575 88.5765C65.5346 89.5462 64.3559 92.6971 64.3559 92.6971C64.3559 92.6971 64.4369 92.7124 64.5719 92.7488L63.8135 94.2655L64.3125 94.5168C61.8858 93.8148 59.5485 93.9099 58.1256 94.0883ZM108.455 36.7023C105.837 39.6477 101.222 41.5155 95.0177 42.1671V42.1706C83.838 41.8865 74.3076 48.7049 70.5404 61.0387C69.4157 64.7249 68.6057 68.0473 67.8214 71.2569L67.8156 71.2816L67.4434 72.8195C65.4266 81.1699 63.6867 88.3746 57.0796 93.8336C51.8707 98.135 45.3211 99.6294 39.9831 97.7311C36.1794 96.3799 33.5732 93.4813 32.8336 89.7787C32.3757 87.4894 33.1471 84.8198 34.7976 82.9814C36.0397 81.5972 38.3313 80.0206 42.1913 80.3658C45.2847 80.6416 47.5493 82.5188 48.249 85.3857C48.8947 88.0294 47.9579 90.766 45.968 92.0327C43.7915 93.425 41.42 92.9284 40.0335 91.8178C39.4419 91.3435 39.0392 90.773 38.8431 90.1578C38.8396 89.8608 38.923 89.5638 39.2493 89.4241C39.5334 89.302 39.7717 89.5074 40.0864 89.7787C40.6288 90.2459 41.3965 90.9069 43.0037 90.4173C45.5442 89.6448 45.2131 84.4535 40.9058 84.7858C37.0247 85.0839 36.649 89.4065 38.4675 91.3928C38.7304 91.7955 39.0639 92.1724 39.4818 92.5081C41.1113 93.8136 43.8959 94.4041 46.4434 92.7781C48.404 91.5255 49.4559 89.1729 49.3115 86.6477C59.8396 86.2333 62.413 81.8438 65.6449 63.9114C68.6045 47.4723 75.8279 40.5141 77.2367 39.3014C78.4987 40.0551 80.5532 40.5576 82.5841 40.1161C84.3475 39.7311 86.7259 38.5348 88.0373 35.0188L89.0398 32.2787C89.628 30.6598 90.1786 29.1466 90.7327 27.773C90.5847 30.2266 91.4042 32.4795 93.0712 33.9763C95.2877 35.972 99.0174 36.3595 101.942 34.9037C104.144 33.8049 105.373 31.9136 105.413 29.6561L105.423 29.6854L105.44 29.7453C105.587 26.0637 103.601 24.6655 102.054 24.075C100.508 23.4869 96.0907 23.5608 95.8699 27.9785C95.6481 32.3961 101.979 32.6168 102.789 29.6713C103.329 27.7108 102.435 26.3431 101.775 25.6423C102.256 25.7655 102.734 25.9639 103.15 26.2727C103.954 26.8691 104.414 27.8012 104.523 29.0456C104.712 31.228 103.628 33.0723 101.547 34.1101C98.9352 35.412 95.6187 35.0786 93.6606 33.3189C91.882 31.7152 91.1975 29.2288 91.7857 26.4957C92.4666 23.326 94.7019 20.7057 97.4771 19.8205C100.494 18.8567 104.335 19.4331 107.03 21.2575C108.705 22.3916 110.466 24.3685 110.742 28.1992C110.982 31.5262 110.408 34.5058 108.455 36.7023ZM92.1485 66.2359C89.8122 63.6426 86.4664 64.0934 84.4707 64.7003C86.5298 62.2138 87.5606 59.6851 87.3645 57.5931C89.6538 57.2773 95.4767 57.0038 97.0216 59.2366L97.0228 59.2695C97.0228 60.9483 94.5551 65.0114 92.1485 66.2359ZM40.4256 17.4808C36.75 17.6828 37.452 20.9018 39.2893 20.7633C39.8211 20.7233 40.2331 20.4709 40.6781 20.2009C41.7687 19.5365 43.0471 18.7569 46.7299 20.7222C47.7102 21.3514 48.1316 20.8196 47.3732 20.1833C47.3732 20.1833 44.1037 17.2777 40.4256 17.4808ZM44.4207 11.6685C46.4435 12.8448 48.7608 15.6412 49.5979 18.4846V18.4834C49.7646 19.0539 49.3291 19.1526 49.0931 18.7957C47.8475 16.9244 45.6205 14.351 42.8898 14.2254C41.258 14.1514 40.3728 13.8732 40.5454 12.4668C40.7156 11.0721 42.5951 10.6049 44.4207 11.6685ZM52.4765 16.5416C52.4765 16.5416 52.3004 9.47435 49.5486 6.62396C48.4004 5.41241 46.164 6.74489 47.1114 8.55163C47.4049 9.11044 47.8487 9.5859 48.3559 10.1306C49.4946 11.348 50.9503 12.9059 51.7369 16.4935C51.8402 17.3012 52.4929 17.057 52.4765 16.5416ZM63.7982 28.7157C63.4191 27.7366 62.9729 26.5909 59.5872 26.032C58.6328 25.9522 58.6246 25.3946 59.4369 25.3593C59.4369 25.3593 63.0234 25.0976 65.3221 27.0675C67.6207 29.0374 65.5557 30.7866 64.424 29.777C64.0976 29.4859 63.9532 29.1149 63.7982 28.7157ZM59.1223 22.6533C60.7424 21.7658 63.3486 20.7409 65.3831 21.6942C66.6005 22.2636 67.3519 22.3986 67.7628 21.3068C68.1736 20.2268 66.982 19.169 65.2458 19.2465C63.324 19.331 60.5687 20.4815 58.8723 22.2319C58.533 22.5817 58.8135 22.82 59.1211 22.6522H59.1235L59.1223 22.6533ZM63.3005 15.1974C62.0255 15.7938 60.3937 16.5581 58.661 19.2007C58.3322 19.8206 57.892 19.3979 58.0646 18.9847C58.0646 18.9847 60.3914 13.305 63.4449 11.9385C64.7268 11.3492 66.0793 13.2017 64.7715 14.3451C64.3676 14.6973 63.8699 14.931 63.2993 15.1974H63.3005ZM56.151 16.2634C56.5666 15.5121 58.5436 11.0228 58.9615 8.20764C59.4909 4.627 55.4748 5.45583 55.7988 8.39197C56.0935 12.5818 55.348 16.5123 55.348 16.5123C55.3715 17.1744 55.7343 17.016 56.1498 16.2634H56.151ZM59.9582 71.9883L59.8983 72.4696C59.883 72.5835 59.5285 75.3071 58.0857 76.5093L57.8591 76.6983L57.5961 76.5586C52.8557 74.0498 48.0764 75.9235 46.3589 76.5961C46.1347 76.6842 45.9621 76.7523 45.8494 76.7863C44.875 77.0834 44.9783 76.2381 45.4596 75.9927C45.7074 75.8659 45.9856 75.6992 46.2697 75.5267C46.535 75.3658 46.8062 75.2014 47.0656 75.0653C53.202 71.8251 59.1987 71.9636 59.4733 71.9719L59.9582 71.9883ZM46.8942 77.722C45.8694 77.9169 46.1769 78.6118 46.9576 78.5978C47.7372 78.5848 48.4298 78.7715 49.0496 78.9746C51.9423 79.9279 53.1468 82.3146 53.2078 82.4378L53.3781 82.783L53.7443 82.6632C53.8735 82.6198 54.6272 82.2817 56.7004 79.8809L56.9857 79.5522L56.6593 79.2646C53.5506 76.4999 47.9215 77.5295 46.8954 77.7243V77.722H46.8942ZM43.1962 56.047L43.6729 55.9601H43.674L43.7151 56.4426C43.7386 56.7102 44.1917 62.4169 41.5198 68.5579L41.4364 68.7505C41.1488 69.4173 40.826 70.1592 40.4597 70.7016C40.057 71.2957 39.4266 70.7709 39.6673 70.3142C39.908 69.8587 40.0007 69.5042 40.2942 68.2715C40.8506 65.9283 41.2909 61.9743 39.2399 58.5733L39.0873 58.3186L39.2634 58.0814C40.3822 56.5741 43.0812 56.0669 43.1962 56.047ZM36.285 59.5689L35.9728 59.8718C33.7493 62.019 33.41 62.7914 33.3607 62.9769L33.2586 63.349L33.6143 63.5005C33.7551 63.5592 36.7899 64.8858 37.6292 68.5192C37.7009 68.8385 37.7232 68.9477 37.7948 69.5277C37.8652 70.1076 38.5966 70.4504 38.6717 69.5405C38.7022 69.179 38.7211 69.0123 38.734 68.8925C38.7528 68.7117 38.761 68.6425 38.7809 68.1764C38.8748 66.0633 38.7363 62.0377 36.5914 59.8788L36.2862 59.5677L36.285 59.5689ZM81.8774 34.7511C80.5168 34.7857 79.629 33.3345 80.2794 32.1389C80.5967 31.5554 81.2145 31.199 81.8786 31.2163C83.2391 31.2513 84.0515 32.7461 83.3409 33.9068C83.028 34.4179 82.4776 34.7357 81.8786 34.7511H81.8774Z" fill="#F7F5EE"/>
</svg>
