<svg width="115" height="115" viewBox="0 0 115 115" fill="none" xmlns="http://www.w3.org/2000/svg">
<path fill-rule="evenodd" clip-rule="evenodd" d="M112.505 94.5023L112.884 94.0878L113.198 94.5563C113.929 95.6528 114.048 97.0005 113.543 98.4515C112.838 100.466 110.946 102.408 108.978 103.3C111.784 105.751 112.377 109.003 112.756 111.206L112.932 112.161L113.038 112.8L111.452 112.509C109.25 112.128 105.998 111.537 103.548 108.731C102.653 110.697 100.714 112.591 98.6979 113.295C98.1085 113.501 97.5368 113.603 96.9909 113.603C96.2125 113.61 95.4499 113.383 94.8026 112.95L94.3342 112.637L94.7486 112.259C102.732 104.904 97.8878 98.3271 97.6789 98.0512L98.2976 97.4325C98.5722 97.6415 105.151 102.486 112.505 94.5023ZM112.695 95.5565C110.168 98.1357 107.706 99.3214 105.532 99.7358C105.492 100.598 105.238 102.576 103.843 103.837C102.892 104.694 101.612 105.036 100.034 104.877C99.6969 107.145 98.5499 109.754 95.8028 112.449C96.202 112.613 96.6058 112.716 96.9921 112.716C97.5157 112.716 98.0064 112.599 98.4055 112.461C100.375 111.773 102.403 109.729 103.019 107.808L103.281 106.998L103.794 107.675C106.072 110.682 109.4 111.256 111.601 111.635L111.947 111.699L111.884 111.352L111.884 111.35C111.504 109.149 110.928 105.821 107.924 103.545L107.247 103.032L108.057 102.772C109.977 102.154 112.02 100.127 112.706 98.1568C112.95 97.4607 113.086 96.4933 112.696 95.5541L112.695 95.5565ZM41.003 99.035C44.6846 99.1089 47.8508 96.0906 47.8508 96.0906C48.5869 95.4285 48.1455 94.912 47.1876 95.5741C43.5776 97.6673 42.2733 96.9347 41.1592 96.309C40.7049 96.0542 40.2834 95.8171 39.7504 95.796C37.9096 95.7232 37.3203 98.9622 41.0019 99.0362L41.003 99.035ZM41.2977 104.043C41.077 102.643 41.9516 102.334 43.5799 102.2L43.5811 102.202C46.3059 101.98 48.4413 99.3308 49.6188 97.4172C49.8419 97.0521 50.2821 97.1355 50.1342 97.7107C49.3981 100.581 47.1793 103.459 45.2012 104.705C43.4132 105.832 41.5184 105.433 41.2977 104.043ZM50.5017 109.564C53.1525 106.618 53.0785 99.5503 53.0785 99.5503C53.0785 99.0338 52.4164 98.8143 52.3425 99.6255C51.6815 103.237 50.2821 104.845 49.1892 106.101C48.6996 106.665 48.2711 107.155 47.9988 107.724C47.1159 109.567 49.3981 110.817 50.5028 109.567L50.5028 109.564L50.5017 109.564ZM59.7244 90.492C58.9096 90.4849 58.9026 89.9273 59.8523 89.8134C63.2169 89.1372 63.6208 87.975 63.9671 86.983C64.108 86.5791 64.2371 86.2035 64.5541 85.9006C65.6494 84.8522 67.7755 86.5275 65.5473 88.5772C63.3191 90.6282 59.7244 90.492 59.7244 90.492ZM59.2724 93.6359C61.0286 95.3264 63.8215 96.3794 65.7469 96.397C67.4843 96.4112 68.6372 95.3123 68.1899 94.2464C67.7403 93.1722 66.9948 93.333 65.7985 93.9446C63.7981 94.9683 61.1578 94.0374 59.506 93.2086C59.1926 93.0512 58.9214 93.2989 59.2736 93.637L59.2724 93.6359ZM63.9425 100.511C64.5212 100.757 65.0272 100.973 65.4428 101.311C66.7929 102.407 65.5015 104.306 64.2019 103.763C61.1026 102.506 58.5762 96.9101 58.5762 96.9101C58.3884 96.5062 58.8134 96.0648 59.1656 96.6753C60.9911 99.2533 62.6476 99.9589 63.9425 100.511ZM59.8523 107.648C59.337 104.852 57.2015 100.433 56.7589 99.6971C56.3175 98.9622 55.9489 98.8143 55.9489 99.4764C55.9489 99.4764 56.8317 103.38 56.6873 107.577C56.4654 110.521 60.5074 111.21 59.8523 107.65L59.8523 107.648ZM4.93164 95.1456C6.6691 93.1287 9.55004 92.1015 13.2598 92.1731L13.2621 92.1696C21.2217 92.3222 26.9765 97.625 30.4021 102.047C34.4992 107.335 40.0733 110.678 40.1954 110.575L40.2001 110.555C46.1685 113.862 53.2722 114.536 60.0096 112.483C66.3808 110.542 70.775 106.308 72.0663 100.862C72.2011 100.286 72.3186 99.7067 72.4185 99.1242C73.164 103.844 74.7007 106.881 77.3809 109.264C79.7617 111.383 83.1146 112.172 86.6893 111.912C90.8722 111.611 93.2319 109.357 94.4763 107.518C96.445 104.611 97.0661 100.465 96.0247 97.2012C95.7113 96.2222 95.19 95.3147 94.5338 94.4941L94.6312 94.4201C92.5674 91.6671 88.3564 90.1386 83.0265 88.2027L80.2959 87.2013C77.152 86.0297 76.0895 83.9377 75.7526 82.3881C75.2983 80.2984 76.0343 77.9504 76.8961 77.0911C77.7237 76.1989 80.0118 75.3489 82.1155 75.7293C83.6746 76.011 85.8018 76.9995 87.0849 80.0976L88.1826 82.7942L88.185 82.8013C90.3052 88.056 91.9792 92.2071 94.8026 94.1724L94.873 94.0714C95.716 94.6995 96.6411 95.189 97.6307 95.4661C100.93 96.3936 105.05 95.6258 107.887 93.556C109.678 92.2494 111.849 89.8111 112.004 85.62C112.136 82.0394 111.229 78.7147 109.029 76.4102C106.552 73.8134 103.463 72.3858 98.7214 71.8082C99.2994 71.6876 99.8737 71.5498 100.444 71.395C105.839 69.9123 109.917 65.3702 111.631 58.9368C113.446 52.1301 112.524 45.0558 109.008 39.2071L109.026 39.2024C109.125 39.0779 105.587 33.626 100.157 29.7167C95.6185 26.4483 90.1138 20.8849 89.683 12.9359C89.4798 9.22971 90.4061 6.31593 92.3596 4.50799C94.029 2.96658 96.3593 2.34438 99.0993 2.70949C102.199 3.12036 103.255 5.71954 103.219 7.81861C103.18 9.90945 102.05 12.1306 99.9611 12.3325C97.6883 12.5509 96.5366 11.6516 95.9696 10.8592C95.5606 10.2757 95.3298 9.58612 95.3051 8.87399C95.2887 8.41735 95.3638 8.00294 95.5023 7.69653C95.5254 7.65062 95.5533 7.60729 95.5857 7.56736C95.6057 7.54252 95.6246 7.51662 95.642 7.4899C95.8768 7.2328 96.3546 6.77377 96.8395 6.6423C97.4308 6.46838 98.0642 6.50573 98.6309 6.74796C98.7918 6.80901 99.0888 6.92405 99.3083 6.66576C99.529 6.40517 99.3588 6.11753 99.2942 6.00953C98.9949 5.50353 98.1003 5.49299 97.7305 5.51411C96.816 5.56107 95.7359 5.95552 95.0633 6.80546C94.9435 6.92874 94.8578 7.02382 94.8496 7.03556L94.866 7.04968C94.8707 7.05478 94.8758 7.05948 94.8813 7.06375C94.8578 7.10134 94.8308 7.13418 94.8038 7.16942C94.765 7.21638 94.7252 7.26569 94.6982 7.32674C94.5056 7.74934 94.3941 8.30815 94.4152 8.9233C94.4475 9.8025 94.7374 10.6528 95.2487 11.3687C96.2384 12.7598 97.9418 13.4126 100.044 13.2095C102.646 12.9582 104.496 10.2358 104.541 7.75288C104.588 5.0962 102.615 1.92059 99.1745 1.46275C96.1633 1.06126 93.5852 1.76327 91.7174 3.489C89.5632 5.48121 88.5794 9.00551 88.7954 12.9817C89.2486 21.2794 94.9423 27.0494 99.637 30.4305C100.091 30.7556 100.525 31.0949 100.948 31.4342C96.4708 29.2858 91.1246 29.0921 86.7668 30.5021C85.8969 30.7416 82.5569 31.7817 79.3168 34.4466C77.6732 35.7967 75.7056 36.2815 73.9224 35.7767C72.6228 35.4081 71.5979 34.5417 71.2457 33.5156C70.8501 32.3652 70.9018 31.365 71.3913 30.7005C71.5744 30.4504 71.8444 30.2602 72.1485 30.0982C72.6016 29.9667 73.3401 29.9527 73.8989 30.9353C74.763 32.452 77.031 32.0036 76.8949 30.2415C76.7728 28.6683 73.6852 27.6763 71.6202 29.3598C71.187 29.6087 70.8818 29.8998 70.6811 30.1769C70.013 31.082 69.9156 32.3699 70.4075 33.8044C70.8606 35.1193 72.0828 36.1735 73.6805 36.6267C75.7491 37.2137 78.0078 36.6666 79.8768 35.1287L79.8862 35.1216L79.9049 35.1076L79.8133 35.2179C79.6795 35.3799 79.5445 35.5443 79.4295 35.7063C78.0442 37.6762 77.3187 40.4526 77.5382 42.9544C77.7965 45.9045 79.7582 47.8745 81.6553 49.7799L81.9101 50.0358C84.474 52.6209 85.7983 55.3186 85.5388 57.44C85.3804 58.7431 84.7288 59.7539 83.7074 60.2869C82.7142 60.8058 81.498 60.7858 80.4555 60.2329C79.7006 59.8326 79.3074 59.2808 79.2839 58.5846L79.2839 58.5729L79.2862 58.5612L79.2886 58.5377C79.4365 57.3872 80.3064 56.8765 80.9451 56.5055L80.9498 56.502C81.3876 56.2461 81.7328 56.0441 81.7868 55.6579C81.7902 55.6216 81.7921 55.5852 81.7927 55.5487C81.7817 55.3592 81.6986 55.181 81.5602 55.051C81.4593 54.9453 81.1705 54.7223 80.6715 54.9042C79.8427 55.2059 78.5149 56.7168 78.4057 58.3088C78.3506 59.1164 78.5901 60.2423 80.0423 61.0124C81.3419 61.7015 82.8657 61.7227 84.1171 61.0688C85.2348 60.4876 86.0166 59.4217 86.3195 58.0986C87.288 58.1961 94.9259 58.857 96.8383 55.6356L96.8923 55.5476L96.9005 55.4466C97.0625 53.4532 94.144 49.0837 91.4368 47.6867L91.4592 47.6514C91.5258 47.5485 91.59 47.444 91.6517 47.338C93.4197 44.2176 92.4582 41.98 91.7268 40.9258C90.5282 39.1976 88.2953 38.1587 86.4134 38.4557C85.0739 38.667 84.0584 39.389 83.5172 40.4879C82.0908 42.6057 83.4679 46.2509 86.2948 46.0994C89.0067 45.9562 89.1006 42.6316 87.6414 41.9647C86.694 41.5304 86.1423 41.7828 85.6903 41.9882C85.4449 42.0997 85.2301 42.1983 84.9952 42.1678C84.3519 41.9518 84.2205 41.4494 84.2592 40.988C84.656 40.0911 85.4637 39.4994 86.5519 39.328C88.0898 39.0849 90.0034 39.9877 91.0001 41.4294C92.059 42.9579 92.018 44.9044 90.8827 46.9048C88.1415 51.7404 82.2071 48.9475 81.957 48.8277C80.2783 47.1337 78.637 45.3481 78.4199 42.8781C78.2179 40.5736 78.8824 38.0213 80.1526 36.2169C81.0167 34.989 82.3209 33.768 83.7332 32.8688C84.7417 32.2388 85.8241 31.7356 86.9558 31.3708C87.0967 31.3297 87.1882 31.3074 87.1882 31.3074L87.1836 31.2898C92.8174 29.5183 100.158 30.5314 104.765 35.1733C110.952 41.4071 113.026 50.267 110.776 58.7091C109.144 64.8325 104.609 68.8639 99.5255 70.2609C86.5179 73.8357 75.6904 67.2462 70.9358 53.4403C69.6879 49.8104 68.7628 46.5256 67.8682 43.3465C66.8867 39.8598 65.9194 36.6549 64.6797 33.7047L84.2615 13.3727L83.8577 1.92762L82.9749 1.95932L83.3646 13.0299L77.9726 18.6297L77.9162 18.6884L64.2993 32.8289C63.6967 31.4692 63.0037 30.1514 62.2249 28.8844L78.5901 11.3241L78.259 1.90651L75.9028 1.98866L71.3866 7.6014C71.3866 7.6014 73.2297 13.8704 68.5433 18.8997C66.4442 21.0528 64.4343 22.1082 63.258 22.5918L62.4057 21.0258C63.9214 20.4857 65.4463 19.6264 66.7671 18.247C69.1971 15.7112 70.3171 12.6002 69.9203 9.48915C69.5575 6.64934 67.9833 4.11823 65.714 2.71652L65.7116 2.71652C65.5543 2.61909 65.1481 2.37019 64.7889 2.60497C64.398 2.86092 64.4719 3.37745 64.5729 4.08889C64.6891 4.89425 64.8453 5.9954 64.3675 6.70449C63.393 8.14848 54.4885 17.5062 52.5749 19.5125C51.3007 18.8006 49.9564 18.2219 48.5634 17.7856L60.9723 4.76628L60.8784 2.07786L59.9956 2.1096L60.0777 4.42464L53.7195 11.0951L53.6174 11.202L47.6019 17.5097C46.731 17.2858 45.8451 17.1241 44.9511 17.0261L58.2499 2.7576L55.16 2.86561L41.5936 16.9779C40.1214 17.1059 38.6927 17.4287 37.3438 17.9617C36.6124 18.2493 35.9432 18.6074 35.3046 19.0007C34.9771 18.9302 34.2703 18.7846 33.2772 18.625C33.2185 18.4665 32.8345 17.3724 33.4591 15.9425C34.2574 14.1181 36.4082 12.5286 39.68 11.3487C45.0145 9.42461 46.3528 7.349 46.5383 5.94729C46.6863 4.83436 46.1533 3.73671 45.1155 3.01469C44.2937 2.44535 42.7875 2.19529 41.6077 2.85503C40.6426 3.39507 40.1543 4.42818 40.2306 5.76181L40.2353 5.84282L40.2693 5.91679C40.4783 6.38636 40.8422 6.37932 40.9467 6.36524C41.401 6.30769 41.7215 5.73596 41.9035 4.66651C42.096 3.51835 42.9953 3.40799 43.0974 3.39976L43.0927 3.3493C43.6727 3.32933 44.2456 3.4878 44.6095 3.7414C44.8948 3.941 45.8128 4.67939 45.6614 5.83343C45.5358 6.78315 44.5543 8.65213 39.3795 10.5199C35.8059 11.8078 33.5366 13.5229 32.635 15.6208C32.1067 16.8476 32.1936 17.8889 32.3239 18.483C30.0347 18.1601 26.7475 17.856 23.2362 18.0497L21.7934 12.3513C22.9584 11.9147 23.7158 10.7844 23.6764 9.5408C23.6197 7.93591 22.2737 6.68025 20.6687 6.73503C19.0641 6.79364 17.8098 8.14033 17.8653 9.74509C17.9233 11.3494 19.2685 12.6044 20.873 12.5509C20.8832 12.55 20.8935 12.5484 20.9035 12.5462L20.9153 12.5438C20.9207 12.5428 20.9262 12.542 20.9317 12.5415L22.3404 18.1108C20.6338 18.2382 18.941 18.5108 17.2806 18.9255L12.7714 13.6309L12.6705 13.7166C12.9976 13.2328 13.1723 12.6619 13.1717 12.0778C13.1698 10.4512 11.8517 9.13306 10.225 9.13108C8.59895 9.1337 7.28151 10.4516 7.27958 12.0778C7.28151 13.7044 8.59963 15.0225 10.2262 15.0244C10.9705 15.0244 11.6432 14.7368 12.1633 14.2801L16.6948 19.6041C16.3262 21.2829 16.1313 23.0051 16.0573 24.6874L10.4411 23.4759C10.4423 23.4582 10.4469 23.4383 10.4469 23.4195C10.4457 21.8134 9.14396 20.5117 7.53782 20.5104C5.93219 20.5124 4.63122 21.8138 4.62993 23.4195C4.63186 25.0247 5.93265 26.3255 7.53782 26.3274C8.8163 26.3274 9.89164 25.4939 10.2814 24.3458L16.0268 25.5855C15.9564 29.1015 16.3755 32.3769 16.7794 34.6532C16.1818 34.5441 15.1381 34.4935 13.9301 35.0653C11.8686 36.0397 10.2321 38.3677 9.06985 41.9847C7.38638 47.2229 5.55264 48.2701 4.60876 48.4286C3.4583 48.6211 2.68932 47.7278 2.48034 47.4507C2.21387 47.095 2.03544 46.5291 2.03544 45.9504L2.06124 45.9504L2.0859 45.9504C2.09059 45.8482 2.16925 44.9454 3.31037 44.7107C4.37163 44.4946 4.93044 44.153 4.97387 43.6975C4.98325 43.5918 4.97856 43.2302 4.50196 43.0365L4.42679 43.0037L4.34463 43.0037C3.0098 42.9743 1.99435 43.4979 1.48955 44.4817C0.872 45.6839 1.17491 47.1818 1.7748 47.9802C2.532 48.9933 3.64612 49.4852 4.75435 49.3009C6.14903 49.0661 8.17528 47.6549 9.9104 42.2559C10.9752 38.9441 12.4873 36.7382 14.2835 35.8765C15.6899 35.2003 16.7958 35.5454 16.9566 35.6006C17.1515 36.5867 17.3205 37.2888 17.4027 37.6128C17.0364 38.2655 16.7007 38.9488 16.4365 39.6884C15.9517 41.0549 15.6793 42.4965 15.603 43.971L1.97909 58.0258L1.97909 61.1192L15.7697 47.3286C15.8989 48.2067 16.0879 49.086 16.345 49.9606C12.1331 54.2695 7.9209 58.578 3.70836 62.886L1.38978 62.886L1.38978 63.7689L4.07815 63.7689L16.6537 50.9092C17.1403 52.285 17.7661 53.6075 18.5215 54.8561C16.5844 56.8401 7.5449 66.0675 6.1361 67.0924C5.44582 67.5948 4.33994 67.4763 3.53228 67.3906L3.52993 67.3906L3.52639 67.3894C2.8126 67.3143 2.29722 67.2603 2.05659 67.6571C1.83354 68.0257 2.09882 68.4249 2.1998 68.5763C3.68017 70.7974 6.26527 72.2802 9.11686 72.5419C12.2396 72.8296 15.3072 71.6016 17.7573 69.0823C19.0886 67.7134 19.8939 66.1603 20.3799 64.6271L21.9765 65.4242C21.5339 66.6158 20.5502 68.6643 18.4711 70.8362C13.6108 75.6964 7.27842 74.0764 7.27842 74.0764L1.8312 78.7887L1.8312 81.1448L11.2547 81.1448L28.2291 64.1716C29.5227 64.9051 30.864 65.551 32.244 66.1051L13.1295 85.8572L2.0519 85.8571L2.0519 86.74L13.504 86.74L33.1328 66.4561C36.1264 67.589 39.3619 68.4436 42.8826 69.303L42.8908 69.3041C46.0958 70.086 49.4099 70.8937 53.0762 72.0137C67.0429 76.2787 74.0081 86.868 70.8935 99.9929C69.6773 105.123 65.8079 109.796 59.7455 111.645C51.3869 114.192 42.46 112.43 36.0125 106.467C31.211 102.026 29.9395 94.7253 31.5127 89.0339L31.5291 89.0363L31.5315 89.0269C31.5373 89.001 31.5549 88.9212 31.5855 88.8038C31.9098 87.6596 32.3743 86.5598 32.9684 85.5296C33.8195 84.0856 34.9923 82.7402 36.1886 81.8328C37.9496 80.5003 40.4759 79.7466 42.7851 79.8675C45.2622 79.9967 47.1042 81.5745 48.8569 83.1922C48.9861 83.4388 51.9855 89.271 47.2486 92.1813C45.288 93.3846 43.3463 93.495 41.7814 92.4901C40.3069 91.5427 39.3372 89.6631 39.525 88.1182C39.6589 87.0241 40.2224 86.1964 41.1029 85.7679C41.5654 85.7151 42.0702 85.8266 42.3085 86.4629C42.3473 86.6954 42.2569 86.9149 42.1536 87.1638C41.9634 87.6216 41.731 88.1828 42.1982 89.1126C42.9155 90.5495 46.2366 90.337 46.2836 87.6228C46.3352 84.7923 42.6443 83.5433 40.5781 85.0436C39.4992 85.6235 38.8136 86.6637 38.6493 88.0114C38.418 89.9015 39.5356 92.0968 41.3048 93.2332C42.3872 93.9282 44.6553 94.8122 47.7123 92.9338C47.8087 92.8739 47.9035 92.8112 47.9964 92.746L48.0551 92.7072C49.5437 95.3628 54.0142 98.1263 56.0006 97.8927L56.1027 97.881L56.1884 97.8258C59.3393 95.7995 58.4107 88.191 58.2792 87.226C59.5905 86.8773 60.6272 86.0567 61.1719 84.9203C61.7788 83.6454 61.706 82.1239 60.9723 80.8501C60.1505 79.4249 59.0165 79.2265 58.2099 79.3099C56.6251 79.4766 55.16 80.8548 54.8876 81.6942C54.7233 82.1991 54.9569 82.4808 55.0649 82.5771C55.1996 82.7106 55.3801 82.7878 55.5697 82.7931C55.6068 82.7926 55.6437 82.7887 55.68 82.7813C56.0651 82.7144 56.2553 82.3611 56.4948 81.9126C56.8435 81.2599 57.326 80.3723 58.4682 80.1845L58.4882 80.1822C58.4976 80.1798 58.5058 80.1774 58.5152 80.1774C59.2102 80.1774 59.7772 80.5508 60.2034 81.2904C60.7904 82.3129 60.8549 83.5268 60.3713 84.5388C59.8746 85.5778 58.8862 86.2645 57.5901 86.4676C55.4805 86.801 52.7357 85.5754 50.0626 83.1007L49.7996 82.8565C47.8297 81.0286 45.7893 79.1373 42.8321 78.9824C40.3234 78.852 37.5751 79.6726 35.6556 81.1272C35.5101 81.2376 35.3657 81.3643 35.2213 81.4923L35.0722 81.6238C35.0792 81.6144 35.0851 81.6039 35.0933 81.5945C36.5643 79.6715 37.0303 77.3952 36.3718 75.3489C35.8634 73.7676 34.7658 72.5842 33.4357 72.1792C31.9858 71.7378 30.7015 71.8787 29.8198 72.5772C29.5522 72.7885 29.2704 73.1054 29.0368 73.5457C27.4284 75.667 28.5273 78.7206 30.1051 78.7863C31.8708 78.8603 32.2382 76.5769 30.6921 75.7669C29.6919 75.2433 29.6801 74.5049 29.794 74.047C29.9454 73.7371 30.1251 73.4624 30.3692 73.2687C31.0149 72.7568 32.0128 72.6688 33.1774 73.0233C34.2163 73.3403 35.1168 74.3335 35.5312 75.6189C36.0982 77.3858 35.6826 79.3698 34.3924 81.0579C31.8438 84.3909 30.921 87.7637 30.7132 88.643C29.4571 93.0501 29.8386 98.3834 32.1431 102.783C31.7886 102.373 31.4376 101.95 31.0947 101.51C27.5517 96.9371 21.5821 91.4488 13.2739 91.2891C9.29175 91.2128 5.80623 92.321 3.89034 94.5433C2.23033 96.4698 1.62107 99.0702 2.12702 102.066C2.70579 105.487 5.94948 107.349 8.60266 107.207C11.0821 107.075 13.7387 105.131 13.8973 102.52C14.0264 100.412 13.3138 98.7344 11.8898 97.7929C11.1561 97.3072 10.2961 97.0476 9.41623 97.0462C8.80107 97.0462 8.24575 97.1754 7.83134 97.3843C7.77264 97.4137 7.72567 97.4536 7.67871 97.4935C7.64586 97.5229 7.61183 97.5522 7.57309 97.5781C7.56426 97.5666 7.55488 97.5556 7.54489 97.5452C7.53317 97.5546 7.44159 97.6438 7.32185 97.7683C6.49536 98.4679 6.14199 99.5633 6.12442 100.478C6.11734 100.849 6.15726 101.741 6.67499 102.024C6.78535 102.084 7.08002 102.245 7.33242 102.015C7.58248 101.787 7.45805 101.492 7.38877 101.334L7.38877 101.33C7.12887 100.772 7.06995 100.142 7.22207 99.5456C7.33592 99.0573 7.77854 98.563 8.02739 98.32C8.05439 98.3024 8.0779 98.2824 8.10136 98.2625C8.14009 98.2308 8.17883 98.1979 8.22814 98.1744C8.52985 98.0218 8.94192 97.935 9.39861 97.935C10.0396 97.935 10.7686 98.1099 11.4049 98.5302C12.2185 99.0667 13.1576 100.187 13.0179 102.466C12.89 104.56 10.7099 105.768 8.62258 105.879C6.5259 105.992 3.89148 105.027 3.37026 101.943C2.90888 99.2169 3.45007 96.8667 4.93164 95.1456ZM86.4322 57.231C86.5531 55.1308 85.4344 52.6408 83.2895 50.2295L83.2895 50.2283C85.3064 50.7636 88.6651 51.097 90.9086 48.4239C93.3551 49.5626 95.9672 53.5354 96.0271 55.2142L96.0259 55.2494C94.5585 57.5351 88.7309 57.4647 86.4322 57.231ZM22.7936 9.5725C22.7969 11.1323 21.1104 12.1108 19.7579 11.3337C19.1714 10.9968 18.7917 10.3894 18.7458 9.71455C18.7081 8.59771 19.5813 7.66097 20.6981 7.62021C21.8149 7.58258 22.7516 8.45576 22.7924 9.5725L22.7936 9.5725ZM12.2889 12.0789C12.2889 13.2153 11.3638 14.1404 10.2274 14.1404C9.08981 14.1404 8.16476 13.2153 8.16476 12.0789C8.1654 10.94 9.08852 10.0169 10.2274 10.0163C11.3638 10.0163 12.2889 10.9414 12.2889 12.0789ZM7.53902 21.3932C9.09795 21.4463 10.0148 23.1671 9.1894 24.4906C8.8323 25.0632 8.21351 25.4205 7.53902 25.4434C6.42374 25.4434 5.51511 24.5348 5.51511 23.4183C5.51639 22.3009 6.42158 21.3952 7.53902 21.3932ZM51.6439 64.4298C33.9933 60.9619 29.6167 59.2444 29.234 49.2069L29.2363 49.2069C29.2962 49.1964 29.3561 49.1882 29.4148 49.1799C29.5521 49.1588 29.6895 49.1388 29.828 49.106C32.7277 48.3981 34.7235 46.2826 35.3445 43.3618C35.7977 43.4756 37.1266 43.7703 39.0355 43.8407C44.6482 50.0792 46.0018 60.5123 46.0147 60.6168L46.0547 60.9384L53.4624 62.285L52.8977 61.4233C52.5455 60.8856 44.6107 48.8148 40.2423 43.8525C40.6885 43.8466 41.158 43.8243 41.6487 43.7867C46.219 48.2208 57.225 62.744 57.6852 63.3498L57.6981 63.3685L57.8014 63.5071L63.5257 64.5472L63.3355 63.8675L61.733 58.1467L61.5452 58.0622C50.9501 53.3052 42.4682 42.6163 42.3836 42.5094L42.3684 42.4907L42.3848 42.3028C47.4528 46.3565 60.2738 53.796 60.8373 54.1212L61.7295 54.6377L61.4889 53.6363L59.9721 47.3168L59.6469 47.2945C59.5412 47.2887 48.9602 46.5139 42.4283 41.1969C42.4341 39.6722 42.2727 38.1514 41.9469 36.6619C44.7058 35.88 46.6416 33.8455 47.2298 31.0127C47.2421 30.9427 47.2515 30.8722 47.258 30.8014C47.2633 30.7472 47.2703 30.6932 47.2791 30.6394C57.4117 30.9893 60.3172 34.5746 63.7922 52.2792C65.8149 62.5843 69.5224 69.2032 72.3927 73.028C68.5679 70.1576 61.9479 66.4502 51.6439 64.4287L51.6439 64.4298ZM35.5159 42.2688C35.7472 39.6825 35.1508 37.3545 33.8395 35.529C35.7061 36.7558 38.0353 37.2594 40.5945 36.9401C40.6955 36.9284 40.7906 36.9061 40.8857 36.885C40.9502 36.8709 41.0136 36.8556 41.0794 36.845C41.7239 39.848 41.5337 42.1103 41.428 42.9074C40.8986 42.9438 40.3762 42.9731 39.9019 42.9731C37.4389 42.9731 35.773 42.5623 35.4819 42.4825C35.4856 42.4493 35.4911 42.4164 35.4983 42.3838C35.5054 42.3463 35.5124 42.3087 35.5159 42.2688ZM62.0911 21.1408C59.6927 21.925 57.3541 21.9133 55.9277 21.7842C57.9904 23.4395 59.6669 25.2121 61.051 27.1198C63.4928 26.0633 62.2038 22.9546 62.2038 22.9546C62.2038 22.9546 62.2848 22.9358 62.4186 22.8959L61.6074 21.4049L62.0911 21.1408ZM60.9934 17.5966C58.6032 18.2987 56.307 18.0298 55.3619 17.8654L55.9289 17.2667L56.1015 17.0848C56.881 17.4499 58.4542 17.9394 60.9934 17.5966ZM54.6916 20.8461C54.2572 20.5374 53.8146 20.2404 53.365 19.9657L53.5105 19.8131L53.7665 19.543L53.7688 19.543L54.7374 18.5252L54.7092 18.6356C54.8054 18.6591 64.4919 20.9506 67.84 12.1411C67.9269 11.8477 68.0431 11.4485 67.6616 11.2783C67.2777 11.1104 67.1075 11.3898 66.7647 11.9533C66.0897 13.0592 64.297 15.9953 62.1838 16.4825C59.3968 17.1235 57.6335 16.7408 56.7472 16.4015C60.0683 12.8819 64.4015 8.23303 65.0988 7.19991C65.5097 6.59179 65.5966 5.84866 65.5708 5.15719C65.5519 4.75846 65.5112 4.36107 65.4486 3.9668L65.4158 3.6052C67.3376 4.87544 68.7276 7.14007 69.0434 9.60419C69.0786 9.87422 69.0985 10.1419 69.1091 10.4096C69.1995 12.9782 68.1582 15.5175 66.1296 17.6389C61.7917 22.1669 54.789 20.744 54.7174 20.7276L54.6915 20.845L54.6916 20.8461ZM33.0048 33.7093C31.2908 31.9296 30.4279 29.2905 30.8048 26.986L30.8048 26.9895C31.4153 23.2633 33.9158 20.2744 37.6702 18.7905C42.9366 16.7056 49.5343 17.9687 54.8923 22.0835C61.6861 27.3054 63.6795 34.4431 65.9887 42.7149L65.9887 42.7184L65.9922 42.7266L65.9957 42.7407L66.416 44.2434L66.4324 44.2974C67.3259 47.4707 68.2498 50.7519 69.5012 54.383C73.6993 66.5782 83.4633 73.0573 94.6265 72.38C100.85 72.8108 105.526 74.5166 108.249 77.367C110.279 79.4942 110.958 82.4527 110.834 85.7855C110.694 89.6244 109.003 91.6613 107.368 92.8528C104.739 94.7711 100.923 95.4826 97.8702 94.6255C95.0656 93.839 92.7423 91.2985 91.9487 88.157C91.2643 85.4427 91.8606 82.9351 93.584 81.2705C95.4765 79.4414 98.7812 78.9918 101.438 80.201C103.551 81.1636 104.702 82.9704 104.588 85.1551C104.524 86.403 104.095 87.3528 103.314 87.975C102.908 88.3002 102.439 88.515 101.963 88.6559C102.597 87.9339 103.442 86.531 102.835 84.5928C101.922 81.679 95.601 82.1216 95.9778 86.5299C96.3535 90.9357 100.771 90.8559 102.296 90.2114C103.822 89.5681 105.758 88.0994 105.481 84.4273L105.474 84.4543L105.458 84.5165C105.337 82.2613 104.043 80.4158 101.803 79.3956C98.8282 78.0408 95.1137 78.5633 92.9701 80.6342C91.357 82.1897 90.6163 84.4683 90.8522 86.9173C90.2582 85.5848 89.6665 84.1185 89.0326 82.5501L89.0021 82.4714L87.9009 79.7713C86.4663 76.301 84.0503 75.1904 82.2717 74.8688C79.9308 74.4462 77.6275 75.2832 76.5098 76.2611C74.9156 74.8559 67.9128 67.8555 65.0084 51.7298C61.7589 33.6965 58.0832 29.4643 47.3813 29.5312C47.4353 27.0036 46.3012 24.6933 44.3007 23.5122C41.6981 21.9743 38.9357 22.6635 37.3508 24.0264C36.9458 24.3751 36.6253 24.7637 36.3765 25.1758C34.6284 27.2255 35.1567 31.5328 39.0461 31.6948C43.3628 31.8744 43.5107 26.6749 40.9444 25.9917C39.3196 25.5585 38.5765 26.2452 38.0505 26.7313C37.7453 27.013 37.514 27.2267 37.2276 27.1163C36.8965 26.9884 36.8015 26.6949 36.7956 26.3979C36.9693 25.7768 37.3532 25.1922 37.9285 24.6968C39.2738 23.5381 41.6264 22.9593 43.8523 24.2718C45.8833 25.4681 46.9164 28.1694 46.3646 30.8343C45.7647 33.7235 43.5682 35.6793 40.4865 36.0644C36.6406 36.5457 34.295 35.05 33.0048 33.7093ZM29.9325 26.8428C29.5697 29.0558 30.1955 31.4483 31.5678 33.3466C29.6273 32.0611 27.2359 31.5293 25.0523 31.966C24.4912 32.0799 23.9535 32.2419 23.4299 32.4321C23.2914 30.9083 22.857 26.8041 21.9296 23.5839C23.2033 23.9642 26.0056 24.6287 30.4526 24.8517C30.2188 25.4981 30.0447 26.1646 29.9325 26.8428ZM17.2419 19.2261L17.3487 19.6334L16.885 19.5278L17.2419 19.2261ZM22.5717 32.7819C20.7596 33.619 19.2028 34.9233 18.0613 36.5609C17.4602 33.8949 16.0832 26.4753 17.56 19.7696C24.1895 18.0873 31.6019 19.192 34.275 19.6968C32.7828 20.8175 31.592 22.2911 30.8095 23.9854C24.5557 23.7083 21.467 22.505 21.4353 22.4921L20.5513 22.1363L20.8519 23.0415C21.9789 26.4166 22.4626 31.4894 22.5717 32.7819ZM16.9038 63.3368C17.1574 60.7858 16.6126 59.2303 16.2194 58.4649L16.9742 57.6983C17.1715 58.6374 17.5225 60.9244 16.9038 63.3368ZM19.9291 56.9235L19.8117 56.9528C19.8281 57.0232 21.4975 63.9732 17.1257 68.4659C15.0783 70.5708 12.5777 71.7002 10.0067 71.7002C9.73905 71.7002 9.47023 71.6885 9.20021 71.6627C6.72665 71.4349 4.41275 70.1247 3.07678 68.2499L3.43834 68.2699L3.46654 68.2734C3.80699 68.3086 4.21196 68.3509 4.63462 68.3509C5.32489 68.3509 6.06688 68.2394 6.65853 67.8074C7.66584 67.0748 12.1586 62.5796 15.5584 59.1364C15.9294 60.011 16.3743 61.759 15.8308 64.566C15.4187 66.6909 12.5554 68.5833 11.4695 69.3006L11.4648 69.3041C10.9154 69.6658 10.6395 69.8477 10.8238 70.2246C11.007 70.5979 11.4002 70.4676 11.6902 70.3713C20.3776 66.7132 17.7479 57.1148 17.7197 57.0186L17.6105 57.0502L19.004 55.6286C19.2928 56.0688 19.6039 56.4973 19.9291 56.9235ZM20.9117 58.1256C22.6375 60.1296 24.4689 61.7414 26.4235 63.0574C25.4538 65.5345 22.3029 64.3559 22.3029 64.3559C22.3029 64.3559 22.2876 64.4369 22.2512 64.5719L20.7345 63.8135L20.4832 64.3125C21.1853 61.8858 21.0902 59.5485 20.9117 58.1256ZM78.2978 108.455C75.3523 105.837 73.4845 101.222 72.8329 95.0176L72.8294 95.0176C73.1135 83.8379 66.2951 74.3076 53.9613 70.5403C50.2751 69.4157 46.9527 68.6056 43.7431 67.8214L43.7185 67.8155L42.1805 67.4434C33.8301 65.4265 26.6254 63.6867 21.1665 57.0796C16.8651 51.8707 15.3706 45.3211 17.2689 39.9831C18.6201 36.1794 21.5187 33.5732 25.2214 32.8336C27.5106 32.3757 30.1802 33.147 32.0186 34.7976C33.4028 36.0397 34.9794 38.3313 34.6343 42.1913C34.3584 45.2847 32.4812 47.5493 29.6144 48.249C26.9706 48.8947 24.2341 47.9578 22.9674 45.968C21.575 43.7914 22.0716 41.42 23.1822 40.0335C23.6565 39.4419 24.227 39.0392 24.8422 38.8431C25.1392 38.8396 25.4362 38.9229 25.5759 39.2493C25.698 39.5334 25.4926 39.7717 25.2214 40.0864C24.7541 40.6288 24.0932 41.3965 24.5827 43.0037C25.3552 45.5442 30.5465 45.2131 30.2143 40.9058C29.9161 37.0247 25.5935 36.649 23.6072 38.4674C23.2045 38.7304 22.8277 39.0638 22.4919 39.4818C21.1864 41.1112 20.5959 43.8959 22.2219 46.4434C23.4745 48.4039 25.8271 49.4558 28.3524 49.3114C28.7668 59.8396 33.1562 62.4129 51.0886 65.6449C67.5277 68.6045 74.4859 75.8279 75.6986 77.2367C74.9449 78.4987 74.4425 80.5532 74.8839 82.5841C75.2689 84.3474 76.4652 86.7259 79.9812 88.0372L82.7213 89.0398C84.3402 89.628 85.8535 90.1785 87.227 90.7326C84.7734 90.5847 82.5205 91.4042 81.0237 93.0712C79.028 95.2877 78.6406 99.0173 80.0963 101.942C81.1951 104.144 83.0864 105.373 85.344 105.413L85.3146 105.423L85.2547 105.44C88.9363 105.587 90.3345 103.601 90.925 102.054C91.5132 100.508 91.4392 96.0906 87.0215 95.8699C82.6039 95.6481 82.3832 101.979 85.3287 102.789C87.2892 103.329 88.6569 102.435 89.3577 101.775C89.2345 102.256 89.0361 102.734 88.7274 103.15C88.131 103.954 87.1988 104.414 85.9544 104.523C83.772 104.712 81.9277 103.628 80.8899 101.547C79.588 98.9352 79.9214 95.6187 81.6812 93.6606C83.2848 91.882 85.7713 91.1975 88.5043 91.7857C91.674 92.4666 94.2943 94.7019 95.1795 97.4771C96.1433 100.494 95.5669 104.335 93.7426 107.03C92.6085 108.705 90.6315 110.466 86.8008 110.742C83.4738 110.982 80.4943 110.408 78.2978 108.455ZM48.7642 92.1484C51.3575 89.8122 50.9067 86.4664 50.2997 84.4707C52.7862 86.5298 55.3149 87.5606 57.407 87.3645C57.7228 89.6538 57.9963 95.4767 55.7634 97.0216L55.7305 97.0228C54.0517 97.0228 49.9886 94.5551 48.7642 92.1484ZM97.5192 40.4256C97.3173 36.7499 94.0982 37.4519 94.2368 39.2892C94.2767 39.821 94.5291 40.2331 94.7991 40.6781C95.4636 41.7687 96.2431 43.0471 94.2779 46.7299C93.6486 47.7101 94.1804 48.1316 94.8167 47.3732C94.8167 47.3732 97.7223 44.1036 97.5192 40.4256ZM103.332 44.4207C102.155 46.4434 99.3588 48.7608 96.5154 49.5979L96.5166 49.5979C95.9461 49.7646 95.8475 49.3291 96.2043 49.0931C98.0757 47.8475 100.649 45.6204 100.775 42.8898C100.849 41.258 101.127 40.3728 102.533 40.5454C103.928 40.7156 104.395 42.5951 103.332 44.4207ZM98.4584 52.4765C98.4584 52.4765 105.526 52.3003 108.376 49.5486C109.588 48.4004 108.255 46.164 106.448 47.1114C105.89 47.4049 105.414 47.8486 104.869 48.3558C103.652 49.4946 102.094 50.9503 98.5065 51.7368C97.6988 51.8402 97.943 52.4929 98.4584 52.4765ZM86.2843 63.7982C87.2634 63.419 88.4092 62.9729 88.968 59.5872C89.0478 58.6327 89.6054 58.6246 89.6407 59.4369C89.6407 59.4369 89.9025 63.0234 87.9326 65.3221C85.9626 67.6207 84.2134 65.5557 85.223 64.424C85.5142 64.0976 85.8852 63.9532 86.2843 63.7982ZM92.3467 59.1223C93.2342 60.7424 94.2591 63.3486 93.3058 65.3831C92.7364 66.6005 92.6014 67.3519 93.6932 67.7627C94.7733 68.1736 95.831 66.982 95.7535 65.2457C95.669 63.324 94.5185 60.5687 92.7681 58.8723C92.4183 58.533 92.18 58.8135 92.3478 59.1211L92.3478 59.1235L92.3467 59.1223ZM99.8026 63.3005C99.2062 62.0255 98.442 60.3937 95.7994 58.6609C95.1795 58.3322 95.6021 57.892 96.0153 58.0646C96.0153 58.0646 101.695 60.3914 103.062 63.4449C103.651 64.7268 101.798 66.0793 100.655 64.7714C100.303 64.3676 100.069 63.8698 99.8026 63.2993L99.8026 63.3005ZM98.7366 56.151C99.488 56.5666 103.977 58.5435 106.792 58.9615C110.373 59.4909 109.544 55.4748 106.608 55.7988C102.418 56.0935 98.4877 55.348 98.4877 55.348C97.8256 55.3715 97.9841 55.7342 98.7366 56.1498L98.7366 56.151ZM43.0117 59.9582L42.5304 59.8983C42.4165 59.883 39.6929 59.5285 38.4908 58.0857L38.3017 57.8591L38.4414 57.5961C40.9502 52.8556 39.0766 48.0764 38.4039 46.3589C38.3158 46.1347 38.2477 45.9621 38.2137 45.8494C37.9167 44.875 38.762 44.9783 39.0073 45.4596C39.1341 45.7073 39.3008 45.9856 39.4734 46.2697C39.6342 46.535 39.7986 46.8062 39.9347 47.0656C43.1749 53.202 43.0364 59.1986 43.0281 59.4733L43.0117 59.9582ZM37.2781 46.8942C37.0832 45.8694 36.3882 46.1769 36.4023 46.9576C36.4152 47.7371 36.2285 48.4298 36.0254 49.0496C35.0722 51.9423 32.6855 53.1468 32.5622 53.2078L32.217 53.3781L32.3368 53.7443C32.3803 53.8735 32.7184 54.6272 35.1191 56.7004L35.4478 56.9857L35.7354 56.6593C38.5001 53.5506 37.4706 47.9215 37.2757 46.8954L37.2781 46.8954L37.2781 46.8942ZM58.9531 43.1962L59.04 43.6729L59.04 43.674L58.5574 43.7151C58.2898 43.7386 52.5831 44.1917 46.4421 41.5198L46.2495 41.4364C45.5827 41.1488 44.8408 40.826 44.2984 40.4597C43.7044 40.057 44.2291 39.4266 44.6858 39.6673C45.1413 39.9079 45.4959 40.0007 46.7285 40.2942C49.0718 40.8506 53.0257 41.2908 56.4267 39.2399L56.6815 39.0873L56.9186 39.2634C58.426 40.3822 58.9331 43.0812 58.9531 43.1962ZM55.4312 36.285L55.1283 35.9728C52.9811 33.7493 52.2086 33.41 52.0231 33.3607L51.651 33.2585L51.4996 33.6143C51.4409 33.7551 50.1143 36.7899 46.4808 37.6292C46.1615 37.7009 46.0523 37.7232 45.4724 37.7948C44.8924 37.8652 44.5497 38.5966 45.4595 38.6717C45.821 38.7022 45.9877 38.721 46.1075 38.734C46.2883 38.7527 46.3575 38.761 46.8236 38.7809C48.9368 38.8748 52.9623 38.7363 55.1212 36.5914L55.4324 36.2862L55.4312 36.285ZM80.2489 81.8774C80.2143 80.5168 81.6655 79.629 82.8611 80.2793C83.4447 80.5967 83.8011 81.2145 83.7837 81.8786C83.7487 83.2391 82.2539 84.0515 81.0932 83.3409C80.5821 83.028 80.2643 82.4776 80.2489 81.8786L80.2489 81.8774Z" fill="#F7F5EE"/>
</svg>
