<svg width="115" height="115" viewBox="0 0 115 115" fill="none" xmlns="http://www.w3.org/2000/svg">
<path fill-rule="evenodd" clip-rule="evenodd" d="M20.4991 2.49509L20.9123 2.11591L20.4451 1.80247C19.3475 1.07107 17.9997 0.952477 16.5499 1.45728C14.5342 2.16168 12.5936 4.05412 11.7002 6.02172C9.25014 3.21591 5.99821 2.62306 3.79468 2.24269L2.84022 2.0666L2.2016 1.96093L2.49274 3.54697C2.87192 5.74936 3.46481 9.00123 6.26943 11.4513C4.30302 12.3459 2.40939 14.2853 1.70499 16.301C1.50728 16.8487 1.40332 17.4257 1.39743 18.0079C1.39053 18.7865 1.61842 19.5491 2.05132 20.1962L2.36362 20.6646L2.74279 20.2502C10.0965 12.2672 16.6732 17.111 16.9502 17.32L17.5689 16.7013C17.3587 16.4266 12.5149 9.84768 20.4991 2.49389V2.49509ZM19.4437 2.30492C16.8645 4.83249 15.68 7.29427 15.2644 9.46846C14.4027 9.50838 12.4257 9.76198 11.1649 11.1567C10.3079 12.1076 9.96392 13.3883 10.1247 14.9662C7.85546 15.3031 5.2457 16.4501 2.55263 19.1972C2.38602 18.8222 2.29471 18.4181 2.28381 18.0079C2.28381 17.4844 2.4012 16.9936 2.5409 16.5945C3.22883 14.6246 5.2727 12.5971 7.19214 11.9808L8.0022 11.719L7.32481 11.206C4.31944 8.92846 3.74421 5.60023 3.36619 3.39903L3.3016 3.05275L3.64794 3.11613H3.65148C5.85267 3.49651 9.17967 4.07174 11.456 7.0759L11.9679 7.7533L12.2297 6.94329C12.846 5.02265 14.8735 2.97993 16.8434 2.29434C17.5395 2.05018 18.5081 1.91397 19.4461 2.30373L19.4437 2.30492ZM15.9664 73.997C15.8913 70.3154 18.9095 67.1492 18.9095 67.1492C19.5729 66.4131 20.0882 66.8545 19.4261 67.8125C17.3329 71.4225 18.0666 72.7267 18.6912 73.8408C18.9471 74.2952 19.1843 74.7166 19.2042 75.2496C19.2782 77.0904 16.038 77.6797 15.9641 73.9981L15.9664 73.997ZM10.9583 73.7023C12.3576 73.923 12.6676 73.0484 12.8002 71.4201L12.7979 71.4189C13.0209 68.6941 15.6706 66.5587 17.5841 65.3812C17.9481 65.1581 17.8659 64.7179 17.2907 64.8658C14.4191 65.6019 11.5429 67.8207 10.295 69.7988C9.16794 71.5868 9.56827 73.4816 10.9583 73.7023ZM5.43591 64.4984C8.38258 61.8476 15.4499 61.9215 15.4499 61.9215C15.9664 61.9215 16.1859 62.5836 15.3747 62.6576C11.7636 63.3185 10.1553 64.7179 8.89911 65.8109C8.33676 66.3004 7.84608 66.7289 7.27669 67.0013C5.43471 67.8841 4.18328 65.6019 5.43471 64.4972H5.43591V64.4984ZM24.5082 55.2757C24.5153 56.0904 25.0741 56.0974 25.1868 55.1477C25.863 51.7831 27.0264 51.3792 28.0184 51.0329C28.4222 50.8921 28.7967 50.7629 29.0996 50.4459C30.148 49.3506 28.4739 47.2246 26.423 49.4528C24.372 51.681 24.5094 55.2756 24.5094 55.2756L24.5082 55.2757ZM21.3655 55.7276C19.675 53.9714 18.6208 51.1785 18.6043 49.2532C18.5903 47.5157 19.6879 46.3629 20.7539 46.8102C21.8281 47.2598 21.6684 48.0052 21.0556 49.2015C20.0319 51.202 20.9628 53.8422 21.7917 55.494C21.9501 55.8075 21.7024 56.0786 21.3643 55.7265V55.7276H21.3655ZM14.4895 51.0576C14.243 50.4788 14.0282 49.9728 13.6901 49.5572C12.5936 48.2072 10.6941 49.4985 11.2377 50.7981C12.495 53.8974 18.0901 56.4238 18.0901 56.4238C18.4951 56.6116 18.9354 56.1867 18.3261 55.8344C15.7469 54.0089 15.0413 52.3525 14.4895 51.0576ZM7.35181 55.1477C10.1482 55.663 14.567 57.7985 15.3031 58.2411C16.038 58.6825 16.186 59.0511 15.525 59.0511C15.525 59.0511 11.6204 58.1683 7.42463 58.3127C4.48031 58.5346 3.78998 54.4926 7.35181 55.1477ZM19.8546 110.068C21.8715 108.331 22.8987 105.45 22.8283 101.74L22.8318 101.738C22.6792 93.7784 17.3764 88.0236 12.954 84.5979C7.66525 80.5008 4.32179 74.9267 4.4263 74.8046L4.44507 74.8C1.13799 68.8315 0.464138 61.7278 2.51739 54.9904C4.458 48.6192 8.69368 44.225 14.1397 42.9337C14.7148 42.7989 15.2938 42.6815 15.876 42.5815C11.1567 41.836 8.1196 40.2993 5.73643 37.6191C3.61739 35.2383 2.82969 31.8855 3.08793 28.3107C3.38965 24.1279 5.64484 21.7682 7.48213 20.5238C10.3889 18.555 14.5354 17.934 17.799 18.9753C18.7781 19.2888 19.6856 19.81 20.5062 20.4662L20.5813 20.3688C23.3331 22.4326 24.8616 26.6437 26.7975 31.9735L27.7989 34.7042C28.9705 37.8481 31.0625 38.9105 32.6122 39.2474C34.7018 39.7018 37.0509 38.9657 37.9103 38.104C38.8013 37.2763 39.6513 34.9882 39.2721 32.8845C38.9892 31.3255 38.0007 29.1982 34.9026 27.9151L32.206 26.8174L32.1989 26.8151C26.9442 24.6949 22.793 23.0208 20.829 20.1974L20.93 20.127C20.3019 19.2841 19.8123 18.359 19.5341 17.3693C18.6067 14.0704 19.3756 9.9498 21.4442 7.11349C22.7508 5.32202 25.1891 3.15137 29.3802 2.9964C32.9608 2.86373 36.2855 3.77122 38.5912 5.97121C41.1868 8.44832 42.6144 11.537 43.1932 16.2787C43.3153 15.7081 43.4467 15.1329 43.6064 14.5565C45.0868 9.1609 49.63 5.08369 56.0634 3.36969C62.8701 1.55476 69.9433 2.47747 75.792 5.99353L75.7967 5.97476C75.9223 5.87613 81.373 9.41445 85.2835 14.8441C88.5507 19.3827 94.1153 24.8874 102.063 25.3183C105.769 25.5214 108.684 24.5951 110.492 22.6416C112.032 20.9722 112.656 18.6419 112.29 15.9018C111.879 12.8025 109.279 11.746 107.18 11.7824C105.091 11.8211 102.87 12.9517 102.668 15.0402C102.448 17.313 103.346 18.4646 104.141 19.0316C104.724 19.4403 105.413 19.6712 106.125 19.6961C106.582 19.7126 106.997 19.6374 107.304 19.4989C107.349 19.4761 107.392 19.4481 107.431 19.4155C107.456 19.3954 107.482 19.3766 107.509 19.3592C107.767 19.1244 108.225 18.6466 108.357 18.1617C108.531 17.5706 108.494 16.9372 108.252 16.3703C108.19 16.2094 108.075 15.9124 108.333 15.6929C108.594 15.4721 108.882 15.6424 108.991 15.707C109.495 16.0063 109.506 16.9009 109.486 17.2707C109.438 18.1852 109.045 19.2653 108.195 19.938C108.12 20.0119 108.043 20.0831 107.963 20.1516L107.949 20.1352C107.945 20.1304 107.94 20.1253 107.936 20.1199C107.9 20.1436 107.864 20.1695 107.831 20.1974C107.781 20.2361 107.733 20.2761 107.672 20.3031C107.25 20.4956 106.691 20.6071 106.076 20.586C105.197 20.5537 104.346 20.2639 103.63 19.7524C102.24 18.7628 101.588 17.0594 101.791 14.9568C102.042 12.3553 104.764 10.5051 107.247 10.4605C109.903 10.4135 113.078 12.3858 113.537 15.8267C113.938 18.838 113.237 21.416 111.51 23.2838C109.518 25.438 105.995 26.4218 102.017 26.2058C93.7209 25.7526 87.9496 20.0589 84.5698 15.3642C84.2469 14.9179 83.9118 14.4806 83.5648 14.0529C85.7132 18.5304 85.9069 23.8766 84.497 28.2344C84.2575 29.1043 83.2174 32.4443 80.5524 35.6845C79.2023 37.328 78.7175 39.2955 79.2235 41.0788C79.591 42.3784 80.4574 43.4033 81.4834 43.7555C82.6339 44.1511 83.6341 44.0995 84.2986 43.6099C84.5486 43.4268 84.7388 43.1567 84.9008 42.8527C85.0323 42.3995 85.0464 41.6611 84.0638 41.1023C82.547 40.2383 82.9955 37.9701 84.7576 38.1064C86.3307 38.2284 87.3227 41.316 85.6404 43.381C85.4362 43.7473 85.1579 44.0672 84.8234 44.3202C83.917 44.9881 82.6303 45.0856 81.1957 44.5937C79.8809 44.1405 78.8255 42.9185 78.3724 41.3207C77.7866 39.2521 78.3324 36.9934 79.8704 35.1245L79.8774 35.1151C79.8819 35.1087 79.8866 35.1024 79.8915 35.0963L79.7811 35.1878C79.6191 35.3217 79.4559 35.4567 79.2928 35.5717C77.324 36.957 74.5476 37.6825 72.0446 37.463C69.0956 37.2047 67.1257 35.243 65.2192 33.3459L64.9644 33.0911C62.3782 30.5272 59.6804 29.2029 57.559 29.4624C56.2559 29.6209 55.2451 30.2724 54.7122 31.2938C54.1932 32.2869 54.2144 33.5032 54.7662 34.5457C55.1665 35.3005 55.7194 35.6938 56.4144 35.7173H56.4261L56.4379 35.715L56.4614 35.7126C57.6119 35.5647 58.1225 34.6948 58.4947 34.0561L58.4971 34.0515C58.7529 33.6135 58.9549 33.2684 59.3423 33.2144C59.374 33.212 59.4104 33.2085 59.4503 33.2085C59.5912 33.2144 59.7673 33.2661 59.9492 33.441C60.0549 33.542 60.2779 33.8307 60.096 34.3297C59.7931 35.1585 58.2822 36.4863 56.6915 36.5954C55.8826 36.6506 54.7567 36.4111 53.9867 34.9589C53.2975 33.6594 53.2764 32.1355 53.9303 30.8841C54.5126 29.7665 55.5785 28.9846 56.9004 28.6817C56.803 27.7132 56.142 20.0753 59.3646 18.1629L59.4515 18.1089L59.5524 18.1007C61.5458 17.9387 65.9165 20.8572 67.3124 23.5644L67.3476 23.5421C67.4504 23.4752 67.5549 23.411 67.661 23.3495C70.7814 21.5815 73.0191 22.543 74.0744 23.2744C75.8014 24.473 76.8415 26.7059 76.5445 28.5878C76.3332 29.9273 75.61 30.9428 74.5112 31.484C72.3933 32.9103 68.7481 31.5333 68.8996 28.7063C69.0428 25.9945 72.3687 25.9006 73.0355 27.3598C73.4687 28.3072 73.2175 28.859 73.012 29.311C72.8993 29.5563 72.8007 29.7712 72.8312 30.0059C73.0484 30.6493 73.5497 30.7808 74.0122 30.742C74.908 30.3452 75.4997 29.5375 75.6722 28.4493C75.9152 26.9113 75.0113 24.9978 73.5708 24.0011C72.0411 22.9422 70.0959 22.9833 68.0942 24.1185C63.2598 26.8597 66.0515 32.7941 66.1713 33.0442C67.8653 34.723 69.6509 36.3642 72.1221 36.5814C74.4255 36.7833 76.9788 36.1188 78.7832 34.8486C80.0112 33.9845 81.231 32.6802 82.1302 31.268C82.7477 30.2994 83.2432 29.2077 83.6282 28.0454C83.6693 27.9045 83.6928 27.813 83.6928 27.813L83.7092 27.8177C85.4819 22.1838 84.4676 14.8429 79.8257 10.2363C73.5931 4.04943 64.7332 1.97506 56.29 4.22552C50.1665 5.85737 46.1351 10.3924 44.7381 15.4757C41.1645 28.4833 47.7528 39.3108 61.5599 44.0654C65.1887 45.3134 68.4746 46.2384 71.6525 47.133C75.1393 48.1144 78.3442 49.0818 81.2944 50.3215L101.628 30.7397L113.071 31.1435L113.041 32.0264L101.97 31.6366L96.3705 37.0286L96.3118 37.085C91.2461 41.9628 84.3021 48.6509 82.1702 50.7019C83.5298 51.3045 84.8476 51.9975 86.1147 52.7763L103.675 36.4111L113.094 36.7422L113.01 39.0983L107.399 43.6158C107.399 43.6158 101.13 41.7726 96.1005 46.4591C93.9474 48.5582 92.8932 50.568 92.4095 51.7443L93.9756 52.5967C94.5145 51.0811 95.375 49.5561 96.7532 48.2354C99.2902 45.8052 102.401 44.6853 105.511 45.0821C108.352 45.4448 110.882 47.0191 112.285 49.2884V49.2907C112.381 49.4481 112.63 49.8542 112.395 50.2135C112.139 50.6044 111.623 50.5304 110.911 50.4295C110.106 50.3133 109.006 50.1572 108.296 50.635C106.852 51.6093 97.4952 60.5139 95.4877 62.4275C96.1996 63.7018 96.7783 65.046 97.2146 66.4389L110.235 54.0301L112.924 54.124L112.892 55.0068L110.576 54.9246L103.905 61.2829L103.798 61.385L97.4905 67.3981C97.7182 68.2797 97.8767 69.1661 97.9742 70.0489L112.243 56.7502L112.135 59.8401L98.0223 73.4065C97.9024 74.8632 97.5714 76.2947 97.0397 77.6562C96.7535 78.3651 96.4054 79.0475 95.9996 79.6954C96.07 80.023 96.2167 80.7297 96.3764 81.7229C96.5337 81.7816 97.629 82.1655 99.0577 81.5409C100.883 80.7426 102.472 78.5919 103.653 75.32C105.576 69.9855 107.651 68.6472 109.053 68.4617C110.167 68.3138 111.264 68.8468 111.985 69.8845C112.556 70.7063 112.806 72.2125 112.145 73.3924C111.605 74.3574 110.572 74.8457 109.24 74.7695L109.157 74.7648L109.083 74.7307C108.614 74.5217 108.622 74.1578 108.635 74.0533C108.694 73.599 109.264 73.2785 110.334 73.0965C111.483 72.904 111.592 72.0047 111.6 71.9026L111.651 71.9073C111.671 71.3274 111.512 70.7544 111.259 70.3905C111.059 70.1052 110.322 69.1872 109.167 69.3387C108.218 69.4643 106.349 70.4457 104.481 75.6206C103.192 79.1942 101.477 81.4634 99.3806 82.365C98.1538 82.8933 97.1113 82.8064 96.5172 82.6761C96.8413 84.9654 97.1442 88.2525 96.9505 91.7638L102.649 93.2067C103.085 92.0409 104.216 91.2834 105.461 91.3236C107.065 91.3816 108.319 92.7272 108.264 94.3313C108.205 95.935 106.86 97.1889 105.256 97.1348C103.652 97.0774 102.396 95.7318 102.451 94.127C102.451 94.1168 102.453 94.1066 102.455 94.0965L102.456 94.0848C102.457 94.0793 102.458 94.0739 102.459 94.0683L96.8906 92.6596C96.7627 94.3663 96.4897 96.059 96.0747 97.7194L101.369 102.229L101.284 102.33C101.752 102.013 102.317 101.828 102.924 101.828C104.55 101.83 105.868 103.148 105.87 104.775C105.868 106.401 104.55 107.719 102.924 107.72C101.297 107.719 99.9789 106.4 99.977 104.774C99.977 104.03 100.263 103.357 100.72 102.837L95.3961 98.3052C93.7174 98.6738 91.9951 98.8687 90.3128 98.9427L91.5244 104.559C91.5432 104.558 91.5619 104.553 91.5819 104.553C93.1875 104.555 94.4885 105.857 94.4898 107.462C94.4879 109.067 93.1871 110.368 91.5819 110.37C89.9767 110.368 88.6759 109.067 88.674 107.462C88.674 106.184 89.5075 105.108 90.6556 104.719L89.4148 98.9732C85.8987 99.0437 82.6245 98.6245 80.3482 98.2207C80.4562 98.8183 80.5067 99.8619 79.9349 101.07C78.9605 103.131 76.6326 104.768 73.0155 105.93C67.7773 107.614 66.7301 109.447 66.5728 110.391C66.3802 111.542 67.2725 112.311 67.5507 112.52C67.9052 112.786 68.4723 112.965 69.0511 112.965L69.0499 112.939V112.914C69.1532 112.909 70.0548 112.831 70.2896 111.69C70.5056 110.628 70.8472 110.07 71.3039 110.026C71.4084 110.017 71.7711 110.021 71.9648 110.498L71.9965 110.573V110.655C72.0271 111.99 71.5023 113.006 70.5197 113.51C69.3164 114.128 67.8195 113.825 67.0201 113.225C66.007 112.468 65.515 111.354 65.7006 110.246C65.933 108.851 67.3453 106.825 72.7444 105.09C76.0573 104.025 78.262 102.513 79.1249 100.717C79.8011 99.3101 79.4548 98.2042 79.3996 98.0434C78.4135 97.8485 77.7126 97.6795 77.3874 97.5973C76.7245 97.9781 76.03 98.3014 75.3118 98.5635C73.9321 99.047 72.4895 99.3278 71.0292 99.397L56.9744 113.022H53.8821L67.6716 99.2303C66.7818 99.1006 65.9023 98.9084 65.0396 98.6551C60.7307 102.867 56.4222 107.079 52.1141 111.292V113.61H51.2313V110.922L64.0934 98.3463C62.7176 97.8598 61.3951 97.2339 60.1465 96.4785C58.1624 98.4156 48.935 107.455 47.909 108.864C47.4065 109.554 47.5251 110.66 47.612 111.468V111.47V111.474C47.6883 112.187 47.7423 112.703 47.3455 112.943C46.9757 113.166 46.5777 112.901 46.4251 112.8C44.2039 111.32 42.7224 108.735 42.4594 105.883C42.1718 102.76 43.3998 99.6929 45.9191 97.2428C47.288 95.9115 48.8423 95.1062 50.3755 94.6201L49.5772 93.0235C48.3856 93.4661 46.337 94.4499 44.1652 96.529C39.3061 101.389 40.925 107.722 40.925 107.722L36.2139 113.169H33.8565V103.745L50.8298 86.771C50.0963 85.4773 49.4503 84.136 48.8963 82.7559C45.4507 86.09 29.3814 101.64 29.1454 101.871V112.948H28.2614V101.496L48.5453 81.8673C47.4124 78.8736 46.5578 75.6382 45.6996 72.1174L45.6972 72.1092C44.9154 68.9043 44.1077 65.5902 42.9877 61.9239C38.7227 47.9583 28.1346 40.9919 15.0085 44.1065C9.87822 45.3227 5.20577 49.1921 3.35795 55.2545C0.810426 63.6132 2.5714 72.5401 8.53516 78.9875C12.9751 83.789 20.2761 85.0605 25.9687 83.4873L25.9651 83.4709L25.9745 83.4686C26.0003 83.4627 26.0802 83.4451 26.1975 83.4146C27.3739 83.0706 28.4821 82.6151 29.4729 82.0316C30.9158 81.1805 32.2611 80.0077 33.1686 78.8114C34.5023 77.0505 35.2548 74.5241 35.135 72.2149C35.0047 69.7378 33.4281 67.8958 31.8091 66.1431C31.5626 66.014 25.7303 63.0145 22.8212 67.7514C21.6179 69.712 21.5064 71.6537 22.5113 73.2186C23.4599 74.6931 25.3382 75.6628 26.8832 75.475C27.9785 75.3411 28.805 74.7776 29.2335 73.8972C29.2863 73.4346 29.1748 72.9298 28.5385 72.6915C28.306 72.6528 28.0876 72.7432 27.8388 72.8465C27.3798 73.0366 26.8198 73.2691 25.8876 72.8018C24.4519 72.0846 24.6644 68.7634 27.3786 68.7165C30.209 68.6648 31.4581 72.3558 29.9578 74.4219C29.3779 75.5008 28.3377 76.1864 26.99 76.3508C25.0999 76.582 22.9046 75.4644 21.7682 73.6953C21.0743 72.6128 20.1892 70.3447 22.0675 67.2877C22.1286 67.1879 22.192 67.0952 22.2554 67.0036L22.2953 66.9449C19.6386 65.4563 16.8751 60.9858 17.1087 58.9995L17.1204 58.8973L17.1756 58.8116C19.2019 55.6607 26.8116 56.5893 27.7765 56.7208C28.1252 55.4095 28.9447 54.3729 30.0823 53.8281C31.356 53.2212 32.8775 53.294 34.1512 54.0277C35.5776 54.8495 35.776 55.9836 35.6915 56.7901C35.5259 58.3749 34.1465 59.8401 33.3071 60.1124C32.8023 60.2767 32.5206 60.0432 32.4243 59.9351C32.2908 59.8004 32.2136 59.6199 32.2083 59.4303C32.2083 59.3892 32.213 59.3528 32.2201 59.32C32.2869 58.9349 32.6403 58.7447 33.0888 58.5052C33.7415 58.1566 34.629 57.6741 34.8168 56.5318L34.8204 56.5118C34.8227 56.503 34.8239 56.4939 34.8239 56.4848C34.8239 55.7899 34.4517 55.2228 33.711 54.7967C32.6896 54.2097 31.4746 54.1451 30.4626 54.6288C29.4236 55.1254 28.738 56.1138 28.5338 57.4099C28.2003 59.5195 29.4272 62.2643 31.9007 64.9374L32.1449 65.2004C33.9739 67.1703 35.8652 69.2107 36.019 72.1679C36.1493 74.6767 35.3299 77.4249 33.8754 79.3444C33.7589 79.4938 33.6367 79.6387 33.5091 79.7788C33.4654 79.8283 33.4219 79.8779 33.3787 79.9278L33.4069 79.9067C35.3311 78.4358 37.6062 77.9697 39.6525 78.6283C41.2338 79.1366 42.4171 80.2343 42.8222 81.5643C43.2647 83.0142 43.1239 84.2985 42.4242 85.1802C42.1589 85.5053 41.8291 85.7718 41.4557 85.9632C39.3343 87.5716 36.2808 86.4727 36.2163 84.8949C36.1411 83.1293 38.4245 82.7618 39.2334 84.3079C39.7593 85.3082 40.4977 85.3199 40.9544 85.206C41.2655 85.0546 41.539 84.875 41.7327 84.6308C42.2458 83.9851 42.3326 82.9872 41.9793 81.8226C41.6623 80.7837 40.668 79.8832 39.3824 79.4688C37.6156 78.9018 35.6328 79.3174 33.9434 80.6076C30.6117 83.1563 27.2377 84.079 26.3596 84.2868C21.9525 85.543 16.618 85.1614 12.2191 82.8569C12.63 83.2115 13.0514 83.5625 13.4929 83.9053C18.0655 87.4483 23.5514 93.418 23.7123 101.726C23.7886 105.708 22.6815 109.194 20.458 111.11C18.5327 112.77 15.9312 113.379 12.9352 112.873C9.51427 112.294 7.65233 109.051 7.79557 106.397C7.92589 103.918 9.86999 101.261 12.4809 101.103C14.5894 100.974 16.2681 101.686 17.2085 103.11C17.7438 103.919 17.9551 104.8 17.9551 105.584C17.9551 106.199 17.826 106.754 17.6182 107.169C17.5888 107.227 17.5478 107.274 17.5078 107.321C17.4772 107.354 17.4493 107.39 17.4245 107.427C17.428 107.427 17.4562 107.455 17.4562 107.455C17.3832 107.531 17.3088 107.605 17.2331 107.678C16.5334 108.505 15.4393 108.858 14.5236 108.876C14.1526 108.883 13.2604 108.843 12.9775 108.325C12.9176 108.215 12.758 107.92 12.9869 107.668C13.2146 107.418 13.5093 107.542 13.6677 107.611H13.6713C14.2288 107.872 14.8596 107.931 15.4557 107.778C15.9441 107.664 16.4383 107.221 16.6813 106.973C16.6993 106.947 16.7189 106.922 16.74 106.899C16.7717 106.86 16.8034 106.821 16.8269 106.772C16.9796 106.47 17.0664 106.058 17.0664 105.601C17.0667 104.889 16.8599 104.192 16.4712 103.595C15.9347 102.782 14.8148 101.842 12.5349 101.982C10.4417 102.11 9.23367 104.29 9.12217 106.377C9.01062 108.474 9.97565 111.109 13.0585 111.63C15.7844 112.091 18.1347 111.55 19.8558 110.068H19.8546ZM57.7715 28.5678C59.8706 28.4469 62.3617 29.5657 64.7731 31.7105C64.2389 29.6936 63.9044 26.3349 66.5787 24.0914C65.4399 21.6449 61.4672 19.0328 59.7872 18.9729L59.752 18.9741C57.4663 20.4416 57.5368 26.2692 57.7715 28.5678ZM105.428 92.2064C103.868 92.2162 102.904 93.9108 103.692 95.2568C104.028 95.8304 104.624 96.2027 105.287 96.2531C106.402 96.2918 107.341 95.4172 107.38 94.3008C107.418 93.1839 106.544 92.2472 105.428 92.2064ZM102.922 102.711C101.785 102.711 100.86 103.636 100.86 104.773C100.86 105.91 101.785 106.835 102.922 106.835C104.059 106.835 104.984 105.91 104.984 104.773C104.984 103.636 104.059 102.711 102.922 102.711ZM93.607 107.461C93.607 106.345 92.6995 105.436 91.5831 105.436C90.4654 105.436 89.5579 106.345 89.5579 107.461C89.5579 108.576 90.4666 109.485 91.5831 109.485C92.6983 109.485 93.607 108.576 93.607 107.461ZM50.5716 63.3549C54.0371 81.0056 55.7546 85.3821 65.7932 85.7648V85.7625L65.8202 85.5841C65.8402 85.4467 65.8602 85.3093 65.8942 85.1708C66.601 82.2711 68.7177 80.2754 71.6385 79.6543C71.5234 79.2012 71.2288 77.8723 71.1571 75.9633C64.921 70.3506 54.4868 68.997 54.3823 68.9841L54.0618 68.9442L52.7141 61.5365L53.5769 62.1011C54.1146 62.4533 66.1854 70.3882 71.1477 74.7565C71.1536 74.3104 71.1747 73.8408 71.2123 73.3501C66.7794 68.7798 52.255 57.7738 51.6493 57.3137L51.6316 57.3007L51.4931 57.1975L50.4518 51.4732L51.1327 51.6633L56.8535 53.2658L56.938 53.4537C61.6938 64.0487 72.3828 72.5307 72.4896 72.6152L72.5096 72.6305L72.695 72.614C68.6425 67.546 61.203 54.7251 60.879 54.1616L60.3613 53.2693L61.3639 53.51L67.6833 55.0268L67.7045 55.3519C67.7103 55.4576 68.4852 66.0386 73.8021 72.5706C74.9643 72.5612 76.5175 72.6598 78.3371 73.0519C79.119 70.2931 81.1547 68.3572 83.9874 67.769C84.0579 67.7561 84.1283 67.7479 84.1988 67.7409C84.2516 67.735 84.3056 67.7291 84.3596 67.7197C84.0098 57.5872 80.4245 54.6816 62.7198 51.2066C52.4158 49.1839 45.797 45.4765 41.971 42.6062C44.8414 46.431 48.5488 53.051 50.5716 63.3549ZM72.7314 79.4829C75.3177 79.2517 77.6457 79.848 79.4724 81.1594C78.2444 79.2927 77.7408 76.9636 78.0613 74.4043C78.073 74.3034 78.0942 74.2083 78.1153 74.1132C78.1304 74.0489 78.1442 73.9843 78.1563 73.9195C75.1522 73.275 72.8911 73.4651 72.0928 73.5708C72.0576 74.1003 72.0282 74.6227 72.0282 75.097C72.0282 77.56 72.4391 79.2258 72.5178 79.517C72.5508 79.5128 72.5837 79.5073 72.6164 79.5005C72.654 79.4935 72.6915 79.4864 72.7314 79.4829ZM93.8594 52.9077C93.0752 55.3062 93.0881 57.6447 93.2161 59.0711C91.5607 57.0084 89.788 55.332 87.8815 53.9479C88.9381 51.506 92.0456 52.795 92.0456 52.795C92.0456 52.795 92.0656 52.714 92.1043 52.5802L93.5952 53.3914L93.8594 52.9077ZM97.4036 54.0054C96.7016 56.3956 96.9704 58.6919 97.1359 59.6369L97.7347 59.0699L97.9167 58.8973C97.5504 58.1178 97.062 56.5447 97.4036 54.0054ZM94.154 60.3073C94.464 60.7417 94.7598 61.1842 95.0345 61.6339L95.1883 61.4883L95.4572 61.2324L95.4583 61.23L96.475 60.2615L96.3647 60.2897C96.3412 60.1934 94.0496 50.507 102.859 47.1588C103.153 47.0719 103.552 46.9557 103.722 47.3373C103.891 47.7211 103.61 47.8914 103.047 48.2342C101.941 48.9092 99.0049 50.7018 98.5177 52.815C97.8767 55.602 98.2595 57.3653 98.5987 58.2517C102.118 54.9305 106.768 50.5974 107.8 49.9C108.408 49.4891 109.153 49.4023 109.843 49.4281C110.276 49.4422 110.689 49.5021 111.033 49.5502C111.033 49.5502 111.214 49.5678 111.396 49.5831C110.126 47.6613 107.86 46.2713 105.397 45.9555C105.13 45.921 104.86 45.8991 104.591 45.8897C102.022 45.7994 99.4827 46.8407 97.3614 48.8693C92.8333 53.2071 94.2574 60.2099 94.2726 60.2815L94.1552 60.3073H94.154ZM81.292 81.9952C83.073 83.7092 85.7109 84.5721 88.0153 84.1953H88.0118C91.7392 83.5848 94.727 81.0843 96.212 77.3299C98.297 72.0634 97.0338 65.4657 92.9179 60.1077C87.6972 53.314 80.5595 51.3205 72.2865 49.0113H72.2842L72.2759 49.0078L72.2607 49.0043L70.758 48.584L70.704 48.5676C67.5308 47.6742 64.2507 46.7503 60.6196 45.4988C48.4244 41.3007 41.9452 31.5368 42.6226 20.3735C42.1917 14.1502 40.486 9.47435 37.6332 6.75073C35.5083 4.72093 32.5499 4.04239 29.2158 4.16562C25.3782 4.30652 23.3401 5.99702 22.1485 7.63237C20.2303 10.2609 19.5189 14.0775 20.3758 17.1298C21.1624 19.9344 23.7041 22.2577 26.8456 23.0513C29.5586 23.7357 32.0663 23.1394 33.7321 21.416C35.56 19.5236 36.0096 16.2188 34.8004 13.5621C33.8378 11.4489 32.0322 10.2985 29.8463 10.4123C28.5983 10.4757 27.6498 10.9054 27.0264 11.6861C26.7012 12.0923 26.4864 12.5607 26.3455 13.0374C27.0687 12.4034 28.4704 11.5581 30.4098 12.1651C33.3224 13.0784 32.8798 19.3991 28.4727 19.0222C24.0656 18.6466 24.1466 14.2289 24.79 12.704C25.4333 11.1778 26.9031 9.24191 30.5753 9.51896L30.5483 9.526L30.4849 9.54243C32.7401 9.66336 34.5856 10.9571 35.6058 13.197C36.9605 16.1719 36.4393 19.8863 34.3684 22.03C32.8129 23.643 30.5331 24.3838 28.0853 24.1478C29.4178 24.7418 30.8841 25.3335 32.4525 25.9675L32.53 25.998L35.2301 27.0992C38.7004 28.5338 39.8121 30.9498 40.1326 32.7284C40.5564 35.0693 39.7194 37.3726 38.7415 38.4902C40.1467 40.0844 47.1448 47.0872 63.2716 49.9916C81.305 53.2411 85.5371 56.9169 85.4702 67.6188C87.9978 67.5648 90.3081 68.6988 91.4903 70.6993C93.0282 73.302 92.3379 76.0643 90.9749 77.6492C90.6464 78.0329 90.2588 78.3618 89.8268 78.6236C87.7759 80.3716 83.4698 79.8434 83.3078 75.954C83.1281 71.6373 88.3276 71.4893 89.0109 74.0557C89.4429 75.6804 88.7561 76.4236 88.2713 76.9495C87.9895 77.2547 87.7747 77.486 87.8862 77.7724C88.013 78.1035 88.3065 78.1986 88.6035 78.2045C89.2257 78.0307 89.8092 77.6469 90.3058 77.0716C91.4633 75.7262 92.0432 73.3736 90.7296 71.1477C89.5333 69.1168 86.832 68.0837 84.1671 68.6355C81.2779 69.2353 79.3233 71.4318 78.9382 74.5135C78.4557 78.3594 79.9525 80.705 81.292 81.9952ZM88.1598 85.0675C85.9468 85.4303 83.5543 84.8045 81.6548 83.4322C82.9403 85.3727 83.4721 87.7641 83.0354 89.9477C82.9208 90.4994 82.765 91.0417 82.5693 91.5701C84.0943 91.7087 88.1973 92.143 91.4175 93.0705C91.0372 91.7967 90.3727 88.9945 90.1508 84.5474C89.504 84.7814 88.8372 84.9555 88.1586 85.0675H88.1598ZM95.7765 97.7581L95.3679 97.6513L95.4736 98.115L95.7765 97.7581ZM82.2195 92.4283C81.3827 94.2403 80.0788 95.7971 78.4416 96.9387C81.1066 97.5398 88.526 98.9168 95.2329 97.44C96.914 90.8106 95.8106 83.3981 95.3046 80.725C94.1839 82.2173 92.7103 83.4081 91.016 84.1905C91.2943 90.4443 92.4964 93.533 92.5105 93.5647L92.865 94.4487L91.9611 94.1482C88.5847 93.0212 83.5132 92.5375 82.2195 92.4283ZM51.6645 98.0962C54.2168 97.8426 55.7722 98.3874 56.5365 98.7807L57.3031 98.0258C56.3639 97.8286 54.0782 97.4775 51.6645 98.0962ZM58.0779 95.0709L58.0486 95.1883C57.9781 95.1719 51.0282 93.5025 46.5354 97.8743C44.4317 99.9218 43.3011 102.422 43.3011 104.993C43.3011 105.261 43.3129 105.53 43.3387 105.8C43.5665 108.273 44.8766 110.587 46.7515 111.923L46.7315 111.562L46.7279 111.534C46.6817 111.146 46.6558 110.756 46.6505 110.365C46.6505 109.675 46.7632 108.933 47.194 108.341C47.9266 107.334 52.4229 102.841 55.8662 99.4416C54.9916 99.0706 53.2435 98.6257 50.4354 99.1692C48.3105 99.5813 46.418 102.445 45.7008 103.531L45.6984 103.535C45.3357 104.085 45.1537 104.361 44.778 104.176C44.4035 103.993 44.535 103.6 44.6313 103.31C48.2882 94.6225 57.8866 97.2521 57.9829 97.2803L57.9523 97.3895L59.3728 95.996C58.9338 95.7072 58.5041 95.3961 58.0779 95.0709ZM56.8758 94.0883C54.8718 92.3626 53.2599 90.5312 51.9439 88.5765C49.468 89.5462 50.6455 92.6971 50.6455 92.6971C50.6455 92.6971 50.5657 92.7124 50.4295 92.7488L51.1879 94.2656L50.689 94.5168C53.1156 93.8148 55.4529 93.9099 56.8758 94.0883ZM6.54529 36.7023C9.16324 39.6478 13.7793 41.5156 19.9826 42.1671V42.1706C31.1623 41.8865 40.6938 48.7049 44.4599 61.0387C45.5845 64.7249 46.3946 68.0473 47.1788 71.2569L47.1846 71.2816C47.3115 71.7981 47.4347 72.3111 47.5568 72.8195C49.5748 81.17 51.3135 88.3746 57.9206 93.8336C63.1295 98.135 69.6803 99.6294 75.0172 97.7311C78.8208 96.3799 81.427 93.4813 82.1666 89.7787C82.6245 87.4894 81.8544 84.8198 80.2038 82.9814C78.9605 81.5972 76.6701 80.0206 72.8101 80.3658C69.7155 80.6416 67.4521 82.5188 66.7524 85.3857C66.1067 88.0294 67.0424 90.766 69.0322 92.0327C71.2088 93.425 73.5814 92.9284 74.9667 91.8178C75.5584 91.3436 75.9622 90.773 76.1582 90.1578C76.1618 89.8608 76.0772 89.5638 75.7509 89.4241C75.468 89.302 75.2285 89.5075 74.9138 89.7787C74.3715 90.2459 73.6049 90.9069 71.9965 90.4173C69.456 89.6448 69.7883 84.4535 74.0944 84.7858C77.9756 85.0839 78.3524 89.4065 76.5327 91.3928C76.2558 91.816 75.9134 92.1924 75.5184 92.5082C73.889 93.8136 71.1043 94.4041 68.5568 92.7781C66.5963 91.5255 65.5444 89.1729 65.6888 86.6477C55.1606 86.2333 52.5872 81.8438 49.3565 63.9114C46.3957 47.4723 39.1735 40.5141 37.7647 39.3014C36.5027 40.0551 34.4471 40.5576 32.4173 40.1162C30.6528 39.7311 28.2755 38.5348 26.9642 35.0188L25.9604 32.2788C25.3723 30.6598 24.8217 29.1466 24.2676 27.7731C24.4155 30.2266 23.5961 32.4795 21.929 33.9763C19.7138 35.972 15.9828 36.3595 13.0585 34.9037C10.8573 33.8049 9.62697 31.9136 9.58824 29.6561L9.57885 29.6854C9.57209 29.7052 9.56584 29.7252 9.56004 29.7453C9.4133 26.0637 11.4009 24.6655 12.947 24.075C14.4919 23.4869 18.9107 23.5608 19.1314 27.9785C19.3522 32.3961 13.0209 32.6169 12.2109 29.6713C11.6708 27.7108 12.5666 26.3431 13.2252 25.6423C12.7308 25.7613 12.2643 25.9755 11.8517 26.2727C11.0475 26.8691 10.5861 27.8012 10.4781 29.0456C10.2879 31.228 11.3727 33.0723 13.4529 34.1101C16.0662 35.412 19.3815 35.0786 21.3397 33.3189C23.1194 31.7152 23.8038 29.2288 23.2157 26.4958C22.5336 23.326 20.2996 20.7057 17.5243 19.8206C14.506 18.8567 10.6659 19.4332 7.97051 21.2575C6.29524 22.3916 4.53546 24.3685 4.2584 28.1992C4.01773 31.5262 4.59181 34.5058 6.54529 36.7023ZM22.8517 66.2359C25.1879 63.6426 28.5338 64.0934 30.5307 64.7003C28.4716 62.2138 27.4396 59.6851 27.6357 57.5931C25.3465 57.2773 19.5236 57.0038 17.9786 59.2366L17.9774 59.2695C17.9774 60.9483 20.4463 65.0114 22.8517 66.2359ZM74.5769 17.4808C78.2514 17.6828 77.5494 20.9018 75.7133 20.7633C75.1815 20.7233 74.7683 20.4709 74.3245 20.2009C73.2327 19.5365 71.9543 18.7569 68.2727 20.7222C67.2924 21.3514 66.8698 20.8196 67.6282 20.1833C67.6282 20.1833 70.8989 17.2777 74.5758 17.4808H74.5769ZM70.5807 11.6685C68.5579 12.8448 66.2417 15.6412 65.4035 18.4846V18.4834C65.2368 19.0539 65.6735 19.1526 65.9095 18.7957C67.1539 16.9244 69.3809 14.351 72.1116 14.2254C73.7446 14.1514 74.6286 13.8732 74.4572 12.4668C74.2858 11.0721 72.4074 10.6049 70.5807 11.6685ZM62.5249 16.5416C62.5249 16.5416 62.701 9.47435 65.454 6.62396C66.601 5.41241 68.8374 6.74489 67.8912 8.55163C67.5976 9.11044 67.1539 9.5859 66.6456 10.1306C65.508 11.348 64.0523 12.9059 63.2645 16.4935C63.1624 17.3012 62.5085 17.057 62.5249 16.5416ZM51.2032 28.7157C51.5835 27.7366 52.0284 26.5909 55.4142 26.032C56.3686 25.9522 56.378 25.3946 55.5645 25.3593C55.5645 25.3593 51.9791 25.0976 49.6805 27.0675C47.3807 29.0374 49.4457 30.7866 50.5774 29.777C50.905 29.4859 51.0482 29.1149 51.2032 28.7157ZM55.8791 22.6533C54.259 21.7658 51.6539 20.7409 49.6183 21.6942C48.4009 22.2636 47.6507 22.3986 47.2386 21.3068C46.8278 20.2268 48.0194 19.169 49.7557 19.2465C51.6786 19.331 54.4328 20.4815 56.1292 22.2319C56.4684 22.5817 56.1878 22.82 55.8802 22.6522H55.8791V22.6533ZM51.7021 15.1974C52.977 15.7938 54.6077 16.5581 56.3404 19.2007C56.6703 19.8206 57.1094 19.3979 56.938 18.9847C56.938 18.9847 54.61 13.305 51.5565 11.9385C50.2757 11.3492 48.9221 13.2017 50.2299 14.3451C50.6338 14.6973 51.1328 14.931 51.7021 15.1974ZM58.8516 16.2634C58.4348 15.5121 56.4567 11.0228 56.0399 8.20764C55.5116 4.627 59.5266 5.45583 59.2026 8.39197C58.9091 12.5818 59.6546 16.5123 59.6546 16.5123C59.6299 17.1744 59.2671 17.016 58.8516 16.2634ZM55.0444 71.9883L55.1031 72.4696C55.1184 72.5835 55.4729 75.3071 56.9157 76.5093L57.1435 76.6983L57.4052 76.5586C62.1457 74.0498 66.9261 75.9235 68.6425 76.5961C68.8667 76.6842 69.0393 76.7523 69.1532 76.7863C70.1275 77.0834 70.0243 76.2381 69.5429 75.9927C69.294 75.8659 69.017 75.6992 68.7329 75.5267C68.4664 75.3658 68.1952 75.2014 67.9369 75.0653C61.8006 71.8251 55.8028 71.9636 55.5281 71.9719L55.0444 71.9883ZM68.1048 77.7232C69.1297 77.918 68.8233 78.613 68.0426 78.5989C67.2631 78.586 66.5693 78.7727 65.9506 78.9758C63.0568 79.929 61.8522 82.3157 61.7912 82.439L61.6222 82.7841L61.2547 82.6644C61.1256 82.621 60.3719 82.2829 58.2998 79.8821L58.0146 79.5534L58.3397 79.2657C61.4484 76.501 67.0776 77.5306 68.1036 77.7255L68.1048 77.7232ZM71.804 56.0481L71.3262 55.9613L71.2851 56.4437C71.2616 56.7114 70.8085 62.4181 73.4804 68.5591L73.5626 68.7516C73.8514 69.4185 74.1731 70.1604 74.5394 70.7028C74.9432 71.2968 75.5724 70.7721 75.333 70.3154C75.0923 69.8599 74.9984 69.5054 74.7049 68.2727C74.1484 65.9295 73.7082 61.9755 75.7591 58.5745L75.9117 58.3198L75.7368 58.0826C74.6168 56.5752 71.919 56.0681 71.804 56.0481ZM78.714 59.57L79.0275 59.8729C81.2498 62.0201 81.5891 62.7926 81.6384 62.9781L81.7405 63.3502L81.3848 63.5017C81.2451 63.5604 78.2092 64.887 77.3698 68.5204C77.2994 68.8397 77.2759 68.9489 77.2054 69.5288C77.1338 70.1088 76.4036 70.4516 76.3273 69.5417C76.2968 69.1801 76.2792 69.0134 76.2663 68.8937C76.2404 68.6557 76.2243 68.4169 76.2181 68.1776C76.1242 66.0644 76.2627 62.0389 78.4076 59.8799L78.714 59.5689L78.714 59.57ZM33.1217 34.7523C34.4822 34.7874 35.3705 33.3364 34.7206 32.1406C34.4034 31.5569 33.7857 31.2003 33.1217 31.2174C31.7611 31.2525 30.9487 32.7473 31.6593 33.908C31.9722 34.4191 32.5226 34.7369 33.1217 34.7523Z" fill="#F7F5EE"/>
</svg>
