<svg width="115" height="115" viewBox="0 0 115 115" fill="none" xmlns="http://www.w3.org/2000/svg">
<path fill-rule="evenodd" clip-rule="evenodd" d="M2.49506 94.5009L2.11588 94.0877L1.80243 94.5549C1.07103 95.6525 0.952446 97.0003 1.45725 98.4501C2.16165 100.466 4.05409 102.406 6.02169 103.3C3.21588 105.75 2.62303 109.002 2.24265 111.205L2.06657 112.16L1.9609 112.798L3.54694 112.507C5.74933 112.128 9.0012 111.535 11.4513 108.731C12.3459 110.697 14.2853 112.591 16.3009 113.295C16.8486 113.493 17.4257 113.597 18.0079 113.603C18.7865 113.609 19.5491 113.382 20.1962 112.949L20.6646 112.636L20.2502 112.257C12.2672 104.903 17.111 98.3268 17.3199 98.0498L16.7013 97.4311C16.4266 97.6413 9.84765 102.485 2.49386 94.5009L2.49506 94.5009ZM2.30489 95.5563C4.83245 98.1355 7.29424 99.32 9.46843 99.7356C9.50835 100.597 9.76195 102.574 11.1566 103.835C12.1075 104.692 13.3883 105.036 14.9662 104.875C15.3031 107.145 16.4501 109.754 19.1972 112.447C18.8222 112.614 18.4181 112.705 18.0079 112.716C17.4843 112.716 16.9936 112.599 16.5945 112.459C14.6245 111.771 12.5971 109.727 11.9808 107.808L11.7189 106.998L11.2059 107.675C8.92843 110.681 5.60019 111.256 3.399 111.634L3.05271 111.698L3.1161 111.352L3.1161 111.349C3.49648 109.147 4.07171 105.82 7.07587 103.544L7.75327 103.032L6.94326 102.77C5.02262 102.154 2.9799 100.127 2.29431 98.1566C2.05014 97.4605 1.91394 96.4919 2.3037 95.5539L2.30489 95.5563ZM73.997 99.0336C70.3153 99.1087 67.1492 96.0905 67.1492 96.0905C66.4131 95.4271 66.8545 94.9118 67.8124 95.5739C71.4224 97.6671 72.7267 96.9334 73.8408 96.3088C74.2951 96.0529 74.7166 95.8157 75.2496 95.7958C77.0904 95.7218 77.6797 98.962 73.9981 99.0359L73.997 99.0336ZM73.7023 104.042C73.923 102.642 73.0484 102.332 71.4201 102.2L71.4189 102.202C68.6941 101.979 66.5587 99.3294 65.3811 97.4159C65.1581 97.0519 64.7179 97.1341 64.8658 97.7093C65.6019 100.581 67.8207 103.457 69.7988 104.705C71.5868 105.832 73.4816 105.432 73.7023 104.042ZM64.4983 109.564C61.8475 106.617 61.9215 99.5501 61.9215 99.5501C61.9215 99.0336 62.5836 98.8141 62.6575 99.6253C63.3185 103.236 64.7179 104.845 65.8108 106.101C66.3004 106.663 66.7289 107.154 67.0012 107.723C67.8841 109.565 65.6019 110.817 64.4972 109.565L64.4972 109.564L64.4983 109.564ZM55.2756 90.4918C56.0903 90.4847 56.0974 89.9259 55.1477 89.8132C51.783 89.137 51.3792 87.9736 51.0329 86.9816C50.892 86.5777 50.7629 86.2033 50.4459 85.9004C49.3506 84.852 47.2245 86.5261 49.4527 88.577C51.6809 90.628 55.2756 90.4906 55.2756 90.4906L55.2756 90.4918ZM55.7276 93.6345C53.9714 95.325 51.1785 96.3792 49.2531 96.3957C47.5157 96.4097 46.3628 95.3121 46.8101 94.2461C47.2597 93.1719 48.0052 93.3316 49.2015 93.9444C51.2019 94.9681 53.8422 94.0372 55.494 93.2083C55.8074 93.0499 56.0786 93.2976 55.7264 93.6357L55.7276 93.6357L55.7276 93.6345ZM51.0575 100.51C50.4788 100.757 49.9728 100.972 49.5572 101.31C48.2071 102.406 49.4985 104.306 50.7981 103.762C53.8974 102.505 56.4238 96.9099 56.4238 96.9099C56.6116 96.5049 56.1866 96.0646 55.8344 96.6739C54.0089 99.2531 52.3524 99.9587 51.0575 100.51ZM55.1477 107.648C55.663 104.852 57.7985 100.433 58.2411 99.6969C58.6825 98.962 59.0511 98.814 59.0511 99.475C59.0511 99.475 58.1683 103.38 58.3127 107.575C58.5346 110.52 54.4926 111.21 55.1477 107.648ZM110.068 95.1454C108.331 93.1285 105.45 92.1013 101.74 92.1717L101.738 92.1682C93.7783 92.3208 88.0235 97.6236 84.5979 102.046C80.5007 107.335 74.9267 110.678 74.8046 110.574L74.7999 110.555C68.8315 113.862 61.7278 114.536 54.9903 112.483C48.6192 110.542 44.225 106.306 42.9337 100.86C42.7989 100.285 42.6814 99.7062 42.5815 99.124C41.836 103.843 40.2993 106.88 37.6191 109.264C35.2383 111.383 31.8854 112.17 28.3107 111.912C24.1278 111.61 21.7681 109.355 20.5237 107.518C18.555 104.611 17.9339 100.465 18.9752 97.201C19.2887 96.2219 19.81 95.3144 20.4662 94.4938L20.3688 94.4187C22.4326 91.6669 26.6436 90.1384 31.9735 88.2025L34.7041 87.2011C37.848 86.0295 38.9105 83.9375 39.2474 82.3878C39.7017 80.2982 38.9657 77.9491 38.1039 77.0897C37.2763 76.1987 34.9882 75.3487 32.8845 75.7279C31.3255 76.0108 29.1982 76.9993 27.9151 80.0974L26.8174 82.794L26.8151 82.8011C24.6948 88.0558 23.0208 92.207 20.1974 94.171L20.1269 94.07C19.284 94.6981 18.3589 95.1877 17.3693 95.4659C14.0704 96.3933 9.94977 95.6244 7.11346 93.5558C5.32199 92.2492 3.15134 89.8109 2.99636 85.6198C2.8637 82.0392 3.77119 78.7145 5.97118 76.4088C8.44828 73.8132 11.537 72.3856 16.2787 71.8068C15.7081 71.6847 15.1329 71.5533 14.5564 71.3936C9.16087 69.9132 5.08366 65.37 3.36965 58.9366C1.55472 52.1299 2.47744 45.0567 5.99349 39.208L5.97472 39.2033C5.8761 39.0777 9.41442 33.627 14.8441 29.7165C19.3826 26.4493 24.8874 20.8847 25.3182 12.9369C25.5213 9.23068 24.5951 6.3157 22.6416 4.50777C20.9722 2.96755 18.6418 2.34416 15.9018 2.71046C12.8025 3.12133 11.7459 5.72051 11.7824 7.81953C11.8211 9.90922 12.9516 12.1304 15.0401 12.3323C17.3129 12.5518 18.4646 11.6537 19.0316 10.859C19.4403 10.2758 19.6711 9.58662 19.6961 8.87496C19.7125 8.41827 19.6374 8.00271 19.4989 7.6963C19.476 7.65095 19.4481 7.6084 19.4155 7.56948C19.3954 7.54423 19.3766 7.518 19.3592 7.49082C19.1244 7.23257 18.6466 6.77474 18.1617 6.64323C17.5705 6.46893 16.9371 6.50587 16.3702 6.74774C16.2094 6.80994 15.9124 6.92498 15.6928 6.66673C15.4721 6.4061 15.6424 6.11846 15.7069 6.0093C16.0063 5.5045 16.9009 5.49391 17.2707 5.51388C18.1852 5.562 19.2652 5.9553 19.9379 6.80524C20.0119 6.87981 20.0831 6.95695 20.1516 7.03653L20.1351 7.0506C20.1304 7.05529 20.1253 7.05962 20.1199 7.06353C20.1436 7.10028 20.1694 7.13557 20.1974 7.1692C20.2361 7.21851 20.276 7.26662 20.303 7.32766C20.4955 7.75031 20.6071 8.30912 20.5859 8.92428C20.5536 9.80343 20.2638 10.6538 19.7524 11.3696C18.7628 12.7596 17.0593 13.4124 14.9568 13.2093C12.3552 12.958 10.5051 10.2356 10.4605 7.75265C10.4135 5.09712 12.3858 1.92151 15.8267 1.46252C18.8379 1.06219 21.416 1.76304 23.2837 3.48997C25.438 5.48218 26.4218 9.00529 26.2058 12.9827C25.7526 21.2791 20.0589 27.0504 15.3642 30.4302C14.9179 30.7531 14.4806 31.0882 14.0528 31.4352C18.5303 29.2868 23.8766 29.0931 28.2344 30.503C29.1043 30.7425 32.4442 31.7826 35.6844 34.4476C37.328 35.7977 39.2955 36.2825 41.0788 35.7765C42.3784 35.409 43.4033 34.5426 43.7554 33.5166C44.1511 32.3661 44.0994 31.3659 43.6099 30.7014C43.4267 30.4514 43.1567 30.2612 42.8526 30.0992C42.3995 29.9677 41.6611 29.9536 41.1023 30.9362C40.2382 32.453 37.9701 32.0045 38.1063 30.2424C38.2284 28.6693 41.3159 27.6773 43.381 29.3596C43.7473 29.5638 44.0671 29.8421 44.3201 30.1766C44.9881 31.083 45.0856 32.3696 44.5937 33.8043C44.1405 35.1191 42.9184 36.1745 41.3206 36.6276C39.2521 37.2134 36.9934 36.6676 35.1244 35.1296L35.115 35.1226C35.1086 35.1181 35.1024 35.1134 35.0962 35.1085L35.1878 35.2189C35.3216 35.3809 35.4566 35.5441 35.5717 35.7072C36.957 37.676 37.6825 40.4524 37.463 42.9554C37.2047 45.9044 35.243 47.8743 33.3458 49.7808L33.0911 50.0356C30.5271 52.6218 29.2029 55.3196 29.4624 57.441C29.6208 58.7441 30.2724 59.7549 31.2938 60.2878C32.2869 60.8068 33.5031 60.7856 34.5456 60.2338C35.3005 59.8335 35.6938 59.2806 35.7173 58.5856L35.7173 58.5739L35.7149 58.5621L35.7126 58.5386C35.5646 57.3881 34.6947 56.8775 34.0561 56.5053L34.0514 56.5029C33.6135 56.247 33.2684 56.0451 33.2144 55.6577C33.212 55.626 33.2085 55.5896 33.2085 55.5497C33.2144 55.4088 33.266 55.2327 33.441 55.0508C33.5419 54.9451 33.8307 54.7221 34.3296 54.904C35.1585 55.2069 36.4862 56.7178 36.5954 58.3085C36.6506 59.1174 36.4111 60.2433 34.9589 61.0133C33.6593 61.7025 32.1355 61.7236 30.884 61.0697C29.7664 60.4874 28.9846 59.4215 28.6817 58.0996C27.7131 58.197 20.0753 58.858 18.1629 55.6354L18.1089 55.5485L18.1007 55.4476C17.9387 53.4542 20.8571 49.0835 23.5643 47.6876L23.542 47.6524C23.4751 47.5496 23.4109 47.4451 23.3495 47.339C21.5815 44.2186 22.543 41.9809 23.2744 40.9256C24.473 39.1986 26.7059 38.1585 28.5877 38.4555C29.9272 38.6668 30.9427 39.39 31.4839 40.4888C32.9103 42.6067 31.5332 46.2519 28.7063 46.1004C25.9944 45.9572 25.9005 42.6313 27.3598 41.9645C28.3072 41.5313 28.8589 41.7825 29.3109 41.988C29.5563 42.1007 29.7711 42.1993 30.0059 42.1688C30.6493 41.9516 30.7807 41.4503 30.742 40.9878C30.3452 40.092 29.5375 39.5003 28.4492 39.3278C26.9113 39.0848 24.9977 39.9887 24.0011 41.4292C22.9421 42.9589 22.9832 44.9041 24.1185 46.9058C26.8596 51.7402 32.7941 48.9485 33.0442 48.8287C34.7229 47.1347 36.3641 45.3491 36.5813 42.8779C36.7832 40.5745 36.1188 38.0212 34.8486 36.2168C33.9845 34.9888 32.6802 33.769 31.2679 32.8698C30.2994 32.2522 29.2076 31.7568 28.0454 31.3718C27.9045 31.3307 27.8129 31.3072 27.8129 31.3072L27.8176 31.2908C22.1837 29.5181 14.8429 30.5324 10.2363 35.1743C4.04939 41.4069 1.97502 50.2668 4.22548 58.71C5.85733 64.8335 10.3924 68.8649 15.4757 70.2619C28.4833 73.8355 39.3108 67.2472 44.0654 53.4401C45.3133 49.8113 46.2384 46.5254 47.1329 43.3475C48.1144 39.8607 49.0817 36.6558 50.3215 33.7056L30.7397 13.3724L31.1435 1.9286L32.0263 1.95909L31.6366 13.0296L37.0286 18.6295L37.0849 18.6882C41.9628 23.7539 48.6509 30.6979 50.7019 32.8298C51.3045 31.4702 51.9975 30.1523 52.7762 28.8853L36.4111 11.3251L36.7421 1.90629L39.0983 1.98964L43.6157 7.60122C43.6157 7.60122 41.7726 13.8702 46.4591 18.8995C48.5582 21.0526 50.568 22.1068 51.7443 22.5905L52.5966 21.0244C51.081 20.4855 49.556 19.625 48.2353 18.2468C45.8052 15.7098 44.6852 12.5988 45.082 9.48897C45.4448 6.64796 47.0191 4.11806 49.2884 2.71515L49.2907 2.71515C49.448 2.61886 49.8542 2.37001 50.2135 2.6048C50.6044 2.86069 50.5304 3.37727 50.4295 4.08871C50.3133 4.89403 50.1571 5.99402 50.6349 6.70431C51.6093 8.1483 60.5139 17.5048 62.4274 19.5123C63.7017 18.8004 65.046 18.2217 66.4389 17.7854L54.0301 4.76491L54.124 2.07648L55.0068 2.10822L54.9246 4.42446L61.2828 11.095L61.385 11.2018L67.3981 17.5095C68.2797 17.2818 69.166 17.1233 70.0489 17.0258L56.7501 2.75738L59.84 2.86538L73.4064 16.9777C74.8631 17.0976 76.2947 17.4286 77.6562 17.9603C78.3651 18.2465 79.0475 18.5946 79.6954 19.0004C80.0229 18.93 80.7296 18.7833 81.7228 18.6236C81.7815 18.4663 82.1654 17.371 81.5409 15.9423C80.7426 14.1168 78.5918 12.5284 75.32 11.3473C69.9855 9.42439 68.6472 7.34877 68.4617 5.94706C68.3137 4.83299 68.8467 3.73649 69.8845 3.01452C70.7063 2.44393 72.2125 2.19388 73.3923 2.85485C74.3574 3.39485 74.8457 4.42795 74.7694 5.76039L74.7647 5.84259L74.7306 5.91656C74.5217 6.38614 74.1578 6.3779 74.0533 6.36502C73.599 6.30632 73.2785 5.73574 73.0965 4.66629C72.904 3.51697 72.0047 3.40777 71.9026 3.39953L71.9073 3.34907C71.3273 3.32911 70.7544 3.48762 70.3905 3.74118C70.1052 3.94077 69.1872 4.67801 69.3386 5.83321C69.4642 6.78177 70.4457 8.65071 75.6205 10.5185C79.1941 11.8076 81.4634 13.5227 82.365 15.6194C82.8933 16.8462 82.8064 17.8887 82.6761 18.4828C84.9653 18.1587 88.2525 17.8558 91.7638 18.0495L93.2066 12.3511C92.0409 11.9147 91.2833 10.7835 91.3236 9.53943C91.3815 7.93541 92.7272 6.68117 94.3313 6.73596C95.935 6.79461 97.1889 8.13983 97.1347 9.74367C97.0774 11.3483 95.7318 12.6036 94.127 12.5495C94.1167 12.5486 94.1065 12.547 94.0965 12.5448L94.0847 12.5436C94.0793 12.5426 94.0738 12.5418 94.0683 12.5412L92.6596 18.1094C94.3663 18.2373 96.059 18.5103 97.7194 18.9253L102.229 13.6307L102.33 13.7164C102.013 13.248 101.828 12.6833 101.828 12.0764C101.83 10.4498 103.148 9.13164 104.775 9.1297C106.401 9.13228 107.718 10.4502 107.72 12.0764C107.718 13.703 106.4 15.0211 104.774 15.023C104.029 15.023 103.357 14.7366 102.837 14.2799L98.3052 19.6039C98.6738 21.2826 98.8687 23.0049 98.9427 24.6872L104.559 23.4756C104.558 23.4568 104.553 23.4381 104.553 23.4181C104.555 21.8125 105.857 20.5115 107.462 20.5102C109.067 20.5121 110.368 21.8129 110.37 23.4181C110.368 25.0233 109.067 26.3241 107.462 26.326C106.184 26.326 105.108 25.4925 104.719 24.3443L98.9732 25.5852C99.0436 29.1013 98.6245 32.3755 98.2206 34.6518C98.8182 34.5438 99.8619 34.4933 101.07 35.0651C103.131 36.0395 104.768 38.3674 105.93 41.9845C107.614 47.2227 109.447 48.2699 110.391 48.4272C111.542 48.6197 112.311 47.7275 112.52 47.4493C112.786 47.0948 112.965 46.5277 112.965 45.9489L112.939 45.9501L112.914 45.9501C112.909 45.8468 112.831 44.9452 111.69 44.7104C110.628 44.4944 110.07 44.1528 110.026 43.6961C110.017 43.5916 110.021 43.2289 110.498 43.0352L110.573 43.0035L110.655 43.0035C111.99 42.9729 113.006 43.4977 113.51 44.4803C114.128 45.6836 113.825 47.1804 113.225 47.9799C112.468 48.993 111.354 49.485 110.246 49.2994C108.851 49.067 106.825 47.6547 105.09 42.2556C104.025 38.9427 102.513 36.738 100.717 35.8751C99.3101 35.1989 98.2042 35.5452 98.0434 35.6004C97.8485 36.5865 97.6795 37.2874 97.5973 37.6126C97.9781 38.2755 98.3013 38.97 98.5635 39.6882C99.047 41.0679 99.3277 42.5105 99.397 43.9708L113.022 58.0256L113.022 61.1179L99.2303 47.3284C99.1006 48.2182 98.9083 49.0977 98.655 49.9604C102.867 54.2693 107.079 58.5778 111.292 62.8859L113.61 62.8859L113.61 63.7686L110.922 63.7686L98.3463 50.9066C97.8597 52.2824 97.2339 53.6049 96.4785 54.8535C98.4155 56.8375 107.455 66.065 108.864 67.091C109.554 67.5935 110.66 67.4749 111.468 67.388L111.47 67.388L111.474 67.388C112.187 67.3117 112.703 67.2577 112.943 67.6545C113.166 68.0243 112.901 68.4223 112.8 68.5749C111.32 70.7961 108.735 72.2776 105.883 72.5406C102.76 72.8282 99.6928 71.6002 97.2427 69.0809C95.9114 67.712 95.1061 66.1577 94.6201 64.6245L93.0235 65.4228C93.4661 66.6144 94.4498 68.663 96.5289 70.8348C101.389 75.6939 107.722 74.0749 107.722 74.0749L113.169 78.7861L113.169 81.1434L103.745 81.1434L86.7709 64.1702C85.4773 64.9037 84.136 65.5497 82.7559 66.1037C86.09 69.5493 101.64 85.6186 101.871 85.8546L112.948 85.8546L112.948 86.7386L101.496 86.7386L81.8672 66.4547C78.8736 67.5876 75.6381 68.4422 72.1174 69.3004L72.1092 69.3028C68.9042 70.0846 65.5901 70.8923 61.9238 72.0123C47.9583 76.2773 40.9919 86.8654 44.1065 99.9915C45.3227 105.122 49.1921 109.794 55.2545 111.642C63.6131 114.19 72.54 112.429 78.9875 106.465C83.789 102.025 85.0605 94.7239 83.4873 89.0313L83.4709 89.0349L83.4685 89.0255C83.4626 88.9996 83.4451 88.9198 83.4145 88.8024C83.0705 87.6261 82.6151 86.5179 82.0316 85.5271C81.1804 84.0842 80.0077 82.7389 78.8114 81.8314C77.0504 80.4977 74.5241 79.7452 72.2149 79.865C69.7378 79.9953 67.8958 81.5719 66.143 83.1909C66.0139 83.4374 63.0145 89.2697 67.7514 92.1788C69.712 93.3821 71.6537 93.4936 73.2186 92.4887C74.6931 91.5401 75.6628 89.6618 75.475 88.1168C75.3411 87.0215 74.7776 86.195 73.8971 85.7665C73.4346 85.7137 72.9298 85.8252 72.6915 86.4615C72.6527 86.694 72.7431 86.9124 72.8464 87.1612C73.0366 87.6202 73.269 88.1802 72.8018 89.1123C72.0845 90.5481 68.7634 90.3356 68.7164 87.6214C68.6648 84.791 72.3557 83.5419 74.4219 85.0422C75.5008 85.6221 76.1864 86.6623 76.3507 88.01C76.582 89.9001 75.4644 92.0954 73.6952 93.2318C72.6128 93.9256 70.3447 94.8108 67.2877 92.9325C67.1879 92.8714 67.0952 92.808 67.0036 92.7446L66.9449 92.7047C65.4563 95.3614 60.9858 98.1249 58.9994 97.8913L58.8973 97.8796L58.8116 97.8244C55.6607 95.7981 56.5893 88.1884 56.7208 87.2234C55.4095 86.8748 54.3728 86.0553 53.8281 84.9177C53.2212 83.644 53.294 82.1225 54.0277 80.8488C54.8494 79.4224 55.9835 79.224 56.7901 79.3085C58.3749 79.4741 59.84 80.8535 60.1124 81.6929C60.2767 82.1977 60.0431 82.4794 59.9351 82.5757C59.8004 82.7092 59.6199 82.7864 59.4303 82.7917C59.3892 82.7917 59.3528 82.787 59.32 82.7799C58.9349 82.7131 58.7447 82.3597 58.5052 81.9112C58.1565 81.2585 57.674 80.371 56.5318 80.1832L56.5118 80.1796C56.503 80.1773 56.4939 80.1761 56.4848 80.1761C55.7898 80.1761 55.2228 80.5483 54.7966 81.289C54.2096 82.3104 54.1451 83.5254 54.6287 84.5374C55.1254 85.5764 56.1138 86.262 57.4099 86.4662C59.5195 86.7997 62.2643 85.5728 64.9374 83.0993L65.2004 82.8551C67.1703 81.0261 69.2106 79.1348 72.1679 78.981C74.6766 78.8507 77.4249 79.6701 79.3444 81.1246C79.4938 81.2411 79.6387 81.3633 79.7787 81.4909C79.8282 81.5346 79.8779 81.5781 79.9278 81.6212L79.9067 81.593C78.4357 79.6689 77.9696 77.3938 78.6282 75.3475C79.1366 73.7662 80.2342 72.5828 81.5643 72.1778C83.0142 71.7352 84.2985 71.8761 85.1802 72.5758C85.5052 72.8411 85.7718 73.1709 85.9632 73.5443C87.5716 75.6657 86.4727 78.7192 84.8949 78.7837C83.1292 78.8589 82.7618 76.5755 84.3079 75.7666C85.3081 75.2407 85.3199 74.5023 85.206 74.0456C85.0546 73.7345 84.8749 73.461 84.6308 73.2673C83.9851 72.7542 82.9872 72.6673 81.8226 73.0207C80.7837 73.3377 79.8832 74.332 79.4688 75.6176C78.9018 77.3844 79.3174 79.3672 80.6076 81.0565C83.1562 84.3883 84.079 87.7623 84.2868 88.6404C85.5429 93.0475 85.1614 98.382 82.8569 102.781C83.2114 102.37 83.5624 101.949 83.9053 101.507C87.4483 96.9345 93.4179 91.4485 101.726 91.2877C105.708 91.2114 109.194 92.3185 111.11 94.542C112.77 96.4673 113.379 99.0688 112.873 102.065C112.294 105.486 109.051 107.348 106.397 107.204C103.918 107.074 101.261 105.13 101.103 102.519C100.974 100.411 101.686 98.7319 103.11 97.7915C103.919 97.2562 104.8 97.0449 105.584 97.0449C106.199 97.0449 106.754 97.174 107.169 97.3818C107.227 97.4112 107.274 97.4522 107.321 97.4922C107.354 97.5228 107.39 97.5507 107.427 97.5755C107.427 97.572 107.455 97.5438 107.455 97.5438C107.531 97.6168 107.605 97.6912 107.678 97.7669C108.505 98.4666 108.858 99.5607 108.876 100.476C108.883 100.847 108.843 101.74 108.325 102.023C108.215 102.082 107.92 102.242 107.668 102.013C107.418 101.785 107.542 101.491 107.611 101.332L107.611 101.329C107.872 100.771 107.931 100.14 107.778 99.5443C107.664 99.0559 107.221 98.5617 106.973 98.3186C106.947 98.3007 106.922 98.2811 106.899 98.26C106.86 98.2283 106.821 98.1966 106.772 98.1731C106.47 98.0204 106.058 97.9336 105.601 97.9336C104.889 97.9333 104.192 98.1401 103.595 98.5288C102.782 99.0653 101.842 100.185 101.982 102.465C102.11 104.558 104.29 105.766 106.377 105.878C108.474 105.989 111.109 105.024 111.63 101.942C112.091 99.2156 111.55 96.8653 110.068 95.1442L110.068 95.1454ZM28.5678 57.2285C28.4469 55.1294 29.5656 52.6383 31.7105 50.2269C29.6936 50.7611 26.3349 51.0956 24.0914 48.4213C21.6449 49.5601 19.0328 53.5328 18.9729 55.2128L18.9741 55.248C20.4415 57.5337 26.2691 57.4632 28.5678 57.2285ZM92.2064 9.57227C92.2161 11.1321 93.9108 12.0964 95.2567 11.3081C95.8303 10.972 96.2027 10.3761 96.2531 9.71317C96.2918 8.5979 95.4172 7.65872 94.3007 7.61999C93.1839 7.58236 92.2472 8.45553 92.2064 9.57227ZM102.711 12.0775C102.711 13.2151 103.636 14.1402 104.773 14.1402C105.91 14.1402 106.835 13.2151 106.835 12.0775C106.835 10.9411 105.91 10.016 104.773 10.016C103.636 10.016 102.711 10.9411 102.711 12.0775ZM107.461 21.393C106.345 21.393 105.436 22.3005 105.436 23.4169C105.436 24.5346 106.345 25.4421 107.461 25.4421C108.576 25.4421 109.485 24.5334 109.485 23.4169C109.485 22.3017 108.576 21.393 107.461 21.393ZM63.3549 64.4284C81.0056 60.9629 85.3821 59.2454 85.7648 49.2068L85.7625 49.2068L85.584 49.1798C85.4467 49.1598 85.3093 49.1398 85.1708 49.1058C82.2711 48.399 80.2754 46.2823 79.6543 43.3615C79.2012 43.4766 77.8722 43.7712 75.9633 43.8429C70.3506 50.079 68.997 60.5132 68.9841 60.6177L68.9442 60.9382L61.5364 62.2859L62.1011 61.4231C62.4533 60.8854 70.3882 48.8146 74.7565 43.8523C74.3104 43.8464 73.8408 43.8253 73.35 43.7877C68.7798 48.2206 57.7738 62.745 57.3136 63.3507L57.3007 63.3684L57.1974 63.5069L51.4731 64.5482L51.6633 63.8673L53.2658 58.1465L53.4536 58.062C64.0487 53.3062 72.5307 42.6172 72.6152 42.5104L72.6304 42.4904L72.614 42.305C67.546 46.3575 54.725 53.7969 54.1615 54.121L53.2693 54.6387L53.51 53.6361L55.0267 47.3167L55.3519 47.2955C55.4576 47.2897 66.0386 46.5148 72.5705 41.1979C72.5612 40.0357 72.6598 38.4825 73.0519 36.6629C70.2931 35.881 68.3572 33.8453 67.769 31.0125C67.7561 30.9421 67.7479 30.8717 67.7409 30.8012C67.735 30.7484 67.7291 30.6944 67.7197 30.6404C57.5872 30.9902 54.6816 34.5755 51.2066 52.2802C49.1839 62.5842 45.4765 69.203 42.6061 73.029C46.4309 70.1586 53.0509 66.4512 63.3549 64.4284ZM79.4829 42.2686C79.2516 39.6823 79.848 37.3543 81.1593 35.5276C79.2927 36.7556 76.9635 37.2592 74.4043 36.9387C74.3034 36.927 74.2082 36.9058 74.1131 36.8847C74.0489 36.8695 73.9843 36.8558 73.9194 36.8436C73.2749 39.8478 73.4651 42.1089 73.5708 42.9072C74.1002 42.9424 74.6226 42.9718 75.097 42.9718C77.5599 42.9718 79.2258 42.5609 79.5169 42.4822C79.5127 42.4492 79.5072 42.4163 79.5005 42.3836C79.4934 42.346 79.4864 42.3085 79.4829 42.2686ZM52.9077 21.1406C55.3061 21.9248 57.6447 21.9119 59.0711 21.7839C57.0084 23.4393 55.332 25.212 53.9478 27.1185C51.506 26.0619 52.795 22.9544 52.795 22.9544C52.795 22.9544 52.714 22.9344 52.5802 22.8957L53.3914 21.4048L52.9077 21.1406ZM54.0054 17.5964C56.3956 18.2984 58.6919 18.0296 59.6369 17.864L59.0699 17.2653L58.8973 17.0833C58.1178 17.4496 56.5447 17.938 54.0054 17.5964ZM60.3073 20.846C60.7416 20.536 61.1842 20.2402 61.6338 19.9655L61.4883 19.8117L61.2324 19.5428L61.23 19.5417L60.2615 18.525L60.2896 18.6353C60.1934 18.6588 50.507 20.9504 47.1588 12.141C47.0719 11.8474 46.9557 11.4483 47.3372 11.2781C47.7211 11.109 47.8913 11.3896 48.2341 11.9531C48.9092 13.059 50.7018 15.9951 52.815 16.4823C55.602 17.1233 57.3653 16.7405 58.2517 16.4013C54.9305 12.8817 50.5973 8.23161 49.9 7.19969C49.4891 6.59157 49.4023 5.84729 49.4281 5.15701C49.4421 4.72378 49.502 4.31057 49.5502 3.96658C49.5502 3.96658 49.5678 3.7858 49.583 3.60382C47.6613 4.87407 46.2713 7.13984 45.9555 9.60282C45.921 9.8705 45.8991 10.1396 45.8897 10.4093C45.7993 12.978 46.8406 15.5173 48.8693 17.6386C53.2071 22.1667 60.2098 20.7426 60.2815 20.7274L60.3073 20.8448L60.3073 20.846ZM81.9952 33.708C83.7092 31.927 84.5721 29.2891 84.1952 26.9847L84.1952 26.9882C83.5848 23.2608 81.0842 20.273 77.3298 18.788C72.0634 16.703 65.4657 17.9662 60.1077 22.0821C53.3139 27.3028 51.3205 34.4405 49.0113 42.7135L49.0113 42.7158L49.0078 42.7241L49.0043 42.7393L48.584 44.242L48.5676 44.296C47.6741 47.4692 46.7502 50.7493 45.4988 54.3804C41.3007 66.5756 31.5367 73.0548 20.3735 72.3774C14.1502 72.8082 9.47431 74.514 6.7507 77.3668C4.7209 79.4917 4.04236 82.4501 4.16559 85.7842C4.30649 89.6218 5.99699 91.6599 7.63234 92.8515C10.2609 94.7697 14.0774 95.4811 17.1298 94.6242C19.9344 93.8376 22.2577 91.2959 23.0513 88.1544C23.7357 85.4414 23.1393 82.9337 21.416 81.2679C19.5235 79.44 16.2188 78.9904 13.5621 80.1996C11.4489 81.1622 10.2984 82.9678 10.4123 85.1537C10.4757 86.4017 10.9054 87.3502 11.6861 87.9736C12.0923 88.2988 12.5607 88.5136 13.0373 88.6545C12.4034 87.9313 11.5581 86.5296 12.165 84.5902C13.0784 81.6776 19.399 82.1202 19.0222 86.5273C18.6465 90.9344 14.2289 90.8534 12.7039 90.21C11.1777 89.5667 9.24188 88.0969 9.51893 84.4247L9.52597 84.4517L9.54239 84.5151C9.66333 82.2599 10.957 80.4144 13.197 79.3942C16.1718 78.0395 19.8863 78.5607 22.0299 80.6316C23.643 82.1871 24.3837 84.4669 24.1478 86.9147C24.7418 85.5822 25.3335 84.1159 25.9674 82.5475L25.9979 82.47L27.0991 79.7699C28.5337 76.2996 30.9497 75.1879 32.7283 74.8674C35.0692 74.4436 37.3725 75.2806 38.4902 76.2585C40.0844 74.8533 47.0872 67.8552 49.9916 51.7284C53.2411 33.695 56.9168 29.4629 67.6187 29.5298C67.5647 27.0022 68.6988 24.6919 70.6993 23.5097C73.3019 21.9718 76.0643 22.6621 77.6492 24.0251C78.0328 24.3536 78.3618 24.7412 78.6235 25.1732C80.3716 27.2241 79.8433 31.5302 75.9539 31.6922C71.6372 31.8719 71.4893 26.6724 74.0556 25.9891C75.6804 25.5571 76.4235 26.2439 76.9495 26.7287C77.2547 27.0105 77.486 27.2253 77.7724 27.1138C78.1035 26.987 78.1986 26.6935 78.2044 26.3965C78.0307 25.7743 77.6468 25.1908 77.0715 24.6942C75.7262 23.5367 73.3736 22.9568 71.1477 24.2704C69.1167 25.4667 68.0837 28.168 68.6354 30.8329C69.2353 33.7221 71.4318 35.6767 74.5135 36.0618C78.3594 36.5443 80.705 35.0475 81.9952 33.708ZM85.0675 26.8402C85.4302 29.0532 84.8045 31.4457 83.4321 33.3452C85.3727 32.0597 87.7641 31.5279 89.9477 31.9646C90.4994 32.0792 91.0417 32.235 91.5701 32.4307C91.7087 30.9057 92.143 26.8027 93.0704 23.5824C91.7967 23.9628 88.9944 24.6273 84.5474 24.8492C84.7814 25.496 84.9554 26.1628 85.0675 26.8414L85.0675 26.8402ZM97.7581 19.2235L97.6512 19.6321L98.115 19.5264L97.7581 19.2235ZM92.4283 32.7805C94.2403 33.6173 95.797 34.9212 96.9387 36.5584C97.5397 33.8934 98.9168 26.474 97.44 19.7671C90.8105 18.0859 83.3981 19.1894 80.725 19.6954C82.2173 20.8161 83.408 22.2897 84.1905 23.984C90.4442 23.7057 93.533 22.5036 93.5647 22.4895L94.4487 22.135L94.1481 23.0389C93.0211 26.4153 92.5374 31.4868 92.4283 32.7805ZM98.0962 63.3355C97.8426 60.7832 98.3873 59.2278 98.7806 58.4635L98.0258 57.6969C97.8285 58.6361 97.4775 60.9218 98.0962 63.3355ZM95.0709 56.9221L95.1883 56.9514C95.1719 57.0219 93.5025 63.9718 97.8743 68.4646C99.9217 70.5683 102.422 71.6989 104.993 71.6989C105.261 71.6989 105.53 71.6871 105.8 71.6613C108.273 71.4335 110.587 70.1234 111.923 68.2485L111.562 68.2685L111.534 68.272C111.146 68.3183 110.756 68.3442 110.365 68.3495C109.675 68.3495 108.933 68.2368 108.341 67.806C107.334 67.0734 102.841 62.5771 99.4416 59.1338C99.0706 60.0084 98.6257 61.7565 99.1692 64.5646C99.5813 66.6895 102.445 68.5819 103.531 69.2992L103.535 69.3016C104.085 69.6643 104.361 69.8463 104.176 70.222C103.993 70.5965 103.6 70.465 103.31 70.3687C94.6224 66.7118 97.2521 57.1134 97.2803 57.0171L97.3895 57.0477L95.996 55.6272C95.7072 56.0662 95.3961 56.4959 95.0709 56.9221ZM94.0883 58.1242C92.3625 60.1282 90.5311 61.74 88.5765 63.0561C89.5462 65.532 92.6971 64.3545 92.6971 64.3545C92.6971 64.3545 92.7124 64.4343 92.7488 64.5705L94.2656 63.8121L94.5168 64.311C93.8147 61.8844 93.9098 59.5471 94.0883 58.1242ZM36.7022 108.455C39.6477 105.837 41.5155 101.221 42.1671 95.0174L42.1706 95.0174C41.8865 83.8377 48.7049 74.3062 61.0387 70.5401C64.7249 69.4155 68.0473 68.6054 71.2569 67.8212L71.2815 67.8154C71.7981 67.6885 72.3111 67.5653 72.8194 67.4432C81.1699 65.4252 88.3746 63.6865 93.8335 57.0794C98.1349 51.8705 99.6294 45.3197 97.7311 39.9828C96.3799 36.1792 93.4813 33.573 89.7786 32.8334C87.4894 32.3755 84.8198 33.1456 82.9814 34.7962C81.5972 36.0395 80.0206 38.3299 80.3657 42.1899C80.6416 45.2845 82.5188 47.5479 85.3856 48.2476C88.0294 48.8933 90.7659 47.9576 92.0326 45.9678C93.425 43.7912 92.9284 41.4186 91.8178 40.0333C91.3435 39.4416 90.773 39.0378 90.1578 38.8418C89.8608 38.8382 89.5638 38.9228 89.4241 39.2491C89.302 39.532 89.5075 39.7715 89.7786 40.0861C90.2459 40.6285 90.9068 41.3951 90.4172 43.0035C89.6448 45.5439 84.4535 45.2117 84.7857 40.9056C85.0839 37.0244 89.4065 36.6476 91.3928 38.4673C91.8159 38.7442 92.1924 39.0866 92.5081 39.4816C93.8136 41.111 94.4041 43.8957 92.7781 46.4432C91.5255 48.4037 89.1729 49.4556 86.6476 49.3112C86.2332 59.8394 81.8438 62.4128 63.9114 65.6435C47.4722 68.6043 40.5141 75.8265 39.3014 77.2353C40.0551 78.4973 40.5576 80.5529 40.1162 82.5827C39.7311 84.3472 38.5348 86.7245 35.0188 88.0358L32.2787 89.0396C30.6598 89.6277 29.1465 90.1783 27.773 90.7324C30.2266 90.5845 32.4795 91.4039 33.9763 93.071C35.972 95.2862 36.3594 99.0172 34.9037 101.942C33.8049 104.143 31.9136 105.373 29.656 105.412L29.6854 105.421C29.7052 105.428 29.7252 105.434 29.7453 105.44C26.0637 105.587 24.6655 103.599 24.075 102.053C23.4868 100.508 23.5608 96.0893 27.9785 95.8686C32.3961 95.6478 32.6168 101.979 29.6713 102.789C27.7108 103.329 26.3431 102.433 25.6423 101.775C25.7613 102.269 25.9754 102.736 26.2726 103.148C26.869 103.953 27.8012 104.414 29.0456 104.522C31.228 104.712 33.0723 103.627 34.1101 101.547C35.412 98.9338 35.0786 95.6185 33.3188 93.6603C31.7152 91.8806 29.2287 91.1962 26.4957 91.7843C23.326 92.4664 20.7057 94.7004 19.8205 97.4757C18.8567 100.494 19.4331 104.334 21.2574 107.029C22.3915 108.705 24.3685 110.465 28.1992 110.742C31.5262 110.982 34.5057 110.408 36.7022 108.455ZM66.2358 92.1483C63.6425 89.8121 64.0933 86.4662 64.7003 84.4693C62.2138 86.5284 59.6851 87.5604 57.593 87.3643C57.2772 89.6535 57.0037 95.4764 59.2366 97.0214L59.2695 97.0226C60.9483 97.0226 65.0114 94.5537 66.2358 92.1483ZM17.4808 40.4231C17.6827 36.7486 20.9018 37.4506 20.7632 39.2867C20.7233 39.8185 20.4709 40.2317 20.2009 40.6755C19.5364 41.7673 18.7569 43.0457 20.7221 46.7273C21.3514 47.7076 20.8196 48.1302 20.1833 47.3718C20.1833 47.3718 17.2777 44.1011 17.4808 40.4242L17.4808 40.4231ZM11.6685 44.4193C12.8448 46.4421 15.6412 48.7583 18.4846 49.5965L18.4834 49.5965C19.0539 49.7632 19.1525 49.3265 18.7957 49.0905C16.9243 47.8461 14.351 45.6191 14.2254 42.8884C14.1514 41.2554 13.8732 40.3714 12.4667 40.5428C11.0721 40.7142 10.6049 42.5926 11.6685 44.4193ZM16.5416 52.4751C16.5416 52.4751 9.47431 52.299 6.62392 49.546C5.41237 48.399 6.74486 46.1626 8.5516 47.1088C9.11041 47.4024 9.58586 47.8461 10.1305 48.3544C11.348 49.492 12.9058 50.9477 16.4935 51.7355C17.3012 51.8376 17.057 52.4915 16.5416 52.4751ZM28.7157 63.7968C27.7366 63.4165 26.5908 62.9716 26.032 59.5858C25.9522 58.6314 25.3945 58.622 25.3593 59.4355C25.3593 59.4355 25.0975 63.0209 27.0674 65.3195C29.0374 67.6193 30.7866 65.5543 29.777 64.4226C29.4858 64.095 29.1148 63.9518 28.7157 63.7968ZM22.6533 59.1209C21.7658 60.741 20.7409 63.346 21.6942 65.3817C22.2636 66.5991 22.3986 67.3493 21.3068 67.7614C20.2267 68.1722 19.169 66.9806 19.2465 65.2443C19.331 63.3214 20.4815 60.5672 22.2319 58.8708C22.5817 58.5316 22.82 58.8122 22.6522 59.1198L22.6522 59.1209L22.6533 59.1209ZM15.1974 63.2979C15.7938 62.023 16.558 60.3923 19.2006 58.6596C19.8205 58.3297 19.3979 57.8906 18.9847 58.062C18.9847 58.062 13.305 60.39 11.9385 63.4435C11.3491 64.7243 13.2017 66.0779 14.3451 64.7701C14.6973 64.3662 14.9309 63.8672 15.1974 63.2979ZM16.2634 56.1484C15.512 56.5652 11.0228 58.5433 8.20761 58.9601C4.62697 59.4884 5.4558 55.4734 8.39193 55.7974C12.5818 56.0909 16.5123 55.3454 16.5123 55.3454C17.1744 55.3701 17.0159 55.7329 16.2634 56.1484ZM71.9883 59.9556L72.4696 59.8969C72.5835 59.8816 75.3071 59.5271 76.5092 58.0843L76.6983 57.8565L76.5586 57.5948C74.0498 52.8543 75.9234 48.0739 76.5961 46.3575C76.6842 46.1333 76.7523 45.9607 76.7863 45.8468C77.0833 44.8724 76.238 44.9757 75.9927 45.4571C75.8659 45.706 75.6992 45.983 75.5266 46.2671C75.3658 46.5336 75.2014 46.8048 75.0653 47.0631C71.8251 53.1994 71.9636 59.1972 71.9718 59.4719L71.9883 59.9556ZM77.7231 46.8952C77.918 45.8703 78.613 46.1767 78.5989 46.9574C78.586 47.7369 78.7726 48.4307 78.9758 49.0494C79.929 51.9432 82.3157 53.1478 82.439 53.2088L82.7841 53.3778L82.6644 53.7453C82.6209 53.8744 82.2828 54.6281 79.882 56.7002L79.5533 56.9854L79.2657 56.6603C76.501 53.5516 77.5306 47.9224 77.7255 46.8964L77.7231 46.8952ZM56.0481 43.196L55.9612 43.6738L56.4437 43.7149C56.7114 43.7384 62.4181 44.1915 68.5591 41.5196L68.7516 41.4374C69.4184 41.1486 70.1604 40.8269 70.7028 40.4606C71.2968 40.0568 70.772 39.4276 70.3153 39.667C69.8598 39.9077 69.5053 40.0016 68.2727 40.2951C65.9294 40.8516 61.9755 41.2918 58.5745 39.2409L58.3197 39.0883L58.0826 39.2632C56.5752 40.3832 56.068 43.081 56.0481 43.196ZM59.57 36.286L59.8729 35.9725C62.0201 33.7502 62.7925 33.4109 62.978 33.3616L63.3502 33.2595L63.5016 33.6152C63.5603 33.7549 64.8869 36.7908 68.5204 37.6302C68.8397 37.7006 68.9489 37.7241 69.5288 37.7946C70.1088 37.8662 70.4515 38.5964 69.5417 38.6727C69.1801 38.7032 69.0134 38.7208 68.8937 38.7337C68.6557 38.7596 68.4168 38.7756 68.1775 38.7819C66.0644 38.8758 62.0388 38.7373 59.8799 36.5924L59.5688 36.286L59.57 36.286ZM34.7523 81.8783C34.7873 80.5178 33.3364 79.6295 32.1406 80.2794C31.5569 80.5966 31.2003 81.2143 31.2174 81.8783C31.2525 83.2389 32.7472 84.0513 33.908 83.3407C34.4191 83.0278 34.7368 82.4774 34.7523 81.8783Z" fill="#F7F5EE"/>
</svg>
