<svg width="58" height="53" viewBox="0 0 58 53" fill="none" xmlns="http://www.w3.org/2000/svg">
<g opacity="0.1">
<path d="M40.1843 0.0215673C39.2712 0.364547 38.425 0.864793 37.6845 1.49965C37.4384 1.75906 37.1696 1.99567 36.8809 2.20654C36.2705 2.58775 35.8358 3.19556 35.673 3.89667C35.6167 4.28848 35.5218 4.67378 35.3902 5.04702C35.2842 5.24909 35.2374 5.47706 35.2556 5.70441C35.2738 5.93196 35.356 6.14975 35.4929 6.33244C35.7308 6.67929 35.9363 7.04564 36.1356 7.40549C36.2835 7.66262 36.277 7.90675 35.9685 8.04815C35.66 8.18956 35.7435 8.31145 35.8401 8.53023C35.9041 8.68658 35.9041 8.86212 35.8401 9.01848C35.4994 9.77686 35.1009 10.5096 34.7924 11.2741C34.3031 12.314 33.718 13.3058 33.0445 14.2368C32.7168 14.7507 32.2283 15.1558 31.8684 15.644C31.2258 16.5246 30.4611 17.3087 29.8377 18.2147C28.8095 19.6992 27.6335 21.0616 26.4896 22.4753C25.5304 23.7177 24.7355 25.0785 24.1247 26.524C23.874 27.1088 23.5784 27.6745 23.3021 28.2398C22.8072 29.2618 22.2996 30.2705 21.8304 31.2925C21.5091 31.98 21.2585 32.6932 20.95 33.381C20.5837 34.197 20.1981 35.0005 19.8061 35.8038C19.2213 37.0182 18.6815 38.2522 18.026 39.4283C16.9789 41.1414 15.696 42.6991 14.2152 44.0553C14.0909 44.1821 13.9392 44.2786 13.7717 44.3378C12.6321 44.685 11.4882 45.0214 10.3401 45.3468C9.86133 45.4407 9.4171 45.6628 9.05477 45.9895C8.41215 46.6321 7.73093 47.2748 7.08187 47.9561C6.76994 48.2887 6.36038 48.5136 5.91227 48.5988C5.58126 48.669 5.24657 48.7204 4.90976 48.7529C4.62058 48.7529 4.33137 48.695 4.04219 48.7142C3.64024 48.7571 3.26667 48.9417 2.98827 49.2349C2.75332 49.4976 2.47239 49.7154 2.15927 49.8776C1.52713 50.1568 0.973248 50.5872 0.546245 51.1307C0.337505 51.4158 0.154695 51.7191 0 52.0367C0.507685 52.223 0.861135 52.3452 1.28528 52.1459C1.70942 51.9467 2.29422 51.696 2.80191 51.4584C3.40844 51.1161 4.07684 50.8977 4.76839 50.8157C5.56101 50.7728 6.3557 50.7878 7.14614 50.8606C7.47371 50.899 7.80567 50.8616 8.11653 50.7514C8.62845 50.531 9.11358 50.2527 9.56247 49.9225C10.0335 49.5239 10.5969 49.2499 11.2012 49.1257C11.808 49.022 12.4251 48.9918 13.0391 49.0357C14.4658 49.1641 15.886 49.3507 17.3063 49.5496C18.7678 49.8204 20.2572 49.9088 21.7405 49.8132C22.6723 49.7167 23.6041 49.691 24.5295 49.5948C25.4447 49.5551 26.3513 49.402 27.2286 49.1384C27.4223 49.0939 27.6216 49.0786 27.8199 49.0935C28.636 49.0935 29.4522 49.0935 30.2619 49.0292C31.1873 48.9521 32.1062 48.772 33.0318 48.6566C34.244 48.4535 35.4237 48.0904 36.5406 47.5768C37.9543 46.9985 39.3424 46.3623 40.7369 45.7388C41.2697 45.5285 41.7852 45.2772 42.2793 44.9869C43.3459 44.2994 44.4128 43.6119 45.4283 42.8662C46.4435 42.1208 47.6452 41.549 48.3906 40.4692C48.4196 40.4181 48.4618 40.3759 48.5128 40.3472C48.9198 40.1142 49.2556 39.7742 49.4832 39.3639C49.5511 39.2664 49.6262 39.1738 49.7081 39.0876C50.4662 38.3191 51.1625 37.4918 51.7902 36.6135C52.7433 35.4182 53.6275 34.1693 54.4379 32.8733C55.1111 31.8383 55.6445 30.7191 56.0252 29.5443C56.1988 28.8567 56.4559 28.1819 56.6678 27.4944C56.938 26.5624 57.2335 25.6243 57.4132 24.6731C57.7032 23.3166 57.7422 21.9182 57.5289 20.5473C57.4005 19.7893 57.3749 19.0114 57.2721 18.2403C57.2078 17.7713 57.0472 17.3149 56.9955 16.8393C56.8291 15.7581 56.5203 14.7036 56.0765 13.7034C55.6783 12.6238 55.2154 11.5634 54.8621 10.4901C54.6774 9.82075 54.3309 9.20734 53.8531 8.70349C53.6727 8.51787 53.5072 8.31796 53.3583 8.10601C52.6103 6.93317 51.6797 5.88742 50.6014 5.00844C49.9588 4.53933 49.4253 3.86456 48.5834 3.66532C48.5554 3.65765 48.5294 3.64387 48.507 3.62498C48.4849 3.60609 48.467 3.58259 48.455 3.5561C48.1852 2.96486 47.5747 2.7078 47.1697 2.27081C47.0887 2.18304 46.9795 2.12625 46.8612 2.11016C46.2887 1.94548 45.6958 1.86324 45.1003 1.86594C44.7014 1.90287 44.3042 1.78045 43.9951 1.52533C43.1512 0.918723 42.2101 0.460181 41.2125 0.169375C40.8923 0.017828 40.534 -0.0336942 40.1843 0.0215673Z" fill="white"/>
<path d="M40.1843 0.0215673C39.2712 0.364547 38.425 0.864793 37.6845 1.49965C37.4384 1.75906 37.1696 1.99567 36.8809 2.20654C36.2705 2.58775 35.8358 3.19556 35.673 3.89667C35.6167 4.28848 35.5218 4.67378 35.3902 5.04702C35.2842 5.24909 35.2374 5.47706 35.2556 5.70441C35.2738 5.93196 35.356 6.14975 35.4929 6.33244C35.7308 6.67929 35.9363 7.04564 36.1356 7.40549C36.2835 7.66262 36.277 7.90675 35.9685 8.04815C35.66 8.18956 35.7435 8.31145 35.8401 8.53023C35.9041 8.68658 35.9041 8.86212 35.8401 9.01848C35.4994 9.77686 35.1009 10.5096 34.7924 11.2741C34.3031 12.314 33.718 13.3058 33.0445 14.2368C32.7168 14.7507 32.2283 15.1558 31.8684 15.644C31.2258 16.5246 30.4611 17.3087 29.8377 18.2147C28.8095 19.6992 27.6335 21.0616 26.4896 22.4753C25.5304 23.7177 24.7355 25.0785 24.1247 26.524C23.874 27.1088 23.5784 27.6745 23.3021 28.2398C22.8072 29.2618 22.2996 30.2705 21.8304 31.2925C21.5091 31.98 21.2585 32.6932 20.95 33.381C20.5837 34.197 20.1981 35.0005 19.8061 35.8038C19.2213 37.0182 18.6815 38.2522 18.026 39.4283C16.9789 41.1414 15.696 42.6991 14.2152 44.0553C14.0909 44.1821 13.9392 44.2786 13.7717 44.3378C12.6321 44.685 11.4882 45.0214 10.3401 45.3468C9.86133 45.4407 9.4171 45.6628 9.05477 45.9895C8.41215 46.6321 7.73093 47.2748 7.08187 47.9561C6.76994 48.2887 6.36038 48.5136 5.91227 48.5988C5.58126 48.669 5.24657 48.7204 4.90976 48.7529C4.62058 48.7529 4.33137 48.695 4.04219 48.7142C3.64024 48.7571 3.26667 48.9417 2.98827 49.2349C2.75332 49.4976 2.47239 49.7154 2.15927 49.8776C1.52713 50.1568 0.973248 50.5872 0.546245 51.1307C0.337505 51.4158 0.154695 51.7191 0 52.0367C0.507685 52.223 0.861135 52.3452 1.28528 52.1459C1.70942 51.9467 2.29422 51.696 2.80191 51.4584C3.40844 51.1161 4.07684 50.8977 4.76839 50.8157C5.56101 50.7728 6.3557 50.7878 7.14614 50.8606C7.47371 50.899 7.80567 50.8616 8.11653 50.7514C8.62845 50.531 9.11358 50.2527 9.56247 49.9225C10.0335 49.5239 10.5969 49.2499 11.2012 49.1257C11.808 49.022 12.4251 48.9918 13.0391 49.0357C14.4658 49.1641 15.886 49.3507 17.3063 49.5496C18.7678 49.8204 20.2572 49.9088 21.7405 49.8132C22.6723 49.7167 23.6041 49.691 24.5295 49.5948C25.4447 49.5551 26.3513 49.402 27.2286 49.1384C27.4223 49.0939 27.6216 49.0786 27.8199 49.0935C28.636 49.0935 29.4522 49.0935 30.2619 49.0292C31.1873 48.9521 32.1062 48.772 33.0318 48.6566C34.244 48.4535 35.4237 48.0904 36.5406 47.5768C37.9543 46.9985 39.3424 46.3623 40.7369 45.7388C41.2697 45.5285 41.7852 45.2772 42.2793 44.9869C43.3459 44.2994 44.4128 43.6119 45.4283 42.8662C46.4435 42.1208 47.6452 41.549 48.3906 40.4692C48.4196 40.4181 48.4618 40.3759 48.5128 40.3472C48.9198 40.1142 49.2556 39.7742 49.4832 39.3639C49.5511 39.2664 49.6262 39.1738 49.7081 39.0876C50.4662 38.3191 51.1625 37.4918 51.7902 36.6135C52.7433 35.4182 53.6275 34.1693 54.4379 32.8733C55.1111 31.8383 55.6445 30.7191 56.0252 29.5443C56.1988 28.8567 56.4559 28.1819 56.6678 27.4944C56.938 26.5624 57.2335 25.6243 57.4132 24.6731C57.7032 23.3166 57.7422 21.9182 57.5289 20.5473C57.4005 19.7893 57.3749 19.0114 57.2721 18.2403C57.2078 17.7713 57.0472 17.3149 56.9955 16.8393C56.8291 15.7581 56.5203 14.7036 56.0765 13.7034C55.6783 12.6238 55.2154 11.5634 54.8621 10.4901C54.6774 9.82075 54.3309 9.20734 53.8531 8.70349C53.6727 8.51787 53.5072 8.31796 53.3583 8.10601C52.6103 6.93317 51.6797 5.88742 50.6014 5.00844C49.9588 4.53933 49.4253 3.86456 48.5834 3.66532C48.5554 3.65765 48.5294 3.64387 48.507 3.62498C48.4849 3.60609 48.467 3.58259 48.455 3.5561C48.1852 2.96486 47.5747 2.7078 47.1697 2.27081C47.0887 2.18304 46.9795 2.12625 46.8612 2.11016C46.2887 1.94548 45.6958 1.86324 45.1003 1.86594C44.7014 1.90287 44.3042 1.78045 43.9951 1.52533C43.1512 0.918723 42.2101 0.460181 41.2125 0.169375C40.8923 0.017828 40.534 -0.0336942 40.1843 0.0215673ZM40.2356 1.06263L40.8783 2.15512C40.3384 2.15512 40.2356 1.64103 39.8179 1.51249C39.5351 2.08445 40.3449 2.15512 40.2483 2.60498C39.9593 2.79134 39.8049 2.515 39.606 2.36719C39.4194 2.18236 39.2432 1.98713 39.0787 1.7824L40.2356 1.06263ZM38.7127 8.29878C38.6266 8.04587 38.4536 7.83165 38.2241 7.6948C37.9091 7.46985 37.5174 7.30277 37.4401 6.84637C37.4339 6.81842 37.4215 6.79241 37.4036 6.77031C37.3858 6.74788 37.363 6.73 37.3373 6.71797C36.8809 6.60875 36.7652 6.17803 36.5533 5.86304C36.3738 5.57081 36.2841 5.23234 36.2955 4.88953C36.3069 4.54671 36.419 4.21485 36.6176 3.93526C36.6625 4.10875 36.6947 4.28227 36.7525 4.44935C36.7919 4.58055 36.8598 4.70131 36.9518 4.8028C36.9967 4.85422 37.1254 4.8028 37.2216 4.8028C37.2216 4.71926 37.2216 4.64215 37.1894 4.55861L36.8809 3.5561C37.193 3.21016 37.5831 2.94361 38.0187 2.7785C37.8708 2.7785 37.7807 2.66281 37.9286 2.55356C38.2371 2.3158 38.5713 2.10372 38.8733 1.91093C39.0852 2.21938 39.2718 2.47001 39.4389 2.74635C39.4818 2.8545 39.5016 2.97062 39.4964 3.08696C39.3781 3.06456 39.2637 3.02562 39.1561 2.97127C38.974 2.81546 38.8001 2.65029 38.6353 2.47645L37.9927 2.81062C38.5905 2.7785 38.9438 3.18334 38.8154 3.87099L38.1728 3.11267C37.7359 3.07412 38.1214 3.53682 37.8773 3.65248C37.6761 3.76973 37.4849 3.90298 37.3051 4.05092C37.2603 4.218 37.2151 4.39793 37.1702 4.57788C37.2882 4.59111 37.3978 4.64531 37.48 4.73103C37.5623 4.81675 37.6117 4.92854 37.6201 5.04702C37.6715 5.90173 38.3333 6.40298 38.7254 7.05832C38.8115 7.18379 38.8808 7.32 38.9311 7.46335C38.963 7.57615 39.0176 7.68115 39.092 7.77217C39.1662 7.86286 39.2582 7.9373 39.3625 7.99094C39.4669 8.04457 39.581 8.07643 39.698 8.08391C39.815 8.09139 39.9324 8.07481 40.0429 8.03515C39.7997 8.00687 39.5709 7.90577 39.3866 7.74551C39.2019 7.58493 39.0699 7.37233 39.0082 7.13568C39.4067 7.38631 39.7152 7.56607 40.0042 7.77834C40.0556 7.8167 40.0042 7.94543 40.0429 8.04165C40.3731 8.08423 40.7057 8.10796 41.0389 8.11251C41.3861 8.08716 41.7316 8.04197 42.0736 7.97729L42.7162 8.9993L42.1571 9.1342C42.0928 8.64563 41.9322 8.28578 41.4244 8.24742C41.4244 8.58159 41.4244 8.58159 41.6367 9.04416C41.4953 9.16638 41.3796 9.28211 41.2316 9.04416C41.0054 8.73729 40.7294 8.47009 40.4154 8.25392C40.4154 8.56858 40.4154 8.72917 40.4154 8.94794L40.062 8.63295C39.985 8.70349 39.895 8.74867 39.8566 8.82571C39.8358 8.87155 39.8049 8.91218 39.7666 8.94469C39.7279 8.97719 39.6824 9.00027 39.6336 9.01263C39.5849 9.02498 39.5338 9.02628 39.4844 9.0162C39.4353 9.0058 39.3888 8.98467 39.3489 8.95411C39.0758 8.80426 38.8541 8.57606 38.7127 8.29878ZM44.4576 5.34905C43.841 5.89132 43.1535 6.34739 42.4142 6.70497C42.1773 6.80997 41.9214 6.8649 41.6624 6.86555C42.5914 6.28531 43.4203 5.55813 44.1173 4.71282C43.8985 4.6807 43.7636 4.61644 43.6931 4.66143C43.4041 4.79347 43.1444 4.9813 42.9282 5.21411C42.3759 5.84029 41.6851 6.32887 40.9105 6.64061C40.6481 6.78266 40.3725 6.89871 40.0877 6.98778C39.9463 7.03914 39.7666 7.08432 39.7022 6.80152L41.6689 5.6576C41.7202 5.62542 41.7908 5.61241 41.8229 5.56755C42.1184 5.16268 42.4077 4.75141 42.7676 4.24371C42.6298 4.2653 42.4955 4.30642 42.3691 4.36581C42.0993 4.56501 41.8421 4.77709 41.5853 5.00844C41.0837 5.41903 40.5253 5.75447 39.9272 6.00445C39.7214 6.10099 39.4708 6.06231 39.2845 6.34512C39.0982 6.62793 38.9116 6.21022 38.7446 6.04313C39.972 5.04059 41.4758 4.48147 42.4591 3.12551C42.9155 3.35043 43.4489 3.51111 43.6996 4.08947C43.7818 4.22655 43.8966 4.3413 44.0337 4.42364L45.2547 5.34261L44.8048 5.76682C44.8048 5.53537 44.8048 5.41331 44.8048 5.23338C44.6829 5.25032 44.5652 5.28953 44.4576 5.34905ZM52.5616 11.724C52.5616 11.9233 52.5616 12.1287 52.5164 12.328H52.4393L52.2336 11.8719C52.3493 11.8141 52.452 11.7497 52.5616 11.6983L52.9728 11.2998C53.307 11.8206 53.307 11.8206 52.9728 12.0839L52.5356 11.6983L52.5616 11.724ZM49.1168 13.7934L49.9974 13.8448C50.0745 14.2046 50.1388 14.4874 50.2094 14.873L49.2391 14.7251C49.2069 14.4552 49.1682 14.1659 49.1168 13.7934ZM48.6091 14.6353C48.3071 14.4552 48.2944 14.3909 48.4228 13.7225C48.6478 14.1211 48.6478 14.1211 48.6091 14.6353ZM44.4319 19.0758L43.6544 18.9987L44.297 19.5448C44.297 19.7314 44.2392 19.9242 44.2008 20.1875L42.9795 19.6862C43.1983 20.207 43.7379 20.3289 44.0656 20.6888C44.0656 20.9329 44.0016 21.1773 43.9502 21.492L42.2855 20.6117L43.1853 17.7456C43.603 17.9575 43.9821 18.1246 44.3357 18.3304C44.6891 18.5362 44.5412 18.7868 44.4319 19.0758ZM45.3961 19.6479L44.8175 19.3456C44.8175 19.1336 44.8753 18.9474 44.9013 18.7608C45.6272 18.8316 45.7046 18.9795 45.3961 19.6479ZM44.7148 19.9047C45.4088 20.0975 45.4153 20.0975 45.2547 20.7918L44.612 20.4576C44.6442 20.2197 44.6826 20.0526 44.7148 19.9047ZM44.5477 20.9589L45.1903 21.2352C45.126 21.4728 45.0554 21.7108 44.9784 21.9932C44.7469 21.884 44.5542 21.7943 44.3357 21.6786C44.3936 21.4023 44.4641 21.19 44.5477 20.9394V20.9589ZM45.139 17.2508C45.621 17.3279 45.6851 17.3792 45.6981 17.7969C45.6981 18.0476 45.6981 18.2982 45.6981 18.6324C44.914 18.1054 44.914 18.1054 45.139 17.2313V17.2508ZM44.535 17.8935C44.0207 17.7326 44.0016 17.6299 44.2522 16.7301L44.7661 16.9167L44.535 17.8935ZM43.6222 17.5076C43.3846 17.5398 43.2497 17.4758 43.2688 17.27C43.3524 16.1069 43.4424 14.9435 43.5387 13.6969C43.9245 13.9026 43.841 14.1468 43.8536 14.3395C43.828 14.7332 43.828 15.1281 43.8536 15.5221C43.9115 15.882 43.6479 16.1648 43.7252 16.5438C43.7405 16.8559 43.7061 17.1683 43.6222 17.4693V17.5076ZM45.2033 16.5503C45.2033 16.2096 45.4731 16.2226 45.7429 16.1069C45.7429 16.3702 45.7429 16.6082 45.7429 16.891C45.4601 16.8009 45.229 16.7944 45.2033 16.5116V16.5503ZM44.6826 16.4281C44.1751 16.2997 44.0399 16.0812 44.22 15.4769C44.8818 15.7214 44.8883 15.7406 44.6826 16.3897V16.4281ZM45.2225 14.7189C45.8652 14.9822 45.8652 14.9952 45.6402 15.7662C45.0167 15.5605 45.4796 14.9887 45.2225 14.6802V14.7189ZM44.7791 15.252C44.2714 15.252 44.207 15.1623 44.2457 14.7507C44.2457 14.5388 44.3035 14.3268 44.3422 14.0697C44.9397 14.3847 44.9849 14.3717 44.7791 15.2136V15.252ZM45.2674 13.7099C45.621 13.7099 45.6724 13.9283 45.6659 14.2752C45.3317 14.1211 45.1325 14.0245 45.2674 13.6712V13.7099ZM44.7661 13.8834L44.2457 13.6455C44.2779 13.4527 44.3035 13.2856 44.3292 13.1121C44.8562 13.2343 44.8562 13.2343 44.7661 13.8448V13.8834ZM45.518 12.5981L45.5824 13.3048C45.1646 12.9258 45.1646 12.9258 45.518 12.5529V12.5981ZM44.927 12.8488C44.8006 12.8276 44.6761 12.7977 44.5542 12.7587C44.483 12.7272 44.4144 12.6908 44.3484 12.6495C44.3422 12.551 44.3422 12.4522 44.3484 12.3537C44.3741 12.2321 44.4063 12.1122 44.445 11.9938C44.9075 12.0517 44.837 12.418 44.927 12.8358V12.8488ZM43.828 13.3949H43.6996C43.6996 12.8101 43.7636 12.2318 43.8088 11.5248C43.9876 12.119 43.9941 12.7519 43.828 13.35V13.3949ZM44.3422 9.74468H44.4898C44.6722 10.3704 44.7525 11.0212 44.7278 11.6727C44.5798 11.5761 44.4384 11.5313 44.4319 11.4734C44.3871 10.9078 44.3422 10.3103 44.3422 9.74468ZM43.9307 11.3063C43.7831 11.2036 43.6674 11.1714 43.6674 11.12C43.6167 10.5626 43.6801 10.0005 43.8536 9.46837C44.0747 10.0574 44.0997 10.702 43.9245 11.3063H43.9307ZM45.0876 10.2651C45.3265 10.767 45.4137 11.3278 45.3382 11.8781C45.0889 11.3798 45.0015 10.8158 45.0876 10.2651ZM46.3729 9.90526C46.7711 9.77686 46.9512 9.90526 47.0156 10.2973L46.6171 10.4966C46.6876 10.5736 46.7198 10.638 46.7585 10.638C46.8683 10.6347 46.9756 10.6715 47.0604 10.741C47.1456 10.8109 47.2025 10.9088 47.221 11.017C47.3881 11.7627 47.5747 12.5081 47.7675 13.3305L47.0669 13.4592C46.8485 12.2701 46.6171 11.1135 46.3856 9.92477L46.3729 9.90526ZM42.8898 7.6948C43.0631 8.08033 43.2175 8.44018 43.3781 8.80003L43.2688 8.87057L42.5043 7.84888L42.8898 7.6948ZM40.2165 7.79752C40.4284 7.67075 40.666 7.5937 40.9118 7.57128C41.1575 7.54917 41.4052 7.58233 41.6367 7.66912C41.4381 7.82515 41.1995 7.92202 40.9485 7.94933C40.6976 7.97664 40.4437 7.93308 40.2165 7.8232V7.79752ZM46.1545 9.28828C46.0644 9.02498 45.923 8.74217 46.2637 8.4145L46.7585 9.35915C46.3216 9.65464 46.2699 9.62246 46.1545 9.31429V9.28828ZM48.4615 9.57759C48.7957 9.45537 48.8857 9.706 49.0268 10.0467C48.7248 10.0467 48.4807 10.2716 48.3841 9.90526C48.3458 9.84123 48.3971 9.62245 48.4615 9.62245V9.57759ZM47.7418 10.2651C47.4652 10.2203 47.4525 10.0083 47.4268 9.79604C47.8315 9.82822 47.8315 9.82822 47.7418 10.2651ZM50.3121 10.9786C49.9139 10.9786 49.9201 10.6893 49.7917 10.5479C49.7917 10.6893 49.7917 10.8372 49.8495 11.0557L48.7121 11.1779L48.5515 10.5352C48.8792 10.5352 49.1363 10.3038 49.4061 10.5993C49.4575 10.6571 49.6568 10.5993 49.7917 10.5544L50.0293 10.4322L50.3121 10.9786ZM50.6336 10.5222C50.8712 10.6767 50.8777 10.6702 51.064 11.0108C50.7685 10.9078 50.7685 10.9078 50.6658 10.5479L50.6336 10.5222ZM49.0206 12.1287L48.8148 11.6148C49.8047 11.2358 50.158 11.345 50.3443 12.0582C49.9779 12.2575 50.0166 11.8332 49.7982 11.6983C49.7543 11.8544 49.6532 11.988 49.5147 12.0728C49.3766 12.1573 49.2114 12.1866 49.0528 12.1547L49.0206 12.1287ZM48.3523 12.1931C48.2622 12.1931 48.1208 12.1931 48.1016 12.1931C48.0278 12.0445 47.9674 11.8898 47.9216 11.7305C48.0886 11.5761 48.2109 11.5956 48.2687 11.7627C48.3087 11.9035 48.3367 12.0475 48.3523 12.1931ZM47.8188 11.2293C47.7528 11.0498 47.7034 10.8649 47.6709 10.6767C48.0051 10.7345 48.243 11.1005 48.0951 11.2549C48.0509 11.2745 48.0028 11.2829 47.9544 11.2797C47.9063 11.2764 47.8598 11.2611 47.8188 11.2358V11.2293ZM51.0962 11.4799C51.4882 11.5313 51.4947 11.5378 51.5139 12.0774C51.064 12.1031 51.064 12.1031 51.0962 11.4864V11.4799ZM48.1979 12.5464C48.2772 12.578 48.3474 12.628 48.4023 12.693C48.4576 12.7577 48.4963 12.8351 48.5145 12.918C48.533 13.0012 48.5307 13.0874 48.508 13.1696C48.4852 13.2515 48.4426 13.3266 48.3841 13.3884C48.2986 13.2678 48.2382 13.1309 48.2063 12.9863C48.1741 12.8419 48.1712 12.6924 48.1979 12.5464ZM50.473 13.9475C51.0061 13.652 51.3019 13.7804 51.456 14.873C50.7298 15.04 50.6141 14.9373 50.4535 13.9475H50.473ZM52.0216 14.6867C51.9768 14.4809 51.8932 14.2817 51.8032 14.0054L52.2593 13.8834C52.4667 14.2033 52.5801 14.5752 52.5873 14.9565C52.2723 15.0592 52.0538 15.04 52.0025 14.6867H52.0216ZM49.0976 13.4784C49.0976 13.1316 49.0528 12.8936 49.0333 12.5851L49.7403 12.5208C49.7917 12.8231 49.8365 13.0672 49.8882 13.4014L49.0976 13.4784ZM50.1707 12.5916C50.2705 12.5429 50.3846 12.5315 50.4919 12.5598C50.5991 12.5884 50.6928 12.6544 50.7555 12.7457C50.9934 13.0415 51.0126 13.0672 50.9291 13.4914H50.4213C50.3378 13.1699 50.2542 12.8744 50.1707 12.5594V12.5916ZM51.5331 13.4784C51.4433 13.1956 51.3533 12.9001 51.2632 12.5981C51.9059 12.4889 52.1565 12.733 52.1439 13.5685L51.5331 13.4784ZM53.4032 12.3924C53.8274 12.9642 53.8209 13.0672 53.3135 13.1956C53.0241 12.5786 53.0241 12.5786 53.4032 12.4054V12.3924ZM52.1179 11.3964C51.7388 10.953 51.9124 10.651 52.6386 10.4839C52.8571 10.9978 52.8571 10.9978 52.1374 11.409L52.1179 11.3964ZM51.5974 10.5674C51.5974 10.2973 51.5974 10.0919 51.6488 10.0145C51.7001 9.93745 52.0603 9.67414 52.3623 10.0723L51.5974 10.5674ZM50.158 9.8539C49.6054 10.0662 49.5154 10.0402 49.2712 9.51974L49.8047 9.28211C49.9523 9.50706 50.068 9.68032 50.1772 9.86691L50.158 9.8539ZM51.2889 9.35915C51.4609 9.2561 51.639 9.16378 51.8224 9.08284C51.8224 9.25643 51.8994 9.45537 51.8611 9.47488C51.6904 9.59352 51.4902 9.66276 51.2824 9.67414C51.154 9.67414 51.1605 9.46187 51.3084 9.37183L51.2889 9.35915ZM47.8959 8.61994C47.838 8.24092 47.3111 8.04165 47.6582 7.58558C48.1208 8.02897 48.1979 8.2666 47.915 8.63295L47.8959 8.61994ZM48.5385 7.70098L49.4832 8.87057C49.4861 8.90698 49.4861 8.94371 49.4832 8.9798C49.3483 8.9798 49.1555 9.01848 49.0911 8.94144C48.8259 8.58159 48.5938 8.19898 48.3971 7.79752L48.5385 7.70098ZM47.0218 8.82571C46.9512 8.63945 46.8934 8.46586 46.7906 8.18305C47.3176 8.45286 47.3433 8.55591 47.0091 8.83872L47.0218 8.82571ZM44.3422 8.49154C44.2008 8.67163 44.0464 8.76135 43.8923 8.56208C43.7379 8.36314 43.4808 7.9516 43.2497 7.61743C43.3459 7.55957 43.4424 7.47603 43.4681 7.48903C43.8338 7.75039 44.1329 8.09366 44.3422 8.49154ZM42.0928 7.45685L42.9282 7.25759C42.8927 7.33625 42.8398 7.40549 42.7731 7.4601C42.7062 7.51471 42.6278 7.55307 42.5439 7.57225C42.4598 7.59175 42.3726 7.59143 42.2888 7.57128C42.2049 7.55112 42.1269 7.51211 42.0606 7.45685H42.0928ZM38.4939 5.49042C38.3847 4.88634 38.4939 4.58432 38.9568 4.39793C39.4194 4.21157 39.8371 4.05735 40.2421 3.86456C40.4642 3.74704 40.6787 3.61614 40.8848 3.47255C41.1611 3.31831 41.4309 3.15123 41.7137 3.02269C41.8655 2.98252 42.0268 2.99614 42.1701 3.06125C41.0581 4.04611 39.8088 4.86434 38.4621 5.49042H38.4939ZM11.9916 45.3341C12.4534 45.0854 12.9711 44.9596 13.4954 44.9678L12.0173 45.4625L11.9916 45.3341ZM17.3513 48.8686L17.1006 48.2259L18.1738 47.8147L19.6455 48.7594C18.9091 49.0256 18.1096 49.0636 17.3513 48.8686ZM13.8103 47.6476L14.2473 48.0588C14.2285 48.0868 14.2134 48.117 14.2023 48.1489L13.1805 47.9945L13.8103 47.6476ZM12.525 47.8788L12.1587 47.8082V47.699L12.5314 47.7569C12.5155 47.7965 12.5026 47.8371 12.4929 47.8788H12.525ZM25.667 43.3161C25.8084 43.4126 25.9498 43.5024 26.104 43.5924C25.4614 44.1388 25.4099 44.2351 24.658 43.3613L25.2043 43.0141C25.3393 43.1298 25.4871 43.2261 25.6349 43.3161H25.667ZM25.667 42.7892L26.3096 42.3906L27.1322 42.9306C26.4831 43.5089 26.2582 43.4832 25.667 42.7892ZM24.1953 43.6438C24.4717 43.779 24.7288 43.9588 24.9987 44.1258C24.6709 44.4665 24.6709 44.4665 23.8676 43.8174C24.0154 43.7403 24.144 43.6181 24.1953 43.6438ZM18.855 46.3623C19.9218 45.6104 19.9218 45.8737 20.5644 46.3815L19.5169 46.8958C19.2792 46.7092 19.0671 46.5421 18.855 46.3623ZM19.0157 47.005C18.4502 47.4549 18.251 47.4484 17.6083 46.9279C18.2767 46.4267 18.2767 46.4267 19.0157 47.0177V47.005ZM21.9461 45.6683L21.0079 46.163L20.4102 45.6875L21.2071 45.1992L21.9461 45.6683ZM21.7597 45.0256C22.4024 44.6014 22.4024 44.6014 23.045 45.1862L22.3702 45.5077L21.7597 45.0256ZM21.4513 46.465C21.9461 46.0665 22.1646 45.9895 22.563 46.0216L23.437 45.4817L23.964 45.7583C23.964 45.5717 23.964 45.4498 23.964 45.3084L24.748 44.9678L25.185 45.3084C24.1192 46.0038 22.9869 46.5915 21.8047 47.0628L21.4513 46.465ZM22.8715 44.4987C23.5142 43.9779 23.5784 43.9844 24.1568 44.5692C23.7776 45.1475 23.3149 45.0962 22.8715 44.4987ZM22.9101 43.8109C22.4538 44.2159 22.4538 44.2159 21.9654 43.9331L20.905 43.3291C20.905 43.2712 20.905 43.2199 20.905 43.1682L21.5477 42.8083L22.9101 43.8109ZM21.8819 44.4535L21.3292 44.7493L19.9218 43.8752L20.648 43.5345C20.86 44.0036 21.4706 44.0358 21.8819 44.4343V44.4535ZM20.8729 44.9291L19.9218 45.392L18.7779 44.7493L19.4205 44.1707L20.8729 44.9291ZM19.1378 45.5717C18.1674 46.0987 18.4502 46.2144 17.4348 45.456C18.1353 45.0065 18.6365 45.0321 19.1378 45.6104V45.5717ZM17.7754 46.3171L17.1328 46.6513L16.3552 46.1439C16.7408 45.5652 17.0814 45.6104 17.7754 46.3301V46.3171ZM15.5005 46.0987L16.7086 46.8958C16.413 47.0885 16.2073 47.2361 15.9953 47.3583C15.9597 47.3775 15.92 47.3876 15.8796 47.3876C15.8392 47.3876 15.7995 47.3775 15.7639 47.3583C15.237 47.0242 14.7229 46.6773 14.2023 46.3301C14.2023 46.3301 14.1702 46.2596 14.1316 46.1695L15.0635 45.6683L15.5005 46.0987ZM17.6662 47.5768C17.1906 47.5768 16.7665 48.091 16.2202 47.6411C17.0685 47.095 17.2741 47.0433 17.6662 47.5898V47.5768ZM13.9195 46.7865C13.6368 47.0885 13.6111 47.082 13.1291 46.5164C13.1994 46.4819 13.2758 46.4618 13.354 46.4576C13.4322 46.453 13.5105 46.4644 13.5841 46.4907C13.6579 46.517 13.7255 46.558 13.7832 46.611C13.8408 46.664 13.8872 46.728 13.9195 46.7992V46.7865ZM12.8528 47.0115C12.4801 47.0885 12.4801 47.0885 12.3708 46.703L12.8528 47.0115ZM15.3269 47.6925L14.7807 48.0397C14.5301 47.7952 14.3051 47.5641 14.0545 47.3261C14.5943 47.082 14.8257 47.1591 15.3462 47.6925H15.3269ZM16.7793 48.7464L15.9053 48.6628C16.4451 48.1811 16.5158 48.1811 16.7986 48.7464H16.7793ZM24.2725 48.7464C23.0825 49.0321 21.8565 49.1381 20.6351 49.0614C21.3677 48.8686 22.1132 48.708 22.8265 48.4701C23.0666 48.355 23.3366 48.3173 23.599 48.3621C23.8615 48.407 24.1036 48.5325 24.2918 48.7207L24.2725 48.7464ZM26.2004 48.4574L25.9369 48.4957C25.9401 48.4574 25.9401 48.4187 25.9369 48.38H26.2004C26.2061 48.3969 26.2104 48.4141 26.2132 48.4317L26.2004 48.4574ZM24.1632 48.1294C24.2491 48.0306 24.3545 47.9506 24.4728 47.8944C24.5911 47.8381 24.7197 47.8069 24.8507 47.8027C24.9816 47.7985 25.112 47.8212 25.2336 47.8697C25.3553 47.9181 25.4656 47.9912 25.5577 48.0845C25.1079 48.3995 24.6773 48.605 24.1761 48.1037L24.1632 48.1294ZM27.1258 48.3417C27.0037 48.38 26.8302 48.2067 26.631 48.0975C27.1129 47.7504 27.5306 47.5127 28.0962 47.9366C27.824 48.1593 27.4894 48.2919 27.1386 48.316L27.1258 48.3417ZM34.4133 43.843C34.047 44.4087 33.9569 44.4408 33.4495 44.1837L32.9479 43.8944L33.2502 43.5989C33.3338 43.5154 33.4235 43.4383 33.5457 43.3353L34.4133 43.843ZM33.8991 43.0398L34.3747 42.5834L34.8889 42.8083L35.345 43.0398C34.8181 43.6824 34.8181 43.6824 33.8991 43.0398ZM35.7052 44.5244C35.3323 44.9678 35.1522 44.9678 34.5291 44.5244C34.9981 44.0745 35.1074 44.0745 35.7052 44.5179V44.5244ZM32.3183 43.9201C31.7335 44.4792 31.6757 44.4792 31.0909 44.1067C31.56 43.5284 31.7014 43.5024 32.3183 43.9139V43.9201ZM32.5624 44.081L33.4752 44.5371C33.0315 45.0383 32.8709 45.1797 32.0612 44.4987L32.5624 44.081ZM33.9443 44.7236L34.3555 44.8712L34.7475 45.0256C34.1049 45.5077 34.1049 45.5782 33.4622 45.1475L33.9443 44.7236ZM32.5819 45.2119C31.8685 45.7583 31.8685 45.7583 31.258 45.2763L31.7271 44.7685L32.5819 45.2119ZM33.6293 45.6683C33.3208 45.8097 33.0893 45.9254 32.8517 46.009C32.7808 46.009 32.6846 45.9638 32.5819 45.9316C33.038 45.4368 33.038 45.4368 33.6293 45.681V45.6683ZM31.4315 45.8611C31.0202 46.3366 31.0202 46.3366 30.4482 45.9703C30.8467 45.5077 30.9495 45.4947 31.4315 45.8737V45.8611ZM29.3493 45.9316C28.7645 46.5743 28.6746 46.5743 27.7363 46.0987L28.681 45.5461L29.3493 45.9316ZM29.992 46.1565L30.5896 46.4715C30.1269 47.0115 30.0177 47.0242 29.2658 46.6321L29.992 46.1565ZM28.064 46.7478C27.5949 47.3135 27.0615 47.1012 26.4639 46.9084C27.1451 46.2979 27.3764 46.3045 28.1026 46.7608L28.064 46.7478ZM29.4393 47.1526C28.591 47.8918 28.6167 47.7952 27.9162 47.3775C28.4368 47.0755 28.8802 46.6513 29.4778 47.1656L29.4393 47.1526ZM26.5281 47.4162C26.3032 47.7952 26.3032 47.7952 25.32 47.474C25.7955 47.1207 26.1747 47.2878 26.5667 47.4292L26.5281 47.4162ZM28.9959 48.1037C29.5357 47.7312 30.0112 47.3648 30.5189 47.069C30.8556 46.9205 31.2066 46.8064 31.5664 46.7287C31.5664 46.6773 31.5664 46.5359 31.5279 46.388C31.7271 46.2596 31.8877 46.009 32.2412 46.1887L31.8299 46.5551C32.2753 46.5496 32.7139 46.4465 33.115 46.2531C33.4736 46.0756 33.8428 45.9212 34.2206 45.7902C33.4495 46.767 30.204 48.4701 29.0344 48.1167L28.9959 48.1037ZM37.0353 46.4267C36.3433 46.728 35.6219 46.9565 34.8824 47.1077C35.3837 46.78 35.8849 46.465 36.3992 46.1374C36.7012 45.983 36.8169 46.2531 37.0737 46.4394L37.0353 46.4267ZM37.5174 46.1182C37.0064 45.9157 36.5396 45.6169 36.1421 45.2376C35.737 45.3982 36.0393 45.6426 36.0585 45.8159C34.047 47.3648 31.8428 48.3865 30.8531 48.1424C30.9212 48.09 30.9944 48.0449 31.0716 48.0075C32.4729 47.4513 33.7749 46.6724 34.9273 45.7005C35.2744 45.4177 35.75 45.3019 35.9876 44.865C36.0124 44.826 36.0475 44.7952 36.0891 44.7753C36.1307 44.7555 36.1768 44.748 36.2223 44.7532C36.2682 44.7588 36.3114 44.777 36.3472 44.8056C36.3829 44.8345 36.4099 44.8729 36.4249 44.9164C36.5211 45.3406 36.8553 45.5012 37.1511 45.7197C37.311 45.8295 37.4485 45.969 37.5558 46.1309L37.5174 46.1182ZM39.6252 43.8495C39.8114 43.6694 39.8885 43.541 39.9593 43.541C40.3514 43.541 40.602 43.8174 40.9232 44.0937C40.3579 44.5052 40.1713 43.8625 39.6635 43.8625L39.6252 43.8495ZM42.0736 43.7595C41.9452 44.0296 41.8038 44.1772 41.4309 44.0423C41.688 43.8304 41.8164 43.6825 42.1123 43.7725L42.0736 43.7595ZM42.8125 43.3096L42.3372 43.541C42.5235 43.2004 42.5235 43.2004 42.8511 43.3226L42.8125 43.3096ZM43.7701 42.5642C43.3397 43.0271 43.3397 43.0271 43.0374 42.7121C43.301 42.5964 43.4424 42.2687 43.8088 42.5772L43.7701 42.5642ZM44.8113 41.9216C44.2522 42.3845 44.2522 42.3845 43.918 42.0246C44.3422 41.5617 44.3422 41.5617 44.8497 41.9537L44.8113 41.9216ZM45.6467 41.2789C45.2804 41.6709 45.2804 41.6709 44.7278 41.3433C45.1712 40.8742 45.1711 40.8742 45.6851 41.2919L45.6467 41.2789ZM46.6557 40.5013C46.3534 41.0091 46.2507 41.0283 45.608 40.6814C45.9552 40.1158 46.3407 40.5335 46.6941 40.5143L46.6557 40.5013ZM47.1697 40.0771L46.9899 40.3216L46.2764 39.9809C46.5914 39.9468 46.9099 39.9841 47.2084 40.0901L47.1697 40.0771ZM47.8123 39.4345C47.4782 39.7881 47.3241 39.7816 46.1545 39.3639C46.2315 39.2098 46.3021 39.0684 46.3729 38.9397L47.8123 39.4345ZM48.7505 38.5734C48.243 39.1777 48.1722 39.216 47.4652 38.8818L46.9899 38.6634C47.5103 38.5864 47.915 39.0041 48.3523 38.6185C48.1143 38.2844 47.7096 38.4063 47.4076 38.2392C47.1014 38.103 46.7854 37.9892 46.4626 37.8988C46.3664 38.0916 46.2956 38.2265 46.238 38.3614H45.4283L45.9487 38.914C45.7046 39.3317 45.1903 39.3191 44.7983 39.621L45.441 40.2637C45.2674 40.54 45.0554 40.5784 44.7599 40.3856C44.5529 40.2809 44.338 40.1928 44.1173 40.1223C43.7958 40.765 44.6507 40.5205 44.6507 40.9642C44.5412 41.1505 44.3936 41.3046 44.0916 41.0796C43.8858 40.9525 43.671 40.8407 43.4489 40.7455C43.2753 41.0796 43.2754 41.0796 43.8793 41.5425C43.6931 42.0116 43.4616 41.9537 43.1531 41.7353C42.8446 41.5168 42.5105 41.3303 42.2215 41.1313C42.1854 41.1833 42.1613 41.2428 42.1506 41.3052C42.1402 41.3676 42.1431 41.4314 42.1597 41.4925C42.1763 41.5536 42.2059 41.6105 42.2462 41.6592C42.2868 41.7077 42.3375 41.7467 42.3947 41.774C42.6197 41.9281 42.8576 42.063 43.0953 42.2044C42.7998 42.7313 42.7162 42.757 42.2663 42.4101C42.1571 42.3266 42.0736 42.1979 41.9513 42.1465C41.8324 42.1267 41.7108 42.1267 41.5915 42.1465C41.5915 42.2752 41.5915 42.4358 41.6689 42.5129C41.8714 42.6939 42.0863 42.8617 42.3112 43.0141C42.2085 43.0977 42.1314 43.1747 42.0479 43.2517L40.8975 42.3714C40.8494 42.4212 40.8139 42.4816 40.7944 42.5483C40.7749 42.6146 40.772 42.6848 40.786 42.7528C40.8 42.8207 40.8302 42.8841 40.8744 42.9374C40.9186 42.9907 40.9748 43.0326 41.0389 43.059C41.2447 43.2004 41.4696 43.3226 41.7586 43.4897L41.2768 43.9139C40.8334 43.6955 40.4541 43.4705 40.4671 42.847C40.2743 42.9562 40.0555 43.0011 39.9528 43.1363C39.9015 43.2345 39.8293 43.3206 39.7415 43.3883C39.6534 43.4559 39.5517 43.5037 39.4438 43.528C39.3355 43.5524 39.2231 43.5531 39.1148 43.5297C39.0062 43.5066 38.9042 43.4601 38.8154 43.3931C38.886 43.6889 38.9376 43.8817 38.976 44.0358C39.5319 44.158 40.0312 44.4607 40.3962 44.8969C40.2291 45.0705 40.0877 45.1027 39.9272 44.9421C39.6122 44.6336 39.2845 44.3381 38.976 44.0358H38.8733C38.7254 43.9974 38.5518 43.8817 38.4682 44.1067C38.3847 44.3316 38.5775 44.3443 38.7062 44.4408C39.0339 44.6915 39.3489 44.9743 39.6378 45.2311C39.5159 45.5461 39.3554 45.5396 39.1496 45.3982C38.7576 45.1219 38.3655 44.8585 37.967 44.6014C37.8162 44.5192 37.6595 44.4483 37.4979 44.3895C37.3181 44.7942 37.5815 44.9164 37.7937 45.0321C38.1406 45.2441 38.5069 45.4368 39.0017 45.6748L38.1919 46.0025C37.5938 45.6527 37.0958 45.1547 36.746 44.5566C37.2024 44.2029 37.6845 43.856 38.1471 43.4832C38.3918 43.2842 38.624 43.0694 38.8411 42.8405C39.0017 42.6669 38.989 42.6543 38.8411 42.3071C38.7533 42.3754 38.6698 42.4482 38.5905 42.5259C37.9758 43.2082 37.2554 43.7874 36.457 44.2416C36.3768 44.2978 36.2815 44.3277 36.1837 44.3277C36.0861 44.3277 35.9906 44.2978 35.9106 44.2416C35.6922 44.1132 35.4607 44.0101 35.2166 43.8752C35.2871 43.7231 35.3996 43.5937 35.5407 43.5027C35.6818 43.4117 35.8456 43.3626 36.0133 43.3613C36.2867 43.4211 36.549 43.5228 36.7912 43.6633L36.8553 43.554L36.3091 43.0398C36.4054 42.8535 36.7204 42.6929 36.444 42.3393L35.7243 42.847L34.7027 42.3201C35.1522 41.9024 35.5638 41.5103 35.9876 41.1183C36.053 41.0406 36.1434 40.988 36.2432 40.9704C36.3433 40.9529 36.4463 40.9711 36.5341 41.0221L37.4722 41.5617C37.1124 41.9411 36.7912 42.1208 36.3283 41.8575C36.2431 41.7902 36.1382 41.7535 36.0296 41.7535C35.921 41.7535 35.8157 41.7902 35.7308 41.8575C36.0978 42.0896 36.4902 42.2795 36.9004 42.4228C37.273 42.5064 37.5431 42.9436 38.0444 42.7378C37.8965 42.3715 37.4787 42.4937 37.2986 42.2235C37.5688 41.9859 37.8129 41.7161 38.2176 42.0116C38.3847 42.1338 38.5456 42.0886 38.687 41.8637L38.2563 41.5617C38.636 40.985 39.066 40.4431 39.5416 39.9422C39.7087 39.8203 39.9337 39.6337 39.7731 39.2996C39.6508 39.3574 39.4964 39.3831 39.4194 39.4796C38.95 39.873 38.5368 40.3294 38.1919 40.8355C37.967 41.2854 37.768 41.3303 37.3373 41.0861C37.0994 40.9577 36.8748 40.8098 36.6303 40.6557C37.0802 40.1863 37.4852 39.7881 37.8643 39.3704C37.9865 39.229 38.1919 39.0167 37.8256 38.8113C37.4531 39.2098 37.0867 39.6275 36.7012 40.0131C36.0072 40.6941 35.3066 41.3689 34.5931 42.0246C34.454 42.1218 34.2999 42.1956 34.137 42.243C34.0571 42.4088 33.9602 42.5662 33.8477 42.7121C33.5906 42.9627 33.3143 43.1942 33.038 43.4188C32.6459 43.7468 32.6459 43.7468 32.1255 43.3548C32.3584 43.2007 32.5738 43.0219 32.7682 42.8213C32.9096 42.6413 33.2629 42.4807 32.9674 42.0951C32.7038 42.3458 32.4726 42.5834 32.2219 42.7957C31.9713 43.0076 31.907 43.1747 31.6178 43.1168C31.5916 43.1185 31.5661 43.1256 31.5428 43.138C31.5196 43.15 31.4991 43.1669 31.4829 43.1877C31.4379 43.6633 30.9431 43.6438 30.7503 43.9331L30.0627 43.6568C30.2683 44.3895 30.988 44.2546 31.3479 44.6336C31.2387 44.9291 30.9238 44.9613 30.7053 45.1219C30.2275 44.8963 29.7279 44.7197 29.2144 44.5949C29.4329 45.0513 29.9405 45.0835 30.294 45.3855C30.2694 45.4505 30.2307 45.509 30.1807 45.5571C30.1307 45.6052 30.0707 45.6416 30.0049 45.6637C29.9391 45.6858 29.8693 45.6933 29.8004 45.6852C29.7315 45.6771 29.6652 45.6537 29.6064 45.6169C29.4091 45.5285 29.2199 45.4232 29.0408 45.3019C28.9117 45.2096 28.7528 45.1683 28.595 45.1859C28.4372 45.2038 28.2915 45.2795 28.1861 45.3982C28.0962 45.5009 27.9898 45.5877 27.8712 45.6553C26.8752 46.1952 25.8919 46.7413 24.883 47.2556C23.8271 47.8066 22.6973 48.2028 21.5284 48.4317C21.4706 48.4317 21.4063 48.4317 21.3549 48.4317C20.9693 48.5344 20.558 48.785 20.2174 48.7142C19.8164 48.5471 19.4468 48.3121 19.1249 48.0202L18.6044 47.6411C19.202 47.2621 19.427 47.2621 19.8897 47.6411C20.0503 47.7634 20.1789 47.9174 20.3395 48.0267C20.5002 48.1359 20.6094 48.1681 20.603 47.9174C20.561 47.8232 20.507 47.7344 20.4423 47.6538C20.2817 47.4867 20.1018 47.3456 19.8768 47.1526L20.9243 46.6773L21.522 47.1269C21.2392 47.4549 20.6994 47.4484 20.603 47.9174C21.8051 47.5118 22.9703 47.0043 24.0861 46.4007C24.7673 46.0346 25.4356 45.6488 26.0976 45.2571C26.2654 45.1336 26.4224 44.9961 26.5667 44.8455C26.2132 44.6785 26.0076 44.8907 25.7955 44.9935C25.5835 45.0962 25.3457 45.064 25.1529 44.7685L26.6052 43.9331C26.8495 43.9331 27.0872 44.4473 27.4085 43.9653L26.9908 43.6054L27.4792 43.2134L28.1669 43.554L27.807 43.9523C27.9515 43.9575 28.0962 43.9445 28.2376 43.9139C29.245 43.4448 30.1869 42.8464 31.0395 42.1338C31.258 41.9346 31.515 41.7867 31.7528 41.6069C31.8171 41.5552 31.8684 41.4782 31.9777 41.3624C31.8605 41.355 31.7428 41.3715 31.6323 41.4112C31.5217 41.4512 31.4205 41.5133 31.3351 41.5939C30.6346 42.0503 29.9277 42.4872 29.2465 42.9692C29.0713 43.1061 28.8552 43.1805 28.6328 43.1805C28.4103 43.1805 28.1943 43.1061 28.0191 42.9692C28.456 42.6413 28.8738 42.3266 29.3043 42.0116C29.7349 41.6966 30.1462 41.3689 30.5896 41.0091C30.7953 40.829 30.7953 40.7776 30.7696 40.4308C30.4547 40.4308 30.2811 40.6492 30.0755 40.8163C29.375 41.3624 28.681 41.9216 27.9741 42.468C27.8305 42.5623 27.6801 42.6461 27.5242 42.7186L26.7466 42.153C27.2925 41.4921 27.9413 40.9236 28.6681 40.4692C29.4521 40.0436 30.1689 39.5043 30.7953 38.8692C30.8531 38.7983 30.9431 38.7278 30.9624 38.6377C30.9724 38.5929 30.9718 38.5464 30.9606 38.5015C30.9495 38.457 30.9281 38.4157 30.8981 38.3806C30.8588 38.3588 30.8145 38.3471 30.7696 38.3471C30.7246 38.3471 30.6803 38.3588 30.641 38.3806C30.4185 38.6332 30.1825 38.8734 29.9341 39.1003C29.028 39.8073 28.1026 40.4887 27.1708 41.1632C26.5281 41.6387 25.8405 42.0821 25.1722 42.545L24.0025 41.6452C23.8997 42.3649 24.5681 42.3715 24.7545 42.7378C24.3174 43.0785 24.1889 43.072 23.7969 42.7378C23.5732 42.5733 23.3392 42.4228 23.0965 42.2879C23.0515 42.6413 23.0515 42.6413 23.7391 43.2134C23.6555 43.4383 23.4885 43.5345 23.2828 43.4253C22.8587 43.1812 22.4602 42.9049 21.9975 42.6094C22.5695 42.153 23.0836 41.7353 23.6105 41.3241C24.2532 40.8163 24.8958 40.3472 25.5385 39.8203C25.8027 39.5525 26.0375 39.2573 26.239 38.9397C26.2586 38.8942 26.2687 38.8448 26.2687 38.795C26.2687 38.7453 26.2586 38.6962 26.239 38.6507C24.712 40.0859 23.0555 41.3767 21.2906 42.5064C19.5582 43.6792 17.7601 44.7519 15.9053 45.7197L15.4812 45.4303C15.8346 45.2376 16.1238 45.0705 16.4516 44.8969C16.7793 44.7236 16.9592 44.5887 17.2035 44.4152C17.4476 44.2416 17.814 43.9844 18.1095 43.7725C18.2457 43.647 18.3725 43.5118 18.4887 43.3675L18.4116 43.2647C18.3115 43.281 18.2141 43.3112 18.1224 43.3548C17.332 43.8495 16.5801 44.4217 15.7511 44.8329C14.71 45.3598 13.6111 45.7645 12.5379 46.2079C12.3834 46.2407 12.2265 46.2599 12.0688 46.2658C11.6703 46.3558 11.2783 46.4585 10.7835 46.5743C11.1498 47.1012 11.5739 46.8057 11.9531 46.8444V47.2426L10.5071 47.5576C10.2803 47.8365 10.0333 48.0988 9.7681 48.3417C9.34396 48.6693 8.88129 48.9391 8.43142 49.2349C8.36716 49.2798 8.27077 49.3055 8.23863 49.3633C7.77592 50.1087 6.95334 50.0447 6.27216 50.1152C5.59966 50.1312 4.92696 50.0925 4.2607 49.9995L7.61527 49.6848C7.54457 49.3055 7.33893 49.3442 7.10758 49.3698C6.18218 49.4661 5.25037 49.5434 4.32497 49.6397C4.14849 49.6696 3.97448 49.7125 3.80444 49.7684C3.90725 49.8776 3.93937 49.9355 3.9908 49.9546C4.08399 49.9741 4.17849 49.9871 4.27354 49.9933C4.02655 49.9767 3.77846 49.9897 3.5345 50.0317C3.24401 50.1325 2.96418 50.2615 2.69908 50.4172C2.37909 50.6717 1.99798 50.8379 1.59374 50.8993C1.69927 50.7904 1.81083 50.6873 1.92792 50.5908C2.52557 50.1666 3.12965 49.7427 3.74017 49.3055C3.8675 49.2158 4.01579 49.1605 4.17072 49.1449C4.72175 49.0503 5.2873 49.0854 5.8223 49.2476C6.19505 49.4085 6.50995 49.1579 6.85696 49.1384C6.87438 49.1358 6.89093 49.1293 6.90542 49.1192C6.91989 49.1091 6.93188 49.0961 6.9405 49.0805C7.10758 48.4766 7.64739 48.1811 8.04583 47.7952C8.4495 47.3671 8.87872 46.9637 9.33111 46.5873C9.60495 46.402 9.89287 46.2388 10.1923 46.0987L10.6807 46.3688C11.0024 46.2745 11.3127 46.1452 11.6061 45.983C12.167 45.6995 12.7669 45.5002 13.3862 45.392C13.986 45.1898 14.5739 44.9538 15.147 44.685C15.5054 44.4834 15.8471 44.2536 16.1688 43.9974C16.5381 43.7683 16.8903 43.5128 17.2227 43.2326C17.8654 42.5899 18.508 41.8894 19.1506 41.2275C19.0028 40.9642 18.8486 41.0604 18.7329 41.1632C18.2959 41.536 17.8589 41.9089 17.4476 42.3009C17.0364 42.6929 16.715 43.0206 16.3552 43.387L16.2459 43.3034C16.3155 43.1828 16.3928 43.0668 16.4773 42.9562C16.8179 42.5964 17.1713 42.243 17.5119 41.8894C18.211 41.0904 18.8049 40.2049 19.2792 39.2547C19.6892 38.5493 20.0603 37.8221 20.3909 37.0761C20.9436 35.8295 21.432 34.5506 21.9911 33.304C22.4859 32.2049 23.0386 31.1316 23.5656 30.0455C23.8805 29.4032 24.1697 28.7605 24.5038 28.1179C24.9922 27.1667 25.4549 26.1899 26.0333 25.2966C27.0101 23.8055 28.109 22.3918 29.0858 20.901C29.9855 19.5192 31.0137 18.2533 31.9777 16.891C32.9418 15.5283 33.7577 14.3203 34.6061 13.035C35.056 12.3345 35.435 11.5891 35.8271 10.8564C36.1612 10.2138 36.4697 9.62245 36.7847 8.9993C36.8939 8.77435 36.984 8.5364 37.0867 8.29228C37.3243 8.33096 37.3822 8.45936 37.2925 8.63295L36.0777 10.9078L35.9363 11.1714L35.0238 12.9837C34.7027 13.6263 34.3812 14.269 34.0535 14.9116C33.7925 15.4187 33.4983 15.9083 33.1729 16.3767C32.6525 17.1159 32.2091 17.9127 31.7271 18.7032C31.773 18.7403 31.8272 18.766 31.8852 18.778C31.9432 18.7897 32.0032 18.7874 32.06 18.7709C32.1168 18.7546 32.1689 18.7247 32.2116 18.6837C32.2544 18.6428 32.2866 18.5921 32.3055 18.5362C32.7552 17.7264 33.4622 17.0581 33.7001 16.1261C33.7177 16.0474 33.7554 15.9743 33.8094 15.9141C34.3334 15.3716 34.7673 14.7491 35.0944 14.0697C35.4246 13.4995 35.7227 12.9118 35.9876 12.3088C36.5146 11.2163 37.0158 10.1237 37.5366 9.03148C37.5366 8.96712 37.6393 8.92844 37.7999 8.78085C37.5044 10.2333 36.656 11.2871 36.1804 12.5016C35.7052 13.7164 35.1652 14.8921 34.6318 16.1326C34.7345 16.1326 34.8437 16.1326 34.9016 16.0874C35.1441 15.9109 35.3408 15.6785 35.475 15.4103C35.6093 15.1418 35.6769 14.8453 35.673 14.5453C35.6597 14.439 35.6707 14.3311 35.7052 14.23C35.7396 14.1286 35.7968 14.0366 35.8722 13.9605C36.4453 13.2964 36.8624 12.5126 37.0932 11.6662C37.2151 11.2998 37.4787 10.9656 37.3952 10.5414C37.3903 10.5226 37.3903 10.5027 37.3952 10.4839L38.2049 9.35915C38.2498 9.43619 38.359 9.53274 38.3398 9.59678C38.2865 9.95045 38.1666 10.2908 37.9865 10.5993C37.8734 10.7703 37.7908 10.9595 37.742 11.1584C37.5174 11.8011 37.273 12.4437 36.9902 13.0285C36.2792 14.6139 35.5381 16.1882 34.7667 17.7521C34.4003 18.4783 33.9699 19.1658 33.5649 19.8728L32.1898 22.3082C32.5709 22.1577 32.8871 21.8779 33.0832 21.518C33.8003 20.4241 34.4442 19.2841 35.0108 18.1054C35.5186 16.9423 36.1547 15.8306 36.7269 14.6929C36.8426 14.4617 36.9131 14.2111 37.0223 13.9797C37.1316 13.7482 37.2216 13.6068 37.3243 13.4141C37.9286 13.6904 38.0892 14.2817 38.5069 14.6994C38.4491 14.9116 38.3847 15.1301 38.3012 15.4129L37.1833 14.4104L37.0867 14.4682C37.1065 14.581 37.1459 14.6896 37.2024 14.7894C37.3695 14.9822 37.5815 15.1428 37.7485 15.3355C38.1793 15.8306 38.1858 15.9782 37.8321 16.5887C37.4017 16.2802 37.4017 16.2802 37.4401 15.7406L36.6303 15.7662C37.048 16.1326 36.8361 16.4603 36.6303 16.8136C36.4827 17.0707 36.3797 17.3471 36.2191 17.6942C36.7847 17.4885 37.0097 17.9062 37.2795 18.1955C37.7164 18.6581 38.1214 19.1528 38.5199 19.6479C38.6506 19.8423 38.7667 20.0464 38.8668 20.2584C38.976 20.4446 38.8668 20.5412 38.7254 20.7018L36.5663 18.491L36.4762 18.5362C36.4762 18.5937 36.4762 18.6837 36.5084 18.7159C36.984 19.1144 36.9261 19.5643 36.5981 20.0783L36.1421 19.6927C36.0328 20.0334 36.3605 20.117 36.444 20.3933L36.2321 20.8815C36.1547 21.0424 36.0842 21.203 36.0072 21.3701L35.5894 21.2674C36.0328 21.9741 35.5894 22.4496 35.3001 23.0088L34.7602 22.5332C34.8259 22.8901 34.9933 23.2204 35.2423 23.4843C35.6704 24.1062 36.1336 24.7027 36.6303 25.2709C36.7535 25.3818 36.8286 25.5362 36.8406 25.7013C36.8527 25.8668 36.8003 26.0299 36.6947 26.1577L36.5084 26.447C35.7734 25.7608 35.0944 25.0174 34.4777 24.2232L34.06 25.1679L34.5356 24.8337C34.5765 24.8447 34.6155 24.862 34.651 24.8854L36.0712 26.8582C36.2448 27.0958 36.1421 27.2629 35.8784 27.4557L34.1562 25.4764L34.0535 25.5537C34.5411 26.4194 35.0752 27.2584 35.6535 28.0662L35.3645 28.3812L33.5457 26.4532C33.5906 26.9931 34.0213 27.2759 34.2719 27.668C34.5226 28.06 34.8697 28.4582 35.1652 28.8376C32.3569 33.5224 29.2015 37.8988 24.9987 41.459C25.1536 41.4099 25.3024 41.3429 25.4421 41.2597C25.8881 40.9418 26.3171 40.6008 26.7274 40.238C27.46 39.5954 28.1926 38.8883 28.8609 38.1556C29.6321 37.3075 30.3454 36.4077 31.0652 35.508C31.7849 34.6085 32.4147 33.8436 33.0318 32.9376C33.6485 32.0314 34.3168 30.9453 34.9595 29.9493C35.3193 29.3967 35.7052 28.8632 36.0328 28.2976C36.3605 27.732 36.5533 27.2759 36.8104 26.7682C37.1767 26.0163 37.5815 25.2901 37.903 24.519C38.2241 23.7476 38.4042 23.0536 38.6548 22.3212C39.0339 21.2287 39.4516 20.1553 39.7857 19.0501C40.1908 17.7199 40.5568 16.3702 40.8783 15.0144C41.062 14.1663 41.1949 13.3078 41.2768 12.4437C41.3539 11.7562 41.3409 11.0557 41.3796 10.2394L41.7459 10.5801C41.7137 10.323 41.688 10.1432 41.6559 9.93745L42.215 9.76386C42.2793 10.4065 42.3499 10.953 42.3821 11.5248C42.3535 12.4983 42.2436 13.4677 42.0544 14.4231C41.9257 15.4708 41.7007 16.4989 41.5275 17.5463C41.5275 17.7264 41.3922 17.9253 41.6045 18.1119C41.8503 17.7449 42.0024 17.3236 42.0479 16.8845C42.2215 15.7214 42.3177 14.5518 42.5361 13.4014C42.6837 12.3823 42.7354 11.3518 42.6906 10.323C42.7023 10.1305 42.7302 9.93907 42.7741 9.75118C43.0696 9.75118 43.0439 9.91827 43.0439 10.0662C43.0439 10.5031 43.0439 10.94 43.0439 11.3512C43.0468 11.567 43.0686 11.7819 43.1083 11.9938C43.2214 12.4675 43.2035 12.9629 43.0569 13.4271C42.9688 13.7755 42.9298 14.1344 42.9412 14.4939C42.9025 15.2458 42.8833 16.0039 42.8446 16.7623C42.8446 16.9937 42.8446 17.2765 42.4399 17.2186C42.5401 17.3718 42.6181 17.5382 42.6714 17.7134C42.6616 17.8707 42.6249 18.0251 42.5618 18.1698C42.1506 19.5192 41.7843 20.888 41.2768 22.2182C40.9875 23.0279 40.7948 23.8572 40.5441 24.6666C40.2421 25.6308 39.7857 26.5497 39.4002 27.4879C39.3232 27.6806 39.2331 27.8734 39.1174 28.1305C39.2429 28.0896 39.3567 28.019 39.4496 27.9254C39.5423 27.8315 39.6112 27.7167 39.6508 27.5909C40.2743 26.4109 40.7697 25.1679 41.1289 23.8829C41.3165 23.2142 41.544 22.5576 41.8099 21.9162C41.9322 21.582 42.0671 21.2735 42.202 20.8945C42.3177 20.9391 42.4292 20.9927 42.5361 21.0551C43.1788 21.4663 43.8793 21.897 44.5542 22.3404C44.8883 22.5462 44.8948 22.5397 44.7278 23.0474C43.9057 22.6756 43.1112 22.2462 42.3499 21.7621C42.4656 22.1285 42.4591 22.1285 43.3654 22.7646C43.7379 23.0218 44.13 23.2659 44.535 23.5292L44.4514 24.1078C43.526 23.8634 42.9155 23.0601 41.9452 22.9896C42.6584 23.4778 43.3524 23.9791 44.0786 24.4482C44.1456 24.4755 44.205 24.5184 44.2522 24.5733C44.2993 24.6283 44.3328 24.6936 44.3497 24.7638C44.3666 24.834 44.3666 24.9075 44.3497 24.9777C44.3328 25.0479 44.2993 25.1133 44.2522 25.1679L42.7419 24.4033C42.9093 24.771 43.1882 25.0765 43.5387 25.2774C43.6352 25.348 43.7574 25.3801 43.8601 25.4445C44.1813 25.6564 44.1813 25.6694 43.9759 26.1642C43.4746 25.8622 42.9734 25.5729 42.4591 25.2709C42.4591 25.6116 42.6841 25.817 43.828 26.6655C43.8364 26.7357 43.8364 26.8069 43.828 26.8774C43.7896 26.9424 43.7467 27.0048 43.6996 27.0637C43.2045 26.9161 42.9477 26.4213 42.3372 26.3118C42.595 26.6837 42.9067 27.0152 43.2624 27.2951C43.5708 27.5331 43.5643 27.5392 43.3589 28.0343L41.8743 27.0702C41.9387 27.2629 41.9452 27.3852 42.0092 27.443C42.3372 27.7258 42.6519 27.9956 43.0182 28.2654C43.2175 28.4263 43.3202 28.5869 43.0569 28.8246L42.3434 28.3168L42.2277 28.439L42.909 29.281C42.909 29.4289 42.8703 29.5764 42.8385 29.7757L43.5708 29.5764C43.4772 29.2663 43.4688 28.9367 43.5468 28.6224C43.6248 28.3077 43.7864 28.0203 44.0142 27.7899C44.0142 27.7385 44.1108 27.6871 44.1043 27.6423C43.9694 26.8774 44.4515 26.2412 44.5542 25.528C44.6569 24.8145 44.7983 24.2811 44.9332 23.6579C44.9579 23.4996 45.0054 23.3459 45.0746 23.2015C45.388 22.4792 45.6038 21.7186 45.7173 20.9394C45.872 20.2863 45.9923 19.6258 46.0771 18.96C46.1646 18.1061 46.2032 17.2479 46.1928 16.3897C46.1928 15.1044 46.1158 13.7739 46.0579 12.4629C46.0579 12.0325 45.9744 11.6083 45.923 11.1779C46.2442 11.1779 46.2764 11.3899 46.3021 11.5504C46.4649 12.8101 46.6213 14.0697 46.7711 15.3294C46.7682 15.3892 46.7682 15.4493 46.7711 15.5091C46.8917 16.4099 46.9389 17.3191 46.9125 18.2277C46.9038 18.3489 46.9242 18.4708 46.9724 18.5826C47.0205 18.6945 47.0946 18.793 47.1888 18.8703C47.3553 18.436 47.3975 17.9644 47.3111 17.5076C47.2467 16.351 47.1697 15.2006 47.0926 14.0505C47.0926 13.954 47.0926 13.8574 47.0926 13.7099H47.8058C47.8783 14.5638 48.0639 15.4048 48.3584 16.2096H48.4807C48.4807 15.8176 48.5129 15.4191 48.532 14.9243C48.9091 15.7825 49.1165 16.7057 49.1425 17.6429C48.77 18.0606 48.3841 17.4241 47.9472 17.6429C48.3071 18.0541 48.8148 17.8997 49.2326 18.1054C49.4061 19.2815 49.5859 20.4768 49.766 21.7108L49.1233 21.7686L49.0846 21.8779L49.6246 22.0898C49.6246 22.3983 49.6246 22.7325 49.6246 23.0923H48.9114C48.9627 23.5806 49.3996 23.3494 49.554 23.5744C49.5024 23.7606 49.4575 23.9664 49.3931 24.1849C49.8752 24.2554 49.7273 23.7863 49.9523 23.6449L51.4433 23.735C51.392 24.0756 51.3468 24.3776 51.2889 24.7762L49.7211 24.5447C49.9139 24.9046 50.1964 24.8724 50.4213 24.9172C50.6463 24.9624 50.9291 24.9946 51.2506 25.046C51.1797 25.3545 51.1218 25.6178 51.0448 25.9328L50.1515 25.7978C50.3121 26.2026 50.6785 26.055 50.8585 26.2412C50.9804 26.6781 50.7106 26.9866 50.46 27.3465L50.0231 27.2824C50.0075 27.3088 49.9945 27.3367 49.9844 27.366L50.4665 27.7258L49.9588 29.435L48.9432 29.2039C49.1747 29.4994 49.5859 29.6922 50.5757 29.988C50.4646 30.9577 50.17 31.8974 49.7081 32.7576C49.1916 33.8556 48.5444 34.8871 47.7801 35.8294C47.4775 36.28 47.2171 36.7575 47.0026 37.2562C47.6452 37.6225 48.5512 37.526 49.162 38.13C49.0206 38.297 48.8854 38.4384 48.7635 38.5929L48.7505 38.5734ZM39.0147 19.487L36.8296 17.3792C36.9453 17.1286 37.061 16.8715 37.1894 16.6082C37.7485 16.8588 37.6845 17.2508 37.5301 17.7904L37.9992 17.5141L39.3424 19.0949C39.3424 19.185 39.2588 19.3521 39.1944 19.5257C39.1327 19.524 39.0716 19.511 39.0147 19.487ZM38.1406 17.0964C38.2628 16.8074 38.359 16.5695 38.4621 16.3319C38.7725 16.5578 38.9988 16.8812 39.1047 17.2508C39.1359 17.3217 39.1821 17.3851 39.2396 17.4371C39.3554 17.5593 39.5608 17.662 39.58 17.7904C39.5764 18.0437 39.5351 18.295 39.4581 18.5362L38.1406 17.0964ZM39.5543 16.0039C40.0555 16.3702 40.062 16.3897 39.8628 16.9872C39.3232 16.7431 39.3037 16.6917 39.5543 16.0039ZM39.0725 16.184C38.6292 15.8433 38.6292 15.8433 38.8733 15.1879C39.4129 15.4643 39.0917 15.8306 39.0725 16.184ZM39.8436 14.5001C39.9489 14.5635 40.0409 14.647 40.1141 14.7462C40.1869 14.8453 40.2395 14.9578 40.2688 15.0774C40.298 15.1967 40.3036 15.3209 40.2844 15.4425C40.2655 15.5641 40.2226 15.6804 40.1586 15.7854C40.0386 15.737 39.9324 15.6606 39.8478 15.5631C39.7633 15.4652 39.7032 15.3489 39.6726 15.2234C39.6417 15.0979 39.6411 14.9669 39.671 14.8411C39.7006 14.7156 39.7597 14.5986 39.8436 14.5001ZM39.4002 14.8408C38.9246 14.8024 39.0404 14.3525 38.7576 14.1981C38.5349 14.0444 38.3203 13.8792 38.1149 13.7034L38.5518 13.0607C38.9311 13.3048 38.7189 13.7034 38.8541 13.9862L39.1623 13.7869C39.6957 14.0762 39.3358 14.4744 39.4194 14.8408H39.4002ZM38.0505 13.0028C37.9907 13.14 37.9221 13.273 37.8451 13.4014C37.7294 13.2086 37.5688 13.0542 37.601 12.9642C37.7411 12.3992 37.9901 11.8667 38.3333 11.3964C38.372 11.5891 38.4426 11.711 38.4042 11.7819C38.254 12.1772 38.1422 12.5861 38.07 13.0028H38.0505ZM38.8476 12.0904C39.0852 12.3732 38.9438 12.5146 38.7641 12.656C38.8089 12.4951 38.8281 12.3345 38.8668 12.0904H38.8476ZM39.9785 13.4784C40.5568 13.8769 40.5568 13.8769 40.4284 14.3525C40.0751 14.1211 39.7987 13.9091 39.9785 13.4784ZM39.5224 13.4784C39.3037 13.1829 39.4581 13.0028 39.5224 12.7009C39.7409 13.0415 39.5995 13.2021 39.5224 13.4784ZM40.3705 11.936C40.9618 12.2318 40.6982 12.6817 40.666 13.0929C40.0751 12.8358 40.0621 12.7652 40.3705 11.9425V11.936ZM39.7279 12.3859C39.4002 11.9746 39.7279 11.6662 39.7279 11.2741C39.9915 11.6792 39.9915 11.7048 39.7152 12.3924L39.7279 12.3859ZM39.0852 11.7432C38.8798 11.2676 39.1944 11.0492 39.2074 10.7472L39.4067 10.8051C39.291 11.107 39.2009 11.3899 39.066 11.7689L39.0852 11.7432ZM38.5391 11.1649C38.4747 11.0365 38.4426 10.9978 38.4491 10.9721C38.5326 10.7472 38.6227 10.5222 38.7511 10.1946C38.8798 10.6701 38.6353 10.8694 38.5199 11.1906L38.5391 11.1649ZM40.7561 10.6445C40.7561 10.8629 40.7561 11.0814 40.7561 11.3577C40.4863 11.0944 40.4863 11.0944 40.7369 10.6701L40.7561 10.6445ZM39.9015 10.8181C39.9463 10.5157 39.985 10.2589 40.0237 9.95045C40.287 10.4644 40.2743 10.5479 39.8823 10.8437L39.9015 10.8181ZM39.5351 10.2394H39.381C39.381 10.034 39.4389 9.82822 39.4773 9.59678C39.7344 9.8474 39.4838 10.0532 39.5159 10.2651L39.5351 10.2394ZM36.4889 22.109C36.4132 22.043 36.3611 21.9533 36.3413 21.8544C36.3215 21.7556 36.3351 21.6532 36.3797 21.5629C36.4762 21.3444 36.5468 21.1195 36.6882 20.7339C37.0353 21.1773 37.3308 21.5115 37.5623 21.8457C37.7001 22.0274 37.8288 22.2162 37.9478 22.411C38.1663 22.7646 37.9478 23.0536 37.755 23.4008L36.4889 22.109ZM37.5623 24.1462C37.4657 24.442 37.3695 24.731 37.2408 25.136L35.371 23.208C35.5638 23.0088 35.7052 22.8739 35.8336 22.726C35.962 22.578 36.0585 22.4496 36.1869 22.2891C36.7405 22.8316 37.2047 23.4587 37.5623 24.1462ZM37.9543 21.6207C37.7999 21.492 37.6715 21.3444 37.5174 21.2222C36.9902 20.8045 36.6947 20.3481 37.273 19.6671L38.372 20.9524C38.6035 21.2287 38.4682 21.505 38.3398 21.8522C38.1984 21.7748 38.0635 21.7043 37.9543 21.6207ZM50.9999 15.3037C51.758 15.3037 51.8354 15.3872 52.0603 16.3959L49.4832 16.2418C49.4318 15.882 49.374 15.5543 49.3291 15.2393C49.4503 15.1701 49.5853 15.1275 49.7244 15.1145C49.8635 15.1012 50.0039 15.1174 50.1362 15.1626C50.2685 15.2075 50.3898 15.2799 50.4922 15.3752C50.5946 15.4701 50.6755 15.5862 50.7298 15.7149L50.9999 15.3037ZM52.163 15.4447L52.5616 15.3677L53.1012 16.4668H52.4585C52.3428 16.0491 52.2593 15.7789 52.163 15.4447ZM53.4484 16.0039C53.1782 15.7341 53.2169 15.5413 53.4484 15.3612C53.5319 15.6118 53.5319 15.6118 53.4227 16.0039H53.4484ZM54.5149 15.7789C54.6563 16.4216 54.6563 16.4216 54.2194 16.4216C54.1359 16.1648 53.9818 15.8755 54.4892 15.7789H54.5149ZM52.0538 18.0154L49.6759 17.8548C49.6376 17.3984 49.5924 16.9937 49.5475 16.4989L52.2658 16.666C52.3558 16.889 52.3834 17.1325 52.3464 17.3701C52.309 17.6078 52.2079 17.8308 52.0538 18.0154ZM53.4419 17.4563C53.4419 17.6364 53.4419 17.8099 53.4419 18.0154C53.3219 18.0219 53.202 18.0219 53.082 18.0154C52.5616 17.9705 52.5486 17.9383 52.5934 17.3727C52.6071 17.1588 52.6071 16.9443 52.5934 16.7301C53.3391 16.7623 53.384 16.8074 53.4162 17.4563H53.4419ZM52.0538 19.5C51.9124 19.5 51.771 19.288 51.5974 19.1401C51.4755 19.4034 51.2054 19.4164 50.9034 19.3586C50.6014 19.3007 50.2029 19.2493 49.8238 19.1915C49.766 18.8703 49.7081 18.5488 49.6438 18.2468C50.0797 18.1301 50.5383 18.1301 50.9743 18.2468C51.3855 18.2468 51.7967 18.3626 52.2144 18.4204L52.4393 18.9857H52.5616C52.6064 18.7995 52.6513 18.6197 52.69 18.4526C52.73 18.4286 52.7732 18.4113 52.8184 18.4009C53.6603 18.4783 53.6925 18.5361 53.461 19.577C52.9793 19.577 52.9793 19.577 52.7222 19.288C52.5118 19.3934 52.2862 19.4649 52.0538 19.5ZM52.5356 20.8175L51.6745 20.8558C51.7261 20.509 51.771 20.1748 51.8289 19.7828L52.5356 19.8855V20.8175ZM53.0498 19.9756L53.5189 20.1296C53.5189 20.3998 53.5189 20.6504 53.5189 20.9589L52.9471 20.9202C52.9341 20.5925 52.9793 20.2905 53.0241 19.9756H53.0498ZM50.4408 20.6696C50.158 20.6182 49.9653 20.5025 49.9909 20.1618C49.9721 19.945 49.9353 19.7301 49.8817 19.5192L51.3341 19.7314C51.3556 19.7961 51.3705 19.8628 51.379 19.9304C51.3146 20.7658 51.2376 20.8302 50.4151 20.6696H50.4408ZM51.9251 21.1708C52.4072 21.2735 52.9019 21.3187 53.4227 21.3958C53.4227 21.7813 53.3775 22.0384 53.3583 22.3726L51.8289 22.0063C51.246 22.1184 50.643 22.0579 50.0937 21.8327C50.0937 21.518 50.0937 21.19 50.0937 20.9329C50.8777 20.888 51.0897 20.9846 51.2567 21.4793C51.324 21.3737 51.4209 21.2901 51.535 21.2388C51.6491 21.1874 51.7759 21.1705 51.8994 21.19L51.9251 21.1708ZM52.3685 23.3559C52.335 23.3699 52.2989 23.3771 52.2625 23.3771C52.2261 23.3771 52.19 23.3699 52.1565 23.3559C52.126 23.3368 52.0997 23.3117 52.0798 23.2815C52.06 23.2516 52.0467 23.2178 52.0408 23.1824C52.0408 22.9509 52.0408 22.7195 52.086 22.4883L52.2274 22.3918C52.3366 22.4818 52.5356 22.5719 52.5356 22.6616C52.5083 22.9018 52.4432 23.1359 52.3428 23.3559H52.3685ZM53.0885 22.7773C53.3391 23.1567 53.3391 23.195 52.992 23.4587C52.9985 23.2464 53.0306 23.0279 53.0628 22.7773H53.0885ZM51.5591 23.42L50.0358 23.2786C50.0358 22.9122 50.068 22.5976 50.0872 22.2247L51.7001 22.4626C51.6296 22.739 51.5847 23.0409 51.5331 23.4135L51.5591 23.42ZM52.2593 24.5769C52.2593 24.7697 52.1374 24.9172 51.8415 24.7632C51.9124 24.4547 51.9895 24.1205 52.073 23.7736C52.4715 24.0178 52.2531 24.3198 52.2336 24.5704L52.2593 24.5769ZM52.9019 24.127C53.3005 24.3006 53.0306 24.6283 53.1334 24.9302C52.6578 24.7888 52.6578 24.7888 52.8571 24.1205L52.9019 24.127ZM53.0371 25.4123C52.9471 25.6821 52.8441 25.9841 52.7287 26.3118L51.5204 26.0485C51.5656 25.8424 51.6215 25.6386 51.6875 25.438C51.7262 25.3353 51.8354 25.1874 51.8932 25.2C52.0099 25.241 52.1127 25.3145 52.1887 25.4123C52.2401 25.4637 52.2466 25.5472 52.2849 25.6434C52.5099 25.5986 52.5743 25.1038 52.992 25.4058L53.0371 25.4123ZM51.996 26.5884C51.8545 26.9288 51.7196 27.2694 51.5717 27.6358L51.0578 27.5587C50.9421 26.4597 51.1153 26.2734 51.9508 26.5819L51.996 26.5884ZM51.5652 29.1587L52.0538 29.3645C51.9316 29.6665 51.8737 29.9685 51.379 29.8271C51.4112 29.6086 51.4495 29.4159 51.5204 29.1525L51.5652 29.1587ZM50.5949 29.6278C50.5627 29.5992 50.537 29.5634 50.5205 29.5231C50.5036 29.4831 50.4961 29.4399 50.4987 29.3967C50.4987 29.056 50.6658 28.9851 51.1413 29.1204C51.0607 29.2875 50.9684 29.4484 50.8647 29.6021C50.8212 29.6382 50.7672 29.6593 50.7106 29.6626C50.6541 29.6662 50.5978 29.6519 50.55 29.6216L50.5949 29.6278ZM49.8173 37.3397C49.6438 37.6739 49.5345 37.7831 49.2517 37.6287C48.836 37.4038 48.4066 37.2042 47.9664 37.0312C47.7675 36.9477 47.7993 36.8576 47.8702 36.7419L49.8173 37.3397ZM50.3573 36.6135C50.0423 37.0634 49.8365 37.0761 49.2326 36.6906C49.5475 36.2085 49.7273 36.1958 50.3573 36.6135ZM50.6014 35.4823L50.9999 35.611C50.9999 35.611 50.9999 35.611 51.1027 35.688L50.7812 36.1571L49.8495 35.913C50.1645 35.3282 50.1645 35.3282 50.6014 35.4761V35.4823ZM51.9573 34.6855L51.4112 35.3282L50.5049 34.9618C50.8264 34.2613 50.9934 34.2291 51.9573 34.6855ZM52.5551 33.7731L52.1374 34.3L51.1605 33.9528L51.4947 33.368C51.8812 33.3859 52.2524 33.5254 52.5551 33.7666V33.7731ZM53.1977 32.5778L52.7992 33.3297L52.2336 33.1688C52.086 33.1174 51.9381 33.0469 51.7967 32.989C52.1757 32.1536 52.3044 32.1149 53.2299 32.5713L53.1977 32.5778ZM53.7825 31.5623L53.5062 32.1536L52.9663 32.0057L52.5294 31.8643C52.7348 31.273 53.0498 31.1959 53.8147 31.5558L53.7825 31.5623ZM54.3673 30.277C54.2259 30.5663 54.1232 30.7847 53.988 31.048L53.0433 30.8296L53.4354 30.0393L54.3673 30.277ZM54.7272 29.4159L54.4252 29.975C54.316 29.5959 54.5344 29.4994 54.6049 29.3323L54.7272 29.4159ZM55.4534 27.6166L54.4831 27.4687C54.2705 27.4287 54.0559 27.4008 53.8404 27.3852C53.6736 27.3975 53.5108 27.4388 53.3583 27.5074C53.3583 27.5074 53.3583 27.6936 53.3583 27.7128C53.5384 27.822 53.7952 28.0213 53.9109 27.9634C54.38 27.7258 54.785 27.9634 55.1963 28.0278C55.1257 28.5674 55.1257 28.5674 54.8234 28.8759C54.5536 28.664 54.8234 28.3428 54.6563 28.1049C54.2451 28.0535 54.3478 28.4969 54.1167 28.677H53.474C53.307 28.677 53.1077 28.677 53.1525 28.9211C53.1815 28.9874 53.2244 29.0469 53.279 29.0947C53.3333 29.1425 53.398 29.1776 53.4675 29.1974C53.6619 29.2202 53.8579 29.2202 54.0523 29.1974C54.0137 29.6987 54.001 29.7052 53.6476 29.6538L52.5934 29.5443C52.5934 29.9171 52.5934 29.9171 52.9019 30.1869C52.8506 30.3156 52.8249 30.5084 52.7222 30.592C52.5837 30.6836 52.4719 30.8104 52.3987 30.9596C52.3252 31.1085 52.2927 31.2746 52.3044 31.4401C52.3044 31.5558 52.0665 31.7164 51.9124 31.8064C51.7756 31.8506 51.6319 31.8701 51.4882 31.8643C51.2763 32.2306 51.6296 32.2371 51.7518 32.3977L51.4882 32.8284L50.7685 32.7127C50.6918 32.7208 50.6164 32.7384 50.5435 32.7641C50.5435 32.9246 50.5435 33.0852 50.5822 33.2718L51.154 33.2075C51.1427 33.3339 51.1049 33.4565 51.0429 33.5673C50.9808 33.6781 50.8963 33.7744 50.7942 33.8501C50.5692 33.7923 50.2799 33.5286 50.0872 33.8501C49.8944 34.1713 50.2607 34.2291 50.4665 34.4027C50.2799 34.6982 50.0937 34.8718 49.7595 34.7883C49.6837 34.7691 49.6041 34.7691 49.528 34.7883C49.4786 34.7954 49.4325 34.8162 49.3941 34.8481C49.3558 34.8799 49.3268 34.9219 49.3109 34.969C49.295 35.0165 49.2924 35.0672 49.3034 35.1156C49.3145 35.1644 49.3388 35.2089 49.374 35.2447C49.3993 35.2846 49.438 35.3142 49.4832 35.3282C49.5732 35.3666 49.6694 35.3926 49.7725 35.4309C49.6889 35.7651 49.5154 35.8678 49.1747 35.7459C48.834 35.6237 48.7762 35.6367 48.7056 36.0801L49.2134 36.2342C48.8984 36.922 48.455 36.3499 47.9729 36.4334C48.0422 36.2546 48.1237 36.0807 48.217 35.913C48.6156 35.3474 49.072 34.8139 49.4126 34.2165C49.8882 33.3875 50.2864 32.5261 50.6976 31.6458C50.7506 31.456 50.7893 31.2629 50.8134 31.0675C50.8875 30.8221 50.9821 30.5835 51.0962 30.354C51.1927 30.1612 51.3533 30.2064 51.5269 30.354C51.5269 30.8039 51.1862 31.1254 51.0191 31.5558L51.4112 31.6136C51.7148 31.2596 51.954 30.8553 52.1179 30.4184C52.2092 29.9955 52.2628 29.5654 52.2788 29.133L51.3598 28.6253L50.7171 28.7797C50.7877 28.4263 50.839 28.1884 50.9099 27.8607L52.8379 28.5034C52.8379 28.0857 52.8379 28.0857 51.9895 27.7128L52.2466 26.6781C52.5421 26.6203 52.6386 26.7555 52.5934 27.0318C52.5486 27.3081 52.388 27.5522 52.5934 27.8351C53.0433 27.7063 52.8957 27.2694 53.0176 27.0318C53.9015 26.8693 54.8036 26.8322 55.6975 26.9226C55.6075 27.1345 55.5369 27.366 55.4534 27.6166ZM55.9095 25.7848C55.8646 26.0612 55.8324 26.2991 55.7875 26.5819L55.2668 26.4275C55.3055 26.1964 55.3312 25.9841 55.3763 25.7143L55.9095 25.7848ZM56.006 25.3736L55.4856 25.3288C55.5818 24.7888 55.5818 24.7888 56.1282 24.7762L56.006 25.3736ZM54.7977 25.2257C54.7142 25.2257 54.5666 25.0843 54.5793 25.0203C54.5793 24.744 54.8234 24.7823 55.0935 24.8275C55.0935 25.0781 55.0805 25.2709 54.785 25.2257H54.7977ZM54.1551 25.1165L53.5124 25.3928L54.0715 26.1255C54.4636 26.2026 54.3543 25.4829 54.8813 25.6886C54.8491 25.8879 54.8172 26.1063 54.785 26.3313L53.1977 26.4275C53.1977 26.3505 53.1464 26.2799 53.1977 26.2412C53.5982 25.2043 53.7673 24.0922 53.6925 22.9831C53.6827 22.8053 53.6827 22.6275 53.6925 22.4496C53.8082 21.5629 53.9301 20.6761 54.0588 19.7955C54.0761 19.644 54.1291 19.4987 54.2129 19.3716C54.2129 20.0656 54.5409 20.7144 54.2708 21.4406C54.1902 21.8197 54.2054 22.213 54.316 22.5845C54.3592 22.7029 54.3771 22.829 54.3683 22.9548C54.3595 23.0803 54.3241 23.2028 54.2646 23.314C54.2051 23.4249 54.1229 23.522 54.0231 23.5991C53.9233 23.6761 53.8085 23.7311 53.686 23.7606C53.8661 23.8699 54.001 23.9086 54.0588 23.9983C54.1167 24.0883 54.1681 24.3068 54.1167 24.3519C53.8209 24.6026 53.8787 24.8597 54.1167 25.1165H54.1551ZM55.3825 21.3122C55.5239 22.1477 55.4982 22.1863 54.8621 22.1542C54.7594 21.5115 54.7594 21.5115 55.3442 21.3122H55.3825ZM56.2436 24.3263L54.6245 24.4033C54.6245 24.1654 54.6628 24.0178 54.682 23.7606L56.2693 23.4778C56.2436 23.7993 56.2244 24.037 56.2053 24.3263H56.2436ZM54.8364 23.3429C54.6115 22.7003 54.6628 22.6489 55.4082 22.5976V23.1824L54.8364 23.3429ZM56.4107 23.1567H55.768C55.9156 22.5732 55.955 21.9676 55.8838 21.3701C55.8838 21.0486 55.8838 21.0486 56.385 20.9972C56.3593 21.7169 56.3658 22.4175 56.3723 23.1567H56.4107ZM54.8364 21.0551C54.7915 20.7723 54.7529 20.5282 54.708 20.2584L55.3503 19.9691C55.3503 20.1618 55.4147 20.2967 55.4277 20.4316C55.4404 20.5669 55.4277 20.6631 55.4277 20.8045L54.8364 21.0551ZM56.3723 20.2389C56.3723 20.586 56.1409 20.5987 55.8516 20.6309C55.8035 20.4505 55.795 20.2613 55.8272 20.077C55.8594 19.8927 55.9312 19.7178 56.0382 19.5643L55.4917 19.262L54.7142 19.7441C54.7142 19.4291 54.6758 19.2302 54.6563 18.9474L56.1988 18.3817C56.2436 19.0693 56.2953 19.6541 56.3337 20.2389H56.3723ZM56.1858 18.0541L54.5858 18.5553C54.5858 18.3174 54.5858 18.1119 54.5279 17.9127L55.0357 17.7326L55.2411 18.176C55.3247 17.9062 55.3763 17.7521 55.4339 17.5785L55.9995 17.4628C56.0252 17.6429 56.083 17.8418 56.1474 18.0541H56.1858ZM54.393 17.2635C54.2643 17.0002 54.4509 16.878 54.7207 16.7944L54.9586 17.2443C54.6758 17.3666 54.4892 17.5336 54.3543 17.2635H54.393ZM55.8838 16.2675C55.8838 16.5181 55.8838 16.7688 55.8838 17.0772L55.2411 17.18C55.2037 17.1198 55.1803 17.0519 55.1732 16.9813C55.166 16.9105 55.1754 16.8393 55.2002 16.773C55.2252 16.7063 55.2648 16.6465 55.3165 16.5978C55.3682 16.5493 55.4303 16.5133 55.4982 16.4924C55.6166 16.4248 55.7303 16.3497 55.8389 16.2675L55.0483 16.2226C55.01 15.9977 54.9648 15.7919 54.9264 15.58L55.3955 15.4064L55.8454 16.2802L55.8838 16.2675ZM55.2668 14.2368C55.1898 15.1236 55.074 15.2263 53.9818 15.3807C53.9109 15.1879 53.8404 14.9887 53.7503 14.7381C54.0205 14.6646 54.2864 14.5768 54.5471 14.4744C54.7529 14.3782 54.9586 14.1724 55.2668 14.2368ZM53.0498 14.6353C53.0498 14.4361 53.0947 14.3268 53.1142 14.2111H53.4227C53.4997 13.9348 53.4227 13.5363 53.9109 13.4914C53.9753 13.639 54.0523 13.8061 54.1489 14.0375L53.0498 14.6353ZM55.0997 13.7869L54.5471 14.0245C54.471 13.8418 54.4213 13.6494 54.3995 13.4527C54.3995 13.3113 54.5728 13.1956 54.7399 12.9707C54.8686 13.2856 54.9713 13.4784 55.0935 13.7869H55.0997ZM54.6245 12.7135L54.1616 12.9323C54.0332 12.6878 53.9044 12.4567 53.789 12.2318C54.3351 11.7754 54.3995 11.8141 54.6245 12.7135ZM54.2194 11.5121L53.6538 11.8206L53.3391 11.1327L53.9366 10.7602C54.0523 11.0365 54.1294 11.2484 54.2324 11.5121H54.2194ZM53.8209 10.0532C53.776 10.3743 53.6219 10.5866 53.3583 10.6123C53.2169 10.6123 53.0563 10.4517 52.9084 10.3552C53.1399 9.90527 53.4549 9.96963 53.8339 10.0532H53.8209ZM53.1782 9.50055L52.6835 9.92477L52.5616 9.8604C52.5616 9.75118 52.5616 9.60978 52.6129 9.53891C52.6643 9.46837 52.9214 9.25643 53.1912 9.50055H53.1782ZM52.8122 8.9798L52.4072 9.23693C52.1757 9.05066 52.1757 8.88357 52.4072 8.74217C52.6386 8.60077 52.6965 8.76785 52.8122 8.9798ZM48.8405 4.69998C49.9643 5.58608 50.9899 6.58989 51.8994 7.6948C51.8994 7.6948 51.9703 7.75884 51.9703 7.79102C51.9703 7.8232 51.9703 8.02897 51.9703 8.15087C51.848 8.15087 51.6745 8.15087 51.6166 8.08033C51.366 7.77184 51.1605 7.43767 50.9291 7.1035C50.8072 6.92991 50.6785 6.73715 50.3251 6.84637C50.7188 7.54982 51.1657 8.22239 51.6618 8.85789L50.9226 9.21775C50.5757 8.61377 50.2799 8.02897 49.9009 7.45685C49.7429 7.25271 49.569 7.06124 49.3805 6.88506C49.0398 6.53138 48.7378 6.15885 48.3649 5.81818C48.2752 5.73984 48.2164 5.63224 48.1985 5.51457C48.181 5.39683 48.2057 5.27665 48.2687 5.17552L50.1258 6.62793C50.1661 6.4888 50.1583 6.33992 50.1034 6.20567C50.0488 6.07174 49.95 5.95991 49.8238 5.88872C49.3353 5.46474 48.8535 5.03415 48.3714 4.6036L48.4677 4.48147C48.5977 4.54434 48.7222 4.61741 48.8405 4.69998ZM46.9125 4.2887C46.9457 4.33831 46.9675 4.39464 46.9762 4.45361C46.985 4.51261 46.9805 4.57278 46.9632 4.6299C46.9463 4.68698 46.9164 4.73957 46.8768 4.78391C46.8368 4.82825 46.7877 4.86323 46.7328 4.88634C46.6814 5.27194 47.1888 5.52887 47.0026 5.92741L46.527 6.14585C46.7133 6.40298 46.3664 6.38998 46.3599 6.46084C46.37 6.63963 46.4158 6.81452 46.4948 6.97478C46.1607 7.34763 46.0323 6.57006 45.6659 6.85938L45.8843 7.39249L45.5889 7.72666L44.612 7.08432H44.5798C44.4319 7.29627 44.5798 7.41849 44.7213 7.55957C44.8627 7.70098 44.7918 7.84238 44.5412 7.92593C44.4063 7.72666 44.2587 7.50821 44.0594 7.19972L44.5798 7.08432C44.5932 6.99558 44.6371 6.91431 44.704 6.8545C44.771 6.79469 44.8565 6.7599 44.9462 6.75633C45.441 6.69847 45.7108 6.28075 46.0836 6.03663C46.1896 5.94236 46.2559 5.81168 46.2699 5.67028C46.3209 5.33861 46.3469 5.0035 46.3472 4.66786C46.3248 4.51667 46.2575 4.37566 46.1545 4.26299C45.8778 3.89027 45.5889 3.52395 45.2804 3.11908C45.6405 3.11885 45.9916 3.23158 46.2845 3.44138C46.5774 3.65118 46.7971 3.94751 46.9125 4.2887ZM43.7701 2.81062C44.2135 2.86204 44.4128 3.24761 44.6891 3.51751C44.9364 3.78199 45.1702 4.05869 45.3896 4.34654C45.3633 4.38574 45.333 4.42234 45.2996 4.45579C44.8597 4.31991 44.4719 4.05313 44.1878 3.69103C43.9573 3.29569 43.6271 2.96776 43.2302 2.73995C43.0592 2.61545 42.896 2.48022 42.7419 2.33508C43.3332 2.16799 43.4038 2.76563 43.7701 2.81062ZM41.8421 1.42251C41.8912 1.46971 41.9266 1.52923 41.9448 1.5948C41.9627 1.66037 41.9631 1.7296 41.9452 1.79527C41.8935 1.89165 41.6945 1.93664 41.5593 1.92377C41.4244 1.91093 41.3796 1.78883 41.296 1.70529L40.5633 0.998396C41.1289 1.15904 41.4953 1.2683 41.8678 1.42251H41.8421ZM21.9847 35.7137C21.7654 36.1721 21.4937 36.6034 21.1749 36.999L21.0657 36.9477C21.066 36.8427 21.0834 36.7383 21.1171 36.6392C21.6634 35.4244 22.2224 34.223 22.7558 33.0082C23.0129 32.4299 23.2121 31.8321 23.437 31.2411C23.5126 30.9954 23.6138 30.7584 23.7391 30.5341C24.3046 29.6922 24.5488 28.677 25.23 27.8991C25.4257 27.2535 25.7614 26.659 26.2132 26.1577C26.8559 25.2709 27.2222 24.2297 27.897 23.3816C28.8159 22.2182 29.6771 21.0102 30.5575 19.815C30.7053 19.6222 30.8467 19.4486 31.0973 19.4421C31.3029 19.6157 31.1744 19.7441 31.0973 19.8663C30.3133 20.8623 29.5164 21.8457 28.7581 22.8609C28.4047 23.3299 28.1154 23.8634 27.8263 24.3584C27.6849 24.5769 27.5242 24.7697 27.3764 25.0008C26.6438 26.0742 26.0911 27.2372 25.3907 28.349C24.7235 29.4737 24.1413 30.6466 23.6491 31.8578C23.0836 33.1174 22.5309 34.4157 21.9847 35.7137ZM46.4691 33.5546C45.8704 34.8946 45.0317 36.1142 43.9951 37.1531C43.8666 37.2754 43.7314 37.3781 43.5965 37.4938L43.4616 37.3976C43.5708 37.224 43.6739 37.0439 43.7893 36.8768C44.3035 36.0993 44.8627 35.3474 45.3317 34.5506C45.9422 33.5094 46.4756 32.4234 47.0604 31.3373C47.4138 30.7171 47.6921 30.0569 47.8894 29.371C48.0548 28.8645 48.27 28.376 48.532 27.9121C48.8327 27.5119 48.979 27.0169 48.9432 26.5175C49.3096 26.5689 49.2839 26.8195 49.2199 27.0123C49.0798 27.404 48.9098 27.784 48.7121 28.1497C48.4098 28.674 48.2336 29.2614 48.1979 29.8657C48.1689 30.1193 48.088 30.3644 47.9602 30.5855C47.4782 31.5753 46.9447 32.5518 46.4691 33.5546ZM31.0137 21.0037C31.1616 21.492 30.8531 21.7364 30.6924 22.0254C30.3454 22.6297 29.9662 23.208 29.5871 23.7863C29.2079 24.3646 28.7452 24.9302 28.3725 25.5342C27.7299 26.5624 26.8816 27.4622 26.496 28.6253C26.4883 28.6656 26.4706 28.703 26.4446 28.7345C25.6413 29.4415 25.5385 30.5149 25.0565 31.3887C25.0319 31.4423 24.997 31.4904 24.9537 31.5301C24.9537 31.5301 24.883 31.5301 24.7609 31.5301C24.7761 31.0249 24.9246 30.5328 25.1915 30.1034C25.6542 29.1782 26.1104 28.2528 26.6438 27.3787C27.1772 26.5049 27.7299 25.8427 28.2761 25.046C28.7003 24.4033 29.0923 23.7606 29.5164 23.118C29.9405 22.4753 30.3711 21.8779 30.8017 21.2544C30.8467 21.19 30.9045 21.0486 31.0137 21.0037ZM31.0459 36.6135C31.0799 36.4786 31.1318 36.3489 31.2001 36.228C31.8428 35.3604 32.5367 34.5054 33.1667 33.6573C33.7964 32.8089 34.3106 31.9413 34.8954 31.0867C35.3515 30.444 35.8271 29.763 36.29 29.0947C36.3862 28.9533 36.4762 28.7924 36.5663 28.6448L37.0097 27.8929L37.1959 27.97C37.1303 28.2495 37.0399 28.5226 36.9261 28.7862C36.7269 29.1526 36.4632 29.4802 36.2383 29.8336C36.0133 30.1869 35.8722 30.4762 35.6665 30.7974C35.4607 31.1189 35.146 31.5945 34.8697 31.98C34.5931 32.3655 34.2271 32.886 33.8672 33.304C33.8237 33.3391 33.7879 33.383 33.7616 33.4324C33.7356 33.4818 33.7196 33.5361 33.7148 33.5917C33.7102 33.6476 33.7164 33.7035 33.734 33.7568C33.7512 33.8101 33.7788 33.8592 33.8155 33.9015C33.2116 34.0172 33.0058 34.512 32.7168 34.917C32.4276 35.3217 32.2348 35.6432 31.9777 36.003C31.8727 36.1633 31.7357 36.3002 31.5754 36.4051C31.4151 36.5101 31.2348 36.581 31.0459 36.6135ZM30.1012 34.904C31.4829 32.912 32.5432 30.7077 34.0213 28.7862L34.124 28.8311C34.1276 28.848 34.1276 28.8655 34.124 28.8824C34.1335 28.9205 34.1335 28.9601 34.124 28.9981C33.9199 29.4698 33.6881 29.9291 33.43 30.3735C32.3954 31.967 31.5022 33.6638 30.2169 35.0711C30.1848 35.1097 30.1141 35.1159 30.0241 35.1546C30.0323 35.0607 30.0585 34.969 30.1012 34.8848V34.904ZM38.4556 30.0198C38.1598 30.4375 37.8129 30.8426 37.5623 31.2668C37.4144 31.4917 37.3438 31.7742 37.1894 31.993C36.7652 32.7055 36.2724 33.3749 35.7178 33.9915C35.146 34.5506 34.7088 35.2125 34.1692 35.7843C34.0467 35.9006 33.9179 36.0099 33.7837 36.1123L33.655 35.9835C34.2654 35.219 34.8889 34.4606 35.4737 33.67C36.0585 32.8798 36.656 31.9992 37.2281 31.1511C37.5366 30.6882 37.8064 30.2064 38.0957 29.7373C38.1458 29.6512 38.2111 29.5748 38.2885 29.5124C38.3398 29.4737 38.4621 29.448 38.5004 29.4802C38.5391 29.5124 38.6418 29.6473 38.6292 29.7178C38.6012 29.8206 38.5531 29.9168 38.4877 30.0007L38.4556 30.0198ZM37.0932 38.4384C36.0907 39.4988 35.0173 40.5013 33.9699 41.5233C33.8679 41.5971 33.758 41.6599 33.6423 41.7096C33.4108 41.4973 33.3273 41.3303 33.5714 41.1375C33.9313 40.8612 34.2719 40.5527 34.6448 40.3021C35.8355 39.4767 36.8692 38.445 37.6972 37.2562C38.2628 36.4786 38.7319 35.6302 39.3293 34.6855C39.2331 34.981 39.1883 35.1546 39.1239 35.3282C38.6565 36.4877 37.9667 37.5442 37.0932 38.4384ZM45.3639 32.3785C45.7202 31.6673 46.0336 30.9356 46.3021 30.1869C46.3245 30.066 46.3876 29.9564 46.4812 29.8768C46.5751 29.7972 46.6934 29.7526 46.8163 29.75C46.7682 30.0826 46.6886 30.4096 46.5784 30.7269C46.3277 31.2668 46.0001 31.7681 45.7368 32.295C45.5375 32.6805 45.4153 33.1047 45.2033 33.4773C44.8305 34.1199 44.4128 34.7626 44.0016 35.4052C43.9118 35.5574 43.8062 35.6994 43.6866 35.8294C43.5325 35.99 43.3589 36.1379 43.1983 36.292L43.0953 36.215C43.1209 36.1168 43.1577 36.0222 43.2045 35.9322C43.9245 34.7434 44.6891 33.5865 45.3639 32.3785ZM34.8889 37.4554C35.3772 36.8833 35.7887 36.3372 36.2705 35.8551C37.1273 34.9303 37.8935 33.9252 38.5583 32.8541C38.661 32.6997 38.7767 32.5518 38.8925 32.4042L39.0147 32.4682C38.9136 32.7813 38.78 33.083 38.6161 33.368C37.9914 34.4216 37.2405 35.3948 36.3797 36.2663C36.289 36.3697 36.1827 36.4588 36.065 36.53C35.9363 36.5797 35.8196 36.6564 35.7234 36.7552C35.6268 36.8537 35.5527 36.9721 35.5059 37.1018C35.4682 37.2289 35.3833 37.3365 35.2683 37.4025C35.1532 37.4681 35.0173 37.4873 34.8889 37.4554ZM42.4142 40.7906C42.3372 40.8674 42.2702 40.9538 42.215 41.0478C41.4846 41.3933 40.8507 41.9144 40.3705 42.5642C40.0621 42.4615 40.0494 42.243 40.2035 42.063C40.419 41.7834 40.6823 41.5442 40.981 41.3563C42.278 40.6652 43.4389 39.7439 44.4063 38.6377C44.4771 39.0362 44.4771 39.0684 44.143 39.3509C43.5965 39.8265 43.0117 40.3086 42.4142 40.7906ZM27.8327 29.4737C28.8545 27.9056 29.8699 26.3313 30.9495 24.6604C30.964 24.8262 30.951 24.9936 30.9109 25.1552C30.551 25.8622 30.1783 26.5624 29.7927 27.2568C29.6385 27.5331 29.4264 27.7707 29.2658 28.0405C28.9187 28.677 28.3082 29.0046 27.8584 29.5059L27.8327 29.4737ZM39.3937 41.4076L42.2277 38.7343C42.3372 38.9013 42.2728 39.0619 42.1506 39.229C41.9452 39.518 41.7459 39.8203 41.5466 40.1093C41.4888 40.1863 41.4244 40.2894 41.3474 40.3216C40.7753 40.5992 40.2639 40.988 39.8436 41.4655C39.7087 41.6261 39.5351 41.7161 39.3937 41.4076ZM48.23 23.825H48.0951C48.0639 23.6121 48.0487 23.3972 48.05 23.1824C48.1562 22.0774 48.1562 20.9647 48.05 19.8598C48.05 19.8598 48.0951 19.802 48.153 19.7376C48.5385 19.8407 48.5707 20.2389 48.5642 20.4833C48.5818 21.6061 48.4696 22.7276 48.23 23.825ZM45.4345 29.8723L45.8008 28.8181L46.7841 25.9906C46.8934 26.0924 46.9688 26.2253 46.9997 26.3713C47.0309 26.5172 47.0162 26.6694 46.9577 26.8069C46.6463 27.7869 46.253 28.7394 45.7816 29.6538C45.7439 29.7139 45.6932 29.765 45.6331 29.8027C45.5733 29.8407 45.5053 29.8645 45.4345 29.8723ZM34.2589 36.8706C34.6318 36.4591 35.0238 36.0609 35.4028 35.6559C35.4584 35.5713 35.5306 35.4992 35.6151 35.4439C35.7178 35.3926 35.9041 35.309 35.9558 35.3539C36.1164 35.4953 36.0007 35.6367 35.8784 35.7524L35.448 36.1636L33.2759 38.2714C33.1537 38.3871 33.0575 38.5285 32.9418 38.6569L32.8069 38.5415C33.2886 37.9886 33.7707 37.4233 34.2589 36.8706ZM39.5159 37.3332C39.1818 37.6352 39.0147 38.1365 38.4234 38.2779L41.9965 33.9463C41.8886 34.3754 41.6793 34.7723 41.3861 35.1032C41.0841 35.4696 40.8013 35.8551 40.4989 36.2215C40.1957 36.6125 39.867 36.9841 39.5159 37.3332ZM32.2027 41.221C32.2027 41.1248 32.2027 41.0348 32.2476 41.0026C33.2376 40.3056 34.1624 39.5206 35.0108 38.6569C35.0108 38.6569 35.0882 38.6569 35.1779 38.612C34.9468 39.3769 33.6036 40.5465 32.2027 41.221ZM42.8255 34.9748C42.5222 35.9858 41.8798 36.8619 41.0067 37.4554C41.4803 36.5388 42.0941 35.702 42.8255 34.9748ZM46.9577 29.1074C47.1469 28.1764 47.4066 27.2613 47.7353 26.3696C48.05 26.4405 48.1016 26.5819 48.0438 26.7555C47.9537 27.0575 47.8445 27.353 47.7288 27.6423C47.6131 27.9313 47.4525 28.3812 47.2981 28.741C47.2262 28.8961 47.1069 29.0242 46.9577 29.1074ZM43.7444 33.6508C44.0087 32.768 44.3868 31.9234 44.8692 31.1381C45.1777 31.5753 44.927 31.8899 44.8113 32.1536C44.6003 32.7397 44.2337 33.2572 43.7509 33.6508H43.7444ZM48.7378 32.6227L49.5667 31.1959H49.7016C49.728 31.3471 49.728 31.5012 49.7016 31.6523C49.4832 32.1149 49.3353 32.5261 48.7443 32.6227H48.7378ZM31.4893 40.8934C31.8477 40.3255 32.3795 39.8886 33.0058 39.6467C32.5926 40.1629 32.076 40.5878 31.4893 40.8934ZM31.5536 38.5415C31.7625 38.0757 32.1353 37.7028 32.6011 37.4938C32.3532 37.9313 31.9912 38.2935 31.5536 38.5415ZM42.2793 37.2562L42.3821 37.3332L41.611 38.3035C41.6624 37.8536 41.6624 37.8536 42.2793 37.2562ZM37.6458 6.53138L37.5493 6.56356C37.5493 6.48652 37.5044 6.40948 37.4787 6.33244L37.575 6.30026C37.601 6.40948 37.6266 6.45434 37.6458 6.53138ZM15.4233 46.086C15.4553 46.0899 15.4861 46.101 15.5133 46.1182C15.5133 46.1565 15.5133 46.2017 15.5133 46.2209L15.1984 46.4842C15.1598 46.4202 15.0892 46.3493 15.102 46.298C15.1071 46.2619 15.1198 46.2274 15.1393 46.1965C15.1588 46.166 15.1846 46.1396 15.2149 46.1195C15.2453 46.0997 15.2796 46.0863 15.3155 46.0805C15.3514 46.0746 15.3882 46.0766 15.4233 46.086Z" fill="#101A24"/>
</g>
</svg>
