<svg width="66" height="122" viewBox="0 0 66 122" fill="none" xmlns="http://www.w3.org/2000/svg">
<g opacity="0.1">
<path d="M64.8279 61.213C64.2697 61.7257 63.6813 62.2042 63.0653 62.6458C60.5967 64.3475 58.1214 66.0092 55.6122 67.6911C54.9273 68.1304 54.1907 68.4828 53.4193 68.7405C52.1564 69.2104 50.9584 69.8389 49.854 70.6103C48.2194 71.6934 46.6051 72.8032 44.9637 73.8795C43.9513 74.4928 42.8253 74.8956 41.6539 75.0636C39.9571 75.443 38.2909 75.949 36.6693 76.577C35.7209 76.9136 34.7522 77.2029 33.797 77.5255C32.1245 78.0603 30.5728 78.9173 29.2292 80.0481C27.7091 81.3935 26.7066 83.0484 25.5428 84.6159C25.5027 84.6763 25.5428 84.7705 25.4756 85.0259C25.8388 84.7367 26.0947 84.5416 26.3434 84.3532C27.6618 83.1358 29.1234 82.0833 30.6958 81.2187C31.8258 80.6537 32.9896 80.1693 34.1264 79.6246C35.0347 79.1939 35.9228 78.7163 36.8171 78.2788C38.1819 77.5011 39.6813 76.9902 41.2367 76.7721C42.2851 76.5829 43.3178 76.313 44.3243 75.9652C46.4974 75.4335 48.67 74.8888 50.8628 74.4247C51.5315 74.3193 52.2123 74.3193 52.8809 74.4247C53.1769 74.4247 53.4459 74.7203 53.7892 74.9091C53.6279 75.1713 53.5603 75.4065 53.399 75.5277C51.9595 76.7654 50.3789 77.8287 48.6902 78.696C47.4994 79.2543 46.4032 80.0013 45.2462 80.6402C44.5127 81.0439 43.7458 81.3935 43.0127 81.7905C42.0508 82.3018 41.1024 82.8466 40.1472 83.3715C39.6052 83.5711 39.1005 83.8599 38.6536 84.2257C38.2693 84.6258 37.8129 84.9498 37.3082 85.1809C36.7793 85.4756 36.3152 85.8743 35.9444 86.3528C35.5731 86.8313 35.3028 87.3801 35.1491 87.9658C35.0442 88.3119 34.9022 88.6457 34.7252 88.9611C34.0286 90.2114 33.1987 91.382 32.2498 92.4525C31.5771 93.2126 31.0387 94.0668 30.4066 94.8472C29.9713 95.3969 29.4996 95.9159 28.9941 96.4012C27.7627 97.5447 26.4916 98.6414 25.267 99.7646C24.415 100.572 23.5878 101.406 22.7849 102.267C21.8599 103.32 20.8299 104.276 19.7108 105.12C18.3248 106.115 16.9795 107.178 15.5534 108.126C14.7636 108.655 13.9089 109.08 13.0109 109.391C12.0522 109.733 11.2605 110.428 10.7978 111.335C9.97685 112.741 9.1091 114.12 8.34225 115.553C7.66956 116.898 7.07076 118.243 6.39132 119.589C6.10431 120.1 5.77811 120.588 5.41631 121.049C5.32214 121.192 5.18292 121.299 5.02072 121.354C4.85897 121.409 4.68279 121.408 4.52149 121.351C4.2525 121.277 3.97676 121.21 3.70732 121.129C2.54353 120.78 2.36196 119.784 2.85307 118.775C3.86908 116.757 5.01937 114.846 6.07548 112.869C6.4089 112.191 6.70761 111.498 6.96984 110.79C7.01715 110.689 7.01715 110.561 7.07753 110.481C7.83762 109.391 8.04621 108.119 8.42288 106.882C8.61481 106.04 8.61481 105.167 8.42288 104.326C8.22103 103.054 8.01965 101.783 7.89169 100.505C7.67812 98.8739 7.56143 97.232 7.54206 95.5875C7.56819 92.2718 8.12191 88.9814 9.18298 85.8401C9.69436 84.4208 10.4076 83.0755 10.9996 81.6828C11.4502 80.6267 11.8607 79.5503 12.2707 78.4739C12.6811 77.398 13.0781 76.3148 13.5088 75.252C13.603 75.0298 13.8382 74.8685 14.1139 74.5793C14.2283 74.8266 14.3144 75.0862 14.3698 75.3529C14.4099 76.2139 14.4302 77.0817 14.4302 77.9427C14.4302 79.7859 14.4707 81.6359 14.3631 83.4724C14.2216 85.9275 13.9391 88.3763 13.744 90.8314C13.6904 91.4703 13.744 92.1164 13.744 92.762C13.7278 93.2644 13.653 93.7632 13.5219 94.2489C13.1592 95.4586 12.9091 96.6995 12.7753 97.9552C12.6099 99.0874 12.3851 100.21 12.1026 101.319C12.1026 101.453 12.0625 101.588 12.0287 101.837C12.4031 101.613 12.678 101.254 12.7956 100.834C13.1727 99.3893 13.8796 98.0516 14.8605 96.9261C15.261 96.3899 15.5242 95.7641 15.6273 95.1031C15.849 94.2011 16.1319 93.3158 16.4753 92.4525C17.0335 91.0197 17.6521 89.6072 18.2577 88.1943C18.5001 87.6292 18.7961 87.0913 19.0448 86.5263C19.5269 85.5391 19.7797 84.456 19.7846 83.358C19.7982 82.3419 20.0108 81.3386 20.4105 80.4045C21.4328 77.7138 22.4285 75.0636 23.5788 72.4265C24.1303 71.1217 24.9242 69.8975 25.5428 68.626C26.1618 67.3545 26.8075 65.9957 27.514 64.7174C28.3281 63.2513 29.209 61.8185 30.097 60.3921C30.7697 59.2688 31.523 58.1857 32.2565 57.0895C32.3579 56.9728 32.4728 56.8687 32.5994 56.7799C32.6837 56.8236 32.758 56.884 32.8188 56.957C32.8797 57.0295 32.9256 57.1138 32.954 57.2048C32.982 57.2954 32.9919 57.3904 32.9829 57.4851C32.9743 57.5797 32.9468 57.6716 32.9022 57.7554C32.6598 58.529 32.4314 59.3094 32.1957 60.0961C31.523 62.3029 30.9112 64.516 30.2453 66.7157C29.3031 69.8033 28.3281 72.8775 27.3725 75.9584C27.0724 76.9015 26.8233 77.8607 26.6259 78.8307C26.9557 78.4473 27.2986 78.0774 27.6081 77.6669C28.6642 76.2274 29.6735 74.7541 30.7494 73.3281C31.651 72.1237 32.6332 70.9734 33.5614 69.7831C33.8367 69.3785 34.0624 68.9428 34.2341 68.4846C34.8847 66.8698 35.3776 65.1959 35.7074 63.4865C35.9259 62.27 35.9259 61.0238 35.7074 59.8068C35.5591 58.6232 35.2767 57.4459 35.2095 56.255C35.0726 54.8299 35.1316 53.3926 35.3843 51.9837C35.3843 51.822 35.4452 51.6539 35.465 51.4859C35.5862 50.4365 35.6403 49.3736 35.8349 48.331C36.0678 47.083 36.0079 45.798 35.6601 44.5774C35.3537 43.2636 35.3677 41.8957 35.7006 40.5882C35.7119 40.5039 35.7367 40.4224 35.7745 40.3462C36.4472 39.0815 36.8306 37.6888 37.6448 36.4985C37.8196 36.2493 37.9408 35.9668 38.0953 35.7046C38.2499 35.4424 38.5193 35.3347 38.768 35.6172C38.9411 35.8222 39.0649 36.0637 39.1312 36.3237C39.3195 37.1374 39.5011 37.9583 39.6223 38.7855C39.7435 39.6127 39.7773 40.5075 39.8579 41.3618C39.8579 41.752 39.9855 42.1354 39.999 42.5256C40.0778 43.196 40.0778 43.8732 39.999 44.5437C39.8201 45.5678 39.7949 46.6131 39.9251 47.6448C40.0328 48.6469 40.1472 49.6629 40.3085 50.6384C40.3892 51.1628 40.5978 51.6607 40.7054 52.1856C40.86 52.9186 40.9744 53.6652 41.1091 54.4122C41.1091 54.5127 41.1492 54.6136 41.1898 54.8425C41.6336 54.2708 41.9976 53.6418 42.2729 52.9723C42.9051 51.7211 43.5174 50.4635 44.1833 49.2254C44.7821 48.1157 45.4345 47.0325 46.0599 45.9431C46.1405 45.7633 46.2423 45.5939 46.3626 45.4385C47.0466 44.5527 47.6413 43.602 48.1388 42.5995C48.9998 41.1937 49.8811 39.8011 50.7552 38.4021C51.6297 37.0026 52.4506 35.7113 53.2981 34.366C54.3339 34.366 54.5628 34.6552 54.3006 35.6172C54.1321 36.2425 53.8969 36.8481 53.7419 37.4739C53.4797 38.5634 53.1972 39.6465 53.0156 40.7562C52.7809 42.3413 52.278 43.8741 51.5288 45.2902C50.7218 46.7636 50.0694 48.3243 49.3224 49.831C48.7574 50.961 48.1388 52.0644 47.5602 53.1944C47.271 53.7661 47.0083 54.3582 46.7461 54.9435C46.2806 55.918 45.8869 56.925 45.5688 57.9572C45.7868 57.8207 45.9959 57.6702 46.1946 57.5062C47.4458 56.3424 48.6767 55.1656 49.9212 54.0018C50.3717 53.5778 50.8628 53.2011 51.2665 52.7641C52.3632 51.681 53.4396 50.5843 54.5088 49.4813C56.4326 47.5169 58.3367 45.5394 60.2741 43.5885C60.5656 43.3771 60.8878 43.2113 61.2293 43.0974C61.4194 43.4064 61.5375 43.7543 61.5749 44.1156C61.6123 44.4765 61.5677 44.8415 61.4442 45.1825C60.9842 47.1254 60.061 48.9276 58.7535 50.4365C57.6771 51.7819 56.6886 53.2214 55.6726 54.6272C54.2601 56.5713 53.0625 58.6633 51.3337 60.379C51.1327 60.6007 50.907 60.7994 50.661 60.9706C49.1264 62.0492 47.7022 63.2775 46.41 64.6368C46.0986 64.9161 45.744 65.1437 45.3602 65.3095C44.1919 65.8339 43.0993 66.5125 42.1112 67.3275C41.2722 67.9772 40.3986 68.5814 39.4943 69.137C38.1228 69.9083 36.9397 70.9743 36.03 72.2584C35.9426 72.3999 35.7813 72.5071 35.7475 72.7563C36.2386 72.467 36.7432 72.1913 37.2208 71.8683C38.9564 70.6977 40.6874 69.5186 42.414 68.33C43.275 67.8078 44.0837 67.2045 44.8289 66.5273C45.3151 66.0533 45.9152 65.7127 46.5713 65.5383C47.6341 65.2018 48.5893 64.5967 49.6522 64.2331C51.2526 63.6383 52.8881 63.1418 54.5493 62.7467C56.0326 62.4538 57.468 61.9555 58.8143 61.2666C59.774 60.8061 60.7891 60.4714 61.8344 60.2713C62.5071 60.1163 63.1798 59.9347 63.8525 59.8406C64.1809 59.8099 64.5112 59.878 64.8009 60.0357C64.9077 60.0915 64.9973 60.1749 65.0608 60.2767C65.1239 60.379 65.1591 60.4961 65.1618 60.6164C65.1645 60.7367 65.1352 60.8552 65.0762 60.9602C65.0176 61.0652 64.932 61.1522 64.8279 61.213ZM16.8249 70.4891C17.8396 69.5645 18.7551 68.5368 19.5562 67.4217C19.8991 66.9108 20.2289 66.3791 20.5988 65.9015C21.6013 64.6296 22.5011 63.2802 23.2895 61.8654C24.6831 59.554 25.7577 57.0651 26.4849 54.4659C26.5651 54.1726 26.5858 53.8657 26.5453 53.5643C26.4745 53.3395 26.3628 53.13 26.2155 52.9457C26.0141 53.0669 25.7514 53.134 25.6239 53.3088C24.7291 54.4929 23.8072 55.6634 23.0138 56.9146C22.643 57.5418 22.1956 58.1203 21.6819 58.6367C20.7533 59.4774 20.1009 60.5403 18.9912 61.213C18.9236 61.2531 18.8835 61.341 18.8295 61.4013C18.0964 62.2826 17.3899 63.1905 16.6096 64.0317C15.5399 65.1752 14.4032 66.2579 13.3069 67.3951C12.7753 67.9331 12.2306 68.4643 11.753 69.0428C11.1614 69.8245 10.4847 70.5373 9.73493 71.1685C9.1884 71.6074 8.66934 72.0791 8.18093 72.5815C7.34695 73.402 6.52602 74.2427 5.70555 75.0907C5.19102 75.6029 4.70351 76.1418 4.24575 76.705C3.50548 77.6467 2.81973 78.6221 2.09973 79.5773C2.09973 79.5773 1.99883 79.5773 1.88438 79.5773C1.89204 79.4142 1.91455 79.252 1.95195 79.093C2.44306 77.512 2.94725 75.9314 3.44511 74.3842C3.98804 72.4878 5.07839 70.7937 6.58011 69.5141C7.60918 68.6531 8.56438 67.6974 9.60697 66.8233C10.6496 65.9488 11.894 65.1482 12.9704 64.2268C14.0468 63.3049 15.1768 62.1682 16.2667 61.1256C16.8114 60.6074 17.3228 60.0424 17.9013 59.5648C19.267 58.4321 20.5317 57.1827 21.6819 55.8315C22.0158 55.4093 22.3127 54.9592 22.5695 54.4861C22.9129 53.9144 23.1886 53.3021 23.5315 52.7235C24.3993 51.2502 25.2806 49.7841 26.1618 48.3243C26.4241 47.8936 26.7133 47.4768 26.949 47.0325C27.4937 45.9899 28.0186 44.9338 28.543 43.8845C29.0679 42.8351 29.5793 41.8259 30.07 40.7833C30.2385 40.4201 30.4404 40.0164 30.1511 39.6195C29.3369 39.5388 29.3302 39.5321 28.9062 40.057C28.6575 40.3598 28.4421 40.6891 28.2335 40.9919C27.5608 41.8259 26.9355 42.6738 26.256 43.4875C25.7153 44.1661 25.1287 44.8063 24.5002 45.4047C23.0674 46.7032 21.5607 47.9138 20.128 49.2056C18.446 50.7258 16.8046 52.2933 15.1565 53.8468C14.3631 54.5938 13.5624 55.3336 12.8226 56.141C11.6656 57.4008 10.5441 58.688 9.45918 60.0019C8.63827 60.9976 7.89168 62.0199 7.12482 63.0828C6.76167 63.5672 6.41835 64.0785 6.06872 64.5764L5.8939 64.5025C5.98131 64.1389 6.08898 63.7825 6.15611 63.4126C6.55981 61.199 7.28749 59.0571 8.31522 57.0557C8.46435 56.7538 8.59681 56.4438 8.71215 56.1275C9.30418 54.6073 9.86917 53.0867 10.468 51.5733C11.033 50.1675 11.625 48.7748 12.2238 47.3826C12.4392 46.8848 12.5198 46.2927 13.1317 46.0373C13.2326 45.9899 13.2799 45.8084 13.347 45.6872C13.6093 45.0686 13.9256 44.463 14.282 43.8507C14.523 43.3726 14.8136 42.9221 15.1497 42.5053C16.4883 40.991 18.1505 39.7979 20.0135 39.0144C20.9282 38.6107 21.8027 38.0993 22.7043 37.669C23.153 37.3829 23.6536 37.1887 24.1776 37.0968C25.0922 36.9963 26.0005 36.8143 26.9084 36.6327C27.9596 36.3218 29.0567 36.1966 30.1511 36.2628C30.2597 36.2867 30.3719 36.2867 30.4804 36.2628C31.7519 35.9132 33.0369 35.5901 34.2814 35.1864C36.1043 34.5678 37.9138 33.8816 39.7232 33.2089C41.1628 32.6705 42.5955 32.0988 44.0283 31.5473C44.3176 31.4396 44.6136 31.3522 44.8961 31.2247C46.1275 30.6795 47.3246 30.0676 48.5826 29.6031C49.2958 29.3409 49.9815 28.843 50.8295 29.0719C50.9435 29.0719 51.0985 28.998 51.2264 28.9439C51.8653 28.6682 52.511 28.3925 53.1436 28.0897C53.3783 28.0135 53.5878 27.8739 53.7487 27.686C53.928 27.403 54.2024 27.1931 54.5223 27.0939C54.6908 27.0133 54.798 26.8047 54.9395 26.6569C54.7931 26.5019 54.6255 26.3681 54.4416 26.26C54.2772 26.2289 54.1082 26.2289 53.9438 26.26C52.8205 26.26 51.704 26.26 50.5803 26.26C50.0014 26.169 49.4174 26.1108 48.8313 26.0851C47.717 26.1653 46.6177 26.3915 45.562 26.7578C43.2232 27.5468 40.7838 28 38.3175 28.1032C38.176 28.1032 38.035 28.1032 37.8935 28.0626C36.6693 28.0158 35.4317 27.8878 34.207 27.9351C31.1545 28.123 28.165 28.8854 25.395 30.1816L25.1593 30.2758C23.4229 30.9953 21.768 31.8974 20.2221 32.9665C20.0671 33.0675 19.9126 33.1549 19.6369 33.3166C19.667 33.1409 19.7098 32.9679 19.7643 32.7985C20.3298 31.6081 20.8881 30.4105 21.4733 29.2332C22.0586 28.0559 22.8187 26.7646 23.3499 25.4661C23.9451 23.9279 24.2902 22.3041 24.3727 20.6564C24.3857 20.3216 24.4398 19.9895 24.534 19.6678C24.9845 18.2752 25.422 16.8762 25.9397 15.5105C26.4948 13.9845 26.8147 12.3832 26.8881 10.7612C26.8859 10.4246 26.9174 10.089 26.9823 9.75914C27.4486 7.91005 28.0862 6.10826 28.8864 4.37766C29.4108 3.24045 29.7808 2.02304 30.2318 0.832214C30.2642 0.757872 30.2808 0.677675 30.2808 0.596574C30.2808 0.515924 30.2646 0.435273 30.2322 0.36093C30.2002 0.286588 30.1529 0.219453 30.0939 0.164034C30.0349 0.108615 29.965 0.0658124 29.8884 0.0387789C29.5658 -0.102697 29.3906 0.173046 29.2157 0.381655C28.8458 0.805631 28.4827 1.22916 28.0857 1.61934C27.1508 2.54795 26.1281 3.39544 25.2738 4.38397C24.2718 5.54776 23.404 6.826 22.4889 8.07045C21.6774 9.10718 20.957 10.2124 20.3366 11.3735C19.7711 12.5639 19.3336 13.8106 19.0313 15.0933C18.3586 17.6498 17.6188 20.1855 16.8853 22.7217C16.6366 23.5895 16.3135 24.4302 16.0112 25.3453C15.9103 24.9011 15.8224 24.4974 15.735 24.1009C15.3029 22.5911 15.0767 21.0294 15.0623 19.4592C15.0722 18.6428 15.0047 17.8273 14.8605 17.024C14.8361 16.8937 14.7834 16.7707 14.7068 16.6626C14.6302 16.5549 14.5311 16.4648 14.4167 16.3986C14.1139 16.2774 13.9256 16.5802 13.798 16.8356C13.6881 17.0343 13.6003 17.2438 13.5354 17.4614C13.1925 19.0217 12.8226 20.5757 12.5333 22.1702C12.3716 23.0511 12.3986 23.9662 12.2774 24.861C12.0958 26.2064 11.8539 27.5112 11.6047 28.8363C11.6047 28.9372 11.5579 29.0314 11.5038 29.2602L11.2213 28.8363C10.7838 27.9901 10.2585 27.1917 9.65427 26.4551C9.5155 26.282 9.41232 26.0829 9.3515 25.8698C9.21002 25.5066 9.13612 25.1097 8.96806 24.7668C8.36161 23.3759 7.89935 21.9265 7.58891 20.4414C7.31543 19.3651 7.0194 18.2909 6.70086 17.219C6.15658 15.2713 5.90021 13.2541 5.94076 11.232C5.94076 10.5593 5.86012 9.82628 6.37826 9.27479C5.97456 8.64221 5.75918 8.52776 5.51047 8.86433C4.81796 9.75103 4.29757 10.7594 3.97677 11.8376C3.65237 13.2325 3.56812 14.6725 3.72762 16.0958C3.79295 16.9942 3.66228 17.8962 3.34419 18.7392C2.81568 20.0742 2.66428 21.5286 2.90713 22.9438C3.24325 24.5582 3.57982 26.1726 4.0439 27.7603C4.40029 29.0651 4.89142 30.3299 5.34198 31.6955C4.3129 30.9688 3.37122 30.3501 2.45613 29.6775C0.687239 28.3654 -1.3984 27.9081 -3.49034 27.4841C-5.23806 27.2111 -6.95334 26.7601 -8.60959 26.1388C-9.67246 25.7017 -10.7754 25.3584 -11.8653 25.002C-12.0807 24.9281 -12.4907 24.9146 -12.538 25.002C-12.6471 25.2705 -12.6777 25.5648 -12.6254 25.8495C-12.575 26.0685 -12.4763 26.273 -12.3362 26.4483C-11.9649 26.9782 -11.4711 27.4098 -10.8966 27.7063C-9.827 28.3186 -8.72358 28.9237 -7.66747 29.5964C-5.84046 30.7948 -3.89541 31.8023 -1.86248 32.6034C0.0352707 33.3265 1.78886 34.3813 3.31716 35.7181C4.74047 37.0265 6.0169 38.4859 7.12482 40.0705C7.74164 40.7977 8.25349 41.6087 8.64502 42.4787C8.7865 42.8689 9.04872 43.2118 9.22354 43.5952C9.32987 43.8182 9.38708 44.0611 9.39159 44.3085C9.32446 46.9113 8.29538 49.2389 7.25278 51.7684C7.13834 51.3917 7.07076 51.1898 7.0239 50.988C6.7414 49.7638 6.47243 48.5329 6.17641 47.3083C5.85336 45.9629 5.50371 44.6175 5.1739 43.3195C5.10001 43.0167 5.06623 42.7072 4.96531 42.4179C4.78374 41.8799 4.51474 41.8259 4.12456 42.2161C3.9966 42.344 3.82855 42.4247 3.70059 42.5594C3.57308 42.6937 3.35769 42.8752 3.33066 43.0573C3.22297 43.7299 3.16938 44.4427 3.12207 45.1424C3.07521 45.8422 3.12206 46.3666 3.03465 46.9722C2.68502 49.589 2.30836 52.1923 1.93845 54.802C1.93845 55.0376 1.81048 55.2597 1.7028 55.6698L1.53475 55.1989C0.962988 53.5107 0.915676 51.7346 0.5728 50.0058C0.392126 48.8677 0.131254 47.744 -0.207565 46.6423C-0.528364 45.748 -0.780224 44.8307 -0.960899 43.898C-1.09562 42.9216 -1.42228 41.9822 -1.92285 41.1334C-2.44099 40.3665 -2.94518 39.5929 -3.47008 38.8391C-4.33109 37.5879 -5.19209 36.3435 -6.07339 35.1125C-6.84294 33.9668 -7.91033 33.053 -9.16108 32.4691C-9.42015 32.3686 -9.65083 32.2073 -9.83375 31.9978C-10.0352 31.7617 -10.2956 31.5829 -10.5889 31.4801C-10.8818 31.3774 -11.1971 31.354 -11.5022 31.413C-12.0739 31.413 -12.3227 31.9239 -12.0064 32.4286C-11.7595 32.7994 -11.4729 33.1423 -11.1521 33.4509C-10.597 33.9199 -10.1397 34.4935 -9.80672 35.1396C-9.55801 35.7046 -9.30886 36.2696 -9.13405 36.8549C-8.91147 37.4379 -8.72945 38.0358 -8.58933 38.644C-8.27303 40.2989 -8.01756 41.9606 -7.69451 43.6087C-7.37146 45.2569 -7.02182 46.723 -6.70553 48.3175C-6.22748 50.8298 -5.31691 53.2399 -4.01479 55.4413C-3.57775 56.1947 -3.18081 56.9683 -2.73701 57.7148C-2.48109 58.1456 -2.14499 58.529 -1.86248 58.939C-1.23756 59.6964 -0.779331 60.5763 -0.517105 61.5225C-0.39996 62.1583 -0.224251 62.7823 0.0077858 63.3856C0.33309 64.1313 0.537668 64.9238 0.613363 65.7334C0.738619 66.471 0.794931 67.2185 0.781414 67.9669C0.639938 69.5321 0.592619 71.1046 0.639927 72.6757C0.606136 73.1163 0.522331 73.5515 0.391218 73.9737C0.330393 74.2427 0.196127 74.4986 0.115477 74.7676C-0.281466 76.113 -0.664875 77.4583 -1.05506 78.8037C-1.10011 78.8992 -1.15195 78.9911 -1.21008 79.0795C-1.32136 78.9064 -1.41822 78.724 -1.49932 78.5347C-1.89581 77.4047 -2.3198 76.2743 -2.66268 75.124C-3.2412 73.1866 -3.75932 71.2361 -4.3108 69.2987C-4.4248 68.8941 -4.57349 68.5003 -4.75506 68.1214C-5.47461 66.6012 -6.29552 65.1279 -6.91414 63.5672C-7.31424 62.4516 -7.8788 61.4018 -8.58933 60.4529C-10.0757 58.5961 -11.6297 56.7934 -13.1566 54.9705C-13.4594 54.6073 -13.7284 54.2036 -14.0649 53.8738C-15.0472 52.9186 -16.083 51.9837 -17.0585 51.0551C-17.6771 50.4834 -18.3097 49.9319 -18.9418 49.3872C-19.2311 49.138 -19.5609 49.1718 -19.6145 49.4746C-19.7492 50.2076 -20.1862 50.8938 -19.9105 51.6877C-19.828 52.0716 -19.7695 52.46 -19.7357 52.8515C-19.5469 54.086 -19.2752 55.3061 -18.9215 56.5042C-18.3935 57.8261 -17.778 59.1116 -17.0787 60.352C-16.4664 61.5158 -15.7334 62.6052 -15.1278 63.7825C-14.1456 65.8006 -13.2107 67.8186 -12.3294 69.8975C-11.8297 71.2447 -11.2548 72.563 -10.6074 73.8462C-10.1365 74.6734 -9.7734 75.5615 -9.31563 76.3887C-8.88039 77.2997 -8.34827 78.1617 -7.7283 78.9582C-6.52847 80.3703 -5.46515 81.8927 -4.55322 83.5057C-3.44844 85.3179 -3.03528 87.4675 -3.38942 89.5599C-3.44754 89.8915 -3.48582 90.2263 -3.50385 90.5624C-3.56422 92.7418 -3.60479 94.9279 -3.67192 97.1077C-3.71247 98.5941 -3.79986 100.074 -3.85348 101.561C-3.86339 101.912 -3.7485 102.255 -3.52953 102.53C-3.31011 102.805 -3.00059 102.993 -2.65591 103.061C-1.18979 103.061 0.263252 101.998 0.0348186 100.437C-0.0661068 99.7646 -0.133688 99.0451 -0.194063 98.3454C-0.285076 97.6767 -0.318867 97.0018 -0.294989 96.3273C-0.194063 95.1031 0.0213242 93.8853 0.175865 92.6679C0.243 92.1362 0.290308 91.6118 0.350683 91.0801C0.56605 89.2504 0.566032 87.3738 1.69604 85.7527C2.14254 84.884 2.66744 84.0577 3.26353 83.2836C4.59358 81.9279 6.00924 80.6582 7.50149 79.4832C9.00816 78.2725 10.4702 77.0055 11.8872 75.6822C13.275 74.5013 14.5577 73.2028 15.7219 71.8011C16.054 71.3353 16.423 70.8969 16.8249 70.4891Z" fill="white"/>
<path d="M64.8009 60.0357C64.5112 59.878 64.1809 59.8099 63.8525 59.8406C63.1798 59.9347 62.5071 60.1163 61.8344 60.2713C60.7891 60.4714 59.774 60.8061 58.8143 61.2666C57.468 61.9555 56.0326 62.4538 54.5493 62.7467C52.8881 63.1418 51.2526 63.6383 49.6522 64.2331C48.6028 64.5967 47.6341 65.2018 46.5713 65.5383C45.9175 65.7136 45.3201 66.0542 44.8357 66.5273C44.0905 67.2045 43.2817 67.8078 42.4207 68.33C40.6897 69.5186 38.9586 70.6977 37.2276 71.8683C36.75 72.1913 36.2453 72.467 35.7542 72.7563C35.7542 72.5071 35.9493 72.3999 36.0367 72.2584C36.9464 70.9743 38.1296 69.9083 39.5011 69.1374C40.4054 68.5814 41.279 67.9772 42.1179 67.3275C43.106 66.5125 44.1986 65.8339 45.3669 65.3095C45.7508 65.1437 46.1054 64.9161 46.4167 64.6368C47.6887 63.2711 49.0921 62.0339 50.6074 60.944C50.8534 60.7723 51.0786 60.5741 51.28 60.352C53.0088 58.6502 54.2064 56.5443 55.6189 54.6006C56.6345 53.1944 57.637 51.7684 58.6999 50.4095C60.0069 48.9006 60.9301 47.0983 61.3906 45.156C61.5136 44.8144 61.5582 44.4495 61.5208 44.0886C61.4839 43.7277 61.3654 43.3794 61.1752 43.0703C60.8337 43.1848 60.5116 43.3501 60.2201 43.5614C58.2827 45.5123 56.3791 47.4899 54.4552 49.4543C53.3855 50.5577 52.3091 51.6539 51.2129 52.7371C50.7822 53.1741 50.2911 53.5508 49.8676 53.9747C48.6231 55.1385 47.3917 56.3159 46.1405 57.4796C45.9423 57.6432 45.7332 57.7937 45.5152 57.9302C45.8332 56.8984 46.2266 55.891 46.6925 54.9164C46.9547 54.3311 47.2169 53.7396 47.5062 53.1674C48.0847 52.0509 48.7038 50.9479 49.2688 49.8039C50.0153 48.2973 50.6678 46.7365 51.4752 45.2636C52.224 43.8475 52.7268 42.3143 52.9616 40.7297C53.1436 39.6195 53.4261 38.5368 53.6883 37.4469C53.8428 36.8211 54.0785 36.216 54.2465 35.5901C54.5088 34.6282 54.2466 34.366 53.2445 34.3389C52.3966 35.6843 51.549 37.0297 50.7015 38.375C49.854 39.7204 48.9457 41.1667 48.0847 42.5729C47.5877 43.5749 46.993 44.5261 46.309 45.4114C46.1888 45.5673 46.0869 45.7367 46.0063 45.916C45.3804 47.006 44.728 48.0886 44.1292 49.1988C43.4566 50.4365 42.8515 51.6945 42.2189 52.9457C41.9634 53.6238 41.6174 54.264 41.1898 54.8493C41.1492 54.6204 41.129 54.5195 41.1091 54.4185C40.9744 53.672 40.86 52.9254 40.7054 52.1923C40.5978 51.6674 40.3892 51.1696 40.3085 50.6451C40.1472 49.6494 40.0328 48.6271 39.9251 47.6516C39.7949 46.6198 39.8201 45.5745 39.999 44.5504C40.0778 43.88 40.0778 43.2028 39.999 42.5324C39.999 42.1422 39.8913 41.7587 39.8579 41.3686C39.7773 40.5143 39.7435 39.6465 39.6223 38.7923C39.5011 37.938 39.3195 37.1441 39.1312 36.33C39.0573 36.0785 38.9289 35.8465 38.7545 35.651C38.5126 35.368 38.2769 35.4153 38.0818 35.7384C37.8867 36.061 37.8061 36.2831 37.6313 36.5318C36.8239 37.669 36.4269 39.0815 35.7678 40.3598C35.7299 40.4359 35.7051 40.5175 35.6939 40.6017C35.3609 41.9088 35.3469 43.2771 35.6533 44.591C35.9921 45.8088 36.0453 47.0889 35.8083 48.331C35.6132 49.3736 35.5592 50.4365 35.4384 51.4859C35.4384 51.6539 35.3911 51.822 35.3573 51.9837C35.1045 53.3926 35.0455 54.8299 35.1825 56.255C35.2501 57.4459 35.5326 58.6232 35.6803 59.8068C35.8989 61.0238 35.8989 62.27 35.6803 63.4865C35.351 65.1959 34.8576 66.8698 34.207 68.4846C34.0354 68.9428 33.8096 69.3785 33.5343 69.7831C32.6062 70.9734 31.624 72.1237 30.7229 73.3281C29.6465 74.7541 28.6372 76.2274 27.5811 77.6669C27.2851 78.0774 26.9084 78.4473 26.5989 78.8307C26.7962 77.8607 27.0454 76.9015 27.3459 75.9584C28.3011 72.8775 29.2766 69.8033 30.2182 66.7157C30.8909 64.516 31.5163 62.3029 32.1692 60.0961C32.4044 59.3094 32.6332 58.529 32.8752 57.7554C32.9198 57.6716 32.9473 57.5797 32.9563 57.4851C32.9648 57.3904 32.9549 57.2954 32.927 57.2048C32.8986 57.1138 32.8531 57.0295 32.7923 56.957C32.7315 56.884 32.6566 56.8236 32.5724 56.7799C32.4462 56.8687 32.3309 56.9728 32.2295 57.0895C31.4965 58.1857 30.7562 59.2688 30.07 60.3921C29.1824 61.8185 28.3011 63.2513 27.4869 64.7174C26.8143 65.9957 26.1821 67.3275 25.5162 68.626C24.8503 69.9241 24.1032 71.1217 23.5518 72.4265C22.4353 75.0636 21.4057 77.7341 20.3834 80.4045C19.9838 81.3386 19.7711 82.3419 19.758 83.358C19.7526 84.456 19.4999 85.5391 19.0178 86.5263C18.7691 87.0913 18.473 87.6292 18.2306 88.1943C17.6255 89.6072 17.0065 91.0197 16.4482 92.4525C16.1144 93.3162 15.84 94.202 15.6273 95.1031C15.503 95.7623 15.2191 96.3814 14.8001 96.9058C13.8192 98.0318 13.1123 99.3695 12.7352 100.814C12.6172 101.234 12.3428 101.593 11.9683 101.816C11.9683 101.567 12.0152 101.433 12.0422 101.298C12.3247 100.19 12.5491 99.0672 12.7149 97.9349C12.8487 96.6792 13.0988 95.4383 13.4615 94.2286C13.5926 93.7433 13.6669 93.2441 13.6836 92.7418C13.7237 92.0691 13.6431 91.4504 13.6836 90.8111C13.8787 88.356 14.1612 85.9072 14.3022 83.4521C14.4099 81.6156 14.3631 79.7657 14.3698 77.9224C14.3698 77.0614 14.3698 76.1936 14.309 75.3326C14.2536 75.0659 14.168 74.8063 14.0535 74.559C13.7778 74.8685 13.5421 75.0298 13.448 75.2317C13.0177 76.2945 12.6275 77.3777 12.2103 78.4541C11.7931 79.53 11.3898 80.6064 10.9388 81.6625C10.3468 83.0552 9.634 84.4006 9.12261 85.8198C8.08678 88.9652 7.55737 92.2556 7.55512 95.5672C7.57494 97.2117 7.69163 98.8536 7.90519 100.485C8.0327 101.762 8.23456 103.034 8.43641 104.305C8.62835 105.147 8.62835 106.02 8.43641 106.861C8.08002 108.1 7.8714 109.371 7.09103 110.46C7.03065 110.541 7.03065 110.669 6.98334 110.77C6.72111 111.478 6.4224 112.172 6.08899 112.848C5.03288 114.826 3.88261 116.757 2.8666 118.755C2.34846 119.77 2.55706 120.773 3.72086 121.109C3.98984 121.19 4.26604 121.257 4.53502 121.331C4.69632 121.388 4.87202 121.389 5.03423 121.334C5.19643 121.279 5.33566 121.172 5.42937 121.028C5.79162 120.567 6.11736 120.079 6.40482 119.568C7.07751 118.223 7.65603 116.878 8.35575 115.532C9.1226 114.1 9.99038 112.721 10.8113 111.315C11.2736 110.408 12.0657 109.713 13.0244 109.371C13.9224 109.06 14.7771 108.635 15.5669 108.106C16.993 107.157 18.3383 106.088 19.7243 105.099C20.8457 104.256 21.8779 103.3 22.8052 102.247C23.6036 101.386 24.4308 100.552 25.2873 99.7443C26.5115 98.5941 27.783 97.4979 29.0139 96.3809C29.519 95.902 29.9907 95.3897 30.4268 94.8472C31.059 94.0668 31.6037 93.2126 32.2701 92.4525C33.219 91.382 34.0489 90.2114 34.7454 88.9616C34.9225 88.6457 35.0644 88.3119 35.169 87.9658C35.3231 87.3801 35.5934 86.8313 35.9642 86.3528C36.3355 85.8743 36.7995 85.4756 37.3285 85.1809C37.8331 84.9498 38.2896 84.6258 38.6739 84.2257C39.1208 83.8599 39.6254 83.5711 40.167 83.3715C41.1227 82.8466 42.0711 82.3018 43.033 81.7905C43.7661 81.3935 44.5329 81.0439 45.266 80.6402C46.423 80.0013 47.5197 79.2543 48.7105 78.696C50.3992 77.8287 51.9793 76.7654 53.4193 75.5277C53.5806 75.4065 53.6477 75.1713 53.8095 74.9091C53.4662 74.7203 53.1972 74.4513 52.9012 74.4247C52.2325 74.3193 51.5517 74.3193 50.8831 74.4247C48.6902 74.8888 46.5172 75.4335 44.3446 75.9652C43.3376 76.313 42.3054 76.5829 41.2569 76.7721C39.7016 76.9902 38.2017 77.5011 36.8374 78.2793C35.9358 78.7163 35.0482 79.1939 34.1466 79.6246C33.0099 80.1693 31.8461 80.6537 30.7161 81.2187C29.1436 82.0833 27.682 83.1358 26.3637 84.3532C26.115 84.5619 25.8591 84.757 25.4959 85.0259C25.5365 84.7705 25.4959 84.6763 25.5631 84.6159C26.7066 83.0755 27.7361 81.3935 29.2292 80.0481C30.5683 78.9087 32.1178 78.0423 33.7902 77.4989C34.7454 77.1758 35.7141 76.8866 36.6626 76.55C38.2841 75.9224 39.9503 75.4164 41.6471 75.0366C42.8186 74.8685 43.9445 74.4657 44.9569 73.853C46.5983 72.7766 48.2126 71.6664 49.8473 70.5833C50.952 69.8119 52.1496 69.1838 53.4126 68.7134C54.1844 68.4557 54.9206 68.1034 55.6054 67.6641C58.1146 66.0159 60.59 64.3007 63.059 62.6187C63.6763 62.1862 64.267 61.7167 64.8279 61.213C64.932 61.1522 65.0176 61.0652 65.0762 60.9602C65.1352 60.8552 65.1645 60.7367 65.1618 60.6164C65.1591 60.4961 65.1239 60.379 65.0608 60.2767C64.9973 60.1749 64.9077 60.0915 64.8009 60.0357ZM46.8808 66.2917C47.0759 66.0024 47.5936 65.942 47.9635 65.7735C47.4237 66.8675 46.6898 67.8547 45.7977 68.6864L45.6431 68.5922C46.0112 67.8024 46.4244 67.0342 46.8808 66.2917ZM44.6136 68.0876C44.9029 67.496 45.1921 66.8905 46.0198 66.7422C45.5152 67.6641 45.0443 68.5589 44.5262 69.433C44.437 69.5389 44.327 69.6249 44.2036 69.6862C44.0797 69.7475 43.9445 69.7826 43.8066 69.7898C44.0756 69.2316 44.3379 68.6594 44.6136 68.0876ZM43.8805 68.1417C43.5854 68.9049 43.2367 69.647 42.8379 70.3616C42.6158 70.718 42.0977 70.8928 41.7142 71.1487C41.8116 70.5116 42.0589 69.907 42.4351 69.3843C42.8118 68.8617 43.3074 68.4354 43.8805 68.1417ZM50.3046 54.6136L50.4726 54.6947C50.2645 55.1521 50.0892 55.6229 49.8473 56.0401C49.6049 56.4569 49.6657 57.0692 48.838 57.3247C49.4301 56.3695 49.699 55.4008 50.3046 54.6136ZM49.0939 58.0514C50.2911 57.0742 51.4152 56.0108 52.4574 54.8696C53.0156 54.3244 53.5536 53.7526 54.0988 53.1876C54.2803 52.9925 54.4484 52.7839 54.7714 52.4478C54.4484 52.4478 54.2533 52.4478 54.1659 52.4884C53.6869 52.8758 53.2368 53.2985 52.8205 53.7526C52.2483 54.4411 51.5797 55.0439 50.8363 55.5422C51.0985 54.9029 51.3539 54.264 51.6297 53.6319C51.7144 53.4877 51.8288 53.3638 51.9663 53.2683C53.03 52.3559 54.0091 51.3498 54.8922 50.2617C55.9285 49.1312 57.0112 48.035 58.0808 46.8983C58.6593 46.2927 59.2446 45.7007 59.8366 45.1087C59.9713 44.9744 60.1259 44.8667 60.4016 44.6311C60.2417 45.5182 59.883 46.3576 59.3523 47.0866C58.5584 48.432 57.6974 49.7773 56.8228 51.0484C56.379 51.7215 55.8411 52.273 55.3432 52.8848C55.2418 52.9808 55.145 53.0822 55.0539 53.1876C54.0785 54.533 53.103 55.8784 52.1546 57.2237C51.4869 58.1906 50.6979 59.0679 49.8067 59.8338C48.3672 61.0783 47.0286 62.4304 45.6161 63.7019C45.2935 63.9569 44.9411 64.1714 44.5667 64.3408C44.0824 64.5539 43.6107 64.794 43.1538 65.0608C42.2527 65.6794 41.3916 66.3588 40.5104 67.0049C40.1805 67.2469 39.8377 67.469 39.5011 67.6776L39.333 67.496C39.6894 66.9711 40.0057 66.4196 40.4027 65.915C41.4304 64.4813 42.7145 63.25 44.1901 62.2826C45.6566 61.2927 47.0101 60.1443 48.2262 58.8584C48.4934 58.5669 48.7835 58.2965 49.0939 58.0514ZM48.4884 56.5916C47.9504 57.5333 47.9702 58.8448 46.6722 59.2823C47.1565 58.3204 47.3516 57.1363 48.4884 56.5916ZM45.9657 58.8584C45.7841 59.4035 45.6363 59.8541 45.4814 60.2979C45.4413 60.4259 45.421 60.6007 45.3268 60.6683C44.6037 61.2963 43.8116 61.8402 42.9654 62.2894C43.7593 60.8431 44.5532 59.632 45.9657 58.8584ZM39.4272 50.7861H39.6088C39.8444 51.9297 40.0864 53.0669 40.2815 54.2104C40.3959 54.7448 40.4743 55.2863 40.5171 55.8315C40.5811 56.2812 40.5513 56.7394 40.4297 57.1769C40.0413 58.1987 39.5687 59.1864 39.0168 60.1298C38.9866 59.8167 38.9866 59.5013 39.0168 59.1882C39.147 58.5227 39.1605 57.8401 39.0573 57.1701C38.9496 56.2014 38.9293 55.2192 38.8622 54.2437C38.8636 54.0513 38.841 53.859 38.7951 53.672C38.4991 52.5758 39.0708 51.7278 39.4272 50.8199V50.7861ZM39.1717 49.4007C39.333 50.0734 38.8825 50.3892 38.6468 50.8132C38.6721 50.2995 38.8554 49.8062 39.1717 49.4007ZM38.9834 47.6246C39.192 48.2098 38.9834 48.6203 38.3846 48.9699L38.9834 47.6246ZM37.1537 58.9327C36.9654 57.3247 36.7905 55.7103 36.7162 54.0959C36.6693 52.0265 36.7905 49.9567 37.0798 47.9071C37.1239 46.9609 37.1082 46.0129 37.0325 45.0686C37.0325 43.9183 37.0325 42.768 37.0798 41.624C37.0929 41.4857 37.0929 41.346 37.0798 41.2073C36.8712 40.1912 37.315 39.3437 37.7525 38.4827C37.9809 38.0254 38.176 37.5478 38.3846 37.077H38.5594C38.7077 38.1061 38.8622 39.1351 38.9902 40.1714C39.1618 41.2203 39.274 42.2778 39.3263 43.3398C39.4241 44.4806 39.2677 45.6295 38.869 46.7032C38.8455 46.7843 38.809 46.8618 38.7613 46.9316C37.7588 48.035 37.7525 49.3534 37.9003 50.7258C37.9809 51.5061 37.9408 52.2933 37.9877 53.0732C38.035 53.8535 38.1224 54.5735 38.1895 55.3201C38.2567 56.0667 38.344 56.7597 38.3711 57.4864C38.3711 58.0983 38.3175 58.7106 38.331 59.3292C38.331 60.1636 38.4184 60.9976 38.445 61.8384C38.4621 62.083 38.4279 62.3281 38.344 62.5584C37.8264 63.6748 37.2749 64.7783 36.7297 65.8812C36.6991 65.9407 36.6554 65.9921 36.6018 66.0317C36.5481 66.0714 36.486 66.0979 36.4202 66.1101C36.4594 65.8826 36.5135 65.6577 36.5819 65.4374C37.2862 63.345 37.4821 61.1157 37.1537 58.9327ZM26.3502 69.2852C26.8751 68.1079 27.3793 66.9243 27.9244 65.7537C28.2335 65.081 28.5971 64.462 28.94 63.8298C29.6127 62.666 30.2854 61.509 30.9581 60.352C31.1374 59.9938 31.3636 59.6613 31.6307 59.363C31.6001 59.5901 31.555 59.8145 31.4965 60.0357C30.4268 63.5807 29.3302 67.1126 28.247 70.6306C27.81 72.0498 27.4667 73.5096 27.0026 74.9221C26.4173 76.705 25.7514 78.4608 25.1057 80.2297C24.7561 81.1782 24.3794 82.1135 24.0158 83.0552C23.9694 83.2196 23.8946 83.3742 23.7942 83.5125C23.007 84.4141 22.7782 85.6044 22.2064 86.6205C21.6346 87.636 21.1368 88.6385 20.592 89.6608C20.4285 89.9582 20.1983 90.2141 19.9194 90.4074C20.0978 89.7536 20.3226 89.113 20.592 88.4903C20.971 87.7739 21.2841 87.0242 21.527 86.2505C21.7892 85.3963 22.1996 84.5821 22.5227 83.7481C22.9129 82.7862 23.3098 81.831 23.7 80.8691C24.0798 79.7697 24.5295 78.696 25.0454 77.6534C25.2184 77.1867 25.336 76.7014 25.395 76.2071C25.6572 75.2046 25.8996 74.1891 26.1956 73.2069C26.5989 71.8615 27.0296 70.476 27.4869 69.1239C27.6955 68.4981 27.9916 67.8993 28.247 67.2874L27.9645 67.173L26.4579 70.6373C26.3249 70.4404 26.2452 70.2125 26.2263 69.9755C26.2074 69.7385 26.2501 69.5006 26.3502 69.2852ZM22.4353 87.5824L23.2089 86.1965C23.1282 87.0507 23.0273 87.2323 22.4353 87.5959V87.5824ZM25.6104 70.8324C25.6775 71.6934 26.1015 72.4265 25.4959 73.2271C25.4355 72.4197 24.9242 71.6934 25.6104 70.8459V70.8324ZM24.7629 72.6486C25.0652 73.2609 24.7628 73.8394 24.8367 74.3909C24.9678 74.9965 24.921 75.6273 24.702 76.2071C24.4871 75.4975 24.3339 74.7703 24.2447 74.0345C24.3344 73.5457 24.5097 73.0762 24.7629 72.6486ZM17.9887 91.013C18.7961 89.2571 19.6972 87.5418 20.4307 85.7594C20.7605 84.8367 20.9863 83.8802 21.1034 82.907C21.4823 81.1529 22.009 79.4336 22.6772 77.7679C22.9331 77.0281 23.249 76.3081 23.5518 75.5818C23.641 75.4119 23.7446 75.2497 23.8613 75.0974C24.0564 75.9517 24.238 76.6982 24.3993 77.4448C24.3921 77.5841 24.3528 77.7201 24.2853 77.8418C23.5382 79.7724 22.8187 81.7166 22.0451 83.6405C21.5607 84.8579 21.0025 86.0487 20.4911 87.2594C20.1748 88.0059 19.8788 88.7665 19.5828 89.5198C18.9912 91.0936 18.1487 92.5611 17.0871 93.8654C17.0763 93.6397 17.0944 93.4135 17.1412 93.1928C17.4034 92.439 17.6458 91.6992 17.9887 90.9859V91.013ZM12.163 90.5759C11.8269 89.9032 12.163 89.2306 13.0983 88.497C13.347 89.4657 12.5401 89.883 12.163 90.5489V90.5759ZM13.2934 86.634C13.2934 86.9431 13.2934 87.2526 13.2934 87.5824L12.3045 88.1406L12.19 88.0397L13.0983 86.6002L13.2934 86.634ZM4.36697 120.41L3.69426 119.508C4.0439 118.957 4.49446 118.903 5.15363 119.031L4.36697 120.41ZM34.3891 81.1245C35.0406 80.0464 36.0611 79.2407 37.2614 78.8573C37.5961 78.7163 37.9219 78.5545 38.2368 78.3734C39.0402 77.9675 39.9066 77.7012 40.7996 77.5863C41.8692 77.398 42.9321 77.1623 43.9815 76.9136C46.2014 76.3216 48.4077 75.6759 50.6344 75.0974C51.0066 75.0672 51.3814 75.097 51.7441 75.1848L51.7847 75.4268C51.6396 75.5426 51.4869 75.6484 51.3269 75.7431C48.9795 76.9537 46.6181 78.1513 44.291 79.3755C43.8738 79.5976 43.5106 79.9269 43.1137 80.1761C42.3738 80.6334 41.6336 81.0705 40.887 81.5215C40.2882 81.8779 39.6493 82.1942 39.0776 82.5844C36.8793 84.0874 34.5242 85.3481 32.0547 86.3447C31.2829 86.6687 30.5305 87.0372 29.801 87.4477C28.3682 88.2686 26.9958 89.1968 25.5365 89.9704C24.0767 90.744 22.6569 91.3157 21.0561 92.0488C21.1773 91.7798 21.2107 91.5514 21.3454 91.4437C22.6907 90.3605 24.0965 89.2639 25.5229 88.2483C26.2425 87.7302 27.0769 87.3738 27.8438 86.903L32.5526 84.1451C32.9157 83.9365 33.2924 83.7481 33.6623 83.5463C35.0437 82.7975 36.4202 82.0482 37.7926 81.2994C37.9746 81.1863 38.1494 81.0624 38.3175 80.9294L38.2368 80.7749L33.4875 82.8533C33.8304 82.1671 34.1129 81.649 34.3891 81.1245ZM21.2782 97.4172C20.2825 98.4328 19.139 99.3073 18.0761 100.262C17.3093 100.935 16.5492 101.655 15.8161 102.381C15.2642 102.926 14.7465 103.511 14.2148 104.083C14.1409 104.171 14.0806 104.278 14.013 104.372C13.9459 104.285 13.8855 104.191 13.8246 104.104C14.8064 102.123 15.9306 100.217 17.1881 98.399C17.2791 98.294 17.3647 98.1841 17.444 98.0696C18.1126 96.8391 19.0286 95.76 20.1347 94.9013C21.877 93.4113 23.7351 92.0614 25.691 90.8652C26.835 90.2835 28.0119 89.769 29.2157 89.3247C30.1912 88.894 31.1531 88.4434 32.1151 87.9793C32.5792 87.764 33.0437 87.5283 33.5078 87.3067L33.5952 87.4544L31.1734 89.3112L25.3008 93.8114C23.8748 94.9148 22.5303 96.1196 21.2782 97.4172ZM21.157 99.6704C21.0899 99.3609 21.0291 99.1054 20.9552 98.7558L22.7448 97.0067C22.8052 98.3386 21.8365 98.8833 21.157 99.6704ZM20.4037 99.4618C20.0068 100.222 19.8252 101.13 18.9574 101.588C19.435 100.901 19.4417 99.852 20.4037 99.4618ZM30.4268 83.0146C30.5278 82.8804 30.7026 82.7659 30.7359 82.6244C30.8977 81.7972 31.5906 81.5886 32.2228 81.2791C32.8549 80.97 33.4001 80.7817 33.9921 80.5325L34.1129 80.6537C33.2117 81.7567 32.5458 83.0417 31.4221 83.9766C31.678 83.0687 32.4111 82.3893 32.6801 81.5012C32.6355 81.462 32.5886 81.426 32.5391 81.3935C32.4332 81.4489 32.3358 81.5192 32.2498 81.6021C31.624 82.4226 30.9986 83.2503 30.3863 84.0775C30.2502 84.2555 30.1416 84.4528 30.0632 84.6628C29.9222 85.0327 29.6397 85.1404 29.209 85.2413C29.4906 84.4375 29.9019 83.6855 30.4268 83.0146ZM27.938 85.2278C28.1993 84.825 28.4246 84.3997 28.6106 83.9563C28.8526 83.1358 29.5117 82.8331 30.2583 82.5641L27.7023 86.2505L27.5207 86.1496C27.6419 85.8401 27.783 85.5306 27.938 85.2278ZM28.1461 84.0843L26.9422 85.8806C26.7877 86.1158 26.6462 86.3582 26.4849 86.5533C26.393 86.7227 26.2673 86.8719 26.115 86.9904C24.0402 88.2668 22.1541 89.8266 20.5114 91.6253C20.3028 91.8474 20.1681 92.1299 19.9865 92.3651C19.6098 92.8494 19.2264 93.3338 18.8362 93.8046C18.446 94.2755 18.0761 94.444 18.1635 95.0626C18.1635 95.278 17.8878 95.5266 17.74 95.7353L17.1277 96.6368C16.6231 97.4104 16.1725 98.2174 15.6075 98.9441C15.0285 99.7709 14.5347 100.654 14.1342 101.581C13.3646 103.192 12.4649 104.738 11.4434 106.202C11.3227 106.36 11.2254 106.535 11.1542 106.72C11.1136 106.828 11.1542 107.043 11.201 107.083C11.3394 107.164 11.5016 107.193 11.6588 107.164C11.7795 107.164 11.8742 106.996 11.9814 106.895C12.568 106.345 13.1164 105.757 13.6228 105.133C14.4162 104.225 15.28 103.382 16.2059 102.61C16.9862 101.904 17.8274 101.265 18.7961 100.464C18.7781 100.654 18.7398 100.841 18.6817 101.023C18.3816 101.488 18.123 101.979 17.908 102.489C17.7134 103.078 17.3395 103.59 16.8384 103.956C15.7418 104.817 14.632 105.657 13.5286 106.512C13.4538 106.588 13.3862 106.672 13.3268 106.761C13.8246 106.828 14.0936 106.525 14.3896 106.317C15.6075 105.476 16.8114 104.608 18.0157 103.754C18.0626 103.754 18.1297 103.707 18.1568 103.666C18.8294 102.509 19.9532 101.843 20.8475 100.915C21.5202 100.242 22.1929 99.4956 22.9061 98.8365C23.6189 98.1773 24.2515 97.7398 24.9242 97.1613C25.7987 96.3742 26.6394 95.5537 27.4667 94.7265C27.7172 94.444 27.9424 94.1398 28.1393 93.8181C27.6352 93.6902 27.4667 93.9794 27.2585 94.1813L23.6256 97.6862C23.545 97.7668 23.4576 97.8407 23.3098 97.9687C23.3098 97.4438 23.3098 97.0671 23.2557 96.5629C26.7516 93.4919 30.402 90.602 34.194 87.905C33.929 88.6552 33.4636 89.3184 32.8486 89.8226C31.9795 90.621 31.2473 91.5577 30.6823 92.594C30.1169 93.428 29.4802 94.2115 28.7787 94.9346C28.1461 95.6073 27.4333 96.166 26.7606 96.8049C25.6978 97.8006 24.6687 98.823 23.5923 99.8187C21.991 101.258 20.4172 102.738 18.7285 104.07C17.3742 105.245 15.8562 106.218 14.2216 106.956C13.8593 107.113 13.5165 107.312 13.1993 107.548C12.0891 108.259 10.905 108.848 9.66733 109.303C9.48576 109.539 9.30418 109.774 9.08882 110.07L9.39159 110.629C8.10029 113.091 6.82206 115.539 5.49697 118.075H4.3264C4.38948 117.882 4.46608 117.693 4.55529 117.51C5.46992 116.071 6.43862 114.665 7.29288 113.192C7.69838 112.36 8.05749 111.507 8.36928 110.635C8.46119 110.323 8.62699 110.037 8.85317 109.803C9.07935 109.569 9.3587 109.393 9.66733 109.29C9.58939 109.297 9.51055 109.297 9.43215 109.29C9.34474 109.252 9.25913 109.209 9.17668 109.162C9.27715 108.772 9.40511 108.355 9.49928 107.938C9.58849 107.566 9.65336 107.188 9.69436 106.808C9.76826 105.981 9.82908 105.146 9.86918 104.312C9.86918 103.814 9.86918 103.31 9.86918 102.812C9.89396 102.654 9.93451 102.498 9.99037 102.348V102.294C9.45241 101.621 9.60019 100.774 9.53982 100.007C9.45917 98.9239 9.49251 97.8272 9.53982 96.7378C9.53982 94.7801 9.53982 92.8224 9.69436 90.8719C9.75654 89.6662 9.95974 88.4718 10.2999 87.3134C11.302 84.0978 12.4189 80.9159 13.5219 77.6399C13.7584 78.1454 13.8404 78.7095 13.7575 79.261C13.6971 81.2791 13.5962 83.23 13.5151 85.2143C13.5151 85.5914 13.4615 85.8869 13.0308 86.0956C12.8361 86.1762 12.7149 86.4389 12.5599 86.6205L12.3986 86.5596C12.4793 86.1158 12.5802 85.672 12.641 85.2143C12.7014 84.757 12.7217 84.3334 12.7618 83.8689C12.3247 83.7617 12.217 84.0104 12.1765 84.3131C12.0287 85.376 11.8539 86.4254 11.7462 87.4882C11.5173 89.6342 11.356 91.7866 11.1069 93.9258C10.9456 95.318 10.6766 96.6905 10.4815 98.0764C10.2062 99.4551 10.0512 100.855 10.0174 102.26V102.294L10.6901 101.682C10.6149 100.394 10.7581 99.1014 11.1136 97.861C11.5155 95.9988 11.7606 94.1065 11.8471 92.2038C11.8471 91.4031 12.3581 91.1004 13.0177 90.6498C13.0073 91.2053 12.969 91.7595 12.9033 92.3115C12.7685 93.1117 12.5333 93.892 12.4054 94.6927C12.2035 95.9371 12.0756 97.1883 11.8805 98.4328C11.7732 99.1054 11.5781 99.7781 11.4299 100.451C11.3222 100.942 11.2281 101.433 11.1271 101.924C10.932 102.913 10.7036 103.895 10.5419 104.891C10.4544 105.435 10.6027 105.523 11.0735 105.476C11.6921 104.272 12.2576 103.115 12.883 101.991C13.6296 100.646 14.4302 99.3005 15.2105 97.9552C15.4385 97.4375 15.8156 96.9995 16.2937 96.6972C16.3752 96.6467 16.4451 96.5787 16.4987 96.499C16.5519 96.4188 16.5875 96.3282 16.6028 96.2331C16.724 94.8878 17.4372 93.7713 18.2108 92.5534C18.446 93.1455 17.9013 93.4685 18.0423 94.02C20.7979 90.138 24.2186 86.7746 28.1461 84.0843ZM28.6305 78.3667C28.6305 78.4807 28.7116 78.6289 28.6305 78.696C28.3169 79.1664 27.9731 79.6156 27.6014 80.0414C26.3664 81.4453 25.2842 82.9768 24.3727 84.6092C24.1384 84.9782 23.8681 85.3229 23.5653 85.6382C24.6142 83.2926 25.9375 81.0799 27.5072 79.0461C27.951 79.1268 28.0655 78.7699 28.2403 78.4942H27.5676L28.4827 77.4313C28.621 77.2957 28.7494 77.1493 28.8661 76.9943C30.2115 74.9762 31.6578 73.0857 33.0973 71.1685C33.3528 70.8257 33.77 70.5968 34.0525 70.2742C34.3314 69.9309 34.5895 69.5713 34.8261 69.1978C34.6648 69.8763 34.3471 70.5076 33.8979 71.041C33.446 71.5812 33.0387 72.1571 32.6801 72.7631C33.0703 73.005 33.3528 72.9109 33.5078 72.6689C33.8646 72.0359 34.3881 71.5123 35.0212 71.1555C35.0888 71.105 35.1383 71.0343 35.1622 70.9536C35.4037 70.4837 35.5956 69.9899 35.7344 69.4803C35.9493 68.3368 36.6896 67.4622 37.1807 66.4665C37.6714 65.4712 38.3643 64.6233 38.6401 63.5406C38.7077 63.2847 38.9902 63.0828 39.1515 62.8679C39.1546 62.4349 39.2064 62.0042 39.306 61.5829C39.6561 60.648 40.0864 59.7329 40.4968 58.8183C40.5261 58.7606 40.568 58.7101 40.6189 58.6705C40.6703 58.6308 40.7298 58.6033 40.7928 58.5894C41.2299 58.5894 41.3443 58.3001 41.3308 57.9838C41.2502 56.3294 42.0508 54.9435 42.7505 53.5575C43.9274 51.2034 45.2056 48.8961 46.4501 46.5752C46.5483 46.3734 46.6632 46.1796 46.7934 45.9967C48.0955 44.1417 49.2886 42.2125 50.365 40.2183C50.9674 39.1451 51.7293 38.1696 52.6254 37.3257C52.4975 37.8236 52.3898 38.3214 52.2488 38.8125C52.1073 39.3036 51.9392 39.5992 51.8586 40.0029C51.4936 41.5033 50.975 42.9617 50.3114 44.3553C49.7283 45.4768 49.2769 46.6617 48.966 47.8868C48.8385 48.3748 48.6461 48.8429 48.3942 49.2795C47.567 51.0285 46.7258 52.7641 45.8918 54.5127C45.0047 56.5132 43.9819 58.4506 42.8312 60.3114C41.7818 61.9325 40.6852 63.5203 39.5687 65.0946C39.2524 65.5451 38.6468 65.8208 38.4319 66.2917C38.2621 66.8017 38.0503 67.2964 37.7993 67.7718C36.9987 68.9554 36.2656 70.1935 35.3708 71.3033C34.1737 72.7964 33.0703 74.4044 31.4023 75.447C31.3005 75.4971 31.2144 75.5737 31.1531 75.6692C30.5917 76.7938 29.715 77.7309 28.6305 78.3667ZM62.9779 61.213C61.5316 62.2623 60.0723 63.2982 58.6125 64.3408C56.9544 65.4424 55.2058 66.4007 53.3855 67.2068C52.7601 67.5091 52.1614 67.8794 51.5423 68.1953C49.6662 69.2658 47.8558 70.4476 46.1207 71.734C44.7749 72.6473 43.3074 73.3673 41.7615 73.8728C40.8334 74.1756 39.8444 74.29 38.8892 74.4986C37.3857 74.8415 35.9241 75.3466 34.5301 76.0053C33.3798 76.5234 32.2633 77.1155 31.1666 77.6669C31.0252 77.7341 30.8774 77.7881 30.5611 77.9157C30.6602 77.7255 30.7702 77.5412 30.8909 77.3642C30.9986 77.2295 31.1734 77.1488 31.2473 77.0078C32.0006 75.6084 33.4334 75.0569 34.6648 74.2495C36.1179 73.301 37.5574 72.3256 38.9969 71.3506C39.9116 70.7247 40.8131 70.0858 41.8625 69.3321C41.8053 69.5416 41.7264 69.7448 41.6268 69.9376C41.3313 70.3075 41.0636 70.6986 40.8266 71.1082C40.4162 71.8831 39.7367 72.4815 38.9158 72.7901C37.5705 73.4628 36.2251 74.0544 34.8797 74.687C34.7991 74.7271 34.7454 74.8415 34.5904 75.0231C34.7734 75.0492 34.9595 75.0492 35.1424 75.0231C36.1782 74.6063 37.2141 74.1756 38.2499 73.7453C38.7077 73.5569 39.1717 73.3686 39.6426 73.1934C40.9073 72.7225 41.8287 71.6867 43.006 71.0879C43.9616 70.563 44.8889 69.9881 45.7841 69.3659C45.9549 69.2762 46.1329 69.1996 46.3158 69.1374C46.4636 69.0698 46.6722 69.0496 46.7461 68.9356C47.2439 68.1818 48.0915 67.9263 48.8115 67.5902C49.6657 67.173 50.4997 66.7157 51.3539 66.2984C51.7982 66.0831 52.2623 65.9285 52.7331 65.7334C52.5781 65.2018 52.5313 65.1346 52.0199 65.3635C51.2062 65.7199 50.419 66.1637 49.6252 66.5742L47.9166 67.3816C47.9252 67.1527 47.9657 66.9261 48.0378 66.7089C48.3356 65.9677 48.9025 65.3671 49.6252 65.027C50.9034 64.516 52.1816 64.0182 53.4932 63.6077C54.334 63.3455 55.2355 63.231 56.0965 62.9954C56.7138 62.8305 57.3185 62.6214 57.906 62.37C58.6526 62.0537 59.3726 61.6973 60.1124 61.3409C60.4021 61.2328 60.6985 61.1454 61.0004 61.0783C61.6195 60.9125 62.2381 60.7512 62.8572 60.5939C63.0324 60.5628 63.2104 60.5448 63.3884 60.5403L63.4488 60.6683C63.3073 60.862 63.1496 61.0445 62.9779 61.213ZM39.0168 43.6421C39.0641 43.8106 39.165 43.9584 39.1244 44.0458C38.9095 44.5842 38.6739 45.1086 38.4517 45.6335C38.3373 45.862 38.2769 46.2522 37.8868 46.0571C37.4966 45.862 37.638 45.566 37.7858 45.3173C38.1224 44.7455 38.2905 44.0323 39.0168 43.6421ZM16.8181 70.4891C17.8328 69.5645 18.7483 68.5368 19.5494 67.4217C19.8923 66.9108 20.2221 66.3791 20.592 65.9015C21.5945 64.6296 22.4943 63.2802 23.2828 61.8654C24.6763 59.554 25.7509 57.0651 26.4781 54.4659C26.5583 54.1726 26.5791 53.8657 26.5385 53.5643C26.4678 53.3395 26.356 53.13 26.2091 52.9457C26.0073 53.0669 25.7446 53.134 25.6171 53.3088C24.7223 54.4929 23.8009 55.6634 23.007 56.9146C22.6385 57.5414 22.1933 58.1199 21.6819 58.6367C20.7533 59.4774 20.1009 60.5403 18.9912 61.213C18.9236 61.2531 18.8835 61.341 18.8295 61.4013C18.0964 62.2826 17.3899 63.1905 16.6096 64.0317C15.5399 65.1752 14.4032 66.2579 13.3069 67.3951C12.7753 67.9331 12.2306 68.4647 11.753 69.0428C11.1614 69.8245 10.4847 70.5373 9.73493 71.1685C9.1884 71.6074 8.66934 72.0791 8.18093 72.5815C7.34695 73.402 6.52602 74.2427 5.70555 75.0907C5.19102 75.6029 4.70351 76.1418 4.24575 76.705C3.50548 77.6467 2.81973 78.6221 2.09973 79.5773C2.09973 79.5773 1.99883 79.5773 1.88438 79.5773C1.89204 79.4142 1.91455 79.252 1.95195 79.093C2.44306 77.512 2.94725 75.9314 3.44511 74.3842C3.98804 72.4878 5.07839 70.7937 6.58011 69.5141C7.60918 68.6531 8.56438 67.6974 9.60697 66.8233C10.6496 65.9488 11.894 65.1482 12.9704 64.2268C14.0468 63.3049 15.1768 62.1682 16.2667 61.1256C16.8114 60.6074 17.3228 60.0424 17.9013 59.5648C19.267 58.4321 20.5317 57.1827 21.6819 55.8315C22.0158 55.4093 22.3127 54.9592 22.5695 54.4861C22.9129 53.9144 23.1886 53.3021 23.5315 52.7235C24.3993 51.2502 25.2806 49.7841 26.1618 48.3243C26.4241 47.8936 26.7133 47.4768 26.949 47.0325C27.4937 45.9899 28.0186 44.9338 28.543 43.8845C29.0679 42.8351 29.5793 41.8259 30.07 40.7833C30.2385 40.4201 30.4404 40.0164 30.1511 39.6195C29.3369 39.5388 29.3302 39.5321 28.9062 40.057C28.6575 40.3598 28.4421 40.6891 28.2335 40.9919C27.5608 41.8259 26.9355 42.6738 26.256 43.4875C25.7153 44.1661 25.1287 44.8063 24.5002 45.4047C23.0674 46.7032 21.5607 47.9138 20.128 49.2056C18.446 50.7258 16.8046 52.2933 15.1565 53.8468C14.3631 54.5938 13.5624 55.3336 12.8226 56.141C11.6656 57.4008 10.5441 58.688 9.45918 60.0019C8.63827 60.9976 7.89168 62.0199 7.12482 63.0828C6.76167 63.5672 6.41835 64.0785 6.06872 64.5764L5.8939 64.5025C5.98131 64.1389 6.08898 63.7825 6.15611 63.4126C6.55981 61.199 7.28749 59.0571 8.31522 57.0557C8.46435 56.7538 8.59681 56.4438 8.71215 56.1275C9.30418 54.6073 9.86917 53.0867 10.468 51.5733C11.033 50.1675 11.625 48.7748 12.2238 47.3826C12.4392 46.8848 12.5198 46.2927 13.1317 46.0373C13.2326 45.9899 13.2799 45.8084 13.347 45.6872C13.6093 45.0686 13.9256 44.463 14.282 43.8507C14.523 43.3726 14.8136 42.9221 15.1497 42.5053C16.4883 40.991 18.1505 39.7979 20.0135 39.0144C20.9282 38.6107 21.8027 38.0993 22.7043 37.669C23.153 37.3829 23.6536 37.1887 24.1776 37.0968C25.0922 36.9963 26.0005 36.8143 26.9084 36.6327C27.9596 36.3218 29.0567 36.1966 30.1511 36.2628C30.2597 36.2867 30.3719 36.2867 30.4804 36.2628C31.7519 35.9132 33.0369 35.5901 34.2814 35.1864C36.1043 34.5678 37.9138 33.8816 39.7232 33.2089C41.1628 32.6705 42.5955 32.0988 44.0283 31.5473C44.3176 31.4396 44.6136 31.3522 44.8961 31.2247C46.1275 30.6795 47.3246 30.0676 48.5826 29.6031C49.2958 29.3409 49.9815 28.843 50.8295 29.0719C50.9435 29.0719 51.0985 28.998 51.2264 28.9439C51.8653 28.6682 52.511 28.3925 53.1436 28.0897C53.3783 28.0135 53.5878 27.8739 53.7487 27.686C53.928 27.403 54.2024 27.1931 54.5223 27.0939C54.6908 27.0133 54.798 26.8047 54.9395 26.6569C54.7931 26.5019 54.6255 26.3681 54.4416 26.26C54.2772 26.2289 54.1082 26.2289 53.9438 26.26C52.8205 26.26 51.704 26.26 50.5803 26.26C50.0014 26.169 49.4174 26.1108 48.8313 26.0851C47.717 26.1653 46.6177 26.3915 45.562 26.7578C43.2232 27.5468 40.7838 28 38.3175 28.1032C38.176 28.1032 38.035 28.1032 37.8935 28.0626C36.6693 28.0158 35.4317 27.8878 34.207 27.9351C31.1545 28.123 28.165 28.8854 25.395 30.1816L25.1593 30.2758C23.4229 30.9953 21.768 31.8974 20.2221 32.9665C20.0671 33.0675 19.9126 33.1549 19.6369 33.3166C19.667 33.1409 19.7098 32.9679 19.7643 32.7985C20.3298 31.6081 20.8881 30.4105 21.4733 29.2332C22.0586 28.0559 22.8187 26.7646 23.3499 25.4661C23.9451 23.9279 24.2902 22.3041 24.3727 20.6564C24.3857 20.3216 24.4398 19.9895 24.534 19.6678C24.9845 18.2752 25.422 16.8762 25.9397 15.5105C26.4948 13.9845 26.8147 12.3832 26.8881 10.7612C26.8859 10.4246 26.9174 10.089 26.9823 9.75914C27.4486 7.91005 28.0862 6.10826 28.8864 4.37766C29.4108 3.24045 29.7808 2.02304 30.2318 0.832214C30.2642 0.757872 30.2808 0.677675 30.2808 0.596574C30.2808 0.515924 30.2646 0.435273 30.2322 0.36093C30.2002 0.286588 30.1529 0.219453 30.0939 0.164034C30.0349 0.108615 29.965 0.0658124 29.8884 0.0387789C29.5658 -0.102697 29.3906 0.173046 29.2157 0.381655C28.8458 0.805631 28.4827 1.22916 28.0857 1.61934C27.1508 2.54795 26.1281 3.39544 25.2738 4.38397C24.2718 5.54776 23.404 6.826 22.4889 8.07045C21.6774 9.10718 20.957 10.2124 20.3366 11.3735C19.7711 12.5639 19.3336 13.8106 19.0313 15.0933C18.3586 17.6498 17.6188 20.1855 16.8853 22.7217C16.6366 23.5895 16.3135 24.4302 16.0112 25.3453C15.9103 24.9011 15.8224 24.4974 15.735 24.1009C15.3029 22.5911 15.0767 21.0294 15.0623 19.4592C15.0722 18.6428 15.0047 17.8273 14.8605 17.024C14.8361 16.8937 14.7834 16.7707 14.7068 16.6626C14.6302 16.5549 14.5311 16.4648 14.4167 16.3986C14.1139 16.2774 13.9256 16.5802 13.798 16.8356C13.6881 17.0343 13.6003 17.2438 13.5354 17.4614C13.1925 19.0217 12.8226 20.5757 12.5333 22.1702C12.3716 23.0511 12.3986 23.9662 12.2774 24.861C12.0958 26.2064 11.8539 27.5112 11.6047 28.8363C11.6047 28.9372 11.5579 29.0314 11.5038 29.2602L11.2213 28.8363C10.7838 27.9901 10.2585 27.1917 9.65427 26.4551C9.5155 26.282 9.41232 26.0829 9.3515 25.8698C9.21002 25.5066 9.13612 25.1097 8.96806 24.7668C8.36161 23.3759 7.89935 21.9265 7.58891 20.4414C7.31543 19.3651 7.0194 18.2909 6.70086 17.219C6.15658 15.2713 5.90021 13.2541 5.94076 11.232C5.94076 10.5593 5.86012 9.82628 6.37826 9.27479C5.97456 8.64221 5.75918 8.52776 5.51047 8.86433C4.81796 9.75103 4.29757 10.7594 3.97677 11.8376C3.65237 13.2325 3.56812 14.6725 3.72762 16.0958C3.79295 16.9942 3.66228 17.8962 3.34419 18.7392C2.81568 20.0742 2.66428 21.5286 2.90713 22.9438C3.24325 24.5582 3.57982 26.1726 4.0439 27.7603C4.40029 29.0651 4.89142 30.3299 5.34198 31.6955C4.3129 30.9688 3.37122 30.3501 2.45613 29.6775C0.687239 28.3654 -1.3984 27.9081 -3.49034 27.4841C-5.23806 27.2111 -6.95334 26.7601 -8.60959 26.1388C-9.67246 25.7017 -10.7754 25.3584 -11.8653 25.002C-12.0807 24.9281 -12.4907 24.9146 -12.538 25.002C-12.6471 25.2705 -12.6777 25.5648 -12.6254 25.8495C-12.575 26.0685 -12.4763 26.273 -12.3362 26.4483C-11.9649 26.9782 -11.4711 27.4098 -10.8966 27.7063C-9.827 28.3186 -8.72358 28.9237 -7.66747 29.5964C-5.84046 30.7948 -3.89541 31.8023 -1.86248 32.6034C0.0352707 33.3265 1.78886 34.3813 3.31716 35.7181C4.74047 37.0265 6.0169 38.4859 7.12482 40.0705C7.74164 40.7977 8.25349 41.6087 8.64502 42.4787C8.7865 42.8689 9.04872 43.2118 9.22354 43.5952C9.32987 43.8182 9.38708 44.0611 9.39159 44.3085C9.32446 46.9113 8.29538 49.2389 7.25278 51.7684C7.13834 51.3917 7.07076 51.1898 7.0239 50.988C6.7414 49.7638 6.47243 48.5329 6.17641 47.3083C5.85336 45.9629 5.50371 44.6175 5.1739 43.3195C5.10001 43.0167 5.06623 42.7072 4.96531 42.4179C4.78374 41.8799 4.51474 41.8259 4.12456 42.2161C3.9966 42.344 3.82855 42.4247 3.70059 42.5594C3.57308 42.6937 3.35769 42.8752 3.33066 43.0573C3.22297 43.7299 3.16938 44.4427 3.12207 45.1424C3.07521 45.8422 3.12206 46.3666 3.03465 46.9722C2.68502 49.589 2.30836 52.1923 1.93845 54.802C1.93845 55.0376 1.81048 55.2597 1.7028 55.6698L1.53475 55.1989C0.962988 53.5107 0.915676 51.7346 0.5728 50.0058C0.392126 48.8677 0.131254 47.744 -0.207565 46.6423C-0.528364 45.748 -0.780224 44.8307 -0.960899 43.898C-1.09562 42.9216 -1.42228 41.9822 -1.92285 41.1334C-2.44099 40.3665 -2.94518 39.5929 -3.47008 38.8391C-4.33109 37.5879 -5.19209 36.3435 -6.07339 35.1125C-6.84294 33.9668 -7.91033 33.053 -9.16108 32.4691C-9.42015 32.3686 -9.65083 32.2073 -9.83375 31.9978C-10.0352 31.7617 -10.2956 31.5829 -10.5889 31.4801C-10.8818 31.3774 -11.1971 31.354 -11.5022 31.413C-12.0739 31.413 -12.3227 31.9239 -12.0064 32.4286C-11.7595 32.7994 -11.4729 33.1423 -11.1521 33.4509C-10.597 33.9199 -10.1397 34.4935 -9.80672 35.1396C-9.55801 35.7046 -9.30886 36.2696 -9.13405 36.8549C-8.91147 37.4379 -8.72945 38.0358 -8.58933 38.644C-8.27303 40.2989 -8.01756 41.9606 -7.69451 43.6087C-7.37146 45.2569 -7.02182 46.723 -6.70553 48.3175C-6.22748 50.8298 -5.31691 53.2399 -4.01479 55.4413C-3.57775 56.1947 -3.18081 56.9683 -2.73701 57.7148C-2.48109 58.1456 -2.14499 58.529 -1.86248 58.939C-1.23756 59.6964 -0.779331 60.5763 -0.517105 61.5225C-0.39996 62.1583 -0.224251 62.7823 0.0077858 63.3856C0.33309 64.1313 0.537668 64.9238 0.613363 65.7334C0.738619 66.471 0.794931 67.2185 0.781414 67.9669C0.639938 69.5321 0.592619 71.1046 0.639927 72.6757C0.606136 73.1163 0.522331 73.552 0.391218 73.9737C0.330393 74.2427 0.196127 74.4986 0.115477 74.7676C-0.281466 76.113 -0.664875 77.4583 -1.05506 78.8037C-1.10011 78.8992 -1.15195 78.9911 -1.21008 79.0795C-1.32136 78.9064 -1.41822 78.724 -1.49932 78.5347C-1.89581 77.4047 -2.3198 76.2743 -2.66268 75.124C-3.2412 73.1866 -3.75932 71.2361 -4.3108 69.2987C-4.4248 68.8941 -4.57349 68.5003 -4.75506 68.1214C-5.47461 66.6012 -6.29552 65.1279 -6.91414 63.5672C-7.31424 62.4516 -7.8788 61.4018 -8.58933 60.4529C-10.0757 58.5961 -11.6297 56.7934 -13.1566 54.9705C-13.4594 54.6073 -13.7284 54.2036 -14.0649 53.8738C-15.0472 52.9186 -16.083 51.9837 -17.0585 51.0551C-17.6771 50.4834 -18.3097 49.9319 -18.9418 49.3872C-19.2311 49.138 -19.5609 49.1718 -19.6145 49.4746C-19.7492 50.2076 -20.1862 50.8938 -19.9105 51.6877C-19.828 52.0716 -19.7695 52.46 -19.7357 52.8515C-19.5469 54.086 -19.2752 55.3061 -18.9215 56.5042C-18.3935 57.8261 -17.778 59.1116 -17.0787 60.352C-16.4664 61.5158 -15.7334 62.6052 -15.1278 63.7825C-14.1456 65.8006 -13.2107 67.8186 -12.3294 69.8975C-11.8297 71.2447 -11.2548 72.563 -10.6074 73.8462C-10.1365 74.6734 -9.7734 75.5615 -9.31563 76.3887C-8.88039 77.2997 -8.34827 78.1617 -7.7283 78.9582C-6.52847 80.3703 -5.46515 81.8932 -4.55322 83.5057C-3.44844 85.3179 -3.03528 87.4675 -3.38942 89.5599C-3.44754 89.8915 -3.48582 90.2263 -3.50385 90.5624C-3.56422 92.7418 -3.60479 94.9279 -3.67192 97.1077C-3.71247 98.5941 -3.79986 100.074 -3.85348 101.561C-3.86339 101.912 -3.7485 102.255 -3.52953 102.53C-3.31011 102.805 -3.00059 102.993 -2.65591 103.061C-1.18979 103.061 0.263252 101.998 0.0348186 100.437C-0.0661068 99.7646 -0.133688 99.0451 -0.194063 98.3454C-0.285076 97.6767 -0.318867 97.0018 -0.294989 96.3273C-0.194063 95.1031 0.0213242 93.8853 0.175865 92.6679C0.243 92.1362 0.290308 91.6118 0.350683 91.0801C0.56605 89.2504 0.566032 87.3738 1.69604 85.7527C2.14254 84.884 2.66744 84.0577 3.26353 83.2836C4.59358 81.9279 6.00924 80.6582 7.50149 79.4832C9.00816 78.2725 10.4702 77.0055 11.8872 75.6822C13.275 74.5013 14.5577 73.2028 15.7219 71.8011C16.054 71.3353 16.423 70.8969 16.8249 70.4891H16.8181ZM12.6879 68.895L12.7284 68.7941C13.5088 67.9934 14.3022 67.2135 15.0556 66.3994C16.4888 64.8386 18.0829 63.4329 19.4147 61.778C20.1613 60.8498 21.0831 60.0695 21.9171 59.222L22.0919 59.363C21.5202 60.1636 20.9619 60.9706 20.3902 61.7645C19.8184 62.5584 19.408 63.231 18.87 63.9037C18.1973 64.7111 17.5246 65.4712 16.8519 66.2646C16.1793 67.0585 15.6273 67.7785 15.0087 68.5319C14.7465 68.8545 14.4771 69.2046 13.9661 68.8346C13.7981 69.2784 13.206 69.5073 13.5354 70.0385C13.2529 70.3075 13.0983 70.7585 12.5131 70.7585C12.6879 70.4084 12.8226 70.0858 12.9839 69.8164C13.0353 69.7389 13.0704 69.652 13.0866 69.56C13.1024 69.4686 13.0992 69.3744 13.0772 69.2839C13.0551 69.1937 13.0145 69.1086 12.9578 69.0347C12.9014 68.9608 12.8298 68.8995 12.7483 68.8545L12.6946 68.9153C12.4459 69.5272 12.1968 70.1327 11.9413 70.7383C11.9413 70.7851 11.7998 70.7851 11.7259 70.8121L11.6922 70.8793C11.6115 71.2023 11.5308 71.552 11.4569 71.8547L11.2551 71.7741C11.4029 71.4781 11.5444 71.1753 11.6922 70.8793C11.6922 70.8793 11.6922 70.8121 11.6922 70.7851C11.5912 69.9106 12.19 69.433 12.6946 68.895H12.6879ZM10.3202 71.5051C10.4279 71.2627 10.7104 71.0947 10.9122 70.8996L11.087 71.0207L9.98364 73.3213L9.72816 73.2407C9.92325 72.6486 10.0845 72.0566 10.3269 71.5051H10.3202ZM9.37806 72.1778C9.26632 73.1704 8.88741 74.1143 8.28186 74.9091C8.36927 74.6464 8.44991 74.3774 8.55083 74.1152C8.65176 73.853 8.78648 73.5367 8.40981 73.2677L9.37806 72.1778ZM17.9148 52.0914C19.8788 50.5172 21.6752 48.728 23.6126 47.1335C24.7687 46.1643 25.8483 45.1073 26.8413 43.9719C27.2382 43.5213 27.5811 43.0167 28.0051 42.5797C27.71 43.5583 27.176 44.4486 26.4511 45.1695C25.7784 45.8422 25.0318 46.5148 24.3321 47.1875C23.9284 47.5777 23.5382 47.9742 23.1548 48.3779C21.5269 50.0999 19.9058 51.8355 18.2847 53.5575C18.1766 53.6508 18.0617 53.7364 17.9414 53.8134C17.9414 53.4972 17.9414 53.2953 17.9414 52.9389C16.9732 53.7125 16.9732 55.0106 15.9571 55.8315C16.3744 54.3311 16.7105 53.0534 17.9148 52.0914ZM13.3137 56.4434C13.5786 56.1983 13.862 55.973 14.1612 55.7707C14.1612 55.7707 14.1612 55.7238 14.1612 55.6968C14.5712 55.1277 15.0876 54.6434 15.6814 54.2708C15.4805 55.6571 14.8168 56.9349 13.798 57.8964C13.9729 57.3652 14.1409 56.8809 14.3022 56.3897C14.3829 56.1275 14.4973 55.8518 14.1612 55.7171L14.1206 55.7509C13.6768 56.8471 13.2394 57.937 12.7753 59.0336C12.623 59.4301 12.3473 59.7676 11.9882 59.9956C11.9954 59.522 12.1251 59.0584 12.3648 58.6502C12.486 58.401 12.7217 58.0983 12.6541 57.8897C12.5063 57.1769 12.9366 56.8335 13.3137 56.4434ZM12.641 60.6142C13.5489 59.6928 14.336 58.6835 15.17 57.7081C15.5737 57.244 15.8094 56.5713 16.6366 56.6655C16.7375 56.6655 16.9258 56.4168 16.9795 56.2483C17.1439 55.7355 17.4354 55.2728 17.8274 54.9029C18.9371 53.7526 20.0473 52.6023 21.1233 51.4255C22.1996 50.2482 23.2287 49.0105 24.3727 47.8264C24.9174 47.2411 25.5563 46.7433 26.2425 46.1179C26.2024 46.3328 26.2425 46.4337 26.1686 46.4811C24.8638 48.0215 24.11 49.8918 23.1012 51.6003C22.1311 53.4034 20.9453 55.0818 19.5697 56.5984C18.9912 57.1769 18.3185 57.6878 17.7332 58.2397C16.3005 59.5851 14.8943 60.9305 13.4412 62.2758C12.5468 63.0562 11.5912 63.7825 10.6563 64.5764C9.45918 65.5785 8.27511 66.5945 7.00363 67.5429C7.80428 66.4129 8.67205 65.323 9.39836 64.1795C10.2459 62.7399 11.5038 61.7442 12.614 60.6142H12.641ZM4.77696 67.8119C5.29511 66.8905 5.95428 66.0497 6.55307 65.1684C7.5808 63.6023 8.69007 62.0911 9.87595 60.6412C10.5486 59.8541 11.2213 59.0805 11.894 58.3001L11.9882 58.3808C11.6588 59.2688 11.3155 60.1569 10.9996 61.0715C10.9397 61.1954 10.8523 61.3036 10.7437 61.3878C9.64074 62.2285 9.00816 63.4329 8.22779 64.5291C7.39561 65.9186 6.47197 67.2514 5.46317 68.5183C4.88465 69.191 4.39354 69.8637 3.87584 70.5833C3.09818 71.6218 2.64626 72.8671 2.57733 74.162C2.54714 74.3909 2.49534 74.6158 2.4228 74.8347C1.96504 76.6311 1.50095 78.427 1.07742 80.2162C0.806639 81.3525 0.385826 82.4474 -0.173769 83.4724C-0.220627 83.3192 -0.249926 83.1611 -0.26119 83.0011C-0.120165 81.7233 0.0213108 80.4451 0.189369 79.1669C0.249743 78.696 0.397982 78.2387 0.498907 77.7679C0.7341 76.6712 0.949459 75.575 1.17158 74.4783C1.27927 74.0075 1.25225 73.4628 1.84429 73.2069C1.99207 73.1465 2.07948 72.9041 2.16689 72.7293C3.03467 71.0811 3.8488 69.4199 4.75037 67.8119H4.77696ZM26.5989 32.2871C26.9625 31.6144 27.3459 30.9417 27.7226 30.269C27.9244 29.8991 28.2673 29.8725 28.6913 29.8388C28.0186 30.8881 27.3459 31.8568 26.6732 32.8656L26.4984 32.785C26.5106 32.6155 26.5448 32.4484 26.5989 32.2871ZM20.6258 34.0497C21.1773 33.6325 21.7892 33.3099 22.3546 32.9598L22.5362 32.6975L23.8478 32.0988L23.8883 32.0384H23.9284C24.9345 31.3197 26.0438 30.7574 27.218 30.37C27.0296 30.72 26.9287 30.9552 26.7877 31.1639C26.1335 31.9325 25.5504 32.7588 25.0454 33.6325C25.0116 33.7203 24.8232 33.7401 24.6214 33.8275C24.7426 32.8994 25.6239 32.4151 25.6369 31.5338C24.6011 32.3276 24.11 33.5518 23.276 34.4939L23.108 34.4061C23.2895 34.0564 23.4576 33.7334 23.6392 33.3567C23.8207 32.98 23.996 32.7313 24.1506 32.4015C24.3051 32.0722 24.1168 32.0722 23.9352 31.9978H23.8816C23.5788 32.4957 23.2693 32.9936 22.9597 33.4847C22.6506 33.9758 22.3546 34.5002 22.0383 34.9783C21.9712 35.0788 21.8432 35.1328 21.6076 35.1193C21.877 34.6417 22.119 34.1574 22.4082 33.7C22.5276 33.564 22.6047 33.3959 22.6295 33.2166C22.6547 33.0373 22.6268 32.8543 22.5497 32.6908C22.5497 32.7651 22.5024 32.8656 22.4488 32.8994L22.3546 32.9598C21.9775 33.4914 21.6008 34.0163 21.2377 34.5611C21.0025 34.9039 20.8142 35.2806 20.565 35.6239C20.4425 35.7334 20.3041 35.824 20.1545 35.8929L20.0338 35.7717C20.1883 35.4424 20.3496 35.099 20.5046 34.7895C20.4722 34.7507 20.4362 34.7147 20.397 34.6823C20.2438 34.7516 20.1014 34.8422 19.973 34.9512C19.6905 35.2874 19.435 35.6239 19.166 36.0141C18.979 36.2362 18.7465 36.4156 18.4843 36.5399C18.2221 36.6643 17.936 36.7301 17.6458 36.7337C17.7197 36.5588 17.7265 36.4309 17.8004 36.3773C18.7083 35.5969 19.6639 34.803 20.6258 34.0632V34.0497ZM20.3366 12.914C21.2476 10.8644 22.4655 8.96616 23.9487 7.28332C24.6214 6.43582 25.2941 5.5347 25.9668 4.72054C26.8143 3.7586 27.7361 2.8773 28.6575 1.95591L28.8593 2.07666C28.6958 2.67455 28.4939 3.26118 28.2538 3.83248C27.0679 6.28488 26.1655 8.86478 25.5631 11.5213C25.4621 11.9588 25.4757 12.4228 25.3545 12.8666C25.072 13.8894 24.7759 14.8847 24.406 15.9075C23.7586 17.6746 23.2895 19.502 23.007 21.3628C22.8349 22.1815 22.6101 22.988 22.3344 23.7778C22.2677 23.9914 22.1866 24.2005 22.0919 24.4032C21.7085 25.3048 21.2985 26.1996 20.9349 27.0939C20.5718 27.9888 20.1613 28.9237 19.8653 29.859C19.5143 31.017 18.993 32.1168 18.3185 33.1215C17.8743 33.7604 17.5449 34.4669 17.148 35.1396C17.0331 35.3112 16.9051 35.473 16.7645 35.6239C16.687 35.4297 16.6514 35.222 16.6595 35.0134C16.6677 34.8048 16.7195 34.6003 16.8114 34.4128C17.417 32.2871 18.0896 30.1749 18.6276 28.0293C19.011 26.4821 19.166 24.8808 19.5156 23.3205C19.7175 22.4257 20.0942 21.5714 20.3834 20.6969C20.6466 19.9922 20.8714 19.2736 21.0561 18.5441C21.4625 16.7879 22.0577 15.0802 22.8322 13.4519C23.2693 12.5373 23.7 11.629 24.1776 10.7612C24.6552 9.89341 25.0454 9.18062 25.4486 8.39349C25.6239 8.07044 25.7784 7.72081 25.9397 7.41128C26.2831 6.7386 26.6124 6.01229 26.9692 5.30581C27.0571 5.08639 27.1315 4.86157 27.1909 4.63313C26.9904 4.6444 26.7976 4.71423 26.6363 4.83363C26.475 4.95303 26.352 5.11748 26.283 5.30581C25.6104 6.65118 24.9377 7.99656 24.265 9.34193C23.518 10.9094 22.8453 12.517 22.0919 14.0845C20.7466 16.8289 20.0739 19.8089 19.0448 22.6478C18.7961 23.5098 18.6227 24.3924 18.5267 25.2845C18.3185 26.3812 18.1365 27.4841 17.8945 28.5808C17.612 29.8658 17.2687 31.1436 16.9461 32.4218C16.9051 32.5439 16.856 32.6633 16.7979 32.7782L16.6704 32.7246C16.7564 32.0938 16.7988 31.4576 16.7979 30.821C16.7528 30.1244 16.6474 29.4337 16.482 28.7556C16.3338 28.0708 16.3338 27.362 16.482 26.6772C17.2818 23.0574 18.2649 19.4809 19.4282 15.9611C19.6639 14.9523 19.9058 13.9029 20.3366 12.914ZM14.1206 38.476C14.1206 38.234 14.6185 37.9448 14.9213 37.7159C15.2795 37.455 15.6521 37.2144 16.0378 36.9963C16.3419 36.8341 16.6537 36.6882 16.9732 36.5588C16.8817 36.9936 16.7006 37.4041 16.441 37.7645C16.1815 38.1245 15.8494 38.4269 15.466 38.6508L15.0759 38.3818C14.5712 38.5499 14.4505 39.0144 14.2013 39.3775C13.9526 39.7407 13.9053 40.1714 13.2934 40.2989C13.3876 40.0773 13.4615 39.9561 13.502 39.8213C13.6566 39.364 14.1139 39.0748 14.0869 38.4895L14.1206 38.476ZM12.8424 25.0962C13.0177 23.7175 13.1051 22.3248 13.2326 20.9389C13.288 19.7643 13.6002 18.6162 14.1477 17.5754C14.2049 17.7214 14.2477 17.8724 14.2757 18.0264C14.3428 19.0623 14.3896 20.0914 14.4572 21.1272C14.468 21.5453 14.5126 21.9616 14.5915 22.3721C15.1119 24.7781 15.3957 27.2291 15.439 29.6905C15.4219 29.8023 15.4219 29.9158 15.439 30.0271C15.9571 31.5338 15.7152 33.0544 15.6007 34.5881C15.598 35.1058 15.4931 35.6181 15.2912 36.0948C15.1565 36.2944 14.9956 36.475 14.8136 36.6327L14.6789 36.5386C14.6789 36.2628 14.7194 35.9938 14.76 35.7249C14.8605 34.4412 14.733 33.1499 14.3829 31.9104C14.2419 31.2377 14.2887 30.5182 14.1878 29.8252C13.9923 28.356 13.8999 26.8745 13.9121 25.3922C13.9121 25.3453 13.8584 25.3048 13.771 25.1836C13.7079 25.3237 13.6539 25.4674 13.6093 25.6143C13.1925 27.2823 13.6093 28.9777 13.6093 30.6259C13.6471 31.6027 13.78 32.5736 14.0062 33.5252C14.1774 34.0862 14.1774 34.6859 14.0062 35.2473C13.8179 34.5205 13.6566 33.7874 13.4209 33.0742C13.252 32.5191 13.0267 31.9825 12.7483 31.4734C12.3004 30.7529 12.1193 29.8982 12.2373 29.0584C12.3986 27.7468 12.6744 26.428 12.8424 25.0962ZM9.2839 27.6391C10.1517 29.2602 11.0064 30.8949 11.894 32.516C12.8149 33.9857 13.2439 35.7104 13.1186 37.4401L12.163 38.3012C12.0012 37.5176 11.7994 36.7431 11.5579 35.9803C11.2145 35.0387 10.7708 34.1303 10.3603 33.2089C9.912 32.1596 9.44339 31.1147 8.95453 30.0739C8.84595 29.8473 8.78558 29.6009 8.77611 29.3499C8.7671 29.0989 8.80946 28.8484 8.90047 28.6146C8.99509 28.2749 9.06222 27.9284 9.10232 27.5783C9.18297 27.5783 9.26408 27.5783 9.2839 27.6391ZM8.61123 25.9572C8.74594 26.2667 8.84688 26.4956 8.88067 26.5898L8.20797 28.6078C7.72361 28.0293 8.14714 27.6256 8.20797 27.2151C8.20706 26.7587 8.36117 26.3149 8.64502 25.9572H8.61123ZM7.93178 24.2149C8.10705 24.565 8.28862 24.8876 8.46344 25.271C7.54836 25.6747 7.99937 26.7105 7.35327 27.289C7.37895 26.2771 7.50283 25.2701 7.72361 24.2825L7.93178 24.2149ZM5.69882 28.5402C5.20095 27.2908 4.89457 25.9734 4.79049 24.6321C4.75039 23.9125 4.54852 23.1993 4.4476 22.4793C4.3264 21.7895 4.24576 21.0934 4.20521 20.3941C4.18584 19.8679 4.24712 19.3416 4.3868 18.8334C4.86123 16.9852 5.00224 15.0672 4.804 13.1694C4.7283 12.5395 4.83825 11.9011 5.1203 11.3329L5.28835 11.3667C5.3307 11.6402 5.34648 11.9173 5.33521 12.194C5.14688 13.9092 5.63122 15.5574 6.00789 17.1785C6.38501 18.8001 6.8491 20.5424 7.28614 22.2171C7.40734 22.6812 7.5754 23.1254 7.71687 23.5625C7.04419 24.2352 7.15185 25.1097 6.81529 25.9369C6.5801 25.7085 6.45214 25.5472 6.53955 25.2106C6.72112 24.5379 6.83558 23.8652 6.9766 23.1926C6.98426 23.0493 6.98426 22.9056 6.9766 22.7618C6.84233 22.7618 6.72113 22.7618 6.70086 22.8362C6.15613 23.9797 5.63797 25.1097 6.25704 26.4213C6.66975 27.34 7.16267 28.2199 7.73037 29.0516C8.21157 29.7973 8.62383 30.5853 8.9613 31.4062C9.63398 32.9467 10.3067 34.4939 10.9055 36.0542C11.0897 36.5751 11.247 37.1049 11.3763 37.642L11.2416 37.7564C11.0938 37.6821 10.8784 37.6487 10.8045 37.5275C10.5135 37.0463 10.2486 36.5503 10.0107 36.0407C9.50604 35.0751 8.88966 34.1718 8.17417 33.35C7.7191 32.7444 7.32487 32.0956 6.99687 31.413C6.50756 30.4912 6.07368 29.5409 5.69882 28.5673V28.5402ZM0.458345 30.5583C-0.0462799 30.2087 0.189369 29.6905 0.0145512 29.1323C0.680477 29.4621 0.707504 29.5963 0.458345 30.5718V30.5583ZM10.0107 42.3102C9.83045 41.6682 9.68446 41.0171 9.57317 40.3598C9.49928 40.3999 9.33799 40.467 9.08252 40.5814C8.49724 39.9087 7.87817 39.1622 7.28614 38.4224C6.61345 37.5681 5.98808 36.6665 5.26809 35.8393C4.22369 34.7377 2.9824 33.8411 1.60864 33.1954C-0.604506 31.9915 -2.85099 30.8476 -5.1182 29.6905C-5.49487 29.4954 -5.89858 29.3747 -6.28876 29.2129C-8.1293 28.3871 -9.86576 27.3463 -11.4616 26.1122C-11.5333 26.0604 -11.5927 25.9928 -11.6346 25.9144C-11.6765 25.8364 -11.7 25.7499 -11.7036 25.6612C-11.1251 25.8968 -10.5335 26.1122 -9.95497 26.3339C-7.7567 27.2003 -5.47236 27.8293 -3.14027 28.2109L-2.64285 28.3051C-1.77507 28.4934 -1.80841 28.5001 -1.72776 29.3747C-1.69397 29.7378 -1.80166 30.2492 -1.10915 30.4511C-1.10915 29.8856 -1.10915 29.3882 -1.10915 28.9106C-0.779343 28.7556 -0.53738 28.8565 -0.590998 29.1323C-0.799606 30.2492 -0.0593281 30.7466 0.754383 31.2247C2.02271 31.987 3.21667 32.8679 4.31964 33.8546C4.41335 33.9163 4.50304 33.9839 4.58864 34.0564C6.27058 35.8929 8.12056 37.5812 9.51278 39.6668C9.76059 40.0453 9.98544 40.4382 10.1855 40.8441C10.3202 41.1063 10.468 41.1735 10.7302 40.9112C10.1404 39.3847 9.22174 38.0069 8.03947 36.8751C7.27262 36.0948 6.54632 35.2806 5.74568 34.5408C4.81752 33.7 3.82177 32.9197 2.85307 32.119C2.57192 31.8852 2.27275 31.6734 1.95872 31.4869C1.6681 31.3414 1.43969 31.0958 1.31623 30.7953C1.19233 30.4952 1.18151 30.16 1.28604 29.8523C1.91322 30.1609 2.52371 30.502 3.11575 30.8746C3.93621 31.4531 4.71659 32.0924 5.4902 32.7381C5.78847 32.9868 6.05521 33.2716 6.2841 33.5856C6.55308 33.942 6.95678 34.0294 7.28614 34.2583C7.84754 34.676 8.34584 35.172 8.76621 35.7316C9.53307 36.7269 10.2458 37.7497 10.9456 38.8125C11.0771 39.0901 11.1699 39.3843 11.2213 39.6871C10.9591 39.9696 10.6162 40.2318 10.9253 40.6824C11.2348 41.1334 11.4299 41.0928 11.7733 40.8103C11.9282 40.6513 12.0679 40.4778 12.19 40.2922C12.5171 39.8448 12.9041 39.4438 13.3403 39.1018C13.1145 39.401 12.9438 39.738 12.8361 40.0971C12.7388 40.8022 12.4067 41.4537 11.894 41.9471C11.6922 42.176 11.5782 42.4314 12.0287 42.6198C12.5198 42.1219 13.0109 41.6042 13.5286 41.1131C14.0977 40.5494 14.6951 40.0151 15.3182 39.5118C16.255 38.7598 17.2318 38.0592 18.2442 37.4131C19.1115 36.9076 20.0104 36.4584 20.9349 36.0677C22.4619 35.395 24.0091 34.7224 25.5297 34.0163C26.5588 33.532 27.5478 32.9598 28.5768 32.4421C29.0544 32.1997 29.5523 32.0113 30.0231 31.7694C31.1667 31.1841 32.3304 31.5139 33.4875 31.6752C33.9853 31.7424 34.4765 31.9239 34.8932 31.4328L35.5659 32.0384C35.6939 31.9645 35.8218 31.9307 35.8754 31.85C35.9867 31.636 36.162 31.4617 36.376 31.3508C36.5905 31.24 36.8338 31.1985 37.073 31.231C37.1262 31.2413 37.1812 31.2413 37.2343 31.231C39.2524 30.5583 41.3984 30.3231 43.3624 29.4418C44.3784 28.9845 45.448 28.6281 46.4771 28.2041C46.8141 28.0451 47.1403 27.8631 47.4526 27.6594C47.4526 27.6053 47.4526 27.545 47.3985 27.4841C47.2575 27.4841 47.0894 27.3701 46.9682 27.4102C45.3133 28.009 43.6048 28.4127 42.0305 29.2805C41.6484 29.4576 41.243 29.5801 40.8266 29.6437C39.7548 29.8725 38.6851 30.0965 37.6177 30.3163C37.4632 30.3501 37.3015 30.3163 37.0392 30.37L37.7993 29.139C37.7525 29.0922 37.7119 29.0381 37.6646 28.9845C37.5042 29.0291 37.3519 29.0994 37.214 29.1931C36.8509 29.5427 36.5414 29.9397 36.1715 30.2893C35.943 30.4745 35.6997 30.6408 35.4452 30.7872C35.4452 30.0068 36.353 29.8388 36.1985 29.0584C36.0255 29.0944 35.861 29.1629 35.7141 29.2602C35.3172 29.6504 34.9473 30.0739 34.5571 30.4776C34.2881 30.7601 34.0187 31.0764 33.4672 30.7737L34.3215 29.6572C34.0592 29.3679 33.8709 29.4954 33.7029 29.6572C33.3924 29.9379 33.109 30.2461 32.8549 30.5786C32.6801 30.8277 32.512 30.962 32.2363 30.8813C31.1329 30.552 30.2182 31.0296 29.2901 31.554C28.8729 31.7762 28.4691 32.0113 28.0587 32.2267L27.9443 32.0857L29.3973 29.4553C30.0695 29.2355 30.7548 29.0579 31.4492 28.9237C33.2244 28.6011 35.0356 28.529 36.8306 28.7088C37.9692 28.8439 39.1172 28.8755 40.2612 28.8029C40.3148 28.8092 40.3693 28.8092 40.4229 28.8029C42.1918 28.3519 43.9679 27.9487 45.7102 27.4576C47.0556 27.0674 48.3068 26.6299 49.7463 26.852C50.5938 26.9867 51.4616 26.9867 52.3699 27.1818C52.1753 27.2989 51.9703 27.3981 51.7576 27.4774C50.1865 27.9879 48.6538 28.6083 47.1701 29.3341C45.8247 29.9262 44.4117 30.4375 43.0263 30.9755C42.8713 31.0427 42.7032 31.0764 42.5554 31.1571C41.2862 31.8406 39.9174 32.3195 38.4991 32.5764C37.5141 32.8958 36.5486 33.2711 35.6065 33.7C33.8574 34.2853 32.1016 34.8706 30.3192 35.3279C29.4879 35.4487 28.6498 35.5113 27.81 35.5162C27.1373 35.5901 26.4646 35.765 25.8388 35.8929L23.6256 36.3237C21.7648 36.7508 19.9766 37.4487 18.3185 38.3953C17.1822 38.9995 16.1207 39.7357 15.1565 40.5882C14.569 41.0527 14.0679 41.6177 13.6768 42.2566C13.4926 42.5616 13.3903 42.9095 13.3808 43.2654C13.3962 43.5695 13.3209 43.8714 13.1655 44.1332C11.9877 46.0814 11.0095 48.1436 10.2458 50.2883C9.86242 51.2164 9.41275 52.1157 8.90047 52.979C8.73016 53.3323 8.58419 53.6963 8.46344 54.0689C8.00883 55.5472 7.39786 56.9723 6.64047 58.3204C6.41249 57.244 6.57966 56.1217 7.11132 55.1588C7.27983 54.9489 7.42851 54.7236 7.55512 54.4861C7.6628 54.2235 7.69659 53.9477 8.08677 53.9477C8.36927 53.9477 8.49722 53.7526 8.5238 53.4368C8.57742 53.0214 8.66754 52.6118 8.79325 52.2122C9.08881 51.0754 9.3916 49.9386 9.68086 48.8019C9.68086 48.6469 9.64076 48.4653 9.68086 48.304C9.66464 47.8273 9.79621 47.3574 10.0575 46.9586C10.2058 46.6919 10.276 46.3887 10.2594 46.0841C10.2332 45.6786 10.2287 45.2722 10.2458 44.8667C10.3842 44.0129 10.3031 43.1379 10.0107 42.3237V42.3102ZM-0.678392 47.7593C-0.322001 49.5147 -0.00572586 51.2773 0.317326 53.0331C0.317326 53.2011 0.31732 53.3692 0.384453 53.5309L1.53475 58.5961C1.55728 58.6759 1.56133 58.7601 1.54646 58.8417C1.53114 58.9237 1.49734 59.0007 1.44732 59.067C1.05038 58.0109 0.666962 56.948 0.26326 55.8851C0.0411358 55.3134 -0.194042 54.7484 -0.449511 54.1901C-0.81311 53.403 -1.19654 52.6226 -1.57321 51.8423C-1.64755 51.6931 -1.68676 51.5282 -1.68676 51.3615C-1.68676 51.1943 -1.64755 51.0299 -1.57321 50.8803C-1.4047 50.45 -1.29747 49.999 -1.13572 49.4813C-1.8084 49.4813 -1.70749 50.2414 -2.27925 50.3824C-2.36035 50.0999 -2.56174 49.8039 -2.50813 49.562C-2.21887 48.3175 -1.86923 47.0934 -1.49932 45.7007C-1.08841 46.3238 -0.809053 47.0244 -0.678392 47.7593ZM-2.02377 43.5213L-1.79489 43.5614C-1.58673 45.1492 -2.46757 46.4946 -2.851 48.0751C-3.02942 47.9733 -3.16415 47.8093 -3.22948 47.6147C-3.29526 47.4205 -3.28759 47.2083 -3.20784 47.019C-2.80414 45.8575 -2.40945 44.6896 -2.02377 43.5146V43.5213ZM1.66947 68.1818C1.65235 67.8749 1.65235 67.5672 1.66947 67.2604C1.67352 66.2241 1.54916 65.1919 1.2991 64.1862C1.10626 63.1477 0.808428 62.1312 0.411486 61.1522C-0.0327663 60.1772 -0.517111 59.1949 -1.00146 58.2798C-1.98323 56.5245 -3.05286 54.8155 -4.02156 53.0466C-5.1056 51.0804 -5.82109 48.933 -6.13377 46.7099C-6.28877 45.5727 -6.61812 44.4698 -6.80645 43.3465C-7.07588 41.9403 -7.29758 40.5346 -7.56025 39.1284C-7.9216 36.9315 -8.72988 34.8323 -9.93468 32.9598C-9.99821 32.8242 -10.0478 32.6822 -10.0825 32.5362C-9.06465 32.9494 -8.15724 33.5942 -7.43229 34.4196C-6.53748 35.5699 -5.72375 36.7877 -4.91635 37.9984C-4.10895 39.2095 -3.36915 40.3999 -2.60905 41.6042C-2.43829 41.8615 -2.2923 42.1336 -2.172 42.4179C-2.11342 42.572 -2.11342 42.7419 -2.172 42.8955C-2.66941 43.9922 -3.20783 45.0685 -3.71246 46.185C-3.82285 46.0891 -3.89899 45.9598 -3.92963 45.8165C-3.95981 45.6732 -3.94272 45.5241 -3.88054 45.3912C-3.67869 44.8126 -3.50387 44.2143 -3.34212 43.6223C-3.31463 43.3672 -3.31463 43.11 -3.34212 42.8554C-4.0148 43.3195 -3.86024 44.0863 -4.46579 44.463L-5.27275 42.4449C-5.68321 42.7612 -5.50163 43.1176 -5.42098 43.3398C-5.17858 44.1201 -4.88934 44.8802 -4.60684 45.6403C-4.25721 46.582 -3.83321 47.5034 -3.55747 48.4653C-3.11052 49.9413 -2.52029 51.3696 -1.79489 52.7303C-0.806364 54.7484 -0.0931282 56.8137 0.700758 58.8854C1.00308 59.6928 1.13779 60.5606 1.37343 61.4013C1.51446 61.9393 1.68254 62.4709 1.81726 63.0157C1.88754 63.2842 1.92808 63.5591 1.93845 63.8366C1.8979 64.4705 1.8979 65.1063 1.93845 65.7402C2.09794 66.8495 2.03395 67.979 1.7501 69.0631C1.72982 68.7671 1.68929 68.471 1.66947 68.1755V68.1818ZM3.98354 62.639C4.07094 61.8924 4.21873 61.1522 4.30614 60.3988C4.44085 59.235 4.54853 58.0717 4.67604 56.9079C4.70352 56.6605 4.74858 56.4154 4.81076 56.1744C5.11218 54.7425 5.10092 53.2624 4.77696 51.8355C4.69902 51.9504 4.64225 52.0779 4.60891 52.2122C4.54178 53.0799 4.50122 53.941 4.45436 54.8087C4.45436 55.1183 4.45437 55.4278 4.40706 55.7306C4.08401 57.7486 3.73436 59.8203 3.43158 61.8654C3.35093 62.4034 3.31715 62.9485 3.26353 63.4933C3.26353 63.8834 3.26354 64.2736 3.21623 64.6571H2.98779C2.95445 64.4579 2.96212 64.2538 3.00943 64.0574C3.05674 63.8609 3.14323 63.6757 3.26353 63.5135V63.4662C3.20992 63.3991 3.10899 63.332 3.11575 63.2711C3.28381 61.1256 3.49243 58.9863 3.6267 56.8403C3.7141 55.5823 3.66724 54.3244 3.72086 53.0669C3.77492 51.9229 3.88891 50.7794 3.97677 49.6291C4.02363 48.9564 4.084 48.3576 4.11779 47.7187C4.17817 46.6559 4.20522 45.5862 4.26604 44.5301C4.28902 44.3148 4.38363 44.1138 4.53502 43.9584C4.73011 44.6982 4.93872 45.4317 5.1203 46.1783C5.55058 47.9679 5.98132 49.7571 6.37826 51.5597C6.70401 52.7889 6.66435 54.0865 6.2638 55.2931C5.83983 56.4235 5.92724 57.6004 5.78621 58.7642C5.78621 59.0399 5.7254 59.3161 5.67178 59.5919C5.45642 60.7755 5.24779 61.9596 4.99908 63.1369C4.84454 63.8767 4.62241 64.6034 4.42056 65.3901C5.00584 65.747 4.80401 66.2516 4.54178 66.7355C4.01012 67.6844 3.45187 68.626 2.83957 69.6889C2.73323 68.8247 2.85623 67.9475 3.1964 67.146C3.48071 66.4444 3.6749 65.71 3.77492 64.9598C3.90243 64.1997 3.89568 63.4059 3.98354 62.6322V62.639ZM-9.53098 60.5403C-9.43411 60.7178 -9.37059 60.9116 -9.34266 61.1121C-9.43187 62.0596 -9.72338 62.9774 -10.1969 63.8028C-10.365 62.6593 -9.7531 61.6771 -9.73283 60.5741L-9.53098 60.5403ZM-10.1298 60.2713C-10.365 61.0783 -10.6141 61.8789 -10.8628 62.6795C-10.8628 62.767 -11.0043 62.8273 -11.1187 62.9485C-11.1926 62.8003 -11.2936 62.6994 -11.2801 62.6255C-11.0782 61.5293 -10.8696 60.4461 -10.6412 59.2621C-10.2172 59.531 -9.99507 59.8135 -10.1298 60.251V60.2713ZM-6.92091 77.1961C-7.93016 75.5547 -8.71728 73.7719 -9.61164 72.0498C-9.76753 71.6614 -9.94957 71.2839 -10.1568 70.9198C-11.253 69.3591 -11.6973 67.5158 -12.4101 65.7871C-13.0544 64.3029 -13.8361 62.8819 -14.7444 61.5423C-15.4842 60.3452 -16.2646 59.1949 -17.0044 57.9906C-17.2468 57.5617 -17.4491 57.1111 -17.61 56.6452C-17.9799 55.6499 -18.2826 54.6272 -18.6863 53.6454C-19.013 52.5559 -19.136 51.4156 -19.0495 50.2815C-15.6861 52.6294 -13.4594 55.8045 -10.9773 58.6971L-11.9054 61.8857C-12.0262 61.2981 -11.9964 60.6894 -11.818 60.1163C-11.7509 59.5716 -11.677 59.0269 -11.5964 58.4416C-11.9528 58.3542 -12.0604 58.5087 -12.1208 58.8048C-12.2222 59.3963 -12.3776 59.9771 -12.5849 60.5403C-12.7674 59.9852 -12.7534 59.3842 -12.5448 58.8385C-12.4371 58.5556 -12.3763 58.3069 -12.807 58.1118C-12.9751 58.6029 -13.1233 59.0535 -13.3382 59.6996C-13.9708 58.798 -14.4551 58.078 -14.9999 57.3179C-15.3162 57.4932 -15.2689 57.8158 -15.0941 58.105C-14.8183 58.5556 -14.4822 58.966 -14.1794 59.4035C-13.7554 60.0222 -13.3382 60.6547 -12.9147 61.2734C-12.4907 61.8924 -12.114 62.4777 -11.6635 63.0359C-11.2129 63.5942 -10.5335 64.2533 -10.0153 64.8995C-9.75446 65.2266 -9.54991 65.5947 -9.40979 65.9889C-8.8583 67.4284 -8.34016 68.8815 -7.82246 70.3278C-7.412 71.3397 -7.15789 72.408 -7.06913 73.4961C-6.9619 74.3229 -6.70417 75.1231 -6.30903 75.8575C-5.69672 77.2029 -5.01054 78.5883 -4.3311 79.9405C-4.00985 80.4401 -3.7823 80.9943 -3.6584 81.5751C-4.82895 80.0482 -5.99951 78.7028 -6.92091 77.1758V77.1961ZM-1.12895 101.346C-1.2069 101.581 -1.3646 101.781 -1.57456 101.913C-1.78452 102.044 -2.03369 102.098 -2.27925 102.065C-2.37386 102.038 -2.46083 101.99 -2.53472 101.926C-2.60861 101.861 -2.66763 101.781 -2.70728 101.692C-2.74693 101.602 -2.76675 101.505 -2.76495 101.406C-2.76315 101.308 -2.7397 101.212 -2.69645 101.124C-2.61084 100.914 -2.45046 100.745 -2.24636 100.648C-2.04225 100.551 -1.8093 100.533 -1.59348 100.599C-1.18978 100.727 -1.01496 101.009 -1.12895 101.325V101.346ZM-0.779316 92.5133C-0.974409 93.8988 -1.19655 95.2915 -1.30424 96.6837C-1.37813 97.7065 -1.30422 98.7355 -1.26367 99.8119L-2.60905 99.9529C-2.63969 99.7552 -2.65319 99.5547 -2.64959 99.3542C-2.56849 98.5134 -2.44774 97.6794 -2.36664 96.8387C-2.17831 94.9148 -1.98999 92.9909 -1.83545 91.067C-1.7949 90.6295 -1.93638 90.1722 -1.90934 89.7217C-1.86249 88.8737 -1.74804 88.0262 -1.6809 87.1719C-1.64891 86.8998 -1.66513 86.6245 -1.72776 86.3582C-1.876 85.8266 -2.09091 85.3021 -2.25942 84.7772C-2.51849 84.1568 -2.65547 83.4922 -2.66268 82.8195C-2.67439 82.3721 -2.76539 81.9301 -2.93209 81.5147C-3.12313 80.8975 -3.34753 80.291 -3.6048 79.6985C-3.94091 78.9384 -4.3311 78.2049 -4.70777 77.4583L-5.831 75.2722L-5.07767 73.0185C-5.75035 72.9784 -5.63636 73.6511 -5.96572 73.8863C-6.36942 73.2677 -6.40951 73.2136 -6.00626 72.1372C-5.79089 71.5925 -5.79767 70.9063 -5.15832 70.4959L-5.45433 69.9376C-6.28201 70.2607 -5.95894 71.2226 -6.55098 71.7205C-6.64604 71.6074 -6.7105 71.4722 -6.73888 71.3276C-6.76727 71.1829 -6.75825 71.0334 -6.71229 70.8928C-6.49062 70.2607 -6.23471 69.6484 -6.03961 69.0162C-5.97203 68.845 -5.95355 68.6589 -5.98599 68.4778C-6.06213 68.2111 -6.15899 67.9502 -6.27523 67.6974C-6.53746 68.4512 -6.79971 69.2046 -7.05563 69.9579L-7.29081 69.8975C-7.8896 68.868 -7.04885 68.0407 -6.79969 67.1058C-6.91413 66.877 -7.10247 66.877 -7.24395 67.0721C-7.51293 67.4555 -7.74183 67.8727 -8.05767 68.4174C-8.42803 67.4149 -8.73035 66.4935 -9.10701 65.5451C-8.59563 64.8756 -8.34062 64.0452 -8.38748 63.204C-9.06016 62.9756 -8.81777 63.7289 -9.17461 63.8767C-9.23814 63.1977 -9.1318 62.5133 -8.86507 61.8857C-8.31358 62.1411 -8.22616 62.6863 -8.06441 63.1098C-7.58456 64.4512 -6.99749 65.751 -6.30903 66.9982C-6.24055 67.1757 -6.19325 67.3609 -6.16757 67.5497C-5.63186 68.0376 -5.25474 68.6751 -5.08443 69.3794C-4.88844 69.9885 -4.72668 70.6085 -4.60008 71.2361L-4.03506 73.4758C-3.36238 75.3664 -2.6897 77.2497 -2.1247 79.1669C-1.97331 79.9085 -1.90347 80.6641 -1.91608 81.4205C-1.87508 82.8732 -1.67414 84.3168 -1.3173 85.7257C-1.24341 85.9879 -1.02803 86.2168 -0.987932 86.479C-0.887007 87.2323 -0.442772 87.9992 -0.543697 88.6854C-0.725723 89.9433 -0.6045 91.2283 -0.779316 92.493V92.5133ZM3.45188 80.788C2.57059 81.8779 1.74335 83.0079 0.902607 84.1514C0.707516 84.4141 0.545774 84.7101 0.276791 85.1336C0.25201 84.9484 0.25201 84.7606 0.276791 84.5754C0.588127 83.3526 1.14906 82.2072 1.92492 81.212C2.37953 80.6294 2.79315 80.0157 3.16261 79.3755C4.59403 77.4029 6.15387 75.5268 7.8313 73.7584C7.90699 73.6773 7.98764 73.6006 8.07324 73.5299L8.24132 73.5835C8.21744 73.7593 8.17913 73.9323 8.12687 74.1017C7.77724 74.8618 7.45418 75.6219 7.05093 76.3684C6.92388 76.6108 6.76798 76.8366 6.5864 77.0411C5.53705 78.2923 4.4742 79.5102 3.45188 80.7681V80.788ZM7.09779 78.2455C6.59317 78.619 6.06285 78.956 5.51047 79.2543L5.38928 79.0997C5.58437 78.9249 5.75918 78.7366 5.96103 78.5748C6.16288 78.4135 6.34445 78.3932 6.43862 78.2455C7.78399 76.0256 9.80204 74.3842 11.5849 72.5612C12.4459 71.6867 13.421 70.9266 14.2757 70.0723C15.1299 69.2181 15.9436 68.3435 16.7713 67.4758C17.1345 67.0923 17.5111 66.7089 17.8472 66.3052C17.9883 66.0934 18.1077 65.8682 18.2041 65.6325C18.291 65.3888 18.4185 65.1617 18.5807 64.9598C19.1755 64.3435 19.6661 63.6347 20.0338 62.8611C20.4443 62.2984 20.8935 61.7658 21.3792 61.2666C21.7414 60.8395 22.0676 60.3826 22.3546 59.9014C22.4695 59.6076 22.4907 59.2855 22.415 58.9796C23.4328 57.4909 24.4511 56.0086 25.4689 54.533L25.6104 54.6204C25.1931 55.4346 24.7759 56.2483 24.3524 57.0557L21.5472 62.4371C20.8754 63.6658 20.0698 64.8161 19.1457 65.8677C17.4976 67.8119 15.863 69.756 14.1747 71.6664C11.9724 74.0161 9.60741 76.2076 7.09779 78.2252V78.2455ZM38.0417 66.0024C38.0841 65.8682 38.1381 65.7375 38.203 65.6122C38.6671 64.9396 39.1515 64.2268 39.5953 63.5068C39.8845 63.0359 40.1066 62.5178 40.3621 62.0199L40.8803 61.0648C40.9929 60.8958 41.0965 60.7205 41.1898 60.5403C42.4946 57.5873 44.0959 54.7686 45.125 51.6945C45.3926 51.0479 45.7003 50.4189 46.0464 49.8107C46.7191 48.4653 47.3043 47.174 47.9572 45.8755C48.2063 45.3835 48.5258 44.9307 48.9056 44.5301L49.1678 44.6784C49.1007 44.8735 49.0534 45.0686 48.9727 45.2501C48.4388 46.3666 47.9054 47.4876 47.3719 48.6135C47.0354 49.2862 46.6587 50.0125 46.3424 50.7325C45.9454 51.6269 45.6228 52.5555 45.2191 53.4233C44.6875 54.6006 44.1225 55.7576 43.5507 56.9079C42.7839 58.4551 41.9296 59.9685 41.2231 61.5423C40.5401 63.0445 39.6502 64.4439 38.5797 65.6996C38.5135 65.7821 38.431 65.8497 38.3368 65.8983C38.2431 65.947 38.1404 65.9758 38.035 65.9822L38.0417 66.0024ZM-4.33784 73.1397L-4.02156 73.456C-4.06211 73.5569 -4.10895 73.6579 -4.23015 73.9404C-4.33107 73.5768 -4.39146 73.3884 -4.44553 73.1934L-4.33784 73.1397Z" fill="#101A24"/>
</g>
</svg>
